<svg xmlns="http://www.w3.org/2000/svg" xmlns:xlink="http://www.w3.org/1999/xlink" width="975" height="565" viewBox="0 0 975 565">
    <defs>
        <path id="5znp55m9za" d="M42.675 12.901s4.099 23.908 2.282 32.34c-1.817 8.433-16.314 2.44-20.255 4.823-3.94 2.382-7.644 5.984-7.644 5.984L.325 40.814s13.029-8.362 10.149-17.522c-2.881-9.16-2.268-19.391 6.584-22.13 8.853-2.74 23.014-.007 25.617 11.74z"/>
        <path id="uavw3sicvc" d="M97.394 16.851s42.771 52.87 46.854 65.777c4.082 12.907 21.123 83.85 21.123 83.85s7.245 17.988 15.064 18.648c4.266.361 5.733 4.38 5.733 4.38h-34.271s-7.662-19.09-10.515-26.299c-2.854-7.207-21.347-39.198-25.411-53.774-4.066-14.576-6.305-16.244-6.305-16.244L77.973 64.646s-6.81 25.74-12.708 44.787c-5.896 19.047-33.077 65.198-35.508 70.877 0 0 6.132 4.97 7.751 7.258H.592s20.846-56.167 23.691-64.245c2.845-8.08 11.482-31.1 13.225-58.677 1.744-27.58 1.5-52.431 7.03-61.84 5.53-9.408 52.856 14.045 52.856 14.045z"/>
        <path id="l95sr5tl5e" d="M148.669 138.847c-15.438-6.8-53.688-30.825-53.688-30.825-8.914 7.421-37.54 45.55-37.54 45.55-29.944-10.336-49.206-38.15-49.206-38.15 6.647-9.415 35.254-39.415 35.254-39.415-6.245-1.77-46.07-16.113-43.3-30.364C2.96 31.392 20.934.378 20.934.378c7.11.355 14.73 3.528 14.73 3.528C31.115 16.592 29.4 45.643 29.4 45.643c8.765 1.414 42.383 3.976 58.91 12.736 16.526 8.758 37.117 34.625 46.355 46.031 7.629 9.42 30.366 16.71 38.055 18.965-6.96 6.513-15.096 11.79-24.051 15.472z"/>
        <path id="k9f6oizozg" d="M138.42 30.162L13.105 0.141 0.813 52.032 126.129 82.053z"/>
        <path id="0ou44r3y0i" d="M4.743 5.508l-4.07 7.199s16.124 45.92 39.16 82.12c23.036 36.2 35.391 71.38 35.391 71.38h31.062s-30.937-82.35-31.062-85.733C75.1 77.093 63.046.728 63.046.728L4.743 5.508z"/>
        <path id="sd379ijfok" d="M29.664.024h6.259s29.336.74 49.467 21.144c20.132 20.404 24.768 37.077 24.768 37.077s-1.585 5.56-8.79 8.724L75.919 48.065s8.748 23.803 11.319 39.255c0 0-34.282 20.333-62.372 11.979L13.945 22.05.473 18.859S1.288 6.576 29.664.024z"/>
        <path id="w86p94jexm" d="M124.889 26.731L130.585 28.08 138.361 29.922 146.377 86.622 0.885 52.159 13.175 0.27z"/>
        <path id="elhudgxn1o" d="M9.177 6.435s-3.868 3.928-5.785 9.75C3.108 17.047.18 18.25 0 19.189c-.11.574 2.492.861 2.433 1.46-.158 1.594-.121 3.271.191 5.001 1.92 10.612 13.47 11.28 13.47 11.28v6.205s2.483 5.873 8.597 3.115c6.112-2.757 10.08-8.21 10.08-8.21s-4.12-5.752-1.428-14.656c2.692-8.903 4.43-13.32 0-18.893-4.158-5.23-18.648-7.04-24.166 1.944z"/>
        <path id="134oquskfq" d="M16.095 36.93v6.205s2.482 5.873 8.596 3.115c6.112-2.757 10.08-8.21 10.08-8.21s-1.881-2.626-2.27-7.076c-2.766 1.246-7.294-1.396-8.295-4.681-.635 10.773-8.111 10.646-8.111 10.646z"/>
    </defs>
    <g fill="none" fill-rule="evenodd">
        <path fill="#E0EDF6" d="M73.728 557.568H781.728V564.48H73.728z"/>
        <g>
            <path fill="#70CA2C" d="M22.288 143s16.47-30.418 58.774-36.412c42.302-5.993 124.56-11.978 134.63-37.59 10.061-25.61-40.22-20.434-72.828-11.577-32.598 8.856-33.663 2.055-33.042-13.604.612-15.658 28.465-17.174 25.19-34.61C131.739-8.23 95.048.39 87.809 24.224 80.568 48.058 76.702 65.166 65.508 69c-11.195 3.833-37.894 14.021-51.249 32.756C.906 120.489 1 143 1 143h21.288z" transform="translate(758 387)"/>
            <path stroke="#FFF" stroke-linecap="round" stroke-linejoin="round" stroke-width="2.304" d="M0 135s27.728-24.553 56.638-40.059C87.738 78.26 190.986 73.118 204 63" transform="translate(758 387)"/>
            <path stroke="#FFF" stroke-linecap="round" stroke-linejoin="round" stroke-width="2.304" d="M115 12s-8.576 9.516-13.246 23.946C97.084 50.376 91.383 78.125 67 91" transform="translate(758 387)"/>
        </g>
        <g>
            <path fill="#70CA2C" d="M108.336 127.392S75.882 32.827 27.592 6.492C-20.7-19.844 4.747 42.607 38.772 74.119c34.026 31.512 39.964 37.216 39.964 37.216s-45.932-32.996-70.63-18.21c-24.7 14.784 41.98 31.49 100.23 34.267z" transform="translate(0 410.112)"/>
            <path stroke="#FFF" stroke-linecap="round" stroke-linejoin="round" stroke-width="2.304" d="M8.105 6.492s72.255 91.118 100.231 120.9M15.356 100.125s68.781 19.557 91.532 25.713" transform="translate(0 410.112)"/>
        </g>
        <path fill="#F1FFFF" d="M108.288 0L108.288 537.716 782 537.716 884.862 58.524z"/>
        <g>
            <path fill="#A7EAEB" d="M248.215 2.503c-21.052-3.123-42.45-3.123-63.503 0l-6.149 49.062c-18.4 4.227-35.963 11.502-51.963 21.524L87.56 42.745C70.465 55.423 55.335 70.554 42.656 87.648L73 126.688c-10.023 16-17.298 33.564-21.524 51.964l-49.063 6.15c-3.123 21.052-3.123 42.45 0 63.502l49.063 6.15c4.226 18.4 11.501 35.963 21.524 51.963l-30.345 39.04c12.679 17.094 27.81 32.225 44.904 44.904l39.04-30.345c16 10.022 33.563 17.297 51.963 21.524l6.15 49.062c21.052 3.123 42.45 3.123 63.502 0l6.15-49.062c18.4-4.227 35.963-11.502 51.963-21.524l39.04 30.345c17.095-12.68 32.225-27.81 44.903-44.904l-30.344-39.04c10.022-16 17.297-33.564 21.524-51.964l49.063-6.149c3.123-21.053 3.123-42.45 0-63.503l-49.063-6.15c-4.227-18.399-11.502-35.962-21.524-51.962l30.344-39.04c-12.678-17.095-27.808-32.226-44.903-44.904l-39.04 30.344c-16-10.022-33.564-17.297-51.963-21.524l-6.15-49.062zm-31.751 134.722c43.782 0 79.328 35.545 79.328 79.328s-35.546 79.327-79.328 79.327c-43.783 0-79.328-35.544-79.328-79.327s35.545-79.328 79.328-79.328z" transform="translate(27.456 105.792)"/>
            <g transform="translate(27.456 105.792) translate(192.576 175.296)">
                <mask id="cyy9psufpb" fill="#fff">
                    <use xlink:href="#5znp55m9za"/>
                </mask>
                <use fill="#FF8588" xlink:href="#5znp55m9za"/>
                <path fill="#FF6067" d="M9.654 30.314l11.054 8.956c1.915 5.775 4.756 9.161 8.524 10.16 3.768.998-.352 3.758-12.358 8.279L0 38.7l9.654-8.386z" mask="url(#cyy9psufpb)"/>
                <path fill="#1C2458" d="M45.421 8.012s-1.9 9.535-4.983 11.48c-3.083 1.943-2.528 6.1-2.764 8.624 0 0-6.865-2.131-8.827 0-1.962 2.13 2.375 6.676 2.375 6.676s-2.398 3.877-8.349 4.45c-5.951.572-14.98-7.606-14.98-7.606S.236 7.37.326 4.878c.09-2.493 24.021-25.74 45.096 3.134" mask="url(#cyy9psufpb)"/>
            </g>
            <g transform="translate(27.456 105.792) translate(63.552 266.304)">
                <mask id="8e6rnkxjed" fill="#fff">
                    <use xlink:href="#uavw3sicvc"/>
                </mask>
                <use fill="#535EAA" xlink:href="#uavw3sicvc"/>
                <path fill="#424A81" d="M81.756 82.628c-.495-2.1-3.783-17.982-3.783-17.982s-19.16-16.359-23.905-21.278c-4.745-4.919-6.814-2.5-1.533 3.662 5.28 6.162 11.072 14.672 12.73 23.888 1.66 9.216 3.655 26.309 3.655 26.309s13.333-12.499 12.836-14.599z" mask="url(#8e6rnkxjed)"/>
                <path fill="#1C2458" d="M141.916 211.111L207.895 211.111 207.895 179.843 141.916 179.843zM-6.372 207.499L59.607 207.499 59.607 176.231-6.372 176.231z" mask="url(#8e6rnkxjed)"/>
            </g>
            <path fill="#FF8588" d="M127.32 158.645s5.365-5.622 9.817-7.163c4.453-1.543 11.577-11.876 0-12.591-3.584-.545-5.694-7.146-6.62-13.392-.924-6.248-8.879-8.143-14.252-3.68-5.373 4.463 1.345 19.228 2.803 23.996.908 4.22-1.869 8.581-1.869 8.581l10.12 4.249z" transform="translate(27.456 105.792)"/>
            <g transform="translate(27.456 105.792) translate(97.92 151.104)">
                <mask id="c2y8di0hkf" fill="#fff">
                    <use xlink:href="#l95sr5tl5e"/>
                </mask>
                <use fill="#09A5BA" xlink:href="#l95sr5tl5e"/>
                <path fill="#0392A3" d="M99.001 132.93l-4.02-24.908s-6.84-4.219-12.817-6.77c-5.98-2.55-3.293 2.491 0 6.77 3.292 4.278 0 20.749 0 20.749L99 132.93zM22.695 84.035l20.794-8.028s7.558-7.147 10.285-10.558c2.727-3.411-9.79 1.133-14.525 2.35-4.733 1.215-28.805-7.153-28.805-7.153l12.251 23.389z" mask="url(#c2y8di0hkf)"/>
            </g>
        </g>
        <path fill="#E2FAFA" d="M790.69 166.235c5.219.249 10.053 2.818 13.18 7.003 3.126 4.185 4.218 9.55 2.976 14.625l-62.361 254.933c-1.987 8.125-9.45 13.706-17.806 13.316L480.676 444.62c-5.197-.242-10.016-2.786-13.148-6.939-3.134-4.153-4.255-9.485-3.061-14.548 13.105-55.568 49.064-208.04 60.206-255.29 1.934-8.2 9.442-13.857 17.858-13.456 46.69 2.23 193.116 9.22 248.16 11.847z"/>
        <g>
            <g transform="translate(407 255.552) translate(198.144 65.664)">
                <mask id="psw9a70zgh" fill="#fff">
                    <use xlink:href="#k9f6oizozg"/>
                </mask>
                <use fill="#A8E576" xlink:href="#k9f6oizozg"/>
                <path fill="#96D266" d="M66.94 69.33s-5.178-26.332-5.518-29.203c-.338-2.872 14.398 9.011 19.247 8.25 4.849-.762 4.944-1.712 0-13.048C75.726 23.995 28.819 1.65 28.819 1.65l32.578 72.015 5.543-4.336z" mask="url(#psw9a70zgh)"/>
            </g>
            <path fill="#1C2458" d="M295.8 283.022l6.326 7.793 4.804 13.297h-38.15s8.498-5.603 13.026-7.263l-2.993-9.407 16.987-4.42z" transform="translate(407 255.552)"/>
            <g transform="translate(407 255.552) translate(195.84 124.608)">
                <mask id="95jqp6sm3j" fill="#fff">
                    <use xlink:href="#0ou44r3y0i"/>
                </mask>
                <use fill="#535EAA" xlink:href="#0ou44r3y0i"/>
                <path fill="#424A81" d="M41.828 119.929s27.285-54.823 32.178-82.75c4.892-27.925 8.711-48.716-20.527-48.866C24.243-11.838-7.882.728-7.882.728s38.523 109.34 49.71 119.201z" mask="url(#95jqp6sm3j)"/>
            </g>
            <path fill="#1C2458" d="M172.121 283.022l-2.03 7.793-11.245 15.235h-31.04s7.196-5.88 17.333-7.769l6.037-10.393 20.945-4.866z" transform="translate(407 255.552)"/>
            <path fill="#535EAA" d="M247.567 119.35l11.319 5.986s7.483 19.976-28.14 76.956c-40.856 65.348-60.654 88.523-60.654 88.523h-29.456l71.736-155.83 35.195-15.635z" transform="translate(407 255.552)"/>
            <path fill="#FF8588" d="M278.843 96.26s6.552 2.737 7.612 8.725c1.06 5.988-6.057 4.99-9.64 2.024 0 0-2.716 4.49-5.316-4.567-2.601-9.055 7.344-6.181 7.344-6.181z" transform="translate(407 255.552)"/>
            <g transform="translate(407 255.552) translate(171.648 38.016)">
                <mask id="sv2uwmt7wl" fill="#fff">
                    <use xlink:href="#sd379ijfok"/>
                </mask>
                <use fill="#09A5BA" xlink:href="#sd379ijfok"/>
                <path fill="#0392A3" d="M82.026 58.245l-6.107-10.18S58.501 30.478 49.103 25.046c-9.397-5.431-.512 3.613 8.03 13.004 8.54 9.392 19.097 22.223 21.17 24.632 2.074 2.41 11.303 7.481 3.723-4.437zM11.782 33.216l2.163-11.166S9.859 12.36.473 18.859c-9.386 6.5 11.309 14.357 11.309 14.357z" mask="url(#sv2uwmt7wl)"/>
            </g>
            <g transform="translate(407 255.552) translate(47.232 30.144)">
                <mask id="pg3z0ytpin" fill="#fff">
                    <use xlink:href="#w86p94jexm"/>
                </mask>
                <use fill="#A8E576" xlink:href="#w86p94jexm"/>
                <path fill="#96D266" d="M108.204 52.447c.112-2.042.56-5.328 2.303-5.064 0 0 3.775-7.174 8.553-2.154 2.527 2.654 2.11 6.617.794 9.902 1.408.512 2.28.89 2.28.89s.155 15.874-12.855 22.187c-13.01 6.312-22.028-3.933-22.028-3.933.352.353 19.795-21.858 19.795-21.858.381-.001.769.01 1.158.03zM131.141 24.902l4.21 8.119c.545 1.052.893 2.196 1.025 3.373l6.23 55.405 30.012-5.177-23.336-69.779-18.14 8.059z" mask="url(#pg3z0ytpin)"/>
            </g>
            <g transform="translate(407 255.552) translate(172.8)">
                <mask id="v6e5g106wp" fill="#fff">
                    <use xlink:href="#elhudgxn1o"/>
                </mask>
                <use fill="#FF8588" xlink:href="#elhudgxn1o"/>
                <path fill="#1C2458" d="M7.928 4.491s1.494 3.772 5.578 4.842c4.084 1.07 4.284 3.988 4.173 6.784-.112 2.797 2.218 3.54 4.937 2.592 2.718-.947 5.006 1.225 4.321 4.36-.336 1.563-2.767 3.314-2.767 3.314s3.442 6.702 9.652 4.284c6.209-2.418 8.243-24.541 5.4-29.176-2.842-4.634-21.126-4.583-24.294-3.156-3.17 1.426-7 6.156-7 6.156z" mask="url(#v6e5g106wp)"/>
                <use fill="#FF6067" xlink:href="#134oquskfq"/>
            </g>
            <path fill="#FF8588" d="M152.483 81.802s-.18-7.012 2.334-6.633c0 0 3.777-7.173 8.554-2.153 4.777 5.019-.97 14.718-3.422 15.668-2.451.952-7.466-6.882-7.466-6.882z" transform="translate(407 255.552)"/>
            <path fill="#00A9BD" d="M131.562 102.062s9.018 10.245 22.028 3.933c13.01-6.313 12.854-22.186 12.854-22.186s-8.341-3.624-15.086-3.605c0 0-19.445 22.21-19.796 21.858z" transform="translate(407 255.552)"/>
            <path fill="#A8E576" d="M10.666 23.346L25.58 7.023l36.755 8.09c5.356 1.18 9.676 5.126 11.334 10.355L85.04 61.344 59.656 89.129c-3.699 4.049-9.278 5.817-14.635 4.639l-36.754-8.09L.85 62.28l37.982 8.36L54.46 53.533l-7-22.088-36.795-8.099zM390.424 111.954l-6.29-21.193-36.603-8.755c-5.335-1.277-10.945.39-14.717 4.372l-25.884 27.32 10.718 36.077c1.562 5.257 5.81 9.282 11.145 10.558l36.598 8.756 16.889-17.817-37.829-9.048-6.6-22.212 15.937-16.822 36.636 8.764z" transform="translate(407 255.552)"/>
        </g>
        <g>
            <path fill="#F65D5D" d="M8.11.452c4.071 0 7.376 3.305 7.376 7.377 0 4.071-3.305 7.376-7.376 7.376S.733 11.9.733 7.83C.733 3.757 4.039.452 8.11.452z" transform="translate(123.264 16.128)"/>
            <path fill="#F0A513" d="M31.447 2.35c4.073 0 7.378 3.305 7.378 7.377 0 4.072-3.305 7.377-7.378 7.377-4.07 0-7.376-3.305-7.376-7.377 0-4.072 3.305-7.377 7.376-7.377z" transform="translate(123.264 16.128)"/>
            <path fill="#47D30A" d="M54.786 4.249c4.07 0 7.376 3.305 7.376 7.377 0 4.071-3.305 7.376-7.376 7.376-4.072 0-7.378-3.305-7.378-7.376 0-4.072 3.306-7.377 7.378-7.377z" transform="translate(123.264 16.128)"/>
            <path fill="#E2FAFA" d="M587.966 66.225c.16-2.09-.515-4.159-1.88-5.75-1.363-1.593-3.304-2.578-5.395-2.74-12.927-.994-38.486-2.963-51.414-3.96-2.09-.16-4.159.515-5.75 1.88-1.593 1.363-2.578 3.304-2.738 5.395l-.001.004c-.161 2.09.515 4.158 1.879 5.75 1.365 1.593 3.305 2.578 5.396 2.739l51.413 3.96c2.09.162 4.16-.515 5.751-1.879 1.592-1.364 2.577-3.305 2.739-5.396v-.003zM697.775 74.685c.162-2.09-.515-4.158-1.88-5.75-1.364-1.593-3.304-2.577-5.395-2.739l-51.413-3.96c-2.09-.162-4.159.515-5.751 1.879-1.592 1.364-2.577 3.305-2.738 5.396v.003c-.162 2.09.515 4.159 1.879 5.75 1.364 1.593 3.305 2.578 5.396 2.74 12.926.994 38.486 2.963 51.413 3.96 2.09.16 4.159-.515 5.751-1.88 1.592-1.363 2.577-3.304 2.737-5.395l.001-.004z" transform="translate(123.264 16.128)"/>
        </g>
    </g>
</svg>
