<svg xmlns="http://www.w3.org/2000/svg" width="57" height="57" viewBox="0 0 57 57">
    <g fill="none">
        <g fill="#0B1D37">
            <g>
                <path d="M29.167 10.606L20.682 6.47c-.53-3.394-3.5-5.94-7-5.94-3.924 0-7.106 3.182-7.106 7.106v.106l-5.94 2.864c-.106.106-.212.212-.212.424v16.44c0 .212.106.318.212.424l14 6.788h.425l14-6.788c.106-.106.212-.212.212-.424V11.03c.212-.212.106-.318-.106-.424zM28 11.03l-3.818 1.803h-.106l-4.137-2.015c.53-.954.743-2.015.743-3.182V7.53L28 11.03zm-8.379.53l3.606 1.698-2.651 1.272-2.652-1.272c.637-.425 1.167-.955 1.697-1.697zM21 15.38l2.44-1.167v4.773L21 20.152v-4.773zm7.53 11.879L15.38 33.62V18.136l3.182-1.484c.212-.107.318-.425.212-.637-.106-.212-.425-.318-.637-.212l-3.181 1.59-1.273-.635c-.212-.106-.53 0-.637.212-.106.212 0 .53.213.636l1.166.53v15.485L1.273 27.258V11.773l9.97 4.879h.212c.212 0 .318-.107.424-.213.106-.212 0-.53-.212-.636L1.803 11.03l4.455-2.12.318.105c.636 3.288 3.5 5.727 7 5.727 1.166 0 2.227-.318 3.288-.742l3.075 1.485v5.409c0 .106.106.318.213.424.106 0 .106.106.212.106h.212l3.394-1.59c.106-.107.212-.213.212-.425v-5.621l4.136-2.015v15.485h.212z" transform="translate(2.5 12.5) translate(21.212)"/>
                <path d="M5.09 25.455L3.077 24.5c-.212-.106-.53 0-.637.212-.106.212 0 .53.213.636l2.015.955h.212c.212 0 .318-.106.424-.212.106-.212 0-.53-.212-.636zM7 24.182l-3.924-1.91c-.212-.105-.53 0-.637.213-.106.212 0 .53.213.636l3.924 1.91h.212c.212 0 .318-.107.424-.213.106-.212 0-.53-.212-.636z" transform="translate(2.5 12.5) translate(21.212)"/>
            </g>
            <g>
                <path d="M1.167.955L2.545.955M2.545 1.485H1.167c-.319 0-.53-.212-.53-.53 0-.319.211-.53.53-.53h1.378c.319 0 .53.211.53.53 0 .318-.317.53-.53.53z" transform="translate(2.5 12.5) translate(0 6.364)"/>
            </g>
            <g>
                <path d="M1.273.742L2.652.742M2.652 1.167h-1.38c-.317 0-.53-.212-.53-.53 0-.319.213-.53.53-.53h1.38c.318 0 .53.211.53.53 0 .318-.212.53-.53.53z" transform="translate(2.5 12.5) translate(9.545 19.09)"/>
            </g>
            <g>
                <path d="M1.167 1.591L2.545 1.591M2.545 2.015H1.167c-.319 0-.53-.212-.53-.53 0-.318.211-.53.53-.53h1.378c.319 0 .53.212.53.53 0 .318-.317.53-.53.53z" transform="translate(2.5 12.5) translate(8.485 11.667)"/>
            </g>
            <g>
                <path d="M1.485.955L4.879.955M4.879 1.485H1.485c-.318 0-.53-.212-.53-.53 0-.319.212-.53.53-.53h3.394c.318 0 .53.211.53.53 0 .318-.318.53-.53.53z" transform="translate(2.5 12.5) translate(4.242 6.364)"/>
            </g>
            <g>
                <path d="M.636 1.591L3.924 1.591M3.924 2.015H.53c-.318 0-.53-.212-.53-.53 0-.318.212-.53.53-.53h3.394c.318 0 .53.212.53.53 0 .318-.212.53-.53.53z" transform="translate(2.5 12.5) translate(1.06 11.667)"/>
            </g>
            <g>
                <path d="M.742.742L4.03.742M4.03 1.167H.636c-.318 0-.53-.212-.53-.53 0-.319.212-.53.53-.53H4.03c.318 0 .53.211.53.53 0 .318-.212.53-.53.53z" transform="translate(2.5 12.5) translate(13.788 19.09)"/>
            </g>
            <g>
                <path d="M1.379 1.379L2.758 1.379M2.758 1.91h-1.38c-.317 0-.53-.213-.53-.531 0-.318.213-.53.53-.53h1.38c.318 0 .53.212.53.53 0 .318-.212.53-.53.53z" transform="translate(2.5 12.5) translate(5.303 25.455)"/>
            </g>
            <g>
                <path d="M1.061 1.379L4.348 1.379M4.348 1.91H1.061c-.319 0-.53-.213-.53-.531 0-.318.211-.53.53-.53h3.394c.318 0 .53.212.53.53 0 .318-.318.53-.637.53z" transform="translate(2.5 12.5) translate(10.606 25.455)"/>
            </g>
        </g>
        <path fill="#FFF" d="M34.894 1.59c3.288 0 6.045 2.652 6.045 6.046 0 3.288-2.651 6.046-6.045 6.046-3.288 0-6.046-2.652-6.046-6.046.107-3.288 2.758-6.045 6.046-6.045z" transform="translate(2.5 12.5)"/>
        <path fill="#0B1D37" d="M34.894 12.515c.106 0 .318-.106.424-.212.318-.318 3.394-3.5 3.394-5.833 0-2.122-1.697-3.818-3.818-3.818s-3.818 1.696-3.818 3.818c0 2.333 3.076 5.515 3.394 5.833.212.212.318.212.424.212zm0-8.697c1.485 0 2.758 1.273 2.758 2.758 0 1.379-1.697 3.606-2.758 4.666-1.06-1.06-2.758-3.287-2.758-4.666.106-1.591 1.273-2.758 2.758-2.758z" transform="translate(2.5 12.5)"/>
        <path fill="#0B1D37" d="M36.59 6.576c0-.955-.742-1.591-1.59-1.591-.848 0-1.59.742-1.59 1.59 0 .85.742 1.592 1.59 1.592.848 0 1.59-.743 1.59-1.591zm-2.226 0c0-.318.212-.53.53-.53.318 0 .53.212.53.53 0 .318-.212.53-.53.53-.318 0-.53-.318-.53-.53z" transform="translate(2.5 12.5)"/>
    </g>
</svg>
