<?xml version="1.0" encoding="UTF-8"?>
<svg width="30px" height="30px" viewBox="0 0 30 30" version="1.1" xmlns="http://www.w3.org/2000/svg" xmlns:xlink="http://www.w3.org/1999/xlink">
    <!-- Generator: Sketch 55.1 (78136) - https://sketchapp.com -->
    <title>edit</title>
    <desc>Created with Sketch.</desc>
    <defs>
        <polygon id="path-1" points="0.00229007634 0.00104866742 14.9610592 0.00104866742 14.9610592 14.9618782 0.00229007634 14.9618782"></polygon>
    </defs>
    <g id="帳戶資訊" stroke="none" stroke-width="1" fill="none" fill-rule="evenodd">
        <g transform="translate(-1448.000000, -707.000000)" id="群組-19copy">
            <g transform="translate(1448.000000, 707.000000)">
                <rect id="矩形copycopy" stroke="#F5F5F5" x="0.5" y="0.5" width="29" height="29"></rect>
                <g id="pencilcopy" transform="translate(8.000000, 8.000000)">
                    <mask id="mask-2" fill="white">
                        <use xlink:href="#path-1"></use>
                    </mask>
                    <g id="Clip-2"></g>
                    <path d="M13.5587023,3.87614504 L12.5694656,4.86534351 L10.0961832,2.38908397 L11.0854198,1.39969466 C11.2869847,1.19824427 11.6380916,1.19824427 11.8396565,1.39969466 L13.5587023,3.12187023 C13.7664122,3.32954198 13.7664122,3.66843511 13.5587023,3.87614504 Z M5.29312977,12.1509542 L2.81980916,9.67450382 L9.21366412,3.27156489 L11.6869847,5.7478626 L5.29312977,12.1509542 Z M2.24877863,10.8684733 L4.09916031,12.7218321 L1.52209924,13.4486641 L2.24877863,10.8684733 Z M14.4411832,2.23938931 L12.7221374,0.517366412 C12.3862595,0.181450382 11.1739695,-0.45370229 10.2060305,0.517366412 L1.49465649,9.23484733 C1.41832061,9.31118321 1.36332061,9.4028626 1.33587786,9.50664122 L0.0228244275,14.1814885 C-0.0381679389,14.3982443 0.0259541985,14.630229 0.181603053,14.7921756 C0.340381679,14.9539313 0.657938931,14.9814885 0.792290076,14.9509542 L5.46412214,13.6348855 C5.56790076,13.6074427 5.65942748,13.5524427 5.73576336,13.4761069 L14.4411832,4.75847328 C15.1343511,4.06545802 15.1343511,2.93564885 14.4411832,2.23938931 Z" id="Fill-1" fill="#6D7278" mask="url(#mask-2)"></path>
                </g>
            </g>
        </g>
    </g>
</svg>