<svg xmlns="http://www.w3.org/2000/svg" width="40" height="40" viewBox="0 0 40 40">
    <g fill="none" fill-rule="evenodd">
        <circle cx="20.154" cy="20.154" r="19.385" fill="#FFF"/>
        <circle cx="20.154" cy="20.154" r="18.462" fill="#0B1D37"/>
        <path fill="#FFF" d="M17.538 20.615h1.385v6.154c0 .154.154.154.154.154h2.461c.154 0 .154-.154.154-.154v-6.154h1.693c.153 0 .153-.153.153-.153L24 18.308c0-.154 0-.154-.154-.154L23.692 18h-2v-1.385c0-.461.154-.615.616-.615h1.23c.154 0 .154-.154.154-.154v-2c0-.154-.154-.154-.154-.154h-1.692-.154c-.307 0-1.384.154-2.154.923-.923.923-.769 2-.769 2v1.693h-1.538c-.154 0-.154.154-.154.154v2.153h.461"/>
    </g>
</svg>
