<?xml version="1.0" encoding="UTF-8"?>
<svg width="40px" height="40px" viewBox="0 0 40 40" version="1.1" xmlns="http://www.w3.org/2000/svg" xmlns:xlink="http://www.w3.org/1999/xlink">
    <!-- Generator: Sketch 55.1 (78136) - https://sketchapp.com -->
    <title>群組 5</title>
    <desc>Created with Sketch.</desc>
    <g id="頁面-1" stroke="none" stroke-width="1" fill="none" fill-rule="evenodd">
        <g id="群組-5">
            <circle id="橢圓形copy" fill="#FFFFFF" cx="20" cy="20" r="20"></circle>
            <path d="M16.223505,20.4563945 L17.7425165,20.4563945 L17.7425165,26.7741953 C17.7425165,26.8989375 17.8425497,27 17.9660215,27 L20.5415259,27 C20.6649976,27 20.7650309,26.8989375 20.7650309,26.7741953 L20.7650309,20.4861719 L22.5112553,20.4861719 C22.6247941,20.4861719 22.7203075,20.4000937 22.7332717,20.2861523 L22.9984843,17.9602383 C23.0057649,17.8962539 22.9857095,17.8321602 22.9433253,17.7841719 C22.900914,17.7361016 22.8402066,17.7085937 22.776495,17.7085937 L20.7651121,17.7085937 L20.7651121,16.250625 C20.7651121,15.8111016 20.999362,15.58825 21.4613933,15.58825 C21.5272431,15.58825 22.776495,15.58825 22.776495,15.58825 C22.8999667,15.58825 23,15.4871328 23,15.362418 L23,13.2274727 C23,13.1027305 22.8999667,13.001668 22.776495,13.001668 L20.964096,13.001668 C20.9512941,13.0010391 20.9229026,13 20.8810868,13 C20.5665883,13 19.4735302,13.0623711 18.6100667,13.8648828 C17.6533634,14.7542109 17.7863622,15.8190039 17.8181368,16.0036289 L17.8181368,17.7085664 L16.223505,17.7085664 C16.1000333,17.7085664 16,17.8096289 16,17.9343711 L16,20.2305352 C16,20.3552773 16.1000333,20.4563945 16.223505,20.4563945" id="Fill-1拷貝" fill="#87C749"></path>
        </g>
    </g>
</svg>