<svg xmlns="http://www.w3.org/2000/svg" width="40" height="40" viewBox="0 0 40 40">
    <g fill="none" fill-rule="evenodd">
        <circle cx="19.692" cy="20.154" r="19.385" fill="#FFF"/>
        <circle cx="19.692" cy="20.154" r="18.462" fill="#FFF"/>
        <path fill="#0B1D37" fill-rule="nonzero" d="M16.308 11.846c-2.616 0-4.923 2.154-4.923 4.923v6.77c0 2.615 2.153 4.923 4.923 4.923h6.769c2.615 0 4.923-2.154 4.923-4.924V16.77c0-2.615-2.154-4.923-4.923-4.923h-6.77zm0 1.539h6.769c1.846 0 3.385 1.538 3.385 3.384v6.77c0 1.846-1.539 3.384-3.385 3.384h-6.77c-1.845 0-3.384-1.538-3.384-3.385V16.77c0-1.846 1.539-3.384 3.385-3.384zm7.846 1.692c-.308 0-.616.308-.616.615 0 .308.308.616.616.616s.615-.308.615-.616c0-.307-.307-.615-.615-.615zm-4.462.615c-2.461 0-4.461 2-4.461 4.462 0 2.461 2 4.461 4.461 4.461 2.462 0 4.462-2 4.462-4.461 0-2.462-2-4.462-4.462-4.462zm0 1.539c1.693 0 2.923 1.384 2.923 2.923 0 1.538-1.384 2.923-2.923 2.923-1.538 0-2.923-1.385-2.923-2.923 0-1.539 1.231-2.923 2.923-2.923z"/>
    </g>
</svg>
