<svg xmlns="http://www.w3.org/2000/svg" width="40" height="40" viewBox="0 0 40 40">
    <g fill="none" fill-rule="evenodd" transform="translate(1 1)">
        <circle cx="18.608" cy="19.194" r="18.462" fill="#FFF"/>
        <circle cx="18.608" cy="19.194" r="17.582" fill="#0B1D37"/>
        <path fill="#FFF" fill-rule="nonzero" d="M26.886 18.168c0-3.663-3.663-6.74-8.205-6.74s-8.205 2.931-8.205 6.74c0 3.37 2.93 6.008 6.887 6.594.293 0 .586.146.732.44.147.146 0 .586 0 .732 0 0-.146.586-.146.733 0 .146-.147.879.732.44.88-.44 4.689-2.785 6.447-4.836 1.172-1.319 1.758-2.637 1.758-4.103zm-11.428 2.198h-1.612c-.293 0-.44-.146-.44-.44v-3.223c0-.293.147-.44.44-.44.293 0 .44.147.44.44v2.784h1.172c.293 0 .44.147.44.44 0 .293-.294.44-.44.44zm1.612-.44c0 .294-.147.44-.44.44-.293 0-.44-.146-.44-.44v-3.223c0-.293.147-.44.44-.44.293 0 .44.147.44.44v3.224zm3.956 0c0 .147-.147.294-.293.44h-.147c-.146 0-.293 0-.293-.146l-1.612-2.345v2.052c0 .293-.146.44-.44.44-.292 0-.439-.147-.439-.44v-3.224c0-.146.147-.293.293-.44h.147c.146 0 .293 0 .293.147l1.612 2.345v-2.052c0-.293.146-.44.44-.44.292 0 .439.147.439.44v3.224zm2.637-2.05c.293 0 .44.146.44.439 0 .293-.147.44-.44.44h-1.172v.732h1.172c.293 0 .44.147.44.44 0 .293-.147.44-.44.44h-1.612c-.293 0-.44-.147-.44-.44v-3.224c0-.293.147-.44.44-.44h1.612c.293 0 .44.147.44.44 0 .293-.147.44-.44.44h-1.172v.732h1.172z"/>
    </g>
</svg>
