<svg xmlns="http://www.w3.org/2000/svg" width="260" height="198" viewBox="0 0 260 198">
    <g fill="#FFF">
        <g>
            <path d="M49.99 80.921L49.99 46.211 11.108 46.211 11.108 80.921.717 80.921.717 1.054 11.108 1.054 11.108 34.079 49.99 34.079 49.99 1.054 60.38 1.054 60.38 80.921zM85.52 80.92c-3.688 0-7.04-1.01-9.72-3.37-4.358-3.37-6.705-8.087-6.705-14.827 0-6.402 2.011-11.457 6.704-14.827 3.017-2.36 6.369-3.37 9.72-3.37h19.777c-1.341-5.392-5.028-8.088-11.732-8.088H70.101V24.307h23.463c7.039 0 12.402 2.359 16.424 6.402 3.687 4.381 5.698 10.447 5.698 17.86v32.352H85.52zm20.11-24.6H85.52c-4.358 0-6.37 2.022-6.37 6.403 0 4.044 2.012 6.066 6.37 6.066h20.11V56.321zM154.568 80.921L145.853 80.921 122.725 24.307 134.122 24.307 150.546 64.071 166.97 24.307 178.367 24.307zM195.126 57.668c.67 4.044 2.011 7.077 4.693 8.762 2.346 1.685 5.698 2.36 10.39 2.36h19.777v12.13h-20.112c-17.094 0-25.474-9.435-25.474-28.98 0-7.751 1.676-14.49 5.363-20.22 4.358-6.74 10.726-10.11 18.77-10.11 8.045 0 13.743 4.045 17.766 11.458 2.681 5.392 4.357 11.795 4.357 18.535v6.065h-35.53zm13.408-23.926c-7.04 0-11.397 4.044-13.073 12.132h24.47c-2.012-8.088-5.7-12.132-11.397-12.132zM11.108 102.488L11.108 121.359 49.99 121.359 49.99 133.491 11.108 133.491 11.108 169.886.717 169.886.717 90.019 230.656 90.019 230.656 102.151 11.108 102.151z" transform="translate(0 -1) translate(.213)"/>
            <path d="M104.29 169.886c-28.156 0-41.898-9.1-41.898-27.296v-29.318h17.765v29.318c0 6.402 2.346 10.446 7.038 12.805 3.352 1.685 9.05 2.359 17.095 2.359h18.77v-44.482h17.43v56.614h-36.2zM213.226 169.886V142.59c0-7.077-2.01-12.132-6.033-14.491-3.352-2.022-9.385-3.033-17.765-3.033h-17.43v44.483h-17.765v-56.277h34.86c27.485 0 41.228 9.772 41.228 29.318v27.296h-17.095zM140.155 24.307L160.937 24.307 150.546 44.189z" transform="translate(0 -1) translate(.213)"/>
            <g>
                <path d="M62.727 2.022L61.05 4.718c-.335.337-.67 1.01-1.006 2.022H59.04h-1.006l1.34-4.718h1.677 1.676zM.717 6.403h3.687l.335 2.022c1.34-1.348 2.346-2.36 4.358-2.36 2.01 0 3.351 1.012 4.022 2.36 1.34-1.348 2.681-2.36 4.692-2.36 3.352 0 4.693 2.36 4.693 6.067v9.098h-4.693v-8.424c0-2.022-.67-2.696-1.675-2.696-.67 0-1.341.337-2.347 1.348v9.772H9.097v-8.424c0-2.022-.67-2.696-1.676-2.696-.67 0-1.341.337-2.347 1.348v9.772H.382V6.403h.335zM25.186 13.817c0-4.718 3.351-7.751 7.039-7.751 4.357 0 6.368 3.033 6.368 7.077 0 .674 0 1.684-.335 2.021h-8.715c.335 2.022 1.676 2.696 3.687 2.696 1.006 0 2.011-.337 3.017-1.01l1.676 2.695c-1.676 1.011-3.687 1.685-5.363 1.685-4.023.337-7.374-2.696-7.374-7.413zm9.385-1.685c0-1.348-.67-2.696-2.346-2.696-1.341 0-2.347.674-2.682 2.696h5.028zM41.61 6.403h3.687l.335 1.685c1.34-1.348 2.682-2.36 4.693-2.36 3.352 0 4.692 2.36 4.692 6.067v9.098h-4.692V12.47c0-2.022-.67-2.696-1.676-2.696-1.006 0-1.676.337-2.682 1.348v9.772h-4.692V6.403h.335zM62.056 19.208l2.011-3.033c1.341 1.011 2.682 1.685 3.688 1.685 1.34 0 1.675-.337 1.675-1.01 0-1.012-1.34-1.349-3.016-2.023-1.676-.673-3.687-2.021-3.687-4.38 0-2.696 2.346-4.718 5.698-4.718 2.346 0 4.022 1.01 5.363 2.022l-2.011 2.696c-1.006-.674-2.011-1.348-3.017-1.348-1.005 0-1.676.337-1.676 1.01 0 1.012 1.34 1.349 3.017 1.686 1.676.674 4.022 1.685 4.022 4.38 0 2.696-2.011 4.718-6.033 4.718-2.347.674-4.693-.337-6.034-1.685zM90.212 15.501V6.403h4.693v8.424c0 2.022.67 2.696 1.676 2.696 1.005 0 1.676-.337 2.346-1.348V6.403h4.693V21.23h-3.687l-.336-2.022c-1.34 1.348-2.681 2.36-4.692 2.36-3.352 0-4.693-2.36-4.693-6.067zM107.307 6.403h3.687l.335 1.685c1.34-1.348 2.682-2.36 4.693-2.36 3.352 0 4.692 2.36 4.692 6.067v9.098h-4.692V12.47c0-2.022-.67-2.696-1.676-2.696-1.006 0-1.676.337-2.682 1.348v9.772h-4.692V6.403h.335zM123.396 13.817c0-4.718 3.017-7.751 6.033-7.751 1.676 0 2.682.674 3.687 1.685l-.335-2.36V.338h4.693v20.556h-3.687l-.336-1.348c-1.005 1.011-2.346 1.685-3.687 1.685-4.022.337-6.368-2.696-6.368-7.413zm9.385 2.695v-5.728c-.67-.674-1.34-1.011-2.346-1.011-1.341 0-2.347 1.348-2.347 4.044 0 2.695 1.006 4.043 2.347 4.043 1.005-.337 2.01-.674 2.346-1.348zM140.49 13.817c0-4.718 3.352-7.751 7.04-7.751 4.357 0 6.368 3.033 6.368 7.077 0 .674 0 1.684-.335 2.021h-8.715c.335 2.022 1.676 2.696 3.687 2.696 1.006 0 2.011-.337 3.017-1.01l1.676 2.695c-1.676 1.011-3.687 1.685-5.363 1.685-4.358.337-7.375-2.696-7.375-7.413zm9.386-1.685c0-1.348-.67-2.696-2.347-2.696-1.34 0-2.346.674-2.681 2.696h5.028zM156.58 6.403h3.687l.335 2.696c1.005-2.022 2.681-3.033 4.022-3.033 1.006 0 1.34 0 1.676.337l-.67 4.044c-.67 0-1.006-.337-1.676-.337-1.006 0-2.347.674-3.017 2.696v8.424h-4.693V6.403h.335zM167.64 6.403h4.693l1.341 6.74c.335 1.347.335 3.032.67 4.38.336-1.348.336-3.033 1.006-4.38l1.34-6.74h4.023l1.676 6.74c.335 1.347.67 3.032 1.006 4.38.335-1.348.335-3.033.67-4.38l1.34-6.74h4.358l-3.352 14.827h-5.363l-1.34-5.729c-.336-1.347-.67-2.695-.67-4.38-.336 1.685-.336 3.033-.671 4.38l-1.341 5.73h-5.363l-4.022-14.828zM190.769 13.817c0-4.718 3.352-7.751 7.039-7.751 4.357 0 6.368 3.033 6.368 7.077 0 .674 0 1.684-.335 2.021h-8.715c.335 2.022 1.676 2.696 3.687 2.696 1.006 0 2.011-.337 3.017-1.01l1.676 2.695c-1.676 1.011-3.687 1.685-5.363 1.685-4.358.337-7.374-2.696-7.374-7.413zm9.385-1.685c0-1.348-.67-2.696-2.346-2.696-1.341 0-2.347.674-2.682 2.696h5.028zM205.852 16.85c0-3.033 2.347-4.718 8.045-5.392 0-1.348-.67-2.022-2.347-2.022-1.005 0-2.346.337-3.687 1.348l-1.676-3.033c2.012-1.011 4.023-2.022 6.369-2.022 3.687 0 6.033 2.022 6.033 6.74v8.424h-3.687l-.335-1.348c-1.34 1.011-2.681 1.685-4.357 1.685-2.682.337-4.358-1.685-4.358-4.38zm8.045-.338v-2.358c-3.017.336-3.687 1.347-3.687 2.358 0 1.011.67 1.348 1.676 1.348 1.005 0 1.34-.337 2.01-1.348zM222.276 6.403h3.688l.335 2.696c1.005-2.022 2.681-3.033 4.022-3.033 1.006 0 1.34 0 1.676.337l-.67 4.044c-.67 0-1.006-.337-1.676-.337-1.006 0-2.347.674-3.017 2.696v8.424h-4.693V6.403h.335z" transform="translate(0 -1) translate(.213) translate(0 177.3)"/>
            </g>
            <g>
                <path d="M14.841 18.578l-3.016-5.392H9.813v5.392h-2.01V5.435h4.357c2.681 0 4.692 1.011 4.692 3.707 0 2.022-1.005 3.37-2.681 3.707l3.017 5.392H14.84v.337zm-5.028-6.74h2.012c2.01 0 3.016-.674 3.016-2.359s-1.005-2.022-3.016-2.022H9.813v4.381z" transform="translate(0 -1) translate(.213) translate(235.926 3.37)"/>
                <path d="M11.825 23.97C5.455 23.97.093 18.915.093 12.175S5.12.38 11.825.38c6.368 0 11.731 5.055 11.731 11.795S18.528 23.97 11.825 23.97zm0-20.894c-5.028 0-9.05 4.044-9.05 9.1 0 5.054 4.022 9.098 9.05 9.098 5.027 0 9.05-4.044 9.05-9.099.335-4.718-3.687-9.099-9.05-9.099z" transform="translate(0 -1) translate(.213) translate(235.926 3.37)"/>
            </g>
        </g>
        <g>
            <g>
                <path d="M62.727 2.022L61.05 4.718c-.335.337-.67 1.01-1.006 2.022H59.04h-1.006l1.34-4.718h1.677 1.676zM.717 6.403h3.687l.335 2.022c1.34-1.348 2.346-2.36 4.358-2.36 2.01 0 3.351 1.012 4.022 2.36 1.34-1.348 2.681-2.36 4.692-2.36 3.352 0 4.693 2.36 4.693 6.067v9.098h-4.693v-8.424c0-2.022-.67-2.696-1.675-2.696-.67 0-1.341.337-2.347 1.348v9.772H9.097v-8.424c0-2.022-.67-2.696-1.676-2.696-.67 0-1.341.337-2.347 1.348v9.772H.382V6.403h.335zM25.186 13.817c0-4.718 3.351-7.751 7.039-7.751 4.357 0 6.368 3.033 6.368 7.077 0 .674 0 1.684-.335 2.021h-8.715c.335 2.022 1.676 2.696 3.687 2.696 1.006 0 2.011-.337 3.017-1.01l1.676 2.695c-1.676 1.011-3.687 1.685-5.363 1.685-4.023.337-7.374-2.696-7.374-7.413zm9.385-1.685c0-1.348-.67-2.696-2.346-2.696-1.341 0-2.347.674-2.682 2.696h5.028zM41.61 6.403h3.687l.335 1.685c1.34-1.348 2.682-2.36 4.693-2.36 3.352 0 4.692 2.36 4.692 6.067v9.098h-4.692V12.47c0-2.022-.67-2.696-1.676-2.696-1.006 0-1.676.337-2.682 1.348v9.772h-4.692V6.403h.335zM62.056 19.208l2.011-3.033c1.341 1.011 2.682 1.685 3.688 1.685 1.34 0 1.675-.337 1.675-1.01 0-1.012-1.34-1.349-3.016-2.023-1.676-.673-3.687-2.021-3.687-4.38 0-2.696 2.346-4.718 5.698-4.718 2.346 0 4.022 1.01 5.363 2.022l-2.011 2.696c-1.006-.674-2.011-1.348-3.017-1.348-1.005 0-1.676.337-1.676 1.01 0 1.012 1.34 1.349 3.017 1.686 1.676.674 4.022 1.685 4.022 4.38 0 2.696-2.011 4.718-6.033 4.718-2.347.674-4.693-.337-6.034-1.685zM90.212 15.501V6.403h4.693v8.424c0 2.022.67 2.696 1.676 2.696 1.005 0 1.676-.337 2.346-1.348V6.403h4.693V21.23h-3.687l-.336-2.022c-1.34 1.348-2.681 2.36-4.692 2.36-3.352 0-4.693-2.36-4.693-6.067zM107.307 6.403h3.687l.335 1.685c1.34-1.348 2.682-2.36 4.693-2.36 3.352 0 4.692 2.36 4.692 6.067v9.098h-4.692V12.47c0-2.022-.67-2.696-1.676-2.696-1.006 0-1.676.337-2.682 1.348v9.772h-4.692V6.403h.335zM123.396 13.817c0-4.718 3.017-7.751 6.033-7.751 1.676 0 2.682.674 3.687 1.685l-.335-2.36V.338h4.693v20.556h-3.687l-.336-1.348c-1.005 1.011-2.346 1.685-3.687 1.685-4.022.337-6.368-2.696-6.368-7.413zm9.385 2.695v-5.728c-.67-.674-1.34-1.011-2.346-1.011-1.341 0-2.347 1.348-2.347 4.044 0 2.695 1.006 4.043 2.347 4.043 1.005-.337 2.01-.674 2.346-1.348zM140.49 13.817c0-4.718 3.352-7.751 7.04-7.751 4.357 0 6.368 3.033 6.368 7.077 0 .674 0 1.684-.335 2.021h-8.715c.335 2.022 1.676 2.696 3.687 2.696 1.006 0 2.011-.337 3.017-1.01l1.676 2.695c-1.676 1.011-3.687 1.685-5.363 1.685-4.358.337-7.375-2.696-7.375-7.413zm9.386-1.685c0-1.348-.67-2.696-2.347-2.696-1.34 0-2.346.674-2.681 2.696h5.028zM156.58 6.403h3.687l.335 2.696c1.005-2.022 2.681-3.033 4.022-3.033 1.006 0 1.34 0 1.676.337l-.67 4.044c-.67 0-1.006-.337-1.676-.337-1.006 0-2.347.674-3.017 2.696v8.424h-4.693V6.403h.335zM167.64 6.403h4.693l1.341 6.74c.335 1.347.335 3.032.67 4.38.336-1.348.336-3.033 1.006-4.38l1.34-6.74h4.023l1.676 6.74c.335 1.347.67 3.032 1.006 4.38.335-1.348.335-3.033.67-4.38l1.34-6.74h4.358l-3.352 14.827h-5.363l-1.34-5.729c-.336-1.347-.67-2.695-.67-4.38-.336 1.685-.336 3.033-.671 4.38l-1.341 5.73h-5.363l-4.022-14.828zM190.769 13.817c0-4.718 3.352-7.751 7.039-7.751 4.357 0 6.368 3.033 6.368 7.077 0 .674 0 1.684-.335 2.021h-8.715c.335 2.022 1.676 2.696 3.687 2.696 1.006 0 2.011-.337 3.017-1.01l1.676 2.695c-1.676 1.011-3.687 1.685-5.363 1.685-4.358.337-7.374-2.696-7.374-7.413zm9.385-1.685c0-1.348-.67-2.696-2.346-2.696-1.341 0-2.347.674-2.682 2.696h5.028zM205.852 16.85c0-3.033 2.347-4.718 8.045-5.392 0-1.348-.67-2.022-2.347-2.022-1.005 0-2.346.337-3.687 1.348l-1.676-3.033c2.012-1.011 4.023-2.022 6.369-2.022 3.687 0 6.033 2.022 6.033 6.74v8.424h-3.687l-.335-1.348c-1.34 1.011-2.681 1.685-4.357 1.685-2.682.337-4.358-1.685-4.358-4.38zm8.045-.338v-2.358c-3.017.336-3.687 1.347-3.687 2.358 0 1.011.67 1.348 1.676 1.348 1.005 0 1.34-.337 2.01-1.348zM222.276 6.403h3.688l.335 2.696c1.005-2.022 2.681-3.033 4.022-3.033 1.006 0 1.34 0 1.676.337l-.67 4.044c-.67 0-1.006-.337-1.676-.337-1.006 0-2.347.674-3.017 2.696v8.424h-4.693V6.403h.335z" transform="translate(0 -1) translate(.213 3) translate(0 174.3)"/>
            </g>
            <g>
                <path d="M14.841 18.578l-3.016-5.392H9.813v5.392h-2.01V5.435h4.357c2.681 0 4.692 1.011 4.692 3.707 0 2.022-1.005 3.37-2.681 3.707l3.017 5.392H14.84v.337zm-5.028-6.74h2.012c2.01 0 3.016-.674 3.016-2.359s-1.005-2.022-3.016-2.022H9.813v4.381z" transform="translate(0 -1) translate(.213 3) translate(235.926 .37)"/>
                <path d="M11.825 23.97C5.455 23.97.093 18.915.093 12.175S5.12.38 11.825.38c6.368 0 11.731 5.055 11.731 11.795S18.528 23.97 11.825 23.97zm0-20.894c-5.028 0-9.05 4.044-9.05 9.1 0 5.054 4.022 9.098 9.05 9.098 5.027 0 9.05-4.044 9.05-9.099.335-4.718-3.687-9.099-9.05-9.099z" transform="translate(0 -1) translate(.213 3) translate(235.926 .37)"/>
            </g>
        </g>
    </g>
</svg>
