<svg xmlns="http://www.w3.org/2000/svg" xmlns:xlink="http://www.w3.org/1999/xlink" width="690" height="400" viewBox="0 0 690 400">
    <defs>
        <path id="a" d="M.224.721h524.562v283.063H.224z"/>
        <path id="c" d="M.54 3.558c-.998.537 5.147 11.268 9.042 10.956 2.936-.236 7.132-4.244 10.021-7.716C21.072 5.033 16.425.856 15.314.66 13.71.379 12.325.194 10.961.194c-2.903 0-5.72.838-10.42 3.364"/>
        <linearGradient id="d" x1="26.386%" x2="214.291%" y1="20.628%" y2="196.257%">
            <stop offset="0%" stop-color="#FFCFCD"/>
            <stop offset="100%" stop-color="#F4AAA7"/>
        </linearGradient>
        <path id="f" d="M.372.468h15.567v18.447H.372z"/>
    </defs>
    <g fill="none" fill-rule="evenodd">
        <path fill="#E3EDF5" d="M75 388.658h526.237v-6.575H75z"/>
        <g transform="translate(78.068 8.376)">
            <mask id="b" fill="#fff">
                <use xlink:href="#a"/>
            </mask>
            <path fill="#DCFAFB" d="M441.478 166.433c-7.523-68.564-58.443-108.755-122.877-90.922-79.91-126.796-245.708-85.717-255.784 73.036-58.964 15.722-81.857 79.417-44.242 135.237H519.73c15.158-68.19-1.769-108.446-78.253-117.35" mask="url(#b)"/>
        </g>
        <path fill="#AFF9F5" d="M236.857 230.453H212.25a2.203 2.203 0 0 1-2.203-2.203v-32.389c0-1.216.986-2.202 2.203-2.202h32.137c1.215 0 2.201.985 2.203 2.2l.02 18.19a2.203 2.203 0 0 1-2.2 2.206h-.003a2.203 2.203 0 0 1-2.203-2.2l-.018-15.991h-27.734v27.985h22.404a2.202 2.202 0 1 1 0 4.404"/>
        <path fill="#AFF9F5" d="M218.93 200.129a2.203 2.203 0 0 1-2.203-2.202v-5.29a2.203 2.203 0 0 1 4.406 0v5.29a2.203 2.203 0 0 1-2.203 2.202M237.596 200.129a2.203 2.203 0 0 1-2.203-2.202v-5.29a2.203 2.203 0 0 1 4.406 0v5.29a2.203 2.203 0 0 1-2.203 2.202M244.388 205.817H212.25a2.202 2.202 0 1 1 0-4.404h32.137a2.202 2.202 0 1 1 0 4.404M244.408 216.255c-3.808 0-6.905 3.097-6.905 6.903 0 3.806 3.097 6.903 6.905 6.903 3.807 0 6.905-3.097 6.905-6.903 0-3.806-3.098-6.903-6.905-6.903m0 18.21c-6.237 0-11.31-5.072-11.31-11.307s5.073-11.307 11.31-11.307 11.31 5.072 11.31 11.307-5.073 11.308-11.31 11.308"/>
        <path fill="#AFF9F5" d="M246.63 227.58a2.194 2.194 0 0 1-1.558-.644l-2.222-2.22a2.204 2.204 0 0 1-.645-1.557v-3.986a2.203 2.203 0 0 1 4.406 0v3.072l1.576 1.576a2.201 2.201 0 0 1-1.558 3.76M221.355 216.083h3.48v-3.48h-3.48v3.48zm5.683 4.405h-7.886a2.202 2.202 0 0 1-2.202-2.202v-7.884c0-1.216.986-2.202 2.202-2.202h7.886c1.217 0 2.203.986 2.203 2.202v7.884a2.203 2.203 0 0 1-2.203 2.202z"/>
        <path fill="#AFF9F5" d="M236.857 229.941H212.25a2.203 2.203 0 0 1-2.203-2.202v-32.39c0-1.215.986-2.201 2.203-2.201h32.137c1.215 0 2.201.985 2.203 2.2l.02 18.19a2.203 2.203 0 0 1-2.2 2.206h-.003a2.203 2.203 0 0 1-2.203-2.2l-.018-15.991h-27.734v27.984h22.404a2.202 2.202 0 1 1 0 4.404"/>
        <path fill="#AFF9F5" d="M218.93 199.618a2.202 2.202 0 0 1-2.203-2.202v-5.29a2.203 2.203 0 0 1 4.406 0v5.29a2.202 2.202 0 0 1-2.203 2.202M237.596 199.618a2.202 2.202 0 0 1-2.203-2.202v-5.29a2.203 2.203 0 0 1 4.406 0v5.29a2.202 2.202 0 0 1-2.203 2.202M244.388 205.306H212.25a2.202 2.202 0 1 1 0-4.405h32.137a2.202 2.202 0 1 1 0 4.405M244.408 215.744c-3.808 0-6.905 3.097-6.905 6.903 0 3.806 3.097 6.903 6.905 6.903 3.807 0 6.905-3.097 6.905-6.903 0-3.806-3.098-6.903-6.905-6.903m0 18.21c-6.237 0-11.31-5.072-11.31-11.307s5.073-11.307 11.31-11.307 11.31 5.072 11.31 11.307-5.073 11.307-11.31 11.307"/>
        <path fill="#AFF9F5" d="M246.63 227.07a2.194 2.194 0 0 1-1.558-.645l-2.222-2.22a2.204 2.204 0 0 1-.645-1.558v-3.985a2.203 2.203 0 0 1 4.406 0v3.072l1.576 1.576a2.201 2.201 0 0 1-1.558 3.76M221.355 215.572h3.48v-3.48h-3.48v3.48zm5.683 4.405h-7.886a2.202 2.202 0 0 1-2.202-2.202v-7.884c0-1.217.986-2.202 2.202-2.202h7.886c1.217 0 2.203.985 2.203 2.202v7.884a2.203 2.203 0 0 1-2.203 2.202z"/>
        <path fill="#004381" d="M376.6 110.984c-.762 4.076 1.65 4.809 2.939 4.841 7.18.182 13.34-22.995 3.365-22.676-6.826.218-5.482 13.44-6.304 17.835"/>
        <path fill="#FFD0CE" d="M402.39 227.644c-.006-.189.096-.26.092-.313-.01-.11-.284-.128-.327-.232-.168-.41.18-.839.516-1.004.992-.488 2.152-.719 3.235-.616.377.036 2.902-1.058 2.902-1.058s-3.372-.145-5.587.816c-.618.268-1.704.017-.32-1.286 1.825-1.717 7.003-2.043 9.25-3.184 3.162-1.606 6.489-6.226 9.621-5.842 5.995.737 6.515 2.044 8.204 3.674.002.003.203.79 1.19 1.278.634.313-3.561 3.626-7.743 3.838-.595-.025-.986 1.214-4.462 3.307-2.378 1.433-4.306 1.121-5.189 1.546-3.391 1.63-5.393.844-6.243 1.092-.885.258-1.264-.407-.56-.854 1.098-.697 2.95-.661 2.95-.661s-2.686.332-3.387.516c-.447.118-2.134-.354-2.894-.295-.178.014-1.23-.21-1.248-.722"/>
        <path fill="#0096C6" d="M461.411 171.17c-3.654 6.233-17.046 22.265-17.046 22.265l-22.45 18.773 3.265 9.61s3.447-.727 5.804-1.658c10.374-4.098 21.97-15.937 25.824-18.727 1.643-1.188 9.972-14.507 12.944-25.109.608-2.169-3.49-13.425-8.34-5.153"/>
        <path fill="#F46C6C" d="M470.782 349.51c2.544-11.45 13.952-38.05 13.424-49.773-.104-2.299-3.503-61.98-3.503-61.98l-23.88-1.175s1.726 72.24 1.531 78.58c-.333 10.857 2.83 46.654 2.25 49.989-3.034 3.644-6.395 12.136-6.395 12.136s-7.436 1.791-7.316 2.996c0 0 8.312 1.695 10.39.87 2.685-1.069 5.517-5.784 7.978-7.299.671-.412 3.932-.516 3.866-1.301-.435-5.216.99-17.688 1.655-23.043"/>
        <path fill="#003977" d="M469.31 365.679c-.261.033-2.691 2.41-3.406 3.335-2.181 2.827-4.836 6.135-10.646 5.285-.747.927-1.482 2.17-1.482 2.17s-7.003 2.61-6.882 3.814c0 0 8.696 1.619 10.773.792 2.686-1.067 5.133-5.706 7.594-7.22.156-.096.457-.176.82-.25l-.313 7.003.744.007s2.225-5.67 2.957-7.531c.088-.223.547-2.77-.16-7.405"/>
        <path fill="#FE8D8C" d="M491.135 311.078c0-5.624-1.429-18.108-1.429-18.108l-19.248 2.985s.224 18.866.297 25.208c.124 10.86.466 44.434.027 47.79-2.877 3.769-5.876 12.395-5.876 12.395s-7.355 2.103-7.183 3.302c0 0 8.375 1.342 10.416.43 2.638-1.18 5.268-6.011 7.664-7.627.653-.441 3.906-.682 3.808-1.464-.533-4.225-.319-12.687 2.06-20.526 1.126-3.709 9.464-29.61 9.464-44.385"/>
        <path fill="#003977" d="M479.503 369.113c-.259.044-2.587 2.521-3.262 3.477-2.06 2.915-4.573 6.332-10.413 5.728-.708.957-1.389 2.23-1.389 2.23s-6.888 2.903-6.716 4.102c0 0 8.757 1.25 10.798.338 2.638-1.18 4.886-5.919 7.282-7.536.152-.102.449-.193.807-.284l-.016 7.01.744-.024s1.984-5.759 2.637-7.65c.078-.225.43-2.79-.472-7.391"/>
        <path fill="#00649F" d="M496.21 134.097c5.764-.58 9.066-6.104 8.457-10.827-.583-4.516-7.196-8.303-12.643-6.333-3.118 1.129-4.867 5.424-4.41 9.225.513 4.283 1.41 8.659 8.597 7.935"/>
        <g transform="translate(465.155 157.652)">
            <mask id="e" fill="#fff">
                <use xlink:href="#c"/>
            </mask>
            <path fill="url(#d)" d="M.54 3.558c-.998.537 5.147 11.268 9.042 10.956 2.936-.236 7.132-4.244 10.021-7.716C21.072 5.033 16.425.856 15.314.66 13.71.379 12.325.194 10.961.194c-2.903 0-5.72.838-10.42 3.364" mask="url(#e)"/>
        </g>
        <g>
            <path fill="#FE8D8C" d="M467.978 146.148s10.785-4.202 10.68-1.477c-.298 7.796.49 15.123.49 15.123a5.512 5.512 0 0 1-5.703 5.315c-3.043-.107-4.7-1.46-5.316-5.701-.46-3.167-1.45-6.302-.665-12.781.033-.272.24-.489.514-.479"/>
            <path fill="#FE8D8C" d="M482.65 139.893c-1.576 7.84-8.224 9.715-13.448 9.894-2.081.072-5.633-.696-7.056-1.414-1.813-.915-2.68-4.766-1.668-10.186.01-.055-1.194-.683-1.807-.999a.883.883 0 0 1-.1-1.51c.988-.695 3.594-2.97 3.805-3.69 2.31-7.863 7.298-11.05 13.152-9.713 5.853 1.337 8.738 9.584 7.123 17.618"/>
            <path fill="#00649F" d="M493.027 124.245c-1.64-3.053-11.807-8.604-21.082-6.916-9.493 1.727-11.479 12.638-10.173 11.865 2.166-1.282 1.334-.042 3.134-1.498.439-.355 1.16-2.029 1.16-2.029l-3.183 3.808s2.692-.157 4.632-1.642c1.173-.898 3.217-3.29 3.217-3.29s7.433 5.985 8.582 12.932c.53 3.21-1.12 9.154-.712 9.346 1.05.492 4.686-.642 7.815-2.036 1.744-.777 3.786-3.263 4.922-4.543 4.378-4.937 3.029-13.5 1.688-15.997M490.053 119.14c1.15-1.096 2.35-2.32 3.926-2.779 2.623-.762 3.942 1.018 5.932 2.17.326.188.634-.24.392-.509-2.666-2.965-8.946-3.463-10.565.934-.069.186.187.305.315.184"/>
            <path fill="#00649F" d="M489.436 119.57c.841-1.385 1.81-2.792 3.225-3.662 3.005-1.848 5.414.37 7.488 2.336.12.114.348-.04.24-.185-1.68-2.247-4.366-3.865-7.212-2.862-1.638.578-3.957 2.413-4.026 4.296-.006.156.21.203.285.077M470.563 122.85c-.071 3.523 1.637 5.864 4.56 7.638 1.573.954 2.586 1.617 3.308 3.405.59 1.457 1.045 2.239 2.507 3.031.292.16.601-.221.36-.465-1.265-1.277-1.626-2.336-2.386-3.855-.467-.936-1.095-1.501-1.961-2.06-3.239-2.09-5.413-3.638-6.185-7.721-.022-.117-.2-.086-.203.027"/>
            <path fill="#0096C6" d="M456.28 204.763s-6.954 6.4-11.164 18.668c-5.988 17.45-9 34.097-9.072 58.963-.026 9.208-.759 20.853-.759 20.853s4.223-.28 21.294 7.705c5.569 2.604 17.673 2.222 27.644-.408 4.98-1.312 8.735.001 11.556-.64 2.929-.664 6.903-4.217 10.719-5.42 11.487-3.62 12.334-6.4 12.334-6.4s-7.946-64.07-19.09-80.063c-2.888-4.146-12.756-15.201-12.756-15.201l-30.705 1.943z"/>
            <path fill="#00ADD6" d="M457.11 190.37s-1.069 4.313-1.288 5.776c-.257 1.719-.543 6.931-.543 6.931l16.023 1.33 17.19-2.08s2.37-5.516 2.625-11.586c.275-6.548-1.215-25.95-1.215-25.95l-9.593-9.086-14.358 7.143-12.482 15.563c-1.463 5.23 3.641 11.96 3.641 11.96"/>
            <path fill="#DCFAFB" d="M468.229 160.016l-.489 1.891s3.846-2.986 4.888-3.61c1.665-.994 4.506-2.537 5.37-3.785.482-.697.738-2.633.738-2.633s1.552 1.225 1.855 1.795c.436.82 1.06 2.169.666 3.01-1.43 3.059-9.975 8.235-10.77 8.963-.424.388-1.374.463-1.981.015-.573-.421-.848-2.221-.848-2.221l-12.127 14.585-.384-.256 11.537-14.505s-2.502.71-2.737.661c-.267-.054-.425-.278-.353-.5l1.181-1.929c.128-.24 2.93-3.05 3.185-3.144l.269 1.663z"/>
            <path fill="#EA659D" d="M455.279 205.79s11.846 1.488 16.172 1.207c5.27-.344 17.064-2.478 17.064-2.478l-.022-2.193s-11.57 1.084-17.042 1.518c-4.509.358-16.172-.767-16.172-.767v2.713z"/>
            <path fill="#F46C6C" d="M360.954 144.703l11.591 1.931 8.4-4.051-.374-13.49 1.514-14.17-3.628-2.828-12.056-.56z"/>
            <path fill="#FE8D8C" d="M362.485 123.984c2.336-.072 5.687-1.099 7.845-1.49 3.893-.705 5.492-.974 5.857-3.77l3.19-21.9-17.924-1.503-1.19 10.508c-.068.373-1.672 2.748-4.112 5.332-.621.657-.24 1.056.018 1.216.77.477 2.911.738 2.911.738s-.175 3.703-.432 6.7c-.248 2.905.78 4.264 3.837 4.17"/>
            <path fill="#B4F1F4" d="M359.444 140.411s6.556 5.089 18.281 2.256l-6.12 40.363 1.324 33.427-.414 2.15-28.73-2.395 9.37-47.563 6.289-28.238z"/>
            <g transform="translate(362.886 371.852)">
                <mask id="g" fill="#fff">
                    <use xlink:href="#f"/>
                </mask>
                <path fill="#00A6BA" d="M13.807 18.686c-1.656.117-6.399.542-8.373-.188-.78-.29-2.408-3.933-3.414-6.333C1.67 11.328.224 9.462.384 8.559L1.449.468 11.533 2.15s.116 1.773.442 3.364c.224 1.099 1.51 6.785 2.254 7.622 2.731 3.071 1.89 5.386-.422 5.55" mask="url(#g)"/>
            </g>
            <path fill="#00A6BA" d="M349.882 365.046l1.922 2.595a12.386 12.386 0 0 1 2.058 6.838v.985L344.685 379l-4.313 3.757a3.837 3.837 0 0 1-2.101.92l-10.205.664c-1.225.135-2.97.345-3.996-.34 0 0-.371-.173-.432-.287a4.364 4.364 0 0 1 3.05-4.162l2.646-.836a9.657 9.657 0 0 0 5.73-4.889l3.686-6.746 11.132-2.034z"/>
            <path fill="#00A6BA" d="M352.788 380.094l1.074-4.63-9.177 3.535.752 2.18z"/>
            <path fill="#4674A5" d="M385.343 217.57l4.577 31.453s-5.156 55.048-5.504 56.88c-1.777 9.356-.852 21.806-1.41 27.954-.968 10.677-6.512 42.307-6.512 42.307h-13.927s.479-33.026 1.742-43.352c.75-6.14-1.806-31.233-1.806-41.798 0-12.08-4.464-39.075-4.464-39.075s-10.162 43.628-8.765 52.708c3.696 24.013 4.588 64.072 4.588 64.072l-18.82 1.18s-4.098-53.414-7.75-68.432c-.487-1.999-1.33-7.641-1.094-11.81 1.08-19.085 4.44-44.525 4.44-44.525l.616-16.255 10.71-15.909 43.38 4.601z"/>
            <path fill="#00A6BA" d="M404.433 146.966l-23.475-13.456s-13.939 42.9-15.064 55.998c-1.17 13.607 6.375 39.63 11.29 53.621.435 1.24 1.805 2.62 3.04 3.068l.036.013a5.325 5.325 0 0 0 4.712-.532l10.287-6.645s-7.079-29.33-7.536-39.27c-.249-5.448 4.493-22.94 4.493-22.94l12.217-29.857zM362.792 133.51s-2.508 39.183-5.2 51.997c-1.397 6.651-7.884 24.743-9.115 28.15-.134.371-.308.726-.521 1.062l-9.887 15.587c-.928 1.463-3.089.178-4.005-.2-1.317-.544-5.494-1.635-5.494-1.635l11.598-30.392s1.676-10.827 1.763-15.483c.195-10.536-3.178-42.58-3.178-42.58l24.039-6.506z"/>
            <path fill="#00A6BA" d="M341.328 145.365c-1.023-2.3-2.663-5.227-2.663-5.227l-15.135 49.56-9.687 22.576 11.122 3.64s7.783-8.744 10.738-14.226c1.477-2.74 8.905-26.423 9.325-30.762.61-6.312-.928-19.325-3.7-25.56"/>
            <path fill="#005592" d="M360.924 99.994c6.017 1.702 13.582-1.634 19.164-1.862 4.015-.164 4.561-4.317 2.89-6.319-3.499-4.192-8.384-4.526-12.428-4.228-8.52.626-8.167 4.51-13.57 3.176-1.113-.275-2.037-.008-1.883.91.694 4.159 1.277 7.037 5.827 8.323"/>
            <path fill="#88C74A" d="M517.441 223.44c-.637 7.05-5.768 12.347-11.46 11.833L363.39 222.867l2.307-25.527 142.59 12.406c5.693.514 9.791 6.645 9.154 13.694"/>
            <path fill="#DCFAFB" d="M362.986 199.844l-1.81 20.028-39.007-3.523 1.81-20.028z"/>
            <path fill="#EA659D" d="M357.318 227.55l3.257-36.043a3.904 3.904 0 0 1 7.777.703l-3.257 36.042a3.905 3.905 0 0 1-7.777-.702"/>
            <path fill="#FFF" d="M499.443 218.257c-.045 0-.09-.002-.136-.006l-122.772-10.707a1.534 1.534 0 1 1 .267-3.056l122.772 10.708a1.533 1.533 0 0 1-.131 3.06"/>
            <path fill="#FE8D8C" d="M390.023 219.873l-4.92 2.198-5.36 3.296s-1.858 1.646-3.075 1.635c-.819-.007-2.573.62-5.433-.426-.377-.138-1.025.144-1.431-.076-.302-.162-1.542-1.138-1.542-1.138s-1.541-.213-1.821-.511c-.187-.2-.833-1.673-.55-1.767.846-.28 1.54-.214 2.468-1.332 2.3-2.777 4.912-4.243 4.912-4.243s-2.48-.228-3.363.044c-3.293 1.016-4.366-.28-4.692-1.108-.148-.376.044-1.466.044-1.466s4.164-.297 5.52-.587c1.462-.313 2.592-1.513 5.603-1.736.705-.053 6.316.835 6.666.764.35-.072 4.787-1.5 4.787-1.5l2.187 7.953z"/>
            <path fill="#00A6BA" d="M404.433 146.966l-13.806 26.596s10.71 21.755 11.287 25.28c.512 3.123-19.823 13.76-19.823 13.76l5.536 10.992s33.24-17.515 33.24-23.537c0-5.113-11.87-33.232-14.265-43.608-.62-2.688-2.169-9.483-2.169-9.483"/>
            <path fill="#FE8D8C" d="M452.604 215.937c.099-.032 2.37-1.024 3.717-.66 2.69.727 5.7 5.103 8.424 5.697.426.093 1.713.32 1.713.32l4.186 3.658s-1.483 2.406-1.517 2.538c-.032.131-3.657 1.212-4.845.89-1.625-.44-3.592-3.795-5.209-4.265-.945-.275-2.874.74-3.857.804-.33.021-1.038.077-1.319-.099-.115-.073-.296-.46-.296-.46s-1.18.421-1.583.362c-.376-.057-1.318-.759-1.318-.759l5.241-3.526-3.164.593s-1.886.976-2.568.976c-.784 0-1.025-.712-1.025-.712l5.61-3.891s-3.71.695-4.684.19c-.432-.223-.926-.935-.926-.935l3.42-.72z"/>
            <path fill="#00ADD6" d="M484.928 185.158l5.629 20.858-24.606 14.596 2.314 7.827s8.984-1.227 11.679-2.052c4.67-1.43 24.026-11.164 25.039-15.573 1.364-5.936-3.64-30.869-6.775-36.382-.88-1.547-7.35-13.995-12.947-11.168-4.908 2.48-.333 21.894-.333 21.894"/>
            <path fill="#004381" d="M375.546 100.727c.802 4.444.11 8.508 1.36 8.193 1.846-.465 5.722-1.965 6.833-2.18 5.696-1.106 6-14.158-1.87-13.599-3.573.255-7.117 3.188-6.323 7.586"/>
            <path fill="#B6E283" d="M252.59 98.82c54.344 6.123 93.434 55.129 87.31 109.46-6.123 54.33-55.142 93.41-109.486 87.287-54.343-6.122-93.433-55.128-87.309-109.459 6.124-54.33 55.143-93.41 109.486-87.288"/>
            <path fill="#4ACFD3" d="M250.375 118.477c43.485 4.9 74.764 44.113 69.863 87.587-4.9 43.474-44.124 74.745-87.608 69.846-43.485-4.898-74.763-44.112-69.863-87.586 4.9-43.474 44.124-74.746 87.608-69.847"/>
            <path fill="#DCFAFB" d="M313.382 205.292c-4.474 39.688-40.281 68.235-79.98 63.763-39.697-4.472-68.252-40.271-63.779-79.959 4.474-39.69 40.282-68.236 79.98-63.763 39.697 4.472 68.253 40.27 63.779 79.96z"/>
            <path fill="#88C74A" d="M583.574 235.872a.858.858 0 0 0-.872-.842h-.001c-.473.01-.85.4-.842.873.003.125.186 12.723-3.224 31.803-3.149 17.624-10.094 44.506-25.29 72.492-10.11 18.62-21.779 31.749-33.232 40.703h7.944c9.49-8.428 19.134-20.176 28.642-37.687 15.306-28.19 22.02-58.148 25.192-75.895 3.44-19.244 1.686-31.32 1.683-31.447"/>
            <path fill="#88C74A" d="M577.491 280.286c.531-10.046 8.652-27.276 20.627-33.153 10.219-5.015 15.88-11.357 15.88-11.357s.562 8.357-2.037 17.964c-1.747 6.46-8.427 13.828-15.228 15.659-12.094 3.255-19.242 10.887-19.242 10.887M582.154 247.787c-2.928-12.968-7.9-21.235-4.1-33.373 2.875-9.188 3.346-21.12 3.346-21.12s6.903 6.713 10.692 14.82c3.422 7.323 3.002 15.85-.44 22.225-2.482 4.594-9.498 17.448-9.498 17.448M560.828 329.397c5.884-13.522 14.275-35.125 23.636-41.135 10.9-6.997 17.755-7.743 24.259-14.797 0 0-.387 7.276-2.997 19.228-2.359 10.796-8.762 23.333-19.983 25.936-13.993 3.244-24.915 10.768-24.915 10.768"/>
            <path fill="#88C74A" d="M562.42 223.243c5.312 16.858 23.595 34.956 13.953 64.745 0 0-5.737-11.788-11.473-16.705-8.393-7.192-10.072-18.502-8.34-29.247 1.246-7.744 5.86-18.793 5.86-18.793M533.559 380.901c4.825-2.047 10.675-3.674 17.032-3.622 30.023.248 32.047-11.781 50.646-24.462 0 0-18.136-5.642-29.643-7.54-14.8-2.442-23.098 8.573-29.253 14.92-5.503 5.674-11.989 14.383-16.472 20.704h7.69z"/>
            <path fill="#88C74A" d="M527.588 378.437c-5.889-19.943-8.42-37.731-7.874-48.644.823-16.439 7.641-28.9 7.641-28.9s-.48 2.897 10.245 12.499c9.687 8.672 13.226 17.389 11.782 30.112-1.65 14.545-21.794 34.933-21.794 34.933M557.28 336.45c-5.525-16.927-17.433-24.104-15.743-41.522 1.36-14.027-6.19-23.478-6.19-23.478s14.097 3.775 23.51 11.733c8.503 7.187 8.63 13.785 8.685 24.75.076 14.96-10.262 28.516-10.262 28.516"/>
        </g>
        <text fill="#88C74A" font-family="NotoSansTC-Medium, Noto Sans TC" font-size="60" font-weight="400" letter-spacing="6.667" transform="translate(75 8)">
            <tspan x="152" y="217">?</tspan>
        </text>
    </g>
</svg>
