<svg xmlns="http://www.w3.org/2000/svg" xmlns:xlink="http://www.w3.org/1999/xlink" width="690" height="400" viewBox="0 0 690 400">
    <defs>
        <path id="a" d="M.28.126h98.715V98.58H.28z"/>
        <path id="c" d="M0 0h40.981v54.16H.001z"/>
    </defs>
    <g fill="none" fill-rule="evenodd">
        <path fill="#88C74A" d="M485 189.5c0 68.759-55.74 124.5-124.5 124.5-68.76 0-124.5-55.741-124.5-124.5C236 120.74 291.74 65 360.5 65 429.26 65 485 120.74 485 189.5"/>
        <path fill="#FFF" d="M354 367.996l4.95.004L368 255.004l-4.95-.004zM288 367.996l5.226.004L308 255.004l-5.224-.004zM441 349l-5-.002L417 238l4.998.004z"/>
        <path fill="#B52100" d="M353.28 159L319 256.34l43.832 5.66 52.636-25.588L422 178.64a146.448 146.448 0 0 0-27.248-12.287c-13.37-4.436-27.387-6.884-41.472-7.354"/>
        <path fill="#EE4900" d="M433 132.042L362.625 132 353 159.354c14.075.47 28.08 2.919 41.44 7.357A146.099 146.099 0 0 1 421.668 179l3.03-26.819 8.302-20.14z"/>
        <path fill="#FFB500" d="M251.453 366.495a10.963 10.963 0 0 1-4.614 1.525c-.36.036-.723.059-1.088.059l-12.889-.007c-.462-3.328-2.681-6.308-5.67-8.072l-10.16 4.27c-4.984 2.093-8.931 5.925-11.032 10.705l41.79.025c3.927.002 6.867-3.422 6.083-7.083l-.594-2.772-.532.44c-.404.338-.842.638-1.294.91"/>
        <path fill="#706EED" d="M288 235.912L303.259 251l8.741-8.261L297.093 228z"/>
        <path fill="#FF888A" d="M270.775 276.584l-.396-6.926L294 248.22 288.213 236l-22.431 19.882a34.806 34.806 0 0 0-10.899 18.609l-17.429 79.682-9.454 4.2c3.018 1.882 5.26 5.065 5.726 8.62l13.017.007a10.71 10.71 0 0 0 5.759-1.691c.456-.291.896-.611 1.309-.973l.533-.47-2.04-10.068 12.91-32.83 3.202-14.634a109.862 109.862 0 0 0 2.359-29.75"/>
        <path fill="#FB383B" d="M293.776 249.225l-23.611 21.446.395 6.929c.57 9.982-.223 19.996-2.358 29.762L265 322l5.966-15.185a79.825 79.825 0 0 0 5.526-29.14L303 252.132 287.99 237l5.786 12.225z"/>
        <path fill="#5448DD" d="M322.278 205L296 228.307 310.576 243 350 205.017z"/>
        <path fill="#FFB500" d="M376.263 346.97l-1.032 12.38c-.228 2.743-2.587 4.856-5.417 4.854l-3.608-.002a27.62 27.62 0 0 0-6.224.705l-.14.032a9.937 9.937 0 0 1-2.305 1.536l-6.974 3.35c-2.653 1.276-1.722 5.16 1.239 5.162l21.575.013c4.61.004 8.4-3.53 8.59-8.007l1.028-24.274c.132-3.133-2.21-5.852-5.407-6.275l-3.35-.444 1.164 3.577a18.848 18.848 0 0 1 .86 7.394"/>
        <path fill="#FF888A" d="M342.38 261.56c-1.389-5.674-4.174-11.008-8.182-15.238-5.753-6.072-13.855-9.772-22.157-10.322l-30.395 29.356c-10.109 9.762-8.451 26.488 3.376 34.045l76.914 49.147-.006 9.215a9.853 9.853 0 0 1-3.164 7.237l.138-.034a26.499 26.499 0 0 1 6.128-.719l3.554.004c2.787 0 5.11-2.155 5.334-4.954l1.016-12.628a19.844 19.844 0 0 0-.848-7.543l-1.144-3.65-5.153-.707-20.273-21.525a171.055 171.055 0 0 0-28.503-24.283l-6.463-4.384-10.805-4.089 40.634-18.928z"/>
        <path fill="#FB383B" d="M303 280.913L313.904 285 345 268.869c-.09-2.317-.446-4.617-1.002-6.869L303 280.913z"/>
        <path fill="#5448DD" d="M344.277 205.849L322 227.026c9.04.075 18.036 3.847 24.288 10.34 4.875 5.064 7.991 11.706 8.965 18.634l7.622-3.494c13.727-6.294 24.157-18.002 28.758-32.28L395 209.785 355.634 203l-11.357 2.849z"/>
        <path fill="#2A16C5" d="M363.48 252.938L356 256.45c.298 2.17.397 4.363.272 6.55l19.8-10.455c11.537-6.094 18.803-18.172 18.87-31.375L395 210l-3.303 10.497c-4.515 14.348-14.751 26.117-28.218 32.441"/>
        <path fill="#706EED" d="M344.053 262L356 256.178c-.954-7.214-4.008-14.132-8.786-19.408-6.125-6.762-14.94-10.69-23.8-10.77L314 235.515c8.223.57 16.249 4.403 21.947 10.695 3.97 4.384 6.73 9.91 8.106 15.79"/>
        <path fill="#5448DD" d="M355.656 256L343 261.848c.579 2.345.949 4.74 1.042 7.152l11.903-6.184c.13-2.274.026-4.558-.29-6.816"/>
        <path fill="#FFB500" d="M321.044 155.825c2.31-3.4 3.993-7.384 7.173-9.941 5.211-4.195 12.582-3.261 19.166-4.051 10.497-1.258 20.031-7.954 25.617-17.095l-.041-3.258c-.12-9.956-5.563-19.043-14.175-23.663l-7.022-3.767-22.32-4.05-13.326 13.824-10.326 33.558c-2.5 8.128 1.096 16.918 8.507 20.79.986.515 1.903 1.14 2.76 1.828 1.552-1.097 2.92-2.603 3.987-4.175"/>
        <path fill="#FFD700" d="M381.23 176.42a72.652 72.652 0 0 1-6.136-28.375L374.787 123c-5.67 9.24-15.347 16.01-26.003 17.282-6.683.798-14.165-.145-19.455 4.096-3.229 2.585-4.936 6.614-7.282 10.05-1.083 1.59-2.472 3.112-4.047 4.221a17.676 17.676 0 0 1 6.175 9.836l1.286 5.59a51.244 51.244 0 0 1 .706 19.267l-1.948 12.631 27.894.018c1.768 0 3.465.717 4.713 1.993a6.593 6.593 0 0 0 4.71 1.995L396 210l-14.77-33.58z"/>
        <path fill="#FB383B" d="M283.041 122.856L282 151l9.883-10.57L292 110z"/>
        <path fill="#FF5E64" d="M291.794 110l-.684 1.07L291 142l15-17.406z"/>
        <path fill="#FF888A" d="M282.563 59l-3.507 6.753a10.939 10.939 0 0 0-1.003 7.322l3.173 14.956a5.889 5.889 0 0 1-.176 3.09l-17.533 52.446c-1.798 5.38 1.242 11.153 6.8 12.916 6.329 2.006 12.983-2.04 13.851-8.422L291 97.782 282.563 59z"/>
        <path fill="#040068" d="M355.603 94.207c-4.264-2.367-8.603-4.904-11.558-8.75-7.143-9.295-4.106-22.946-9.28-33.437-2.58-5.229-7.218-9.433-12.717-11.522-5.496-2.091-11.992-1.965-17.454.205-4.156-2.232-9.637-.978-13.094 2.21-3.456 3.19-5.1 7.936-5.428 12.597-.328 4.66.523 9.315 1.372 13.91l4.792 25.942c1.282 6.936 2.565 14.074 1.164 20.988a23.113 23.113 0 0 1-2.799 7.235c.324 1.392.855 2.699 1.774 3.812 1.847 2.235 4.863 3.202 7.768 3.493 3.859.384 7.813-.244 11.354-1.803 4.933-2.172 5.737-9.574 6.866-14.789 1.13-5.216 1.346-10.575 1.56-15.905.273-6.828-.17-14.55.104-21.378 2.869 10.577 12.21 19.163 23.097 21.231 4.028.765 8.222.71 12.123 1.963 3.795 1.217 7.088 3.603 10.759 5.152 1.252.53 2.614.892 3.994 1.068-.666-1.387-1.512-2.702-2.523-3.843-3.211-3.642-7.611-6.013-11.874-8.379"/>
        <g transform="translate(279 25)">
            <mask id="b" fill="#fff">
                <use xlink:href="#a"/>
            </mask>
            <path fill="#10109B" d="M93.551 65.272c-3.943-3.722-8.932-6.178-12.941-9.829-5.251-4.777-8.53-11.329-11.08-17.954-2.548-6.626-4.496-13.504-7.675-19.85C58.676 11.29 54.057 5.364 47.66 2.29 41.261-.784 31.882-.91 26.8 4.048c-5.99-2.206-13.03-.353-17.837 3.847C4.159 12.095 1.439 18.333.6 24.661c-.838 6.329.066 12.771 1.58 18.974 1.514 6.2 3.631 12.239 5.274 18.407a124.629 124.629 0 0 1 4.183 30.323c.026 2.057.052 4.224.51 6.215a23.482 23.482 0 0 0 2.774-7.265c1.387-6.94.115-14.106-1.155-21.07-1.582-8.678-3.166-17.36-4.75-26.038-.841-4.614-1.687-9.287-1.362-13.967.326-4.679 1.955-9.441 5.383-12.643 3.426-3.203 8.862-4.462 12.983-2.22 5.415-2.18 11.856-2.306 17.305-.207 5.45 2.097 10.05 6.32 12.608 11.567 5.13 10.53 2.117 24.237 9.2 33.565 2.931 3.864 7.231 6.41 11.461 8.785 4.226 2.376 8.587 4.757 11.773 8.41 1 1.149 1.84 2.466 2.5 3.86 2.634.343 5.333-.048 7.465-1.547 2.01-5.036-.837-10.816-4.782-14.538" mask="url(#b)"/>
        </g>
        <path fill="#FB383B" d="M345 113.993c-.006 8.284 5.14 15.003 11.49 15.007 6.351.004 11.506-6.71 11.51-14.993.004-8.284-5.14-15.001-11.49-15.007-6.351-.004-11.504 6.71-11.51 14.993M329.646 80.76c-1.324-3.906-3.995-7.779-6.064-11.354-8.774-1.284-16.874-5.755-22.67-12.406-.486 3.918-1.501 7.848-2.912 11.645 5.18 3.23 11.002 5.45 17.043 6.436 2.726 5.244 3.957 11.35 3.225 17.201-.493 3.953-1.833 7.787-3.852 11.23 2.567.697 5.358.708 7.775-.367 3.837-1.71 7.12-6.202 8.224-10.224 1.09-3.977.556-8.253-.769-12.16"/>
        <path fill="#FF5E64" d="M316.498 74.646c-6.165-1.018-12.105-3.312-17.391-6.646-1.781 4.86-4.19 9.507-7.107 13.629a66.262 66.262 0 0 0 15.128 17.399c2.364 1.91 4.902 3.68 7.772 4.679.314.11.636.205.958.293 2.06-3.555 3.427-7.514 3.93-11.593.746-6.044-.509-12.348-3.29-17.76"/>
        <path fill="#FB383B" d="M341 108l-17.101 14.714L317 136z"/>
        <path fill="#FF888A" d="M367.365 103.314c-3.487-5.665-11.162-6.95-16.3-2.73l-9.195 7.554-24.785 27.602 7.123-13.096 14.374-29.226c1.226-2.496 1.82-5.242 1.842-8.023.045-5.584.632-11.603.105-16.881-.753-7.555-3.252-13.95-3.72-21.526-.98.002-1.812.808-2.16 1.725-.347.916-.313 1.927-.274 2.906.122 3.051-.325 6.52-.203 9.571-.183-7.328-4.734-14.474-11.04-18.19-1.32.413-1.82 2.128-1.446 3.46.375 1.334 1.355 2.392 2.205 3.483 2.518 3.234 4.312 7.952 4.729 12.034-2.671-6.637-9.674-11.64-16.817-11.741-1.03 1.014-.786 2.815.086 3.969.869 1.154 2.193 1.852 3.402 2.645 3.298 2.158 6.623 5.613 8.285 9.191-2.488-1.699-5.505-2.487-8.506-2.723-3.002-.237-6.019.048-9.017.333-.792.167-.991 1.32-.53 1.989.46.667 1.289.955 2.059 1.203 4.295 1.376 8.775 3.355 13.069 4.733a32.108 32.108 0 0 0 7.734 16.651l-31.073 53.285a9.644 9.644 0 0 0 1.441 11.603 9.604 9.604 0 0 0 12.262 1.223l53.175-36.159c4.858-3.305 6.259-9.857 3.175-14.865"/>
        <path fill="#2A16C5" d="M301 231.103l10.32-1.063L339 211l-29.369 29z"/>
        <path fill="#FD6B00" d="M363 262l42.422-7.678c12.493-2.262 21.786-12.742 22.457-25.328L433 133c-15.86 10.873-25.634 28.524-26.374 47.64l-1.29 33.24c-.222 5.702-4.397 10.487-10.052 11.52l-1.744.319c-14.299 2.608-25.61 13.505-28.664 27.614L363 262z"/>
        <g transform="translate(366 19)">
            <mask id="d" fill="#fff">
                <use xlink:href="#c"/>
            </mask>
            <path fill="#ED6A56" d="M27.413 8.64c1.12 1.164 2.013 2.493 2.712 3.642.095.155.188.312.28.468.125-.471.222-.95.287-1.434.125-.92.127-1.718.006-2.42a22.693 22.693 0 0 0-3.285-.256M18.017 2c-.721 0-1.413.064-2.08.19-1.611.306-3.274 1.01-5.232 2.215-4.543 2.795-7.544 6.48-8.45 10.377-.29 1.246-.48 3.068.262 4.674.125.269.276.53.45.78a10.6 10.6 0 0 1 .348-3.102c.61-2.238 2.02-4.098 3.869-5.104 1.333-.725 3.003-1.068 5.027-1.045.124 0 .246.004.366.008A13.298 13.298 0 0 1 14.47 8.72c2.297-2.217 5.069-3.307 7.607-2.997a7.77 7.77 0 0 1 2.967 1.017 24.984 24.984 0 0 1 4.72.023c-.914-1.21-2.471-2.253-4.71-3.163C22.424 2.53 20.1 2 18.018 2m-2.02 9.577c.38.136.738.294 1.076.477 3.419 1.848 4.488 5.856 4.822 8.08.085.57.147 1.14.185 1.71 3.196-1.13 5.897-3.622 7.41-6.67a50.735 50.735 0 0 0-1.074-1.853c-1.286-2.116-2.551-3.603-3.858-4.52-2.264.269-4.5.87-6.614 1.797-.686.3-1.336.628-1.947.979m-2.41 1.684a8.082 8.082 0 0 0-.76 2.64c-.227 2.218.669 4.39 2.28 5.532 1.28.905 3.05 1.22 4.998.917a18.671 18.671 0 0 0-.188-1.92c-.277-1.855-1.141-5.182-3.795-6.617-.651-.352-1.424-.59-2.337-.717a7.813 7.813 0 0 0-.197.165m-8.371 8.926a7.78 7.78 0 0 0 1.456.608c.469.143.958.252 1.474.326-.693-2.56-.258-5.53 1.268-8.055.43-.714.945-1.395 1.537-2.04-1.123.094-2.051.345-2.812.759-1.373.748-2.428 2.159-2.895 3.873-.368 1.355-.377 2.909-.028 4.529m26.502-7.097a53.088 53.088 0 0 1 2.423 5.264c.53 1.338 1.12 2.972 1.49 4.755a21.92 21.92 0 0 0 2.615-5.258c.698-2.062 1.255-4.98-.057-7.172-.93-1.558-2.756-2.69-5.428-3.368.053.7.024 1.454-.087 2.273a14.193 14.193 0 0 1-.956 3.506M11.466 25.183c.656.776 1.445 1.448 2.17 2.04 1.97 1.61 3.883 2.937 5.76 3.99 0-.03 0-.061.002-.092.012-1.326.025-2.697.326-4.101.186-.874.307-1.758.364-2.648-2.34.297-4.507-.152-6.136-1.306-1.94-1.374-3.121-3.8-3.158-6.367-1.09 2.145-1.272 4.568-.508 6.542.696-.015 1.44-.076 2.244-.182a.998.998 0 0 1 1.122.86.999.999 0 0 1-.86 1.122c-.457.06-.9.108-1.326.142m9.916 7.05c.857.398 1.708.739 2.554 1.024a18.064 18.064 0 0 0 5.289-2.06c1.74-1.02 3.335-2.35 4.718-3.912-.216-2.302-.99-4.5-1.66-6.194a51.921 51.921 0 0 0-1.688-3.805c-1.933 3.13-4.978 5.6-8.483 6.653a20.138 20.138 0 0 1-.433 3.499c-.258 1.206-.27 2.418-.281 3.702-.004.362-.006.727-.016 1.093m-15.35-7.541c1.65 3.733 5.034 6.833 9.056 8.167 1.348.447 2.765.705 4.205.78l.02-.197c-2.268-1.181-4.572-2.733-6.942-4.67-1.15-.94-2.446-2.064-3.338-3.553a12.444 12.444 0 0 1-2.943-.51l-.057-.017m21.742 9.45c1.506.152 3.19.018 4.39-.941.949-.76 1.418-1.88 1.643-2.928a20.954 20.954 0 0 1-3.572 2.65c-.794.466-1.617.872-2.461 1.22M3.409 54.16a1 1 0 0 1-.413-1.912c8.883-4.016 12.305-9.613 15.566-15.98.11-.215.205-.434.288-.655a17.894 17.894 0 0 1-4.391-.857c-5.333-1.768-9.531-6.085-10.983-11.282C2.245 22.644 1.28 21.552.7 20.294c-.773-1.678-.91-3.741-.393-5.965 1.027-4.421 4.347-8.55 9.348-11.627 2.173-1.337 4.05-2.124 5.909-2.477 2.979-.565 6.33-.067 10.244 1.523 3.438 1.399 5.556 3.167 6.46 5.399.26.054.519.113.777.175 3.315.803 5.623 2.26 6.86 4.33 1.349 2.256 1.43 5.313.236 8.842a23.871 23.871 0 0 1-4.151 7.468c.105 2.929-.831 5.403-2.576 6.8-1.76 1.408-4.253 1.788-7.417 1.126a23.59 23.59 0 0 1-2.185-.57c-.951.179-1.912.289-2.87.327a8.36 8.36 0 0 1-.601 1.536c-3.31 6.46-7.063 12.614-16.522 16.89a.987.987 0 0 1-.411.09" mask="url(#d)"/>
        </g>
    </g>
</svg>
