<?xml version="1.0" encoding="UTF-8"?>
<svg width="20px" height="20px" viewBox="0 0 20 20" version="1.1" xmlns="http://www.w3.org/2000/svg" xmlns:xlink="http://www.w3.org/1999/xlink">
    <!-- Generator: Sketch 55.1 (78136) - https://sketchapp.com -->
    <title>矩形</title>
    <desc>Created with Sketch.</desc>
    <defs>
        <polygon id="path-1" points="0.025625 0.0370130507 9.71320312 0.0370130507 9.71320312 3.569424 0.025625 3.569424"></polygon>
        <polygon id="path-3" points="0.00234375 0.00898832303 19.9999609 0.00898832303 19.9999609 14.2720047 0.00234375 14.2720047"></polygon>
    </defs>
    <g id="icon" stroke="none" stroke-width="1" fill="none" fill-rule="evenodd">
        <g id="群組-21copy">
            <rect id="矩形" fill="#D8D8D8" opacity="0" x="0" y="0" width="20" height="20"></rect>
            <g id="shopping-cart" transform="translate(0.000000, 1.000000)">
                <g id="群組" transform="translate(6.601562, 15.032872)">
                    <mask id="mask-2" fill="white">
                        <use xlink:href="#path-1"></use>
                    </mask>
                    <g id="Clip-2"></g>
                    <path d="M1.78457031,2.5849475 C1.35621094,2.5849475 1.00773438,2.23475616 1.00773438,1.80433716 C1.00773438,1.37395741 1.35621094,1.02376607 1.78457031,1.02376607 C2.21289063,1.02376607 2.56140625,1.37395741 2.56140625,1.80433716 C2.56140625,2.23479541 2.21289063,2.5849475 1.78457031,2.5849475 Z M1.78457031,0.0370130507 C0.8146875,0.0370130507 0.025625,0.829869493 0.025625,1.80441566 C0.025625,2.77892258 0.8146875,3.57177902 1.78457031,3.57177902 C2.75441406,3.57177902 3.54347656,2.77892258 3.54347656,1.80441566 C3.54347656,0.829869493 2.75441406,0.0370130507 1.78457031,0.0370130507 L1.78457031,0.0370130507 Z" id="Fill-1" fill="#88C74A" mask="url(#mask-2)"></path>
                    <path d="M7.95429687,2.5849475 C7.5259375,2.5849475 7.17746094,2.23475616 7.17746094,1.80433716 C7.17746094,1.37395741 7.5259375,1.02376607 7.95429687,1.02376607 C8.38261719,1.02376607 8.73113281,1.37395741 8.73113281,1.80433716 C8.73113281,2.23479541 8.38261719,2.5849475 7.95429687,2.5849475 Z M7.95429687,0.0370130507 C6.98441406,0.0370130507 6.19535156,0.829869493 6.19535156,1.80441566 C6.19535156,2.77892258 6.98441406,3.57177902 7.95429687,3.57177902 C8.92414062,3.57177902 9.71320312,2.77892258 9.71320312,1.80441566 C9.71320312,0.829869493 8.92414062,0.0370130507 7.95429687,0.0370130507 L7.95429687,0.0370130507 Z" id="Fill-3" fill="#88C74A" mask="url(#mask-2)"></path>
                </g>
                <path d="M7.95183594,6.75148661 L14.9889063,6.75148661 C15.2601172,6.75148661 15.4799609,6.53058581 15.4799609,6.25807085 C15.4799609,5.98559513 15.2601172,5.76469434 14.9889063,5.76469434 L7.95183594,5.76469434 C7.680625,5.76469434 7.46078125,5.98559513 7.46078125,6.25807085 C7.46078125,6.53058581 7.68066406,6.75148661 7.95183594,6.75148661" id="Fill-4" fill="#88C74A"></path>
                <g id="群組">
                    <mask id="mask-4" fill="white">
                        <use xlink:href="#path-3"></use>
                    </mask>
                    <g id="Clip-6"></g>
                    <path d="M14.6058984,8.32695516 L8.33488281,8.32695516 C8.06371094,8.32695516 7.84386719,8.54785595 7.84386719,8.82037092 C7.84386719,9.09288588 8.06371094,9.31378667 8.33488281,9.31378667 L14.6058984,9.31378667 C14.8770703,9.31378667 15.0969141,9.09288588 15.0969141,8.82037092 C15.0969141,8.5478952 14.8770703,8.32695516 14.6058984,8.32695516" id="Fill-5" fill="#88C74A" mask="url(#mask-4)"></path>
                    <path d="M17.6441406,10.8886665 L5.29761719,10.8886665 L3.92414062,4.18965754 L19.0176562,4.18973604 L17.6441406,10.8886665 Z M19.7789453,3.56624473 C19.5916406,3.33529585 19.3141406,3.20286527 19.0176562,3.20286527 L3.72179687,3.20286527 L3.41289062,1.69608478 C3.34839844,1.38176823 3.13503906,1.11784908 2.84203125,0.990010794 L0.686679687,0.049965656 C0.437851562,-0.0586399764 0.148671875,0.0560887057 0.0407421875,0.306034737 C-0.067265625,0.556059268 0.046875,0.846668629 0.295625,0.95511726 L2.45097656,1.89520165 L4.82699219,13.4843293 C4.92058594,13.940732 5.32511719,14.2720047 5.78890625,14.2720047 L17.5532031,14.2720047 C17.8244141,14.2720047 18.0442578,14.0511039 18.0442578,13.778589 C18.0442578,13.506074 17.8244141,13.2851732 17.5532031,13.2851732 L5.78894531,13.2851732 L5.49992187,11.8754587 L17.6441406,11.8754587 C18.1078906,11.8754587 18.5124609,11.544186 18.6060156,11.0877833 L19.9795703,4.38869591 C20.039375,4.09698754 19.96625,3.79715435 19.7789453,3.56624473 L19.7789453,3.56624473 Z" id="Fill-7" fill="#88C74A" mask="url(#mask-4)"></path>
                </g>
            </g>
        </g>
    </g>
</svg>