<?xml version="1.0" encoding="UTF-8"?>
<svg width="40px" height="40px" viewBox="0 0 40 40" version="1.1" xmlns="http://www.w3.org/2000/svg" xmlns:xlink="http://www.w3.org/1999/xlink">
    <!-- Generator: Sketch 61.1 (89650) - https://sketch.com -->
    <title>Group 12</title>
    <desc>Created with Sketch.</desc>
    <g id="首頁" stroke="none" stroke-width="1" fill="none" fill-rule="evenodd">
        <g id="icon" transform="translate(-615.000000, -173.000000)" fill-rule="nonzero">
            <g id="Group-12" transform="translate(615.000000, 173.000000)">
                <circle id="橢圓形" fill="#0B1D37" cx="20" cy="20" r="20"></circle>
                <g id="shopping-cart" transform="translate(12.000000, 12.000000)" fill="#FFFFFF" stroke="#FFFFFF" stroke-width="0.25">
                    <path d="M5.27229291,15.2351894 C4.74430353,15.2351894 4.31629799,14.8071473 4.31629799,14.2791579 C4.31629799,13.7511685 4.74430353,13.323163 5.27229291,13.323163 C5.8003189,13.323163 6.22832443,13.7511685 6.22832443,14.2791579 C6.22832443,14.8071473 5.8003189,15.2351894 5.27229291,15.2351894 Z M5.27229291,12.5583524 C4.32193398,12.5583524 3.55148741,13.328799 3.55148741,14.2791579 C3.55148741,15.2295534 4.32193398,16 5.27229291,16 C6.22268845,16 6.99313501,15.2295534 6.99313501,14.2791579 C6.99313501,13.328799 6.22268845,12.5583524 5.27229291,12.5583524 L5.27229291,12.5583524 Z" id="Fill-1"></path>
                    <path d="M12.5217391,15.2351894 C11.9937441,15.2351894 11.565734,14.8071473 11.565734,14.2791579 C11.565734,13.7511685 11.9937441,13.323163 12.5217391,13.323163 C13.0497341,13.323163 13.4777808,13.7511685 13.4777808,14.2791579 C13.4777808,14.8071473 13.0497341,15.2351894 12.5217391,15.2351894 Z M12.5217391,12.5583524 C11.5713335,12.5583524 10.8009153,13.328799 10.8009153,14.2791579 C10.8009153,15.2295534 11.5713335,16 12.5217391,16 C13.4721448,16 14.2425629,15.2295534 14.2425629,14.2791579 C14.2425629,13.328799 13.4721448,12.5583524 12.5217391,12.5583524 L12.5217391,12.5583524 Z" id="Fill-3"></path>
                    <path d="M14.7926558,6.5468107 C14.668535,7.10307041 14.1956468,7.51337862 13.6268054,7.55842448 L5.67623209,8.3791505 L3.89884973,2.99666377 L15.6144579,3.16844449 L14.7926558,6.5468107 Z M16.092248,2.40496653 L3.6503886,2.23318581 L3.30637675,1.18339449 C3.06402472,0.481621683 2.4059978,0.0078547115 1.66273613,0 L0.382239452,0 C0.17112797,0 0,0.170903909 0,0.381738979 C0,0.592574049 0.17112797,0.763477958 0.382239452,0.763477958 L1.66273613,0.763477958 C2.07833786,0.772647877 2.44429857,1.03916007 2.58012545,1.4315303 L5.00734049,8.74181897 L4.81620247,9.18080601 C4.60307901,9.72975901 4.66705994,10.3475777 4.98820839,10.8413651 C5.306284,11.3263113 5.84139729,11.6255941 6.42161548,11.6430206 L13.856171,11.6430206 C14.0672459,11.6430206 14.2383739,11.4721167 14.2383739,11.2612816 C14.2383739,11.0504465 14.0672459,10.8795426 13.856171,10.8795426 L6.42161548,10.8795426 C6.09395554,10.8713591 5.79234158,10.6992131 5.61890898,10.4214486 C5.44745177,10.1470817 5.41218727,9.80907333 5.52335826,9.50529693 L5.67623209,9.1617355 L13.7223561,8.32190244 C14.6061637,8.22468668 15.3331832,7.58271928 15.5380026,6.71859142 L16.455392,2.88213112 C16.4967656,2.77158062 16.4748167,2.64736658 16.3980323,2.5576402 C16.3184676,2.4708365 16.2095647,2.41643806 16.092248,2.40496653 L16.092248,2.40496653 Z" id="Fill-4"></path>
                </g>
            </g>
        </g>
    </g>
</svg>