<?xml version="1.0" encoding="UTF-8"?>
<svg width="21px" height="21px" viewBox="0 0 21 21" version="1.1" xmlns="http://www.w3.org/2000/svg" xmlns:xlink="http://www.w3.org/1999/xlink">
    <!-- Generator: Sketch 55.1 (78136) - https://sketchapp.com -->
    <title>群組 4copycopycopycopy</title>
    <desc>Created with Sketch.</desc>
    <g id="icon" stroke="none" stroke-width="1" fill="none" fill-rule="evenodd">
        <g id="群組-4copycopycopycopy" transform="translate(1.000000, 0.000000)">
            <rect id="矩形" fill="#D8D8D8" opacity="0" x="0" y="0" width="21.5" height="21.5"></rect>
            <g id="shopping-cartcopy" transform="translate(0.000000, 1.075000)" fill="#88C74A" stroke="#88C74A" stroke-width="0.25">
                <path d="M6.33450487,18.304632 C5.70014115,18.304632 5.18590509,17.790352 5.18590509,17.1559882 C5.18590509,16.5216245 5.70014115,16.0073885 6.33450487,16.0073885 C6.96891256,16.0073885 7.48314862,16.5216245 7.48314862,17.1559882 C7.48314862,17.790352 6.96891256,18.304632 6.33450487,18.304632 Z M6.33450487,15.088491 C5.19267656,15.088491 4.26700767,16.0141599 4.26700767,17.1559882 C4.26700767,18.2978605 5.19267656,19.2235294 6.33450487,19.2235294 C7.47637715,19.2235294 8.40204604,18.2978605 8.40204604,17.1559882 C8.40204604,16.0141599 7.47637715,15.088491 6.33450487,15.088491 L6.33450487,15.088491 Z" id="Fill-1"></path>
                <path d="M15.0445013,18.304632 C14.4101308,18.304632 13.8958893,17.790352 13.8958893,17.1559882 C13.8958893,16.5216245 14.4101308,16.0073885 15.0445013,16.0073885 C15.6788717,16.0073885 16.1931572,16.5216245 16.1931572,17.1559882 C16.1931572,17.790352 15.6788717,18.304632 15.0445013,18.304632 Z M15.0445013,15.088491 C13.9026169,15.088491 12.9769821,16.0141599 12.9769821,17.1559882 C12.9769821,18.2978605 13.9026169,19.2235294 15.0445013,19.2235294 C16.1863857,19.2235294 17.1120205,18.2978605 17.1120205,17.1559882 C17.1120205,16.0141599 16.1863857,15.088491 15.0445013,15.088491 L15.0445013,15.088491 Z" id="Fill-3"></path>
                <path d="M17.7729409,7.86580051 C17.6238134,8.53413019 17.0556521,9.02710343 16.3722059,9.0812247 L6.81982591,10.0673029 L4.68435328,3.60040339 L18.7603119,3.80679286 L17.7729409,7.86580051 Z M19.3343627,2.88949655 L4.38583454,2.68310707 L3.97251442,1.42181367 C3.68133558,0.578654286 2.89073559,0.00943720485 1.99772856,0 L0.45924946,0 C0.205605223,0 0,0.20533602 0,0.458648156 C0,0.711960292 0.205605223,0.917296311 0.45924946,0.917296311 L1.99772856,0.917296311 C2.49706181,0.928313699 2.93675284,1.24852025 3.09994484,1.71994156 L6.01617232,10.5030384 L5.78652561,11.0304684 C5.53046404,11.6900193 5.60733525,12.4323103 5.99318567,13.0255813 C6.37534416,13.6082299 7.01826703,13.9678094 7.71538213,13.9887468 L16.6477819,13.9887468 C16.9013822,13.9887468 17.1069874,13.7834108 17.1069874,13.5300986 C17.1069874,13.2767865 16.9013822,13.0714505 16.6477819,13.0714505 L7.71538213,13.0714505 C7.32170835,13.0616182 6.95932804,12.8547898 6.75095387,12.5210639 C6.54495309,12.1914202 6.50258382,11.7853131 6.6361525,11.4203347 L6.81982591,11.0075557 L16.4870073,9.99852102 C17.548876,9.88171915 18.4223686,9.1104142 18.6684532,8.07218998 L19.7706695,3.46279577 C19.8203786,3.3299726 19.7940077,3.18073308 19.7017535,3.07292948 C19.6061589,2.96863739 19.4753152,2.90327926 19.3343627,2.88949655 L19.3343627,2.88949655 Z" id="Fill-4"></path>
            </g>
        </g>
    </g>
</svg>