<svg xmlns="http://www.w3.org/2000/svg" width="20" height="20" viewBox="0 0 20 20">
    <g fill="none" fill-rule="evenodd" stroke="#0B1D37" stroke-linecap="round" stroke-linejoin="round">
        <path d="M4.696 4.151h13.541l-.5 3.507c-.162 1.137-1.078 2.015-2.221 2.131l-8.53.857-2.7-7.66C4.077 2.395 3.518 2 2.891 2H1M7.817 16.3c0 .672-.546 1.218-1.219 1.218-.674 0-1.219-.546-1.219-1.219 0-.674.545-1.22 1.219-1.22.673 0 1.219.546 1.219 1.22zM15.629 16.3c0 .672-.546 1.218-1.22 1.218-.673 0-1.218-.546-1.218-1.219 0-.674.545-1.22 1.219-1.22.673 0 1.219.546 1.219 1.22zM7.817 10.646c-.673 0-1.219.546-1.219 1.22 0 .673.546 1.218 1.219 1.218h8.313"/>
    </g>
</svg>
