<svg xmlns="http://www.w3.org/2000/svg" width="40" height="40" viewBox="0 0 40 40">
    <g fill="none" fill-rule="evenodd">
        <circle cx="20.308" cy="20.154" r="19.385" fill="#FFF"/>
        <circle cx="20.308" cy="20.154" r="18.462" fill="#FFF"/>
        <path fill="#0B1D37" d="M27.74 16.364c-.46.154-1.076.462-1.691.462.615-.308.923-.923 1.23-1.385-.615.308-1.23.462-1.692.616-.461-.616-1.23-.923-2-.923-1.538 0-2.77 1.23-2.77 2.769 0 .154 0 .461.155.615-2.308-.154-4.308-1.23-5.693-2.769-.307.462-.461.923-.461 1.385 0 .923.461 1.692 1.23 2.153-.461 0-.922-.153-1.23-.307 0 1.23.923 2.461 2.154 2.615-.308.154-.462.154-.77.154h-.461c.461 1.077 1.385 1.846 2.615 1.846-1.077.77-2.615 1.385-4.307 1.077 1.23.77 2.769 1.23 4.307 1.23 5.077 0 8-4 8-7.691v-.462c.462-.308 1.077-.77 1.385-1.385"/>
    </g>
</svg>
