<?xml version="1.0" encoding="UTF-8"?>
<svg width="16px" height="16px" viewBox="0 0 16 16" version="1.1" xmlns="http://www.w3.org/2000/svg" xmlns:xlink="http://www.w3.org/1999/xlink">
    <!-- Generator: Sketch 55.1 (78136) - https://sketchapp.com -->
    <title>矩形copy</title>
    <desc>Created with Sketch.</desc>
    <defs>
        <polygon id="path-1" points="0.001640625 0 14 0 14 11 0.001640625 11"></polygon>
    </defs>
    <g id="icon" stroke="none" stroke-width="1" fill="none" fill-rule="evenodd">
        <g id="群組-19copy">
            <rect id="矩形copy" fill="#FFFFFF" opacity="0" x="0" y="0" width="16" height="16"></rect>
            <g id="twitter" transform="translate(1.000000, 2.000000)">
                <mask id="mask-2" fill="white">
                    <use xlink:href="#path-1"></use>
                </mask>
                <g id="Clip-2"></g>
                <path d="M14,1.30223077 C13.479375,1.52307692 12.924625,1.66946154 12.34625,1.74053846 C12.94125,1.397 13.395375,0.857153846 13.608875,0.206461538 C13.054125,0.526307692 12.441625,0.752230769 11.788875,0.878307692 C11.262125,0.335923077 10.511375,0 9.692375,0 C8.103375,0 6.824125,1.24723077 6.824125,2.77623077 C6.824125,2.99623077 6.843375,3.20776923 6.890625,3.40915385 C4.5045,3.29661538 2.393125,2.19069231 0.97475,0.506 C0.727125,0.921461538 0.581875,1.397 0.581875,1.90892308 C0.581875,2.87015385 1.09375,3.72223077 1.85675,4.21553846 C1.395625,4.20707692 0.94325,4.07761538 0.56,3.87369231 C0.56,3.88215385 0.56,3.89315385 0.56,3.90415385 C0.56,5.25292308 1.554875,6.37323077 2.8595,6.63130769 C2.625875,6.69307692 2.37125,6.72269231 2.107,6.72269231 C1.92325,6.72269231 1.73775,6.71253846 1.563625,6.67530769 C1.9355,7.77446154 2.99075,8.58253846 4.2455,8.60876923 C3.269,9.34746154 2.029125,9.79253846 0.686875,9.79253846 C0.4515,9.79253846 0.22575,9.78238462 0,9.75446154 C1.271375,10.5473077 2.778125,11 4.403,11 C9.6845,11 12.572,6.76923077 12.572,3.102 C12.572,2.97930769 12.567625,2.86084615 12.5615,2.74323077 C13.131125,2.35230769 13.60975,1.86407692 14,1.30223077" id="Fill-1" fill="#D8D8D8" mask="url(#mask-2)"></path>
            </g>
        </g>
    </g>
</svg>