<?xml version="1.0" encoding="UTF-8"?>
<svg width="25px" height="25px" viewBox="0 0 25 25" version="1.1" xmlns="http://www.w3.org/2000/svg" xmlns:xlink="http://www.w3.org/1999/xlink">
    <!-- Generator: Sketch 61.1 (89650) - https://sketch.com -->
    <title>Combined Shape Copy 2</title>
    <desc>Created with Sketch.</desc>
    <g id="首頁" stroke="none" stroke-width="1" fill="none" fill-rule="evenodd">
        <g id="icon" transform="translate(-126.000000, -69.000000)" fill="#FFFFFF">
            <path d="M145.022472,77.0428571 C145.741573,76.6714286 146.101124,75.9285714 146.460674,75.3714286 C145.741573,75.7428571 145.022472,75.9285714 144.483146,76.1142857 C143.94382,75.3714286 143.044944,75 142.146067,75 C140.348315,75 138.910112,76.4857143 138.910112,78.3428571 C138.910112,78.5285714 138.910112,78.9 139.089888,79.0857143 C136.393258,78.9 134.05618,77.6 132.438202,75.7428571 C132.078652,76.3 131.898876,76.8571429 131.898876,77.4142857 C131.898876,78.5285714 132.438202,79.4571429 133.337079,80.0142857 C132.797753,80.0142857 132.258427,79.8285714 131.898876,79.6428571 C131.898876,81.1285714 132.977528,82.6142857 134.41573,82.8 C134.05618,82.9857143 133.876404,82.9857143 133.516854,82.9857143 C133.337079,82.9857143 132.977528,82.9857143 132.977528,82.9857143 C133.516854,84.2857143 134.595506,85.2142857 136.033708,85.2142857 C134.775281,86.1428571 132.977528,86.8857143 131,86.5142857 C132.438202,87.4428571 134.235955,88 136.033708,88 C141.966292,88 145.382022,83.1714286 145.382022,78.7142857 C145.382022,78.5285714 145.382022,78.5285714 145.382022,78.1571429 C145.921348,77.7857143 146.640449,77.2285714 147,76.4857143 C146.460674,76.6714286 145.741573,77.0428571 145.022472,77.0428571 Z" id="Combined-Shape-Copy-2"></path>
        </g>
    </g>
</svg>