<svg id="圖層_1" data-name="圖層 1" xmlns="http://www.w3.org/2000/svg" viewBox="0 0 25 25"><defs><style>.cls-1{fill:#fff;}</style></defs><title>icon_language</title><path class="cls-1" d="M22.69,5.29v0l-.11-.13c-.23-.31-.48-.62-.74-.91L21.63,4c-.27-.29-.55-.56-.85-.83L20.62,3a12.32,12.32,0,0,0-2.37-1.6l-.1,0C17.77,1.17,17.38,1,17,.84L16.73.75A10.16,10.16,0,0,0,15.66.42L15.34.33C15,.25,14.62.19,14.26.14L13.92.09a11.17,11.17,0,0,0-2.83,0l-.33.05c-.37,0-.73.11-1.08.19L9.36.42A8.89,8.89,0,0,0,8.29.75L8,.84a12.06,12.06,0,0,0-1.16.52l-.11,0A12.32,12.32,0,0,0,4.39,3l-.16.14c-.3.27-.58.54-.85.83l-.22.24c-.26.29-.5.6-.74.91a1.47,1.47,0,0,1-.1.13v0a12.44,12.44,0,0,0,0,14.44v0c0,.05.07.08.1.13.24.32.48.62.74.92l.22.23a11.1,11.1,0,0,0,.85.83,1.07,1.07,0,0,0,.16.14,11.88,11.88,0,0,0,2.37,1.6l.1.05A10.84,10.84,0,0,0,8,24.16l.26.09a10.16,10.16,0,0,0,1.07.33l.32.09c.36.08.72.14,1.08.2l.33.05a12.26,12.26,0,0,0,2.84,0l.33-.05c.36-.06.72-.12,1.08-.2l.32-.09a9.48,9.48,0,0,0,1.07-.33l.26-.09a10.84,10.84,0,0,0,1.16-.52l.1-.05A11.88,11.88,0,0,0,20.61,22a1.07,1.07,0,0,0,.16-.14,11.1,11.1,0,0,0,.85-.83l.22-.23c.26-.3.5-.6.74-.92,0-.05.07-.08.1-.13v0A12.42,12.42,0,0,0,22.69,5.29ZM21.67,7a10.77,10.77,0,0,1,1.51,4.64H17.83a17.52,17.52,0,0,0-.5-3.15A16.28,16.28,0,0,0,21.67,7ZM14.78,2l.15,0a8.3,8.3,0,0,1,.94.27l.14.05c.31.11.61.22.91.36l.15.07c.29.14.56.28.84.44l.17.11a7.52,7.52,0,0,1,.75.5L19,4a7.56,7.56,0,0,1,.69.58l.17.15c.23.22.44.45.66.69l.08.09a15.4,15.4,0,0,1-3.81,1.22A22.49,22.49,0,0,0,14.4,2ZM9,11.61a14.52,14.52,0,0,1,.5-2.86,25.83,25.83,0,0,0,3,.18,26.17,26.17,0,0,0,3.06-.18,15.27,15.27,0,0,1,.49,2.86Zm7.09,1.78a15.29,15.29,0,0,1-.5,2.86,25.93,25.93,0,0,0-6.1,0A15.27,15.27,0,0,1,9,13.39Zm-3.55-11A21.18,21.18,0,0,1,15,7a22.81,22.81,0,0,1-2.49.13A22.76,22.76,0,0,1,10,7,22,22,0,0,1,12.5,2.37Zm-8,3.06q.32-.36.66-.69a1.29,1.29,0,0,0,.17-.16Q5.63,4.28,6,4l.19-.14a7.52,7.52,0,0,1,.75-.5l.17-.11c.28-.16.55-.31.84-.44l.15-.08c.3-.13.6-.25.91-.35l.14-.05c.31-.11.62-.19.94-.27l.15,0L10.61,2A22.49,22.49,0,0,0,8.2,6.74,15.4,15.4,0,0,1,4.39,5.52ZM3.34,7A16.28,16.28,0,0,0,7.68,8.46a16.68,16.68,0,0,0-.5,3.15H1.83A10.64,10.64,0,0,1,3.34,7ZM3.34,18a10.64,10.64,0,0,1-1.51-4.64H7.18a17.77,17.77,0,0,0,.5,3.16A15.91,15.91,0,0,0,3.34,18ZM10.23,23l-.15,0c-.32-.07-.63-.16-.94-.26L9,22.61c-.31-.1-.61-.22-.91-.35l-.15-.08a8.37,8.37,0,0,1-.84-.44l-.18-.11c-.25-.15-.5-.32-.75-.5L6,21q-.36-.27-.69-.57a1.29,1.29,0,0,0-.17-.16c-.23-.22-.45-.45-.66-.68a.34.34,0,0,0-.08-.09A15,15,0,0,1,8.2,18.26,22.49,22.49,0,0,0,10.61,23C10.48,23,10.35,23,10.23,23Zm2.27-.33A21.41,21.41,0,0,1,10,18a22.94,22.94,0,0,1,5,0h0A21.44,21.44,0,0,1,12.5,22.64Zm8-3.06c-.21.23-.42.46-.65.68l-.18.16c-.22.2-.44.39-.68.57a1.33,1.33,0,0,1-.19.14q-.36.27-.75.51l-.18.1a8.21,8.21,0,0,1-.83.44l-.15.08c-.3.13-.6.25-.91.35l-.14.06a9.46,9.46,0,0,1-.95.26l-.15,0c-.12,0-.24,0-.37.06a22.49,22.49,0,0,0,2.41-4.77,15.15,15.15,0,0,1,3.81,1.23ZM21.67,18a15.91,15.91,0,0,0-4.34-1.48,17.77,17.77,0,0,0,.5-3.16h5.35A10.77,10.77,0,0,1,21.67,18Z"/></svg>