<svg xmlns="http://www.w3.org/2000/svg" xmlns:xlink="http://www.w3.org/1999/xlink" width="90" height="90" viewBox="0 0 90 90">
    <defs>
        <path id="a" d="M0 0h47v47H0z"/>
    </defs>
    <g fill="none" fill-rule="evenodd" transform="translate(22 22)">
        <mask id="b" fill="#fff">
            <use xlink:href="#a"/>
        </mask>
        <path fill="#88C74A" d="M42.08 37.944l-11.53-1.058v-1.658a14.097 14.097 0 0 0 8.05-2.97c.453-.371.659-.965.534-1.537L36.94 20.538c.236-.44.412-.911.521-1.4.235-1.423.367-3.782-.642-4.64v-1.87A12.513 12.513 0 0 0 24.393 0h-1.786c-6.914.065-12.472 5.713-12.424 12.627v1.87c-1.01.86-.883 3.222-.637 4.671.11.478.283.939.516 1.37L7.869 30.721a1.562 1.562 0 0 0 .54 1.546 14.1 14.1 0 0 0 8.04 2.961v1.658L4.91 37.945A5.471 5.471 0 0 0 0 43.397v2.036C0 46.3.701 47 1.567 47h43.866C46.3 47 47 46.299 47 45.433v-2.036a5.473 5.473 0 0 0-4.92-5.453zm-24.063-.494v-3.176c3.29 3.4 7.677 3.4 10.966 0v3.17c-1.295 2.325-9.687 2.305-10.966.006zm12.19-7.692c-3.66 7.222-9.635 7.457-13.414 0a40.248 40.248 0 0 1-2.44-6.138 5.854 5.854 0 0 1-.253-1.703c0-6.736-.054-6.674.131-6.834.957-.783 6.345-4.05 9.151-6.418.281-.235-.438-.104 6.95 4.757 1.121.738 2.09 1.376 2.424 1.65a.61.61 0 0 1 .144.433c0 6.51.104 6.94-.252 8.113a40.261 40.261 0 0 1-2.441 6.14zm-1.865 10.137C27.674 41.088 26.31 42.3 23.5 42.3c-2.783 0-4.147-1.205-4.822-2.396 2.488 1.115 7.177 1.116 9.664-.009zm2.208-6.255v-1.352a33.837 33.837 0 0 0 3.783-9.042 6.84 6.84 0 0 0 1.364-1.035l1.912 8.834a12.571 12.571 0 0 1-7.059 2.595zm5.273-17.934c.235.339.281 1.861.093 3.165a4.854 4.854 0 0 1-1.45 2.338v-5.166c.38-.308.877-.432 1.357-.337zM22.607 1.566h1.786A10.957 10.957 0 0 1 35.25 12.628v1.489c-.37.037-.731.136-1.069.292a1.922 1.922 0 0 0-.417-.538c-1.06-.872-6.405-4.1-9.137-6.406a1.724 1.724 0 0 0-2.255 0 77.728 77.728 0 0 1-6.565 4.646c-2.546 1.676-2.703 1.774-2.99 2.297a3.341 3.341 0 0 0-1.067-.288v-1.488c-.05-6.051 4.806-11 10.857-11.064zM11.092 18.91c-.196-1.34-.152-2.865.087-3.204.48-.096.976.029 1.354.338v5.166a4.815 4.815 0 0 1-1.443-2.3h.002zM9.4 31.052l1.904-8.84c.41.4.868.748 1.363 1.034a33.523 33.523 0 0 0 3.783 9.042v1.352a12.575 12.575 0 0 1-7.05-2.588zm36.033 14.381H1.567v-2.036a3.906 3.906 0 0 1 3.497-3.893l11.481-1.054c.297 1.708 1.56 5.416 6.955 5.416s6.658-3.707 6.955-5.415l11.471 1.053a3.908 3.908 0 0 1 3.507 3.893v2.036z" mask="url(#b)"/>
    </g>
</svg>
