<svg xmlns="http://www.w3.org/2000/svg" width="90" height="90" viewBox="0 0 90 90">
    <path fill="#88C74A" fill-rule="evenodd" d="M60.966 57.33L55 56.63a13.16 13.16 0 0 0 4.333-9.65v-4.637c.32-.544.554-1.135.691-1.751.253-1.532.396-4.07-.69-4.995v-2.006A13.472 13.472 0 0 0 45.96 20H44.04c-7.442.07-13.423 6.149-13.372 13.591v2.012c-1.087.927-.95 3.468-.685 5.028.138.605.369 1.184.685 1.718v4.63A13.16 13.16 0 0 0 35 56.63l-5.968.7a6.753 6.753 0 0 0-5.953 6.697v4.03a2.53 2.53 0 0 0 2.53 2.53H64.39a2.53 2.53 0 0 0 2.53-2.53v-4.03a6.754 6.754 0 0 0-5.955-6.697zM31.643 40.352c-.21-1.443-.163-3.083.094-3.448a1.751 1.751 0 0 1 1.46.364v5.56a5.243 5.243 0 0 1-1.554-2.476zm26.62-3.447c.253.364.303 2.003.1 3.407a5.223 5.223 0 0 1-1.56 2.516v-5.56a1.753 1.753 0 0 1 1.46-.363zm-3.146-.613l-2.472 2.079a3.773 3.773 0 0 0-6.16.178h-2.97a3.776 3.776 0 0 0-6.195-.136l-2.438-1.932v-.94c0-.277-.056-.23 2.722-1.806 2.223-1.26 5.268-2.985 7.22-4.406a.307.307 0 0 1 .35 0c2.964 2.157 8.844 5.237 9.837 5.94.146.106.106.36.106 1.023zm-5.48 2.257a2.108 2.108 0 1 1 0 4.215 2.108 2.108 0 0 1 0-4.215zm-9.274 0a2.108 2.108 0 1 1 0 4.215 2.108 2.108 0 0 1 0-4.215zm-5.48.084l1.75 1.387a3.782 3.782 0 1 0 7.48.215h1.772a3.784 3.784 0 1 0 7.475-.263l1.757-1.476c0 5.998.08 6.06-.26 7.025-.373 1.05-5.344 9.046-9.857 9.046-4.513 0-9.484-7.997-9.856-9.045-.346-.983-.261-1.058-.261-6.89zm4.215 14.816c4.152 3.724 7.644 3.732 11.804 0v3.48c-1.393 2.503-10.427 2.485-11.804.01v-3.49zm-1.317 4.553c.642.94 2.417 2.467 7.219 2.467 4.802 0 6.577-1.528 7.219-2.467l1.804.211c-.97 2.236-4.732 3.943-9.023 3.943-4.29 0-8.055-1.707-9.021-3.943l1.802-.211zm14.878-1.647c-.102-.012-.07.496-.07-4.606a24.028 24.028 0 0 0 3.858-5.665 6.3 6.3 0 0 0 .273-1.096c.325-.193.635-.41.928-.648v2.64a11.605 11.605 0 0 1-4.99 9.375zm-8.62-34.669h1.922a11.787 11.787 0 0 1 11.686 11.905v1.602a3.574 3.574 0 0 0-.861.19 2 2 0 0 0-.787-1.484c-1.126-.8-6.897-3.801-9.834-5.938a2.005 2.005 0 0 0-2.33 0c-2.962 2.156-8.67 5.115-9.848 5.95-.46.356-.742.895-.773 1.476a3.58 3.58 0 0 0-.86-.19v-1.602c-.055-6.513 5.173-11.84 11.685-11.909zM32.353 46.98v-2.644c.293.24.603.456.928.649.058.373.15.74.274 1.096a23.959 23.959 0 0 0 3.857 5.668c0 5.078.032 4.594-.07 4.606a11.6 11.6 0 0 1-4.989-9.375zm32.882 21.078a.843.843 0 0 1-.844.842H25.61a.843.843 0 0 1-.844-.842v-4.03a5.065 5.065 0 0 1 4.469-5.023l5.025-.59c.981 3.145 5.38 5.427 10.741 5.427 5.36 0 9.76-2.282 10.744-5.426l5.023.59a5.066 5.066 0 0 1 4.468 5.021v4.03z"/>
</svg>
