<svg xmlns="http://www.w3.org/2000/svg" xmlns:xlink="http://www.w3.org/1999/xlink" width="90" height="90" viewBox="0 0 90 90">
    <defs>
        <path id="a" d="M.5 0h50v46H.5z"/>
    </defs>
    <g fill="none" fill-rule="evenodd">
        <path fill="#D8D8D8" fill-opacity="0" d="M0 0h90v90H0z"/>
        <g transform="translate(20 22)">
            <mask id="b" fill="#fff">
                <use xlink:href="#a"/>
            </mask>
            <path fill="#88C74A" d="M48.417 36.252a5.219 5.219 0 0 1-3.563 4.959l-.73.245a47.426 47.426 0 0 1-15.067 2.453H27.55A47.592 47.592 0 0 1 3.91 37.608c-1.04-.596-1.547-1.788-1.233-2.898.322-1.138.485-2.616.485-4.392 0-2.436 1.323-6.748 3.829-12.473 2.1-4.802 5.094-9.174 8.9-12.994a9.308 9.308 0 0 1 6.638-2.76c1.057 0 2.08.311 2.96.9l2.528 1.691c.261.175.428.454.459.767.031.313-.079.62-.3.842l-3.327 3.34a1.163 1.163 0 0 1-1.348.22 1.16 1.16 0 0 1-.63-.861 1.162 1.162 0 0 1 .326-1.017l.958-.961a1.048 1.048 0 0 0 0-1.478 1.039 1.039 0 0 0-1.473 0l-.958.96a3.237 3.237 0 0 0-.91 2.831c.17 1.048.81 1.92 1.756 2.396a3.24 3.24 0 0 0 3.752-.612L28.6 8.822c.281.407.26.964-.1 1.326l-4.167 4.182a1.046 1.046 0 0 1-.737.306h-4.864c.066-.109.128-.22.213-.306a1.048 1.048 0 0 0 0-1.478 1.039 1.039 0 0 0-1.473 0c-1.704 1.71-1.29 4.6-.81 7.947.248 1.738.505 3.534.505 5.337 0 4.307-3.247 5.224-3.385 5.26a1.046 1.046 0 0 0 .513 2.027c1.247-.313 3.29-1.514 4.318-3.978.014-.02.037-.026.05-.047a9.339 9.339 0 0 1 7.879-4.307c2.488 0 4.832.968 6.599 2.726.409.406 1.069.404 1.473-.006a1.048 1.048 0 0 0-.006-1.479c-.482-.48-1.01-.893-1.557-1.274 1.958-3.806 5.84-6.24 10.157-6.24l.309.004c2.701.072 4.9 2.419 4.9 5.233v12.197zm-4.844-19.52l-.365-.005c-5.078 0-9.646 2.85-11.97 7.31A11.357 11.357 0 0 0 26.542 23c-2.726 0-5.29.975-7.319 2.674-.039-1.796-.272-3.584-.5-5.173-.194-1.359-.381-2.677-.393-3.775l5.266.001a3.1 3.1 0 0 0 2.21-.919l4.166-4.181c1.191-1.196 1.2-3.113.062-4.341a3.122 3.122 0 0 0 .514-2.043 3.125 3.125 0 0 0-1.376-2.3l-2.53-1.692A7.375 7.375 0 0 0 22.529 0a11.373 11.373 0 0 0-8.11 3.372c-3.991 4.005-7.131 8.592-9.337 13.632-2.657 6.073-4.003 10.553-4.003 13.314 0 1.583-.137 2.868-.406 3.822-.576 2.036.33 4.209 2.203 5.283A49.678 49.678 0 0 0 27.55 46h1.507c5.355 0 10.647-.862 15.728-2.562l.73-.245a7.305 7.305 0 0 0 4.985-6.941V24.055c0-3.937-3.108-7.223-6.927-7.324z" mask="url(#b)"/>
        </g>
    </g>
</svg>
