<svg xmlns="http://www.w3.org/2000/svg" width="90" height="90" viewBox="0 0 90 90">
    <g fill="none" fill-rule="evenodd">
        <path fill="#D8D8D8" fill-opacity="0" d="M0 0h90v90H0z"/>
        <g fill="#88C74A">
            <path d="M21.667 59.538h46.666v-9.692H21.667v9.692zM65 64.385h1.667v-3.231H65v3.23zm-41.667 0H25v-3.231h-1.667v3.23zm0-18.577c0-1.339 1.12-2.423 2.5-2.423h38.334c1.38 0 2.5 1.084 2.5 2.423v2.423H23.333v-2.423zm18.334-8.077v1.615c0 1.338-1.12 2.423-2.5 2.423H32.5c-1.38 0-2.5-1.085-2.5-2.423v-1.615c0-1.338 1.12-2.423 2.5-2.423h6.667c1.38 0 2.5 1.085 2.5 2.423zm18.333 0v1.615c0 1.338-1.12 2.423-2.5 2.423h-6.667c-1.38 0-2.5-1.085-2.5-2.423v-1.615c0-1.338 1.12-2.423 2.5-2.423H57.5c1.38 0 2.5 1.085 2.5 2.423zm-34.167-7.27h38.334V41.77h-3.355a3.918 3.918 0 0 0 .855-2.423v-1.615c-.003-2.23-1.867-4.036-4.167-4.039h-6.667c-2.3.003-4.164 1.81-4.166 4.039v1.615c.003.877.303 1.728.855 2.423h-5.044a3.918 3.918 0 0 0 .855-2.423v-1.615c-.002-2.23-1.866-4.036-4.166-4.039H32.5c-2.3.003-4.164 1.81-4.167 4.039v1.615c.003.877.304 1.728.855 2.423h-3.355V30.462zm1.667-4.846c.92 0 1.667.724 1.667 1.616 0 .892-.746 1.615-1.667 1.615-.92 0-1.667-.723-1.667-1.615s.746-1.616 1.667-1.616zm35 0c.92 0 1.667.724 1.667 1.616 0 .892-.746 1.615-1.667 1.615-.92 0-1.667-.723-1.667-1.615s.746-1.616 1.667-1.616zm6.667 22.616h-.834v-2.423c-.002-1.604-.983-3.055-2.5-3.696V29.654a.807.807 0 0 0-.5-.74 3.125 3.125 0 0 0 .5-1.683c0-1.785-1.492-3.231-3.333-3.231-1.84 0-3.333 1.446-3.333 3.23.003.57.163 1.127.463 1.616H30.37c.3-.489.46-1.046.463-1.615 0-1.785-1.492-3.231-3.333-3.231-1.84 0-3.333 1.446-3.333 3.23.001.596.175 1.179.5 1.684a.807.807 0 0 0-.5.74v12.458c-1.517.641-2.498 2.092-2.5 3.696v2.423h-.834a.82.82 0 0 0-.833.807v11.308a.82.82 0 0 0 .833.808h.834v4.038A.82.82 0 0 0 22.5 66h3.333a.82.82 0 0 0 .834-.808v-4.038h36.666v4.038a.82.82 0 0 0 .834.808H67.5a.82.82 0 0 0 .833-.808v-4.038h.834a.82.82 0 0 0 .833-.808V49.038a.82.82 0 0 0-.833-.807z"/>
            <path d="M23.833 58h3.334c.46 0 .833-.448.833-1s-.373-1-.833-1h-3.334c-.46 0-.833.448-.833 1s.373 1 .833 1M31.818 58h34.364c.452 0 .818-.448.818-1s-.366-1-.818-1H31.818c-.452 0-.818.448-.818 1s.366 1 .818 1"/>
        </g>
    </g>
</svg>
