<svg xmlns="http://www.w3.org/2000/svg" xmlns:xlink="http://www.w3.org/1999/xlink" width="90" height="90" viewBox="0 0 90 90">
    <defs>
        <path id="a" d="M0 0h45v44.993H0z"/>
    </defs>
    <g fill="none" fill-rule="evenodd">
        <path fill="none" d="M0 0h90v90H0z"/>
        <g transform="translate(23 23)">
            <mask id="b" fill="#fff">
                <use xlink:href="#a"/>
            </mask>
            <path fill="#88C74A" d="M17.287 13.086a.879.879 0 0 0 .966-1.47 6.889 6.889 0 0 0-5.25-.991 6.94 6.94 0 0 0-4.426 3.064.878.878 0 1 0 1.478.95 5.198 5.198 0 0 1 3.312-2.295 5.145 5.145 0 0 1 3.92.742z" mask="url(#b)"/>
            <path fill="#88C74A" d="M41.562 34.455c.357-.572.691-1.16.998-1.766a.876.876 0 0 0 .05-.671.87.87 0 0 0-.438-.51.873.873 0 0 0-.77-.012.867.867 0 0 0-.41.398 20.858 20.858 0 0 1-2.094 3.319 3.462 3.462 0 0 0-2.172-.76 3.47 3.47 0 0 0-2.48 1.035 3.548 3.548 0 0 0-.45 4.42c-.801.518-1.643.985-2.523 1.396a20.606 20.606 0 0 1-15.862.705 20.75 20.75 0 0 1-6.457-3.772l1.799-1.814a3.544 3.544 0 0 0 0-4.978 3.472 3.472 0 0 0-2.48-1.035c-.894 0-1.736.335-2.385.944a3.465 3.465 0 0 0-2.573-.938c-1.984-4.797-2.105-10.087-.324-15A20.623 20.623 0 0 1 13.71 3.696a20.608 20.608 0 0 1 15.862-.704c1.3.472 2.534 1.067 3.691 1.767a3.533 3.533 0 0 0 .983 3.012l4.241 4.274a.88.88 0 0 0 1.248 0l.422-.425a20.734 20.734 0 0 1 2.971 13.032.881.881 0 0 0 1.246.89.872.872 0 0 0 .502-.705 22.34 22.34 0 0 0-.17-5.967 22.548 22.548 0 0 0-1.827-5.9 22.105 22.105 0 0 0-1.455-2.627l2.552-2.572a3.544 3.544 0 0 0 0-4.98 3.47 3.47 0 0 0-2.48-1.033c-.894 0-1.736.334-2.385.943a3.467 3.467 0 0 0-2.385-.943 3.47 3.47 0 0 0-2.775 1.374 22.181 22.181 0 0 0-3.257-1.598c-5.697-2.231-12.188-2.018-17.727.571C7.357 4.727 2.99 9.666 1.08 15.564c-1.62 5.005-1.407 10.518.557 15.386a3.544 3.544 0 0 0-.615 5.473l4.241 4.274a.877.877 0 0 0 1.248 0l1.216-1.226a22.458 22.458 0 0 0 6.518 3.979c5.703 2.247 12.223 2.041 17.773-.553a22.647 22.647 0 0 0 2.976-1.676l3.492 3.519a.877.877 0 0 0 1.248 0l4.241-4.274a3.543 3.543 0 0 0 0-4.978 3.47 3.47 0 0 0-2.414-1.033zM35.494 4.03c.33-.332.766-.515 1.232-.515.464 0 .902.183 1.23.515l.531.534a.877.877 0 0 0 1.248 0l.53-.535c.33-.332.767-.514 1.231-.514.466 0 .903.183 1.233.514.684.69.684 1.813 0 2.502l-3.618 3.646-3.617-3.646a1.78 1.78 0 0 1 0-2.501zM5.888 38.83l-3.617-3.646a1.78 1.78 0 0 1 0-2.502c.33-.332.766-.515 1.231-.515.465 0 .903.183 1.232.515l.53.534a.878.878 0 0 0 1.248 0l.53-.534c.33-.332.767-.515 1.231-.515.466 0 .903.183 1.232.515.685.69.685 1.812 0 2.502L5.888 38.83zm36.84.397l-3.617 3.645-3.617-3.645a1.78 1.78 0 0 1 0-2.502c.33-.332.766-.515 1.232-.515.464 0 .902.183 1.23.515l.531.534a.877.877 0 0 0 1.248 0l.53-.534c.33-.332.767-.515 1.231-.515.466 0 .903.183 1.233.515.684.69.684 1.812 0 2.502z" mask="url(#b)"/>
        </g>
        <g fill="#88C74A">
            <path d="M37.83 44.477a3.584 3.584 0 0 0 3.58-3.58 3.584 3.584 0 0 0-3.58-3.579 3.583 3.583 0 0 0-3.58 3.58 3.583 3.583 0 0 0 3.58 3.58zm0-5.369c.986 0 1.79.803 1.79 1.79 0 .986-.804 1.79-1.79 1.79-.988 0-1.79-.804-1.79-1.79 0-.987.802-1.79 1.79-1.79zM57.773 40.898a3.583 3.583 0 0 0-3.58-3.58 3.583 3.583 0 0 0-3.58 3.58 3.583 3.583 0 0 0 3.58 3.58 3.583 3.583 0 0 0 3.58-3.58zm-3.58 1.79c-.986 0-1.79-.804-1.79-1.79 0-.987.804-1.79 1.79-1.79.987 0 1.79.803 1.79 1.79 0 .986-.803 1.79-1.79 1.79zM38.333 57.197c1.945 1.715 4.246 2.621 6.655 2.621 2.41 0 4.711-.906 6.656-2.62 1.857-1.638 3.257-3.892 4.048-6.52a.819.819 0 0 0-.145-.748.91.91 0 0 0-.715-.34H35.145a.91.91 0 0 0-.715.34.819.819 0 0 0-.145.748c.792 2.628 2.191 4.882 4.048 6.52zm15.263-5.902c-1.62 4.122-4.97 6.819-8.608 6.819-3.637 0-6.987-2.697-8.607-6.819h17.215z"/>
            <path d="M58.198 37.89a.86.86 0 0 0 .74.45.81.81 0 0 0 .476-.155c.409-.294.527-.902.264-1.359-1.021-1.775-2.596-2.992-4.432-3.428-1.827-.432-3.694-.038-5.258 1.11-.406.298-.52.908-.252 1.361.267.454.813.58 1.219.282 1.168-.858 2.562-1.152 3.925-.83 1.374.326 2.552 1.238 3.318 2.568zM66.977 51.636a1.023 1.023 0 1 1-2.045 0 1.023 1.023 0 0 1 2.045 0z"/>
        </g>
    </g>
</svg>
