<svg xmlns="http://www.w3.org/2000/svg" xmlns:xlink="http://www.w3.org/1999/xlink" width="90" height="90" viewBox="0 0 90 90">
    <defs>
        <path id="a" d="M0 0h41.902v54H0z"/>
    </defs>
    <g fill="none" fill-rule="evenodd">
        <path fill="none" d="M0 0h90v90H0z"/>
        <g transform="translate(24 18)">
            <mask id="b" fill="#fff">
                <use xlink:href="#a"/>
            </mask>
            <path fill="#88C74A" d="M6.65 12.955a8.011 8.011 0 0 1-3.53.545C1.397 13.5 0 14.91 0 16.65V51.3C0 52.79 1.197 54 2.675 54h23.497a3.536 3.536 0 0 0 2.51-1.052l.007-.006c.331.335.725.6 1.159.78l.027.013.016.008a3.275 3.275 0 0 0 1.313.257h7.132c1.97 0 3.566-1.612 3.566-3.6s-1.596-3.6-3.566-3.6h-3.895a3.59 3.59 0 0 0-.714-4.037 3.631 3.631 0 0 0-5.043 0l-5.039 5.087a3.586 3.586 0 0 0-.554 4.35H2.675a.896.896 0 0 1-.892-.9v-9h24.963a.896.896 0 0 0 .892-.9c0-.497-.4-.9-.892-.9H1.783v-18h28.53v16.2c0 .497.399.9.891.9a.896.896 0 0 0 .891-.9V16.65a3.128 3.128 0 0 0-3.12-3.15c-3.316 0-4.012-.735-4.012-1.35V10.8c1.478 0 2.675-1.209 2.675-2.7V2.7c0-1.491-1.197-2.7-2.675-2.7H7.133C5.655 0 4.458 1.209 4.458 2.7v5.4c0 1.491 1.197 2.7 2.675 2.7v1.35a.8.8 0 0 1-.483.805zm23.935 39.123a.851.851 0 0 0-.099-.035 1.752 1.752 0 0 1-.542-.371l3.043-3.072h.892v3.6h-2.675a1.503 1.503 0 0 1-.62-.122zm9.534-1.678c0 .994-.798 1.8-1.783 1.8h-2.674v-3.6h2.674c.985 0 1.783.806 1.783 1.8zm-10.176-6.364a1.771 1.771 0 0 1 1.735-.49c.623.164 1.11.655 1.273 1.285a1.811 1.811 0 0 1-.486 1.75l-1.891 1.91-2.523-2.546 1.892-1.909zM24.9 49.127l1.89-1.91 2.523 2.547-1.174 1.185-.02.02-.697.704a1.771 1.771 0 0 1-1.722.466 1.79 1.79 0 0 1-1.261-1.273 1.812 1.812 0 0 1 .46-1.739zM6.24 8.1V2.7c0-.497.4-.9.893-.9h.891v2.7c0 .497.4.9.892.9a.896.896 0 0 0 .891-.9V1.8h1.783v2.7c0 .497.4.9.892.9a.896.896 0 0 0 .891-.9V1.8h1.783v2.7c0 .497.4.9.892.9a.896.896 0 0 0 .891-.9V1.8h1.783v2.7c0 .497.4.9.892.9a.896.896 0 0 0 .892-.9V1.8h1.783v2.7c0 .497.399.9.891.9a.896.896 0 0 0 .892-.9V1.8h.891c.493 0 .892.403.892.9v5.4c0 .497-.4.9-.892.9H7.133a.896.896 0 0 1-.892-.9zm1.273 6.43a2.604 2.604 0 0 0 1.403-2.38V10.8H23.18v1.35c0 3.15 4.362 3.15 5.795 3.15.355-.002.697.14.948.393.251.254.391.598.39.957v4.05H1.782v-4.05c0-.746.599-1.35 1.337-1.35a9.24 9.24 0 0 0 4.393-.77z" mask="url(#b)"/>
        </g>
        <path fill="#88C74A" d="M46.911 48.647c-.665-2.758-4.875-4.605-12.87-5.646-.018 0-.034.005-.05 0a.939.939 0 0 0-.224.017.829.829 0 0 0-.144.024.877.877 0 0 0-.22.117.793.793 0 0 0-.092.047l-.01.01a.906.906 0 0 0-.192.247c-.008.016-.024.026-.031.042v.004a.844.844 0 0 0-.077.35l-.001.01c0 1.008.123 9.911 4.357 11.854.54.25 1.133.377 1.734.375a6.802 6.802 0 0 0 3.583-1.23c.17.47.314.947.432 1.431.087.408.463.701.898.701a.91.91 0 0 0 .184-.018c.496-.097.816-.56.715-1.033a15.79 15.79 0 0 0-.675-2.181c1.11-.86 3.23-2.85 2.683-5.121zm-8.76 5.498c-2.283-1.05-3.07-5.865-3.263-8.824 3.18 1.84 5.667 4.596 7.099 7.873-1.567 1.075-2.858 1.4-3.835.951zm.224-8.626c5.295 1.168 6.535 2.639 6.748 3.515.259 1.063-.722 2.235-1.631 3.03a19.124 19.124 0 0 0-5.117-6.545zM28.842 67c-.465 0-.842.448-.842 1s.377 1 .842 1h6.316c.465 0 .842-.448.842-1s-.377-1-.842-1h-6.316zM36.842 33h6.316c.465 0 .842-.448.842-1s-.377-1-.842-1h-6.316c-.465 0-.842.448-.842 1s.377 1 .842 1z"/>
    </g>
</svg>
