<svg xmlns="http://www.w3.org/2000/svg" width="90" height="90" viewBox="0 0 90 90">
    <defs>
        <path id="a" d="M26 19h38v53H26z"/>
    </defs>
    <g fill="none" fill-rule="evenodd">
        <path fill="#D8D8D8" fill-opacity="0" d="M0 0h90v90H0z"/>
        <g fill="#88C74A">
            <path d="M62.583 50.136h-.037c.788-1.06 1.48-2.481 1.453-4.19-.037-2.312-1.385-4.572-4.007-6.72.328-1.01.398-2.004.206-2.978-.763-3.86-4.85-5.4-8.6-6.258.133-.453.206-.934.206-1.432a5.003 5.003 0 0 0-2.536-4.372c1.502-3.124 3.504-3.469 4.31-3.469 1.025 0 1.67.225 2.044.428.29.158.641.133.903-.071a.869.869 0 0 0-.116-1.441c-.6-.328-1.514-.633-2.832-.633-1.606 0-3.113.757-4.357 2.19a10.357 10.357 0 0 0-1.552 2.444 4.757 4.757 0 0 0-.724-.055c-1.822 0-3.412 1.034-4.244 2.559a5.602 5.602 0 0 1-.877-1.307.843.843 0 0 0-.503-.45.82.82 0 0 0-.663.07c-2.505 1.44-4.334 3.359-5.436 5.702a11.792 11.792 0 0 0-1.12 4.924c-.07.028-.141.056-.207.085-2.168.953-3.418 2.766-3.616 5.244a9.69 9.69 0 0 0 .147 2.514c-1.726.634-2.926 1.845-3.359 3.433-.341 1.253-.165 2.612.44 3.783h-.668a.828.828 0 0 0-.655.323.875.875 0 0 0-.162.726l4.152 18.72C30.446 71.14 31.499 72 32.733 72h23.955c1.233 0 2.286-.861 2.56-2.094L63.4 51.185a.875.875 0 0 0-.163-.726.828.828 0 0 0-.654-.323zm-15.639-24.84c1.756 0 3.184 1.463 3.184 3.262s-1.428 3.263-3.184 3.263c-1.755 0-3.183-1.464-3.183-3.263s1.428-3.262 3.183-3.262zM32.733 70.282a.95.95 0 0 1-.926-.757l-3.92-17.672H30.6l2.995 18.007c.024.146.059.287.1.422h-.961zm2.994 0c-.152 0-.404-.247-.48-.71l-2.948-17.719h2.727l1.992 17.96c.018.163.044.32.079.47h-1.37zm3.146 0c-.058-.096-.151-.309-.19-.664l-1.97-17.765h2.738l.993 17.911c.01.184.026.357.046.518h-1.617zm5 0h-1.685a4.586 4.586 0 0 1-.071-.615l-.988-17.814H43.872v18.43zm3.431-.615a4.48 4.48 0 0 1-.072.615h-1.684V51.853h2.744l-.988 17.814zm3.244.615H48.93c.02-.161.037-.334.047-.518l.993-17.91h2.738l-1.97 17.764c-.039.355-.132.568-.19.664zm3.146 0h-1.37c.034-.149.06-.306.079-.47l1.992-17.959h2.727l-2.947 17.718c-.078.464-.329.711-.481.711zm3.92-.757a.95.95 0 0 1-.926.757h-.962a3.22 3.22 0 0 0 .1-.422l2.996-18.007h2.711l-3.92 17.672zm2.668-19.389H47.436c1.884-1.009 4.323-2.422 6.622-4.075a.872.872 0 0 0 .205-1.196.825.825 0 0 0-1.167-.21c-3.99 2.87-8.56 5.06-9.46 5.481H29.544c-.832-.921-1.171-2.193-.864-3.322.349-1.278 1.473-2.173 3.168-2.52a134.78 134.78 0 0 0 10.492-2.617.861.861 0 0 0 .574-1.062.834.834 0 0 0-1.037-.588 133.146 133.146 0 0 1-9.829 2.473c-.256-1.413-.425-4.472 2.506-5.76 1.132-.497 3.425-.924 5.852-1.378l.811-.151a.857.857 0 0 0 .673-1 .84.84 0 0 0-.975-.689l-.809.151c-1.567.293-3.08.575-4.315.885.114-2.001.94-5.534 4.974-8.173.303.464.628.845.887 1.119.18.19.334.34.47.46a5.097 5.097 0 0 0-.037.594c0 2.746 2.18 4.98 4.86 4.98 1.574 0 2.975-.772 3.864-1.965 1.652.36 3.02.776 4.124 1.263.209.325.18.558.122.744-.208.669-1.506 2.506-9.045 5.128a.864.864 0 0 0-.524 1.088.84.84 0 0 0 .794.583c.089 0 .18-.014.269-.046 2.702-.939 4.895-1.878 6.515-2.789 2.052-1.153 3.226-2.278 3.588-3.442.026-.085.048-.171.066-.257 1.03.767 1.625 1.671 1.837 2.744.308 1.56-.384 3.283-2.056 5.12a.874.874 0 0 0 .04 1.213.822.822 0 0 0 1.184-.041 12.376 12.376 0 0 0 1.537-2.05c2.006 1.725 3.037 3.454 3.064 5.143.03 1.873-1.177 3.348-2.042 4.162z"/>
        </g>
    </g>
</svg>
