<svg xmlns="http://www.w3.org/2000/svg" width="90" height="90" viewBox="0 0 90 90">
    <g fill="none" fill-rule="evenodd">
        <path fill="#D8D8D8" fill-opacity="0" d="M0 0h90v90H0z"/>
        <g fill="#88C74A" fill-rule="nonzero">
            <path d="M46 52.483v-17.64a.854.854 0 0 0-.865-.843H31.63a.854.854 0 0 0-.864.843c0 .465.387.842.864.842h12.642v16.63H26.729v-16.63h1.442a.854.854 0 0 0 .864-.842.854.854 0 0 0-.864-.843h-2.306a.854.854 0 0 0-.865.843v17.64c0 .837.698 1.517 1.556 1.517h17.888c.858 0 1.556-.68 1.556-1.517z"/>
            <path d="M68 38.63c0-2.674-2.16-4.85-4.816-4.85-1.32 0-2.565.547-3.461 1.48a4.802 4.802 0 0 0-3.462-1.48c-2.655 0-4.816 2.176-4.816 4.85 0 1.066.337 2.077.974 2.925l6.448 8.585v11.35c0 4.845-3.887 8.787-8.664 8.787-4.81 0-8.725-3.942-8.725-8.788v-.558h1.084a.859.859 0 0 0 .856-.861v-2.392h1.24c2.737 0 4.963-2.242 4.963-4.998V27.518c0-2.756-2.226-4.998-4.962-4.998h-3.955v-1.466c0-1.684-1.36-3.054-3.032-3.054h-3.723c-1.672 0-3.032 1.37-3.032 3.054v1.466h-3.955c-2.736 0-4.962 2.242-4.962 4.998V52.68c0 2.756 2.226 4.998 4.962 4.998h1.241v2.392c0 .476.383.861.856.861h3.878a.859.859 0 0 0 .856-.861v-2.392h4.035v2.392c0 .476.383.861.856.861h1.084v.558c0 5.796 4.68 10.511 10.435 10.511a10.24 10.24 0 0 0 7.352-3.081c1.95-1.981 3.023-4.62 3.023-7.43V50.14l6.448-8.584A4.83 4.83 0 0 0 68 38.631zM32.628 21.055c0-.734.592-1.33 1.32-1.33h3.724c.728 0 1.321.596 1.321 1.33v1.466h-6.365v-1.466zm6.056 34.9h-5.747a.859.859 0 0 0-.856.862v2.392h-2.167v-2.392a.859.859 0 0 0-.855-.862h-2.097c-1.793 0-3.251-1.468-3.251-3.274V27.518c0-1.805 1.458-3.274 3.251-3.274h17.697c1.793 0 3.25 1.469 3.25 3.274V52.68c0 1.806-1.457 3.274-3.25 3.274h-2.097a.859.859 0 0 0-.855.862v2.392h-2.168v-2.392a.859.859 0 0 0-.855-.862zm26.978-15.439l-5.94 7.907-5.938-7.907a3.113 3.113 0 0 1-.628-1.884c0-1.725 1.393-3.128 3.105-3.128 1.126 0 2.166.617 2.714 1.61a.855.855 0 0 0 1.495 0 3.106 3.106 0 0 1 2.714-1.61c1.712 0 3.105 1.403 3.105 3.128 0 .687-.217 1.338-.627 1.884z"/>
        </g>
    </g>
</svg>
