<svg xmlns="http://www.w3.org/2000/svg" xmlns:xlink="http://www.w3.org/1999/xlink" width="90" height="90" viewBox="0 0 90 90">
    <defs>
        <path id="a" d="M.006.092H51v49.81H.006z"/>
    </defs>
    <g fill="none" fill-rule="evenodd">
        <path fill="none" d="M0 0h90v90H0z"/>
        <g transform="translate(20 20)">
            <mask id="b" fill="#fff">
                <use xlink:href="#a"/>
            </mask>
            <path fill="#88C74A" d="M47.392 19.854a5.52 5.52 0 0 1-3.908 1.603 5.52 5.52 0 0 1-4.117-1.82 1 1 0 0 0-1.446-.04l-17.867 17.69a.98.98 0 0 0-.014 1.38c2.068 2.133 2.032 5.568-.08 7.659a5.52 5.52 0 0 1-3.908 1.603 5.52 5.52 0 0 1-3.909-1.603 5.418 5.418 0 0 1-1.195-5.974.98.98 0 0 0-.216-1.076 1 1 0 0 0-1.087-.213c-.675.278-1.39.419-2.126.419a5.519 5.519 0 0 1-3.908-1.603 5.41 5.41 0 0 1-1.619-3.87 5.41 5.41 0 0 1 1.62-3.87 5.519 5.519 0 0 1 3.908-1.602c1.434 0 2.793.54 3.826 1.523.391.372 1.011.366 1.395-.014l17.88-17.703a.979.979 0 0 0 .064-1.326 5.407 5.407 0 0 1 .358-7.35 5.52 5.52 0 0 1 3.909-1.603 5.52 5.52 0 0 1 3.908 1.603 5.419 5.419 0 0 1 1.196 5.975.98.98 0 0 0 .215 1.076c.285.282.714.366 1.087.213a5.556 5.556 0 0 1 2.126-.419c1.476 0 2.864.57 3.908 1.603a5.44 5.44 0 0 1 0 7.739zm1.409-9.134a7.508 7.508 0 0 0-5.317-2.18c-.367 0-.73.025-1.089.077a7.376 7.376 0 0 0-2.126-6.344 7.509 7.509 0 0 0-5.317-2.18 7.509 7.509 0 0 0-5.318 2.18 7.39 7.39 0 0 0-1.022 9.27l-16.634 16.47a7.53 7.53 0 0 0-4.458-1.449 7.508 7.508 0 0 0-5.317 2.18A7.36 7.36 0 0 0 0 34.01a7.36 7.36 0 0 0 2.203 5.265 7.508 7.508 0 0 0 5.316 2.18c.367 0 .73-.026 1.089-.077a7.375 7.375 0 0 0 2.126 6.344 7.509 7.509 0 0 0 5.318 2.18 7.509 7.509 0 0 0 5.317-2.18 7.366 7.366 0 0 0 2.202-5.193 7.349 7.349 0 0 0-1.462-4.485l16.529-16.365a7.51 7.51 0 0 0 4.846 1.751 7.509 7.509 0 0 0 5.317-2.18 7.401 7.401 0 0 0 0-10.53z" mask="url(#b)"/>
        </g>
        <path fill="#88C74A" d="M40.207 44.308l-4.9 4.899a1.05 1.05 0 1 0 1.486 1.485l4.9-4.899a1.05 1.05 0 0 0-1.486-1.485M42.312 42.29l-.022.022a.989.989 0 0 0 1.398 1.398l.022-.022a.989.989 0 0 0-1.398-1.398"/>
    </g>
</svg>
