<svg xmlns="http://www.w3.org/2000/svg" width="90" height="90" viewBox="0 0 90 90">
    <path fill="#88C74A" fill-rule="evenodd" d="M65.142 69.315h-3.344c-3.912-3.28-9.662-5.216-15.94-5.379v-4.97l3.952-3.877c.722.131 1.455.197 2.188.197 3.38 0 6.776-1.372 9.303-3.851 3.194-3.136 4.584-7.634 3.626-11.741a.85.85 0 0 0-.645-.634c-4.185-.94-8.769.424-11.964 3.559-3.075 3.018-4.476 7.3-3.723 11.278l-2.737 2.687V41.052l2.578-2.53a9.141 9.141 0 0 0 1.507.124c2.517 0 5.046-1.02 6.926-2.866 2.378-2.333 3.412-5.685 2.698-8.746a.851.851 0 0 0-.645-.633c-3.12-.7-6.534.314-8.912 2.648-2.259 2.217-3.304 5.351-2.79 8.284l-1.362 1.336V37.04c0-2.601-1.023-5.046-2.881-6.896.51-2.931-.535-6.063-2.793-8.278-2.377-2.334-5.792-3.349-8.91-2.648a.85.85 0 0 0-.646.633c-.714 3.061.32 6.412 2.698 8.746 1.88 1.846 4.408 2.866 6.926 2.866a9.1 9.1 0 0 0 1.513-.126 8.012 8.012 0 0 1 2.377 5.703v12.356l-2.738-2.687c.753-3.98-.648-8.26-3.723-11.278-3.194-3.135-7.778-4.5-11.963-3.559a.851.851 0 0 0-.646.633c-.957 4.107.432 8.606 3.627 11.742 2.527 2.48 5.923 3.85 9.303 3.85.733 0 1.465-.065 2.188-.197l3.952 3.878v12.158c-6.279.162-12.028 2.099-15.94 5.38h-3.344a.85.85 0 0 0-.858.842.85.85 0 0 0 .858.842h40.284a.85.85 0 0 0 .858-.842.85.85 0 0 0-.858-.843zM52.575 44.321c2.762-2.565 6.65-3.756 10.27-3.178.623 3.363-.66 6.973-3.421 9.538-2.475 2.298-5.853 3.491-9.134 3.299l8.373-7.775a.791.791 0 0 0 0-1.178.946.946 0 0 0-1.268 0l-8.373 7.775c-.208-3.046 1.078-6.184 3.553-8.481zm-1.227-13.973c1.773-1.772 4.249-2.617 6.576-2.272.345 2.327-.5 4.803-2.272 6.576-1.494 1.493-3.486 2.327-5.468 2.348l4.794-4.794a.833.833 0 1 0-1.178-1.18l-4.8 4.8c.017-1.985.853-3.982 2.348-5.478zm-19.273-9.273c2.328-.343 4.804.501 6.577 2.274 1.493 1.492 2.327 3.485 2.348 5.467l-4.795-4.795a.833.833 0 1 0-1.178 1.18l4.8 4.799c-1.987-.018-3.983-.852-5.479-2.348-1.772-1.772-2.616-4.25-2.273-6.577zm-1.499 22.606c-2.762-2.565-4.044-6.175-3.422-9.537 3.622-.579 7.51.612 10.27 3.176 2.475 2.299 3.761 5.436 3.554 8.482l-8.372-7.775a.946.946 0 0 0-1.269 0 .791.791 0 0 0 0 1.178l8.373 7.775c-3.28.192-6.659-1.001-9.134-3.3zM45.5 65c5.066 0 9.932 1.467 13.5 4H32c3.567-2.533 8.434-4 13.5-4z"/>
</svg>
