<svg xmlns="http://www.w3.org/2000/svg" xmlns:xlink="http://www.w3.org/1999/xlink" width="90" height="90" viewBox="0 0 90 90">
    <defs>
        <path id="a" d="M.149 0h53.713v52.858H.149z"/>
    </defs>
    <g fill="none" fill-rule="evenodd">
        <g transform="translate(18 20)">
            <mask id="b" fill="#fff">
                <use xlink:href="#a"/>
            </mask>
            <path fill="#88C74A" d="M53.419 32.28l-.013-.02c-1.187-1.78-3.543-2.394-5.468-1.429l-5.736 2.886c-1.42-1.96-4.085-2.603-6.265-1.508l-7.223 3.643a2.66 2.66 0 0 1-2.434-.015l-4.922-2.572a11.584 11.584 0 0 0-11.942.712l-.556-2.61a.88.88 0 0 0-.388-.557.906.906 0 0 0-.675-.122L.855 32.16a.881.881 0 0 0-.687 1.041l4.04 18.95a.893.893 0 0 0 1.064.686l6.945-1.47a.882.882 0 0 0 .688-1.043l-.359-1.696 2.373-.503a6.216 6.216 0 0 1 2.104-.079l11.16 1.204a9.697 9.697 0 0 0 6.604-1.525l17.876-11.804a2.632 2.632 0 0 0 .756-3.642zM5.775 50.925L2.105 33.7l5.192-1.101 3.67 17.227-5.192 1.1zm45.892-16.464L33.79 46.265a7.907 7.907 0 0 1-5.397 1.233l-11.159-1.204a7.93 7.93 0 0 0-2.695.106l-2.365.5-2.36-11.048.612-.42a9.774 9.774 0 0 1 10.09-.61l4.923 2.571a4.477 4.477 0 0 0 4.091.028l7.225-3.648c1.5-.754 3.337-.22 4.18 1.214.249.421.108.96-.317 1.21l-9.96 5.814a8.001 8.001 0 0 1-5.792.903L15.884 40.8l-.414 1.714 8.99 2.114a9.805 9.805 0 0 0 7.112-1.101l9.96-5.815a2.632 2.632 0 0 0 1.303-2.337l5.914-2.978a2.471 2.471 0 0 1 3.15.819l.01.015a.896.896 0 0 1-.242 1.23z" mask="url(#b)"/>
            <path fill="#88C74A" d="M26.473 33.305a.907.907 0 0 0 1.054 0c8.98-6.448 14.51-12.596 16.518-18.33h4.6c.436 1.214 1.697 1.941 2.986 1.724 1.289-.218 2.23-1.318 2.23-2.605s-.941-2.387-2.23-2.605c-1.29-.217-2.55.51-2.986 1.724h-4.102c.152-.649.258-1.308.317-1.972a9.901 9.901 0 0 0-2.25-7.519A9.514 9.514 0 0 0 35.031 0 13.252 13.252 0 0 0 27 3.1 13.252 13.252 0 0 0 18.969 0a9.52 9.52 0 0 0-7.58 3.722 9.905 9.905 0 0 0-2.25 7.519c.54 6.77 6.371 14.193 17.334 22.064zm24.693-20.092c.362 0 .688.215.827.544a.87.87 0 0 1-.194.96.905.905 0 0 1-.976.191.881.881 0 0 1-.552-.814c0-.486.4-.88.895-.88zM12.719 4.901a.892.892 0 0 0 .112-.135 7.738 7.738 0 0 1 6.138-3.004c4.147 0 7.366 3.109 7.398 3.14a.901.901 0 0 0 1.266 0c.033-.034 3.228-3.14 7.398-3.14a7.68 7.68 0 0 1 6.138 3.004c.033.048.07.094.112.135a8.1 8.1 0 0 1 1.796 6.198 12.15 12.15 0 0 1-.367 2.114h-7.136l-3.322-5.725a.898.898 0 0 0-.841-.445.894.894 0 0 0-.77.555l-4.426 10.9L23.38 9.43a.9.9 0 0 0-1.623-.194l-2.425 3.977h-5.757v1.762h6.265a.897.897 0 0 0 .767-.427l1.65-2.71 2.99 9.563a.894.894 0 0 0 .818.616h.04c.366 0 .696-.22.831-.554l4.681-11.52 2.662 4.581a.898.898 0 0 0 .776.451h7.07C40.47 19.126 36.35 24.693 27 31.5c-12.612-9.182-15.708-16.113-16.07-20.33a8.097 8.097 0 0 1 1.79-6.27z" mask="url(#b)"/>
        </g>
        <path fill="#88C74A" d="M18 35h7v-2h-7z"/>
    </g>
</svg>
