<svg xmlns="http://www.w3.org/2000/svg" xmlns:xlink="http://www.w3.org/1999/xlink" width="90" height="90" viewBox="0 0 90 90">
    <defs>
        <path id="a" d="M.085.045h42.853V44H.085z"/>
    </defs>
    <g fill="none" fill-rule="evenodd">
        <path fill="#88C74A" d="M30.71 39.29a.99.99 0 0 1-.046 1.443.985.985 0 0 1-1.397-.046.99.99 0 0 1 .046-1.397.988.988 0 0 1 1.398 0"/>
        <g transform="matrix(-1 0 0 1 64 26)">
            <mask id="b" fill="#fff">
                <use xlink:href="#a"/>
            </mask>
            <path fill="#88C74A" d="M32.81 11.379a15.55 15.55 0 0 0-1.73-1.01c-3.288-1.637-6.773-1.965-10.077-.95a.978.978 0 0 0-.652 1.226.993.993 0 0 0 1.24.646c2.804-.862 5.777-.575 8.598.829.497.247 1.019.552 1.508.88a.994.994 0 0 0 1.376-.26.973.973 0 0 0-.263-1.361" mask="url(#b)"/>
            <path fill="#88C74A" d="M40 27.628c-.853.58-1.59 1.08-1.698 1.836-.149 1.039-.086 2.186-.026 3.296.075 1.376.16 2.936-.296 3.586-.985 1.405-1.838 1.418-4.942 1.248a68.01 68.01 0 0 0-3.803-.129c-.578-.067-1.557.04-2.21 1.297-.333.638-.511 1.44-.668 2.147-.08.355-.19.855-.295 1.13H13.66l.134-.333c1.428-3.555 2.332-6.162.956-7.339-2.917-2.495-4.777-5.873-5.31-9.6h.59c1.106 0 2.006-.89 2.006-1.985V17.05c.059-.63.224-1.014.957-1.458 2.345-1.421 3.817-3.812 4.028-6.487a15.874 15.874 0 0 1 8.056-2.183c4.72 0 10.23 2.887 12.814 6.717 1.108 1.641 2.178 4.194.984 7.037-.389.926.188 2.21 1.16 4.228.315.653.771 1.599.892 2.04-.205.194-.645.493-.927.684zM7.08 22.782v-1.408h2.974v1.408c0 .011-.013.025-.024.025H7.104c-.011 0-.025-.014-.025-.025zm0-3.368h2.974V17.98H7.08v1.434zM2.065 8.434c0-3.545 2.916-6.43 6.5-6.43 3.585 0 6.501 2.885 6.501 6.43 0 2.256-1.162 4.307-3.11 5.487-.925.56-1.475 1.215-1.736 2.1l-1.655-.001H6.913c-.261-.884-.811-1.538-1.737-2.1-1.947-1.18-3.11-3.23-3.11-5.486zM41.824 24.06c-.406-.843-1.079-2.239-1.09-2.7 1.158-2.825.735-5.95-1.195-8.81-2.968-4.397-9.05-7.59-14.462-7.59-2.861 0-5.655.676-8.168 1.964-.721-3.908-4.186-6.88-8.342-6.88C3.89.045.085 3.808.085 8.434c0 2.943 1.516 5.62 4.056 7.158.732.444.898.827.956 1.456v5.734c0 1.094.9 1.985 2.006 1.985h.337c.544 4.29 2.644 8.184 5.976 11.05.03.097.123.55-.271 1.905-.307 1.055-.777 2.226-1.192 3.26-.278.692-.518 1.29-.663 1.741a.972.972 0 0 0 .144.876.995.995 0 0 0 .8.401h14.143c.465 0 1.103-.206 1.505-1.186.175-.427.289-.94.41-1.484.117-.53.393-1.77.668-1.92 0 0 .016-.002.055.004.05.008.102.012.154.012 1.48 0 2.69.066 3.759.125 3.131.171 5.022.275 6.68-2.087.844-1.202.748-2.954.647-4.81-.052-.956-.106-1.943-.01-2.763.172-.169.605-.463.877-.647.934-.635 1.816-1.234 1.816-2.145 0-.692-.423-1.605-1.114-3.038z" mask="url(#b)"/>
        </g>
        <path fill="#88C74A" d="M53.419 31.953c-.641.318-1.03.75-1.19 1.322-.254.903.13 1.881.297 2.135.319.482.172 1.121-.328 1.428-.179.11-.378.162-.576.162-.354 0-.701-.169-.906-.478-.457-.692-.984-2.27-.56-3.786.317-1.131 1.105-2.038 2.279-2.62.526-.262 1.174-.063 1.445.444.272.508.065 1.131-.461 1.393M55 25c-.552 0-1-.462-1-1.03v-2.94c0-.568.448-1.03 1-1.03s1 .462 1 1.03v2.94c0 .568-.448 1.03-1 1.03M65 35c0-.552.462-1 1.03-1h2.94c.569 0 1.03.448 1.03 1s-.461 1-1.03 1h-2.94c-.569 0-1.03-.448-1.03-1M61.634 25.552a.872.872 0 0 1-.759.448.856.856 0 0 1-.437-.12.906.906 0 0 1-.32-1.223l1.248-2.21a.866.866 0 0 1 1.196-.327.906.906 0 0 1 .32 1.223l-1.248 2.21M67.552 28.634l-2.21 1.248a.905.905 0 0 1-1.222-.32.866.866 0 0 1 .328-1.197l2.21-1.248a.906.906 0 0 1 1.222.321c.247.419.1.954-.328 1.196M46.104 30a.906.906 0 0 1-.447-.118l-2.21-1.248a.865.865 0 0 1-.327-1.196.906.906 0 0 1 1.223-.32l2.21 1.248a.866.866 0 0 1 .327 1.196.898.898 0 0 1-.776.438M65.343 39.117l2.21 1.248a.866.866 0 0 1 .327 1.197.907.907 0 0 1-1.223.32l-2.21-1.247a.866.866 0 0 1-.327-1.197.906.906 0 0 1 1.223-.32M60.466 43.13a.911.911 0 0 1 1.273.356l1.136 2.055a.996.996 0 0 1-.341 1.328.897.897 0 0 1-.465.131.925.925 0 0 1-.808-.487l-1.136-2.054a.996.996 0 0 1 .341-1.329M50.562 25.88a.857.857 0 0 1-.437.12.872.872 0 0 1-.76-.448l-1.247-2.209a.906.906 0 0 1 .32-1.223.865.865 0 0 1 1.196.328l1.248 2.209a.906.906 0 0 1-.32 1.223"/>
    </g>
</svg>
