<svg xmlns="http://www.w3.org/2000/svg" xmlns:xlink="http://www.w3.org/1999/xlink" width="90" height="90" viewBox="0 0 90 90">
    <defs>
        <path id="a" d="M.086.08h42.91v42.914H.086z"/>
        <path id="c" d="M.003 0h24.944v15.935H.003z"/>
    </defs>
    <g fill="none" fill-rule="evenodd">
        <g transform="translate(26.5 26)">
            <mask id="b" fill="#fff">
                <use xlink:href="#a"/>
            </mask>
            <path fill="#88C74A" d="M29.935 29.953l-.021.021a.94.94 0 0 0 .662 1.603c.24 0 .48-.091.663-.275l.028-.028a.94.94 0 0 0-.007-1.328.935.935 0 0 0-1.325.007z" mask="url(#b)"/>
            <path fill="#88C74A" d="M40.896.374a.936.936 0 0 0-1.531.254c-.648 1.415-1.991 1.85-4.129 2.444-1.761.49-3.757 1.043-5.258 2.637-1.892 2.01-2.549 4.078-3.076 5.739-.32 1.01-.598 1.882-1.075 2.57-.45.651-1.065.865-2.2 1.217-1.343.416-3.002.93-4.84 2.682l-.003-.004c-.039.038-.076.077-.113.115l-.116.114.004.002c-1.72 1.813-2.434 3.636-3.012 5.112-.464 1.184-.83 2.12-1.554 2.623-.688.478-1.557.756-2.565 1.077-1.658.53-3.721 1.187-5.727 3.083-1.59 1.504-2.143 3.504-2.63 5.27-.593 2.142-1.027 3.488-2.44 4.138a.939.939 0 0 0-.253 1.534c1.667 1.584 3.887 2.109 6.052 2.109 2.81 0 5.526-.884 6.814-1.483 2.692-1.25 3.949-2.443 5.164-3.595.69-.654 1.34-1.272 2.272-1.937.623-.445 1.485-.602 2.577-.802 1.32-.241 2.963-.542 4.754-1.513a.94.94 0 0 0 .378-1.273.936.936 0 0 0-1.27-.379c-1.53.83-2.947 1.089-4.199 1.317-1.215.223-2.364.433-3.327 1.12-1.038.741-1.768 1.433-2.474 2.103-1.156 1.097-2.249 2.134-4.664 3.256-1.647.765-6.606 2.279-9.806.443 1.294-1.162 1.767-2.872 2.227-4.537.443-1.603.902-3.26 2.112-4.405 1.694-1.602 3.379-2.14 5.008-2.659 1.104-.352 2.147-.684 3.066-1.324 1.192-.83 1.696-2.117 2.23-3.48.553-1.413 1.179-3.01 2.704-4.585 1.556-1.514 2.95-1.946 4.183-2.327 1.207-.374 2.347-.727 3.187-1.94.639-.92.97-1.966 1.322-3.072.518-1.633 1.055-3.321 2.653-5.02 1.142-1.212 2.796-1.672 4.395-2.115 1.662-.462 3.368-.936 4.528-2.233 1.831 3.208.321 8.177-.443 9.828-1.12 2.42-2.153 3.515-3.249 4.674-.668.707-1.358 1.439-2.097 2.479-.687.965-.896 2.116-1.118 3.336-.228 1.25-.486 2.668-1.309 4.196a.94.94 0 0 0 .824 1.386.937.937 0 0 0 .825-.493c.964-1.79 1.263-3.433 1.504-4.753.199-1.094.356-1.958.8-2.583.663-.933 1.28-1.586 1.932-2.276 1.15-1.218 2.34-2.477 3.588-5.176 1.058-2.286 3.006-9.057-.625-12.894z" mask="url(#b)"/>
        </g>
        <path fill="#88C74A" d="M48.225 48.265a.969.969 0 0 0-1.332 0 4.452 4.452 0 0 0 0 6.47.958.958 0 0 0 .666.265.958.958 0 0 0 .665-.265.878.878 0 0 0 0-1.278 2.694 2.694 0 0 1 0-3.914.879.879 0 0 0 0-1.278zM36.192 59.289a1.107 1.107 0 0 0-1.49 0c-.776.724-1.202 1.686-1.202 2.711 0 1.024.427 1.987 1.201 2.712.206.192.476.288.745.288.27 0 .54-.096.745-.288a.94.94 0 0 0 0-1.394 1.782 1.782 0 0 1 0-2.636.94.94 0 0 0 0-1.393zM60.179 36.264c-.429-.352-1.122-.352-1.55 0-.729.597-1.129 1.391-1.129 2.236 0 .845.4 1.64 1.128 2.236.214.176.495.264.775.264.281 0 .562-.088.776-.264.428-.351.428-.921 0-1.273-.314-.257-.486-.599-.486-.963s.172-.705.486-.963c.428-.352.428-.922 0-1.273zM33.5 45c0-2.757-2.467-5-5.5-5s-5.5 2.243-5.5 5 2.467 5 5.5 5 5.5-2.243 5.5-5zm-9.14 0c0-1.482 1.152-2.731 2.71-3.093v.24c0 .497.417.9.93.9.514 0 .93-.403.93-.9v-.24c1.558.362 2.71 1.611 2.71 3.093 0 1.764-1.633 3.2-3.64 3.2s-3.64-1.436-3.64-3.2z"/>
        <g transform="translate(21.5 21)">
            <mask id="d" fill="#fff">
                <use xlink:href="#c"/>
            </mask>
            <path fill="#88C74A" d="M19.23 15.935a5.77 5.77 0 0 0 4.022-1.658c2.164-2.117 2.27-5.455.24-7.442-2.031-1.987-5.444-1.883-7.607.234-2.162 2.116-2.27 5.454-.238 7.441.973.953 2.264 1.425 3.583 1.425zm2.935-7.802c1.3 1.271 1.192 3.445-.239 4.846-1.431 1.4-3.653 1.505-4.953.233-1.092-1.068-1.19-2.772-.346-4.12l.176.173c.183.179.424.268.664.268.24 0 .48-.09.663-.268a.904.904 0 0 0 0-1.298l-.176-.173c.61-.365 1.29-.55 1.954-.55.837 0 1.648.293 2.257.889zM5.042 10.524a5.77 5.77 0 0 0 4.023-1.658c2.163-2.116 2.27-5.454.239-7.442C7.273-.563 3.86-.458 1.698 1.658-.465 3.774-.572 7.112 1.458 9.1c.975.952 2.265 1.424 3.584 1.424zM3.024 2.956a3.873 3.873 0 0 1 2.698-1.124c.87 0 1.666.313 2.255.89 1.092 1.068 1.19 2.773.346 4.12l-.176-.172a.953.953 0 0 0-1.327 0 .904.904 0 0 0 0 1.298l.178.173a3.801 3.801 0 0 1-1.821.548c-.924.035-1.772-.28-2.392-.887-1.3-1.272-1.192-3.445.24-4.846z" mask="url(#d)"/>
        </g>
    </g>
</svg>
