<svg xmlns="http://www.w3.org/2000/svg" xmlns:xlink="http://www.w3.org/1999/xlink" width="90" height="90" viewBox="0 0 90 90">
    <defs>
        <path id="a" d="M0 0h58v50H0z"/>
    </defs>
    <g fill="none" fill-rule="evenodd" transform="translate(16 20)">
        <mask id="b" fill="#fff">
            <use xlink:href="#a"/>
        </mask>
        <path fill="#88C74A" d="M55.92 18.55c-2.634-3.156-5.647-2.651-8.56-2.164-1.502.252-3.054.512-4.674.335-.217-.023-.429-.053-.638-.088a14.1 14.1 0 0 0 1.813-3.666.863.863 0 0 0-.547-1.085.85.85 0 0 0-1.072.552c-.431 1.337-1.1 2.601-1.991 3.767-.794-.246-1.541-.54-2.276-.83-2.887-1.141-5.617-2.217-9.354.65-1.086-1.273-2.461-2.16-4.032-2.573-4.774-1.254-6.878.89-9.107 3.162l-.104.106c-2.041-3.023-2.31-6.527-.612-8.951 2.24-3.2 4.365-3.071 7.27-2.81.042 1.365.462 2.425 1.258 3.155.958.879 2.302 1.092 3.553 1.03.438-.021.875-.075 1.307-.151 2.254-.397 3.746-1.263 4.433-2.577.507-.968.547-2.146.128-3.44 2.468-1.193 4.32-1.97 6.805-.3 2.106 1.414 3.29 3.835 3.249 6.641a.856.856 0 0 0 .838.873h.013a.855.855 0 0 0 .851-.847c.05-3.403-1.411-6.355-4.008-8.1-3.401-2.285-6.154-.95-8.816.342-1.371.666-2.79 1.354-4.394 1.642-1.768.317-3.359.173-4.898.034-3.152-.285-6.13-.554-8.978 3.514-1.165 1.663-1.637 3.693-1.366 5.871.227 1.828.96 3.642 2.132 5.29-.71.66-1.49 1.294-2.427 1.841-1.41.825-2.933 1.222-4.406 1.607-2.86.746-5.816 1.518-6.958 5.48a8.98 8.98 0 0 0 .171 5.508c.165.465.7.697 1.147.497a.87.87 0 0 0 .457-1.075 7.252 7.252 0 0 1-.141-4.449c.835-2.895 2.747-3.507 5.394-4.203.507 1.263 1.29 2.137 2.294 2.547.44.18.913.27 1.42.27 1.064 0 2.274-.397 3.613-1.186 1.904-1.124 2.966-2.415 3.154-3.837.143-1.078-.211-2.162-1.051-3.232 2.055-2.092 3.597-3.573 7.35-2.587 1.95.513 3.534 1.982 4.46 4.137 1.3 3.025 1.07 6.909-.588 10.227-1.345.238-2.681.203-3.98.168-2.952-.08-6.004-.164-8.184 3.326a8.963 8.963 0 0 0-1.334 5.427c-4.298.426-8.394-1.035-10.834-3.911a.845.845 0 0 0-1.2-.093.865.865 0 0 0-.093 1.212c2.485 2.929 6.426 4.585 10.67 4.585.572 0 1.15-.033 1.73-.094a11.39 11.39 0 0 0 1.621 3.596c1.545 2.292 3.827 4.077 6.602 5.164 1.938.76 4.066 1.143 6.287 1.143 1.269 0 2.569-.125 3.88-.377 2.309-.444 4.418-1.237 6.27-2.358a.865.865 0 0 0 .292-1.18.846.846 0 0 0-1.168-.295c-1.679 1.016-3.6 1.737-5.712 2.143-3.292.633-6.485.397-9.234-.68-2.45-.96-4.46-2.526-5.81-4.528-1.965-2.916-2.163-6.22-.528-8.836 1.593-2.55 3.598-2.605 6.333-2.535.141 1.355.655 2.413 1.508 3.088.716.565 1.642.848 2.768.848.698 0 1.472-.108 2.32-.326 2.138-.549 3.511-1.494 4.081-2.808.432-.995.387-2.136-.128-3.399 2.547-1.438 4.433-2.432 7.772-.436 1.774 1.06 2.9 2.964 3.175 5.362.398 3.497-1.117 7.375-3.954 10.116a.867.867 0 0 0-.027 1.216.845.845 0 0 0 1.204.027c2.351-2.273 3.875-5.15 4.369-8.11 5.102-1.247 9.161-4.685 10.67-9.086 1.163-3.388.624-6.776-1.479-9.296zM27.55 4.916c1.321-.237 2.518-.705 3.61-1.203.172.625.223 1.317-.08 1.896-.421.807-1.535 1.39-3.218 1.685-1.63.286-2.781.133-3.424-.458-.41-.374-.641-.96-.694-1.743 1.17.07 2.439.068 3.806-.177zM16.174 20.703c-.115.87-.897 1.737-2.325 2.58-1.477.87-2.7 1.15-3.537.808-.6-.246-1.003-.808-1.27-1.399 1.153-.33 2.366-.751 3.528-1.43 1.2-.703 2.171-1.529 3.021-2.343.46.633.657 1.231.583 1.784zm30.128-2.407c-.007.649-.15 1.328-.6 1.798-.629.655-1.859.9-3.557.709-1.643-.186-2.707-.66-3.16-1.408-.29-.475-.35-1.102-.184-1.87 1.104.398 2.323.756 3.703.907 1.334.146 2.611.034 3.798-.136zm-13.544 13.17c-.349.803-1.338 1.42-2.94 1.83-1.657.426-2.909.353-3.62-.209-.51-.403-.743-1.056-.839-1.698 1.198.004 2.48-.063 3.782-.392 1.347-.34 2.505-.862 3.544-1.409.27.737.294 1.367.073 1.878zm23.032-4.184c-1.264 3.687-4.62 6.61-8.89 7.827a12.105 12.105 0 0 0-.074-1.623c-.335-2.945-1.755-5.305-3.998-6.646-4.246-2.537-6.855-1.063-9.616.498-.957.541-1.937 1.094-3.048 1.528 1.329-3.45 1.357-7.186.018-10.301-.172-.4-.364-.781-.573-1.143 2.942-2.278 4.923-1.564 7.59-.512-.339 1.322-.228 2.459.334 3.385.743 1.224 2.23 1.97 4.422 2.217.439.05.854.074 1.247.074 1.647 0 2.896-.434 3.722-1.295.755-.787 1.12-1.906 1.077-3.268 2.699-.447 4.693-.67 6.616 1.635 1.707 2.045 2.135 4.824 1.173 7.624z" mask="url(#b)"/>
    </g>
</svg>
