<svg xmlns="http://www.w3.org/2000/svg" xmlns:xlink="http://www.w3.org/1999/xlink" width="90" height="90" viewBox="0 0 90 90">
    <defs>
        <path id="a" d="M.006 0H35v52H.006z"/>
    </defs>
    <g fill="none" fill-rule="evenodd">
        <g transform="translate(28 19)">
            <mask id="b" fill="#fff">
                <use xlink:href="#a"/>
            </mask>
            <path fill="#88C74A" d="M34.24 39.745c.42 0 .76-.341.76-.762V19.144a4.827 4.827 0 0 0-4.818-4.824h-.254v-3.657a2.824 2.824 0 0 0 2.739-2.82V2.821A2.824 2.824 0 0 0 29.847 0h-2.625a.761.761 0 0 0 0 1.523h2.625a1.3 1.3 0 0 1 1.298 1.299v5.02a1.3 1.3 0 0 1-1.298 1.299H5.153a1.3 1.3 0 0 1-1.298-1.299v-5.02a1.3 1.3 0 0 1 1.298-1.299h18.823a.761.761 0 0 0 0-1.523H5.153a2.824 2.824 0 0 0-2.82 2.822v5.02a2.824 2.824 0 0 0 2.74 2.82v3.658h-.255A4.827 4.827 0 0 0 0 19.144v28.032A4.827 4.827 0 0 0 4.818 52h25.364A4.827 4.827 0 0 0 35 47.176v-4.909a.76.76 0 1 0-1.522 0v1.456H1.522V22.496h2.992a.761.761 0 0 0 0-1.523H1.522v-1.829c0-1.82 1.479-3.3 3.296-3.3h25.364a3.302 3.302 0 0 1 3.296 3.3v1.829H7.748a.761.761 0 0 0 0 1.523h25.73v16.487c0 .42.341.762.761.762zm-.762 5.501v1.93c0 1.82-1.479 3.3-3.296 3.3H4.818a3.302 3.302 0 0 1-3.296-3.3v-1.93h31.956zM6.594 14.32h21.812v-3.656H6.594v3.656z" mask="url(#b)"/>
        </g>
        <path fill="#88C74A" d="M45.904 44.113a.778.778 0 0 0-.808 0L32.372 51.84a.772.772 0 0 0 0 1.32l12.724 7.727a.779.779 0 0 0 .808 0l12.724-7.727a.772.772 0 0 0 0-1.32l-12.724-7.727zm-.404 15.21L34.266 52.5 45.5 45.678 56.734 52.5 45.5 59.322z"/>
    </g>
</svg>
