<svg xmlns="http://www.w3.org/2000/svg" xmlns:xlink="http://www.w3.org/1999/xlink" width="90" height="90" viewBox="0 0 90 90">
    <defs>
        <path id="a" d="M.007.114H58v43.88H.007z"/>
    </defs>
    <g fill="none" fill-rule="evenodd">
        <g transform="translate(16 23.5)">
            <mask id="b" fill="#fff">
                <use xlink:href="#a"/>
            </mask>
            <path fill="#88C74A" d="M32.625 36.686c-7.061 0-18.606-5.85-20.745-8.056a1.201 1.201 0 0 0-1.973.369c-1.63 3.815-5.465 4.857-7.458 5.141.377-7.639 3.96-9.68 4.145-9.78a1.231 1.231 0 0 0 .001-2.168c-.162-.086-3.766-2.113-4.146-9.773 1.991.294 5.84 1.351 7.458 5.135.16.372.494.641.889.715.399.075.804-.056 1.084-.346 2.139-2.207 13.684-8.056 20.745-8.056 9.54 0 17.804 4.877 22.774 13.41-4.97 8.531-13.234 13.409-22.774 13.409zm-9.693.37c2.355.835 4.74 1.497 6.907 1.83-2.621 1.86-6.195 2.44-8.06 2.606.16-3.391.936-4.258 1.153-4.435zM17.548 2.792c4.06.592 10.726 2.051 14.492 4.662-3.473.137-7.904 1.462-11.922 3.124-.535-2.142-1.721-5.49-2.57-7.786zm40.299 19.891c-4.831-8.724-12.772-14.058-22.08-15.047C31.1 1.689 16.457.182 15.825.12a1.2 1.2 0 0 0-1.078.476c-.254.336-.317.781-.166 1.175 1.436 3.76 2.907 8.036 3.296 9.786-2.659 1.227-4.983 2.533-6.482 3.62-3.25-5.245-9.883-5.31-10.187-5.31C.54 9.867 0 10.412 0 11.086c0 7.063 2.44 10.608 4.072 12.19C2.44 24.858 0 28.404 0 35.466c0 .674.54 1.22 1.208 1.22.304 0 6.938-.066 10.187-5.31 1.991 1.444 5.433 3.272 9.194 4.791-.831 1.356-1.256 3.514-1.256 6.614 0 .674.54 1.219 1.209 1.219.359 0 8.576-.072 12.668-4.915 10.407-.202 19.369-5.701 24.637-15.215a1.23 1.23 0 0 0 0-1.188z" mask="url(#b)"/>
        </g>
        <path fill="#88C74A" d="M52.5 47.5c0-5.625 2.269-9.07 2.292-9.105.378-.564.22-1.32-.354-1.693a1.268 1.268 0 0 0-1.728.34c-.111.163-2.71 4.05-2.71 10.457 0 6.408 2.599 10.294 2.71 10.457a1.269 1.269 0 0 0 1.733.339c.575-.375.73-1.133.347-1.695-.024-.034-2.29-3.425-2.29-9.1M49.44 36.707a1.252 1.252 0 0 0-1.729.348C47.6 37.22 45 41.195 45 47.748c0 3.5.755 6.25 1.388 7.94a1.25 1.25 0 0 0 2.343-.876c-.56-1.498-1.23-3.94-1.23-7.064 0-5.752 2.27-9.275 2.293-9.31.379-.576.22-1.35-.354-1.731M59.5 41.5a2.5 2.5 0 1 1 0 5 2.5 2.5 0 0 1 0-5"/>
    </g>
</svg>
