<svg xmlns="http://www.w3.org/2000/svg" xmlns:xlink="http://www.w3.org/1999/xlink" width="90" height="90" viewBox="0 0 90 90">
    <defs>
        <path id="a" d="M0 0h52v50H0z"/>
    </defs>
    <g fill="none" fill-rule="evenodd" transform="translate(19 20)">
        <mask id="b" fill="#fff">
            <use xlink:href="#a"/>
        </mask>
        <path fill="#88C74A" d="M41.336 10.96C43.498 8.055 44.828 4.218 44.828 0h-1.793c0 7.82-4.974 14.2-11.178 14.515a6.175 6.175 0 0 0-2.334-.816c-.41-3.109-3.035-5.517-6.212-5.517-1.956 0-3.755.93-4.928 2.445-1.15-1.485-2.932-2.445-4.935-2.445-3.46 0-6.276 2.854-6.276 6.364 0 1.4.454 2.726 1.258 3.81-2.772.66-4.844 3.181-4.844 6.19 0 1.992.91 3.772 2.328 4.94a6.366 6.366 0 0 0-4.121 5.968c0 1.084.27 2.122.779 3.057A6.379 6.379 0 0 0 0 43.636C0 47.146 2.815 50 6.276 50c2.246 0 4.214-1.206 5.324-3.01a6.226 6.226 0 0 0 3.642 1.192c2.513 0 4.68-1.51 5.68-3.677a6.16 6.16 0 0 0 3.285.95c2.79 0 5.16-1.858 5.973-4.419a6.166 6.166 0 0 0 2.992.782c3.461 0 6.276-2.855 6.276-6.364a6.383 6.383 0 0 0-1.182-3.703 6.398 6.398 0 0 0 2.975-5.387c0-3.51-2.785-6.385-6.275-6.357V20a6.377 6.377 0 0 0-1.318-3.887c2.177-.453 4.172-1.541 5.86-3.107.59 5.961 5.564 10.63 11.595 10.63H52v-.909c0-6.177-4.7-11.254-10.664-11.767zm-8.24 9.87c-.002.003-.003.005-.003.008-.017.09-.048.173-.07.26-.038.156-.077.311-.13.46-.043.12-.098.233-.151.348-.05.109-.1.217-.159.321a4.654 4.654 0 0 1-.407.605 4.392 4.392 0 0 1-.27.316c-.077.08-.16.153-.243.228-.096.088-.19.179-.295.258-.186.14-.38.27-.588.38-.056.032-.119.052-.176.08a4.491 4.491 0 0 1-.54.222c-.07.022-.141.037-.21.057-.222.06-.446.114-.68.14-.022-.014-.045-.023-.068-.036a6.188 6.188 0 0 0-1.381-.59c-.065-.02-.132-.035-.198-.052a6.392 6.392 0 0 0-.559-.115c-.069-.01-.138-.024-.208-.033a6.18 6.18 0 0 0-.742-.05l-.014-.002a4.544 4.544 0 0 1-1.036-1.108l-.057-.09a4.5 4.5 0 0 1-.661-1.846l-.015-.107a4.535 4.535 0 0 1-.028-.484c0-2.507 2.01-4.545 4.482-4.545 2.472 0 4.483 2.038 4.483 4.545 0 .284-.027.56-.077.83zm-3.184 11.358a4.51 4.51 0 0 1-.27.432c-.03.043-.06.088-.092.132a4.21 4.21 0 0 1-.28.33c-.05.055-.098.112-.15.163-.092.09-.189.172-.286.255-.066.056-.132.113-.202.164-.096.072-.199.135-.301.2-.079.048-.156.1-.237.144-.025.013-.052.023-.076.035-.013-.01-.028-.018-.042-.028A6.218 6.218 0 0 0 26.3 33.1c-.04-.014-.078-.03-.117-.043a6.195 6.195 0 0 0-1.047-.251 6.245 6.245 0 0 0-.93-.078c-.327 0-.654.027-.977.078.004-.03.003-.06.007-.09.044-.297.074-.596.074-.897 0-.248-.018-.491-.044-.732-.01-.082-.025-.163-.037-.245a6.18 6.18 0 0 0-.303-1.196c-.028-.076-.053-.154-.084-.23a6.369 6.369 0 0 0-.304-.653c.046-.035.085-.08.131-.115a6.25 6.25 0 0 0 .557-.488c.043-.043.083-.09.125-.134.18-.191.35-.39.503-.601l.079-.112c.163-.232.309-.474.44-.727l.038-.074c.14-.278.26-.564.357-.863l.005-.01c.41-.122.82-.183 1.227-.183.275 0 .542.033.803.082.078.015.155.034.232.052.193.047.381.107.563.178.068.026.139.049.206.079.243.109.478.234.695.383l.007.005a4.609 4.609 0 0 1 1.005.976c.046.06.098.111.14.173.15.213.274.442.385.676.019.04.046.078.064.118.115.266.201.542.265.826.005.02.014.038.018.058.06.29.09.59.093.891l-.019.319a4.586 4.586 0 0 1-.51 1.844.862.862 0 0 1-.035.073zM17.424 35.86a6.006 6.006 0 0 0-1.295-.333c-.056-.008-.111-.019-.167-.026a5.708 5.708 0 0 0-1.523.014 4.95 4.95 0 0 1-.094-.07c0-.206-.01-.411-.031-.615-.014-.137-.037-.272-.06-.407-.01-.064-.016-.128-.029-.19a6.379 6.379 0 0 0-.118-.494c-.009-.03-.014-.06-.023-.089a6.458 6.458 0 0 0-.174-.507l-.02-.058a6.212 6.212 0 0 0-.221-.487l-.03-.06a5.779 5.779 0 0 0-.253-.448c-.017-.026-.03-.054-.048-.079a6.638 6.638 0 0 0-.28-.4c-.025-.033-.047-.065-.072-.097a6.336 6.336 0 0 0-.304-.358c-.023-.025-.042-.052-.066-.077a4.56 4.56 0 0 1 .265-.956c.25-.14.485-.3.713-.472l.061-.046a6.344 6.344 0 0 0 1.243-1.277 6.47 6.47 0 0 0 .46-.713l.063-.027c.234-.093.472-.166.714-.217.04-.008.082-.014.123-.021.256-.046.514-.076.777-.076.285 0 .562.033.832.085.035.007.071.011.106.018.256.056.504.137.743.235l.12.05c.233.105.458.228.67.37.032.021.063.047.095.07.19.134.367.284.533.446.03.03.06.054.09.084a4.573 4.573 0 0 1 .627.836c.082.136.157.275.224.42.046.096.09.195.129.296.066.173.119.352.163.535.022.086.048.17.064.255.053.275.086.556.086.845 0 .274-.031.548-.084.82-.024.123-.07.246-.104.369-.049.17-.089.34-.158.508A6.248 6.248 0 0 0 18.74 36c-.191.084-.374.15-.55.203a6.284 6.284 0 0 0-.668-.308l-.098-.037zm-1.286-11.314a6.398 6.398 0 0 0-.087-1.01 6.38 6.38 0 0 0-.167-.766l-.01-.038a6.33 6.33 0 0 0-.297-.801l-.053-.112a6.423 6.423 0 0 0-.36-.665c-.014-.021-.024-.047-.038-.068.131-.19.28-.375.445-.551.049-.019.095-.042.145-.062a6.254 6.254 0 0 0 .855-.416 6.163 6.163 0 0 0 .977-.705c.04-.034.083-.065.122-.1a4.368 4.368 0 0 1 1.74-.11 4.332 4.332 0 0 1 1.342.399l.105.049c.473.245.906.576 1.275.984l.056.062c.109.127.218.253.312.393.014.084.035.166.052.25.035.174.077.346.126.515.04.14.082.28.132.417.04.107.085.211.13.315a6.679 6.679 0 0 0 .31.632c.013.024.024.05.038.073.014.134.023.27.023.406 0 .306-.037.605-.094.897l-.045.185a4.56 4.56 0 0 1-1.465 2.39l-.07.06c-.06.047-.13.082-.193.127a6.235 6.235 0 0 0-.891-.745l-.01-.008a6.154 6.154 0 0 0-1.637-.799l-.006-.002a6.183 6.183 0 0 0-.53-.138l-.076-.02a6.461 6.461 0 0 0-.498-.077l-.125-.02a6.172 6.172 0 0 0-.636-.032c-.293 0-.583.028-.869.069-.034.004-.07.002-.104.008.005-.03.003-.06.008-.09.04-.293.068-.591.068-.896zm3.22-12.14A4.474 4.474 0 0 1 23.31 10c2.192 0 4.02 1.603 4.408 3.713-.032.005-.063.017-.095.022-.278.049-.553.11-.816.195-.017.005-.034.014-.051.019a6.236 6.236 0 0 0-.9.38 6.452 6.452 0 0 0-.703.419c-.025.016-.048.036-.073.054a6.229 6.229 0 0 0-.578.47 5.759 5.759 0 0 0-.688.727c-.025.031-.046.065-.07.097a6.387 6.387 0 0 0-.41.603c-.032.051-.064.102-.094.156a6.44 6.44 0 0 0-.358.74c-.018.045-.032.092-.05.137-.086.227-.158.46-.219.698-.01.038-.025.073-.034.111a6.21 6.21 0 0 0-1.53-.844 6.088 6.088 0 0 0-.937-.277c-.051-.011-.1-.025-.151-.034-.056-.01-.11-.028-.166-.037a4.552 4.552 0 0 1-.44-.665c.008-.021.01-.044.018-.065.102-.3.184-.61.242-.928.01-.053.015-.106.024-.158a6.17 6.17 0 0 0 .085-.987c0-.338-.033-.666-.083-.989-.008-.053-.014-.106-.025-.159a6.26 6.26 0 0 0-.243-.929c-.007-.022-.008-.043-.015-.064zM13.448 10c1.843 0 3.428 1.135 4.116 2.751.107.254.185.516.246.782.007.03.021.059.028.09a4.586 4.586 0 0 1 0 1.844c-.007.032-.02.06-.028.091a4.54 4.54 0 0 1-.246.782 4.56 4.56 0 0 1-1.682 2.012 4.445 4.445 0 0 1-.65.359c-.04.017-.082.03-.123.048a4.403 4.403 0 0 1-1.66.332c-.135 0-.267-.009-.398-.022-.021-.013-.045-.023-.067-.036a8.79 8.79 0 0 0-.523-.274 6.127 6.127 0 0 0-1.084-.382 6.121 6.121 0 0 0-.449-.096c-.013-.003-.026-.007-.04-.008a4.544 4.544 0 0 1-1.922-3.727c0-2.507 2.01-4.546 4.482-4.546zM5.38 24.545C5.38 22.04 7.39 20 9.862 20c.264 0 .52.035.772.079.073.013.145.024.217.04a4.427 4.427 0 0 1 .845.288c.227.105.449.221.654.361l.025.016a4.572 4.572 0 0 1 1.285 1.372c.09.147.171.3.244.456.042.09.085.18.122.272.07.183.125.373.173.566.02.08.045.158.06.24.053.277.086.563.086.855 0 .281-.033.554-.082.821-.008.048-.013.095-.024.141a4.48 4.48 0 0 1-.202.657c-.034.09-.069.179-.109.267-.055.121-.122.234-.186.35-.07.123-.134.25-.215.366-.074.107-.161.2-.244.3a4.5 4.5 0 0 1-.561.568c-.098.083-.189.172-.294.246-.116.083-.242.148-.366.22a4.367 4.367 0 0 1-2.2.61c-2.472 0-4.483-2.04-4.483-4.546zM4.147 37.651a4.533 4.533 0 0 1-.56-2.197c0-2.506 2.01-4.545 4.482-4.545a4.42 4.42 0 0 1 3.512 1.756c.046.059.098.111.142.173.148.212.271.44.382.673.019.042.047.08.065.123.115.263.2.54.264.82.005.022.015.041.02.062.064.307.098.621.098.939 0 .21-.018.424-.053.649-.453.225-.87.517-1.258.845-.075.063-.155.12-.227.187-.121.113-.23.238-.344.362-.098.105-.198.208-.289.32-.091.114-.173.236-.256.357-.066.095-.143.183-.204.282-.02-.014-.042-.024-.062-.038a6.343 6.343 0 0 0-.685-.421c-.07-.038-.142-.07-.213-.105a6.175 6.175 0 0 0-.644-.268c-.05-.018-.1-.04-.151-.057a6.223 6.223 0 0 0-.805-.194c-.071-.013-.143-.023-.214-.033a6.248 6.248 0 0 0-.871-.068c-.335 0-.663.035-.984.086-.052.009-.106.015-.158.025a6.126 6.126 0 0 0-.921.25c-.022.007-.044.009-.066.017zm2.129 10.53c-2.472 0-4.483-2.038-4.483-4.545a4.543 4.543 0 0 1 2.938-4.25c.123-.046.248-.083.376-.119.143-.038.287-.077.432-.1.086-.015.177-.018.264-.028a4.513 4.513 0 0 1 1.784.174c.055.017.11.033.163.052.168.058.33.128.49.206.092.047.182.096.27.15.124.07.247.143.364.226.135.099.26.208.383.321.069.063.145.117.21.185.089.091.16.198.242.297.113.14.23.276.325.426.066.105.117.218.176.329.075.14.155.28.215.428.058.145.096.3.14.454.035.124.081.245.107.371.054.284.087.577.087.878 0 .289-.034.569-.085.842-.029.15-.077.296-.121.443-.046.157-.081.318-.143.468l-.007.02c-.682 1.628-2.276 2.773-4.127 2.773zm8.965-1.817a4.384 4.384 0 0 1-2.904-1.09l.01-.054c.055-.216.099-.436.131-.66l.024-.155c.03-.252.05-.508.05-.769a6.42 6.42 0 0 0-.077-.942c-.01-.059-.017-.116-.026-.174a6.288 6.288 0 0 0-.221-.887c-.013-.041-.03-.081-.044-.121a6.388 6.388 0 0 0-.903-1.698c-.006-.009-.01-.019-.017-.027.051-.101.094-.21.152-.307.028-.048.055-.097.085-.144.157-.24.333-.468.532-.674.014-.015.03-.028.045-.043.21-.212.439-.406.69-.573l.001-.003c.262-.176.544-.325.842-.443l.066-.026a4.345 4.345 0 0 1 1.085-.266c.16-.018.318-.035.48-.035a4.413 4.413 0 0 1 1.028.133c.192.046.378.106.56.176.064.025.131.043.195.072.5.222.954.533 1.34.915.159.157.292.33.424.505.05.065.109.12.154.189.103.15.178.316.261.477.321.625.52 1.326.52 2.078 0 .276-.034.542-.08.804-.01.056-.016.11-.027.165-.44 2.042-2.233 3.577-4.376 3.577zm8.966-2.728a4.409 4.409 0 0 1-2.749-.96c.003-.018.002-.036.004-.054.033-.264.055-.531.055-.804 0-.209-.011-.416-.03-.622l-.023-.162a6.386 6.386 0 0 0-.068-.451c-.01-.055-.024-.108-.036-.163a6.012 6.012 0 0 0-.314-1.012c-.018-.047-.039-.094-.06-.142a6.393 6.393 0 0 0-.48-.9c-.038-.058-.074-.117-.114-.174a7.008 7.008 0 0 0-.209-.284c-.053-.068-.106-.138-.163-.206-.02-.023-.037-.048-.056-.07.038-.114.091-.219.137-.328l.101-.21a4.534 4.534 0 0 1 2.043-2.072l.235-.117c.066-.027.13-.058.197-.082.141-.053.286-.091.43-.127.074-.02.148-.04.224-.055a5.103 5.103 0 0 1 .657-.078 4.448 4.448 0 0 1 1.405.164c.128.036.258.073.382.12a4.354 4.354 0 0 1 .732.362c.085.052.174.099.256.156.181.128.348.272.509.425.169.162.316.34.457.52.048.063.104.118.15.184.116.168.207.35.3.53.046.093.106.177.147.273.073.171.118.354.17.534.032.113.078.219.103.336.057.3.09.61.09.924 0 2.506-2.01 4.545-4.482 4.545zM33.172 40a4.424 4.424 0 0 1-2.69-.916v-.012a6.46 6.46 0 0 0-.07-.886c-.008-.052-.015-.105-.025-.158a6.398 6.398 0 0 0-.569-1.77l-.013-.027a6.47 6.47 0 0 0-.493-.825l-.002-.006c.428-.27.815-.597 1.163-.959.06-.063.117-.128.175-.192.134-.151.26-.31.379-.474.053-.072.109-.141.158-.216a6.34 6.34 0 0 0 .374-.642c.067-.129.122-.263.18-.397a6.563 6.563 0 0 0 .29-.81c.006-.027.01-.054.018-.08.048-.18.095-.36.128-.545.335-.087.753-.176.997-.176.297 0 .587.033.867.09.124.024.241.07.361.106.153.044.308.082.453.142.143.06.277.14.414.214.112.06.227.113.333.183.144.096.277.21.411.323a4.54 4.54 0 0 1 1.644 3.487c0 2.507-2.01 4.546-4.483 4.546zm6.276-13.636c0 1.712-.969 3.28-2.455 4.048-.017-.013-.035-.021-.05-.033a6.218 6.218 0 0 0-1.677-.916l-.117-.044a6.309 6.309 0 0 0-1.047-.25 6.275 6.275 0 0 0-.93-.078 3.59 3.59 0 0 0-.205.018c-.25.008-.5.027-.747.067-.002-.02-.008-.039-.011-.058a6.477 6.477 0 0 0-.138-.704c-.011-.041-.02-.082-.032-.123a6.352 6.352 0 0 0-.703-1.625 6.43 6.43 0 0 0-.484-.696c.025-.009.048-.023.072-.032.192-.074.378-.157.56-.248l.083-.044c.197-.103.388-.216.573-.339l.01-.007a6.344 6.344 0 0 0 2.553-3.472c2.566-.163 4.745 1.941 4.745 4.536zm1.838-13.591c4.688.451 8.43 4.246 8.876 9-4.688-.452-8.43-4.247-8.876-9z" mask="url(#b)"/>
    </g>
</svg>
