<svg xmlns="http://www.w3.org/2000/svg" xmlns:xlink="http://www.w3.org/1999/xlink" width="90" height="90" viewBox="0 0 90 90">
    <defs>
        <path id="a" d="M26 19h38v53H26z"/>
        <path id="b" d="M0 0h54v54H0z"/>
    </defs>
    <g fill="none" fill-rule="evenodd">
        <g transform="translate(18 18)">
            <mask id="c" fill="#fff">
                <use xlink:href="#b"/>
            </mask>
            <path fill="#88C74A" d="M.62 36.854l.963.321a41.13 41.13 0 0 1 12.73 6.925l7.626 6.102a.869.869 0 0 0 .166.09l-.005.012 3.102 1.552V54h1.8V40.95l3.24-2.43-.01-.013a.956.956 0 0 0 .106-.07 36.368 36.368 0 0 1 21.104-10.323l1.77-.221a.9.9 0 0 0 .185-1.743l-7.486-2.62c-6.099-2.135-12.773 1.08-14.907 7.179-.04.112-.078.226-.114.34l-1.96 6.205-1.928 1.446V25.744a5.152 5.152 0 0 1 2.3-4.296l-.01-.014a.87.87 0 0 0 .146-.098 17.83 17.83 0 0 0 5.186-13.714L34.2.843a.9.9 0 0 0-.771-.835.909.909 0 0 0-.973.588l-2.911 8.148a28.13 28.13 0 0 0-1.644 9.483v2.028a6.94 6.94 0 0 0-2.7 5.49v1.783l-.915-.916a15.857 15.857 0 0 0-10.844-14.681L7.488 9.95A.9.9 0 0 0 6.324 11l.99 4.466A15.791 15.791 0 0 0 22.822 27.9h.208l2.172 2.172v19.772l-1.8-.9v-1.852c0-7.779-6.306-14.084-14.084-14.084-1.514 0-3.018.244-4.454.723L.619 35.146a.9.9 0 0 0 0 1.71v-.002zm31.986-5.264a9.921 9.921 0 0 1 9.43-6.926 9.942 9.942 0 0 1 3.28.563l3.975 1.391a38.253 38.253 0 0 0-17.723 8.258l1.038-3.286zm-2.904-13.363a26.35 26.35 0 0 1 1.537-8.878l1.44-4.024.15 2.41a16.032 16.032 0 0 1-3.127 10.547v-.055zM9.074 15.07l-.648-2.915 4.447 1.482a14.057 14.057 0 0 1 9.418 10.98l-7.252-7.252-1.272 1.272 7.359 7.36A13.986 13.986 0 0 1 9.074 15.07zm-3.64 20.367c6.436-2.146 13.392 1.332 15.538 7.768.418 1.253.63 2.566.63 3.886v.535l-6.164-4.93A42.893 42.893 0 0 0 3.7 36.016l1.735-.579z" mask="url(#c)"/>
        </g>
    </g>
</svg>
