<svg xmlns="http://www.w3.org/2000/svg" xmlns:xlink="http://www.w3.org/1999/xlink" width="90" height="90" viewBox="0 0 90 90">
    <defs>
        <path id="a" d="M0 .006h42.864V54H0z"/>
    </defs>
    <g fill="none" fill-rule="evenodd">
        <g transform="translate(24 18)">
            <mask id="b" fill="#fff">
                <use xlink:href="#a"/>
            </mask>
            <path fill="#88C74A" d="M42.86 15.997l-.006-.035a.624.624 0 0 0-.016-.087l-.01-.037a.62.62 0 0 0-.025-.075.905.905 0 0 0-.018-.042l-.015-.033a.784.784 0 0 0-.021-.038l-.02-.032-.022-.034-.025-.033-.024-.03a.095.095 0 0 0-.009-.012L33.488 5.071V.861A.86.86 0 0 0 32.63 0H10.233a.86.86 0 0 0-.857.862v4.21L.214 15.508c-.003.004-.005.008-.009.011a.754.754 0 0 0-.025.032l-.023.031a1.413 1.413 0 0 0-.024.036l-.019.031a1.121 1.121 0 0 0-.054.113l-.011.032a.635.635 0 0 0-.014.043l-.01.036a.977.977 0 0 0-.01.043l-.006.045-.005.035A1.048 1.048 0 0 0 0 16.08v37.058A.86.86 0 0 0 .857 54h41.15a.86.86 0 0 0 .857-.862V16.08c0-.028-.002-.056-.005-.083zm-2.753-.78H25.154L32.631 6.7l7.476 8.518zM31.773 1.724v2.813H17.09a.86.86 0 0 0-.857.861.86.86 0 0 0 .857.862H30.73l-7.863 8.959H2.757l7.862-8.959h3.042a.86.86 0 0 0 .857-.862.86.86 0 0 0-.857-.861H11.09V1.723h20.683zM1.714 45.383h20.683V23.835H1.714v21.548zm0-23.272h20.683v-5.17H1.714v5.17zm0 30.166h20.683v-5.17H1.714v5.17zm22.398 0V16.94h17.037v5.17H26.683a.86.86 0 0 0-.857.862.86.86 0 0 0 .857.862h14.466v21.548H26.683a.86.86 0 0 0-.857.862.86.86 0 0 0 .857.861h14.466v5.17H24.112z" mask="url(#b)"/>
        </g>
        <path fill="#88C74A" d="M40.814 51.082l-4.139-5.732A.835.835 0 0 0 36 45a.834.834 0 0 0-.675.35l-4.14 5.734A6.306 6.306 0 0 0 30 54.79c0 3.424 2.692 6.21 6 6.21 3.309 0 6-2.786 6-6.21 0-1.347-.41-2.628-1.186-3.708zM36 59.255c-2.38 0-4.314-2.003-4.314-4.465 0-.969.294-1.89.85-2.663L36 47.33l3.463 4.796a4.53 4.53 0 0 1 .851 2.664c0 2.462-1.935 4.465-4.314 4.465z"/>
    </g>
</svg>
