<svg xmlns="http://www.w3.org/2000/svg" viewBox="0 0 280 40"><defs><style>.cls-1{fill:#fcd840;fill-rule:evenodd;}</style></defs><title>資產 4</title><g id="圖層_2" data-name="圖層 2"><g id="圖層_1-2" data-name="圖層 1"><path class="cls-1" d="M20,0A20,20,0,1,0,39.9,22H30.73a10.91,10.91,0,1,1,0-4H39.9A20,20,0,0,0,20,0"/><path class="cls-1" d="M60,9.09A10.91,10.91,0,1,0,70.91,20,10.92,10.92,0,0,0,60,9.09M60,0A20,20,0,0,0,40.1,18a2,2,0,0,1,0,4A20,20,0,1,0,60,0"/><path class="cls-1" d="M100,0a20,20,0,0,0-2,39.9V30.73a10.91,10.91,0,1,1,4,0V39.9A20,20,0,0,0,100,0"/><path class="cls-1" d="M140,0a20,20,0,1,0,12.66,35.48L146.17,29A10.91,10.91,0,1,1,149,26.17l6.48,6.49A20,20,0,0,0,140,0"/><path class="cls-1" d="M178,.1a20,20,0,1,0,22,21.9,2,2,0,0,1,0-4A20,20,0,0,0,182,.09V9.26a10.91,10.91,0,1,1-4,0Z"/><path class="cls-1" d="M200.1,22a20,20,0,0,0,39.8,0h-9.17a10.92,10.92,0,0,1-21.46,0ZM220,0a20,20,0,0,0-19.9,18h9.17a10.92,10.92,0,0,1,21.46,0h9.17A20,20,0,0,0,220,0Z"/><path class="cls-1" d="M266.17,29a11,11,0,0,1-4.12,1.72V39.9a19.91,19.91,0,0,0,10.61-4.42ZM260,0a20,20,0,0,0-19.9,18,2,2,0,0,1,0,4,20,20,0,0,0,18,17.91V30.73A10.9,10.9,0,1,1,269,26.17l6.48,6.49A20,20,0,0,0,260,0Z"/></g></g></svg>