<svg xmlns="http://www.w3.org/2000/svg" width="90" height="90" viewBox="0 0 90 90">
    <g fill="none" fill-rule="evenodd">
        <path fill="#D8D8D8" fill-opacity="0" d="M0 0h90v90H0z"/>
        <g fill="#88C74A">
            <path d="M37.956 49.459a.958.958 0 0 0 .46-.828v-21.94c0-2.645 2.069-4.789 4.621-4.789 2.553 0 4.623 2.144 4.623 4.789v21.94a.958.958 0 0 0 .459.828c4.86 2.907 6.526 9.346 3.72 14.381-2.807 5.036-9.022 6.761-13.883 3.854-4.86-2.907-6.526-9.346-3.72-14.382.892-1.6 2.175-2.93 3.72-3.853zM43.033 71c6.621-.013 11.98-5.584 11.967-12.444-.008-4.233-2.096-8.17-5.541-10.448V26.691c0-3.696-2.891-6.691-6.458-6.691s-6.459 2.995-6.459 6.69V48.1c-5.582 3.69-7.22 11.368-3.659 17.151 2.198 3.57 6 5.733 10.086 5.74l.064.01z"/>
            <path d="M42.5 54.534c2.544 0 4.606 2.13 4.606 4.759 0 2.628-2.062 4.759-4.606 4.759-2.543 0-4.605-2.13-4.605-4.76.005-2.625 2.064-4.753 4.605-4.758zM42.5 66c3.58.01 6.49-2.98 6.5-6.679.009-3.339-2.363-6.174-5.562-6.648V37.969c0-.535-.42-.969-.938-.969s-.938.434-.938.97v14.703c-3.543.525-6.004 3.919-5.496 7.58.46 3.305 3.203 5.756 6.434 5.747zM52.97 28h6.06c.536 0 .97-.224.97-.5s-.434-.5-.97-.5h-6.06c-.536 0-.97.224-.97.5s.434.5.97.5M54.882 32c-.487 0-.882.224-.882.5s.395.5.882.5h3.236c.487 0 .882-.224.882-.5s-.395-.5-.882-.5h-3.236M52.97 38h6.06c.536 0 .97-.224.97-.5s-.434-.5-.97-.5h-6.06c-.536 0-.97.224-.97.5s.434.5.97.5M54.882 42c-.487 0-.882.224-.882.5s.395.5.882.5h3.236c.487 0 .882-.224.882-.5s-.395-.5-.882-.5h-3.236M52.97 48h6.06c.536 0 .97-.224.97-.5s-.434-.5-.97-.5h-6.06c-.536 0-.97.224-.97.5s.434.5.97.5"/>
        </g>
    </g>
</svg>
