<svg xmlns="http://www.w3.org/2000/svg" xmlns:xlink="http://www.w3.org/1999/xlink" width="90" height="90" viewBox="0 0 90 90">
    <defs>
        <path id="a" d="M.087 0h45.12v49.994H.087z"/>
    </defs>
    <g fill="none" fill-rule="evenodd">
        <path fill="#D8D8D8" fill-opacity="0" d="M0 0h90v90H0z"/>
        <g transform="translate(22 20)">
            <mask id="b" fill="#fff">
                <use xlink:href="#a"/>
            </mask>
            <path fill="#88C74A" d="M45.202 19.226a24.963 24.963 0 0 0-.873-7.077 13.815 13.815 0 0 0-4.982-7.168C34.642 1.295 30.245-.232 25.104.028a55.95 55.95 0 0 0-8.062 1.153c-3.76.756-6.49 2.078-8.35 4.041a15.827 15.827 0 0 0-3.344 5.447c-.31.892-.563 1.802-.756 2.727l-.067.288a10.56 10.56 0 0 1-.708 1.885c-.172.385-.344.77-.493 1.167-.193.44-.27.922-.225 1.4.17.745.602 1.404 1.217 1.857.409.375.677.638.68.877a1.455 1.455 0 0 1-.146.356A32.226 32.226 0 0 1 1.2 27.16c-.597.731-1.224 1.584-1.097 2.45a2.588 2.588 0 0 0 1.208 1.555c.276.19.566.357.87.5.358.184.961.49.999.711.054.28.023.571-.09.833-.124.26-.25.485-.363.681-.306.542-.818 1.448-.048 2.096.18.159.49.401.77.617a2.105 2.105 0 0 0-.268 1.207c.045.326.223.619.49.81.188.133.387.25.584.36.49.28.681.41.75.667.046.34.015.685-.09 1.01-.048.22-.094.438-.124.657a4.845 4.845 0 0 0 .28 2.24 3.084 3.084 0 0 0 3.631 2.203 68.101 68.101 0 0 0 7.031-2.103c1.873 1.107 3.058 4.455 3.366 5.71a.833.833 0 0 0 .81.636l20.919-.057a.835.835 0 0 0 .794-1.078 6.438 6.438 0 0 0-.85-1.595 7.777 7.777 0 0 1-.532-.884 16.347 16.347 0 0 1-.942-2.383 27.71 27.71 0 0 1-.982-4.93 14.07 14.07 0 0 1 1.09-7.315 18.725 18.725 0 0 1 2.263-3.573c.5-.677 1.023-1.377 1.49-2.116a12.813 12.813 0 0 0 2.043-6.843zm-4.87 7.973a20.26 20.26 0 0 0-2.453 3.9 15.738 15.738 0 0 0-1.216 8.182A29.192 29.192 0 0 0 37.7 44.5c.276.899.622 1.775 1.033 2.62.19.372.405.732.643 1.075l.06.09-18.898.054a13.313 13.313 0 0 0-2.938-5.323c.212-.075.416-.144.6-.21.632-.221 1.11-.389 1.348-.464 3.573-1.122 5.36-2.745 5.312-4.826a.867.867 0 0 0-.854-.815.833.833 0 0 0-.813.854c.02.858-.683 2.11-4.145 3.197a58.4 58.4 0 0 0-1.4.48c-.594.21-1.323.464-2.12.737a69.336 69.336 0 0 1-7.165 2.161 1.478 1.478 0 0 1-1.72-1.117 3.232 3.232 0 0 1-.201-1.47c.022-.173.061-.346.1-.52.17-.578.197-1.19.078-1.78a2.748 2.748 0 0 0-1.537-1.705l-.179-.103c.09-.182.197-.355.32-.516a.835.835 0 0 0-.16-1.184c-.2-.148-.677-.504-1.019-.779.043-.077.09-.166.135-.24.128-.227.273-.487.416-.785a3.087 3.087 0 0 0 .225-1.864c-.195-1.022-1.168-1.52-1.885-1.884a4.784 4.784 0 0 1-.693-.402 4.383 4.383 0 0 1-.49-.397c0-.125.133-.43.774-1.213a33.664 33.664 0 0 0 3.808-6.19c.2-.344.313-.732.326-1.13a2.902 2.902 0 0 0-1.22-2.084c-.334-.308-.656-.6-.691-.857.003-.201.049-.4.133-.583.137-.361.296-.716.455-1.072a12 12 0 0 0 .809-2.187l.068-.29c.178-.856.41-1.7.697-2.525a14.162 14.162 0 0 1 2.99-4.886c1.614-1.7 4.057-2.867 7.468-3.552a54.106 54.106 0 0 1 7.818-1.122c4.716-.25 8.764 1.178 13.128 4.602a12.022 12.022 0 0 1 4.406 6.31c.585 2.148.858 4.37.812 6.596a11.192 11.192 0 0 1-1.783 5.983c-.437.685-.938 1.361-1.424 2.014h.003z" mask="url(#b)"/>
        </g>
        <path fill="#88C74A" d="M38.864 34.17h.834a.833.833 0 0 0 0-1.668h-.834a2.5 2.5 0 0 0-2.5 2.5v.834a2.5 2.5 0 0 0 2.5 2.5h.834a.833.833 0 1 0 0-1.666h-.834a.833.833 0 0 1-.833-.834v-.833c0-.46.373-.834.833-.834zM44.699 31.67a.834.834 0 0 0-.834.832v1.667c0 .46-.373.834-.833.834h-.834a.834.834 0 0 0 0 1.667h.834a2.5 2.5 0 0 0 2.5-2.5v-1.668a.833.833 0 0 0-.833-.833z"/>
        <path fill="#88C74A" d="M48.032 31.67v-.835a2.5 2.5 0 0 0-2.5-2.5h-1.667a2.5 2.5 0 0 0-2.5 2.5v.834a.833.833 0 0 0 1.667 0v-.834c0-.46.373-.833.833-.833h1.667c.46 0 .834.373.834.833v.834a.833.833 0 0 0 1.666 0zM50.533 37.503h-.834a.834.834 0 0 1-.833-.833v-.834a.834.834 0 0 0-1.667 0v.834a2.5 2.5 0 0 0 2.5 2.5h.834a.833.833 0 0 0 0-1.667zM54.7 35.003a.834.834 0 0 0-.833-.834h-.834a.834.834 0 1 1 0-1.667h.834a.833.833 0 0 0 0-1.667h-.834a2.5 2.5 0 0 0 0 5.001h.834c.46 0 .833-.373.833-.833zM57.2 35.003a.834.834 0 0 0-.833.833v1.667c0 .46-.373.833-.833.833H54.7a.834.834 0 0 0 0 1.668h.834a2.5 2.5 0 0 0 2.5-2.5v-1.668a.834.834 0 0 0-.833-.833z"/>
        <path fill="#88C74A" d="M63.835 37.503c0-.013-.007-.024-.008-.037a20.532 20.532 0 0 0-.707-4.404 10.404 10.404 0 0 0-3.828-5.45c-3.77-2.958-7.187-4.278-11.085-4.278-.307 0-.617.009-.934.024-.285.015-.569.048-.853.07-.02 0-.035-.01-.054-.01a.743.743 0 0 0-.13.026 58.52 58.52 0 0 0-6.538 1.006c-.947.186-1.878.443-2.787.767-.02.008-.038.012-.057.02a9.636 9.636 0 0 0-3.74 2.278 12.366 12.366 0 0 0-2.402 3.76.831.831 0 0 0-.063.147c-.055.137-.12.266-.171.406-.256.694-.659 2.422-.71 2.64-.187.932-.652 4.129 1.239 6.134 1.2 1.272 3.035 1.742 5.446 1.4l1.122-.16c5.347-.77 8.03-1.155 10.34 1.104.444.434.9.877 1.373 1.308-.524 1.648-1.205 5.168 1.583 7.251 2.996 2.25 2.996 2.86 2.996 4.334a.834.834 0 0 0 1.206.75c.218-.113 2.128-1.177 2.128-4.917 0-2.046 1.525-3.815 3.03-5.278l.026-.023a8.06 8.06 0 0 0 2.083-2.083 9.64 9.64 0 0 0 1.278-3.108.823.823 0 0 0 .075-.343 9.944 9.944 0 0 0 .175-1.658c.008-.559-.004-1.113-.034-1.66v-.016zm-8.301 14.169a6.374 6.374 0 0 1-.294 2.045c-.389-.974-1.29-1.984-3.374-3.546-1.656-1.24-1.54-3.302-1.181-4.75a8.938 8.938 0 0 0 5.5 1.967c.325-.003.65-.022.972-.056a7.25 7.25 0 0 0-1.623 4.34zm5.4-8.273a5.419 5.419 0 0 1-2.374 1.974 7.316 7.316 0 0 1-4.693-.07V44.17c0-.46.373-.834.833-.834h2.5a.834.834 0 0 0 0-1.666h-2.5a2.5 2.5 0 0 0-2.5 2.5v.259a22.624 22.624 0 0 1-3.122-2.675 7.097 7.097 0 0 0-3.546-1.952v-.633a.834.834 0 1 0-1.667 0v.43c-2.19.004-4.375.203-6.53.593l-1.118.159c-.503.074-1.011.1-1.52.078v-.426a.834.834 0 0 0-1.667 0v.04a2.798 2.798 0 0 1-.814-.584 3.748 3.748 0 0 1-.88-1.957h.861a2.5 2.5 0 0 0 2.5-2.5.834.834 0 0 0-1.667 0c0 .46-.373.833-.833.833h-.934a8.05 8.05 0 0 1 .132-1.016c.11-.473.417-1.75.611-2.318h2.692a.833.833 0 1 0 0-1.667h-1.933a10.36 10.36 0 0 1 1.557-2.174 6.932 6.932 0 0 1 2.042-1.415v1.09a2.5 2.5 0 0 0 2.5 2.5.833.833 0 1 0 0-1.667.833.833 0 0 1-.833-.834v-1.741a19.226 19.226 0 0 1 2-.51c.71-.142 1.438-.28 2.167-.41v.16a.833.833 0 1 0 1.667 0v-.438c.555-.084 1.111-.16 1.667-.221v.66a.834.834 0 0 0 1.667 0v-.799c.052 0 .106-.01.158-.013a18.058 18.058 0 0 1 1.509 0v3.312c0 .46.373.834.833.834h1.667a.833.833 0 1 0 0-1.667h-.833v-2.298a14.06 14.06 0 0 1 4.178 1.41c0 .02-.01.035-.01.054v2.5a.833.833 0 1 0 1.666 0v-1.59c.547.353 1.1.74 1.667 1.176v2.081c0 .461-.374.834-.833.834a.834.834 0 1 0 0 1.667 2.5 2.5 0 0 0 2.5-2.5v-.571a8.187 8.187 0 0 1 1.816 3.25 18.19 18.19 0 0 1 .57 3.155h-1.553a.834.834 0 0 0 0 1.666h1.65c.006.273.019.544.015.82-.004.289-.036.568-.068.848h-1.597a.833.833 0 0 0 0 1.667h1.22a8.144 8.144 0 0 1-.82 1.728z"/>
    </g>
</svg>
