<svg xmlns="http://www.w3.org/2000/svg" xmlns:xlink="http://www.w3.org/1999/xlink" width="90" height="90" viewBox="0 0 90 90">
    <defs>
        <path id="a" d="M0 0h27v55H0z"/>
    </defs>
    <g fill="none" fill-rule="evenodd">
        <path fill="none" d="M0 0h90v90H0z"/>
        <g transform="translate(32 18)">
            <mask id="b" fill="#fff">
                <use xlink:href="#a"/>
            </mask>
            <path fill="#88C74A" d="M3.529 22.568c-.222-3.828 2.11-7.619 4.376-9.528C13.46 8.352 18.765 1.36 19.115.607c.167-.475.69-.718 1.188-.558.497.154.757.7.59 1.184-.322.932-6.033 8.365-11.754 13.195-1.925 1.632-3.915 4.833-3.722 8.032.147 2.538 1.604 4.743 4.358 6.58 2.375 1.587 7.665 2.645 11.707-1.29.738-.719 2.792-3.415-1.684-8.032-2.754-2.816-2.276-6.366 1.573-11.85 1.632-2.313 4.063-5.818 4.063-5.818L27 3.08s-2.44 3.505-4.07 5.827c-4.073 5.8-3.262 8.023-1.769 9.556 4.504 4.617 3.804 8.497 1.658 10.585-2.46 2.403-5.325 3.245-7.914 3.245-2.514 0-4.78-.787-6.2-1.74-3.252-2.177-4.993-4.857-5.176-7.985zm22.09 9.117a2.346 2.346 0 0 0-1.52-1.606.95.95 0 0 0-.858.154c-3.287 2.535-6.66 3.602-10.023 3.173-5.921-.753-9.937-5.909-9.975-5.962-.247-.323-.681-.456-1.068-.323-.149.055-1.41.52-1.943 2.072-.656 1.854.082 4.383 2.181 7.502.656.977 1.448 1.9 2.295 2.886 2.81 3.282 5.997 6.993 5.803 14.478a.92.92 0 0 0 .913.941h.026a.937.937 0 0 0 .95-.888c.212-8.183-3.372-12.353-6.247-15.706-.809-.94-1.566-1.828-2.165-2.714C1.706 32.293 1.77 30.554 2 29.819c.083-.25.194-.438.312-.573 1.42 1.57 5.27 5.29 10.65 5.99 3.666.465 7.315-.575 10.833-3.094.01.027.019.062.028.098.128.556.036 2.314-3.75 6.49-2.525 2.797-2.357 9.071.397 14.62a.954.954 0 0 0 1.262.422.908.908 0 0 0 .431-1.23c-2.393-4.83-2.698-10.37-.681-12.603 3.334-3.683 4.69-6.381 4.136-8.254zm-10.86-4.805a.923.923 0 0 0-.765 1.067.94.94 0 0 0 .93.753c.056 0 .11-.01.165-.01 2.433-.431 3.961-1.415 4.551-2.94 1.05-2.698-1.51-5.899-1.62-6.032a.95.95 0 0 0-1.318-.154.899.899 0 0 0-.156 1.292c.561.69 1.896 2.813 1.335 4.248-.35.879-1.392 1.47-3.123 1.776z" mask="url(#b)"/>
        </g>
    </g>
</svg>
