<svg xmlns="http://www.w3.org/2000/svg" xmlns:xlink="http://www.w3.org/1999/xlink" width="90" height="90" viewBox="0 0 90 90">
    <defs>
        <path id="a" d="M0 0h54v38H0z"/>
    </defs>
    <g fill="none" fill-rule="evenodd">
        <path fill="#D8D8D8" fill-opacity="0" d="M0 0h90v90H0z"/>
        <g transform="translate(18 26)">
            <mask id="b" fill="#fff">
                <use xlink:href="#a"/>
            </mask>
            <path fill="#88C74A" d="M36.818.887c-.736 0-1.227.506-1.227 1.266s.49 1.267 1.227 1.267c8.1 0 14.727.253 14.727 2.28 0 4.94-12.15 10.513-19.268 13.68-.859-.76-1.472-2.533-1.472-3.927 0-1.393.49-2.66 1.35-3.546 1.35-1.267 2.086-3.294 2.086-5.32 0-2.407-1.227-4.56-3.314-5.574-.122-.126-.368-.126-.49-.126-1.719-.127-3.56-.254-5.278-.38C22.336.253 19.391 0 16.691 0 8.714 0 4.786 3.673 2.823 6.713 1.473 8.867 0 12.793 0 16.34c0 3.42 1.473 7.853 2.577 11.4.246.633.368 1.267.614 1.773.245.76.49 1.52.614 2.154C4.909 35.213 5.645 38 8.959 38c1.841 0 3.927-2.027 7.486-5.7 2.332-2.407 5.032-5.067 6.75-5.953 1.228-.634 2.7-1.267 4.296-1.9.614-.254.859-1.014.614-1.647-.246-.633-.982-.887-1.596-.633a88.445 88.445 0 0 1-4.295 1.9c-2.21 1.013-4.91 3.8-7.487 6.46-1.963 1.9-4.909 4.94-5.768 4.94-1.227 0-1.718-.887-2.7-4.56-.245-.634-.368-1.394-.614-2.154-.245-.633-.368-1.266-.613-1.9-1.105-3.42-2.455-7.6-2.455-10.513 0-3.293 1.473-6.713 2.332-8.107 2.332-3.8 6.382-5.7 11.905-5.7 2.577 0 5.522.254 8.345.507l5.155.38c1.104.633 1.718 1.773 1.718 3.167 0 1.393-.491 2.66-1.35 3.546-1.35 1.267-2.087 3.294-2.087 5.32 0 1.9.86 5.194 3.314 6.46.368.127.736.127.982 0C43.445 17.1 54 11.907 54 5.7 54 1.14 47.741.887 36.818.887" mask="url(#b)"/>
        </g>
    </g>
</svg>
