<svg xmlns="http://www.w3.org/2000/svg" xmlns:xlink="http://www.w3.org/1999/xlink" width="90" height="90" viewBox="0 0 90 90">
    <defs>
        <path id="a" d="M0 .5h52v48H0z"/>
    </defs>
    <g fill="none" fill-rule="evenodd">
        <path fill="#D8D8D8" fill-opacity="0" d="M0 0h90v90H0z"/>
        <g transform="translate(19 21)">
            <mask id="b" fill="#fff">
                <use xlink:href="#a"/>
            </mask>
            <path fill="#88C74A" d="M51.857 39.206c-.068-.846-.132-1.645-.132-2.41 0-14.567-10.736-21.42-11.818-22.074-2.09-1.725-3.579-1.403-4.287-1.055-.726.359-1.913 1.379-1.72 4.21.001.022.148 1.595.228 3.929-4.684-2.318-5.29-9.043-4.716-20.326a.939.939 0 0 0-.898-.978.929.929 0 0 0-.994.885c-.546 10.74-.406 19.84 6.653 22.462.004.281.006.566.006.859 0 .623-.038 1.393-.1 2.248a11.42 11.42 0 0 0-7.892-3.156 11.365 11.365 0 0 0-8.238 3.508 34.004 34.004 0 0 1-.128-2.6c0-.35.002-.687.007-1.02 6.68-2.807 6.813-11.76 6.276-22.301a.936.936 0 0 0-.993-.885.938.938 0 0 0-.898.978c.557 10.963-.007 17.613-4.334 20.108.082-2.213.22-3.696.222-3.734.191-2.808-.997-3.828-1.721-4.187-.708-.348-2.198-.67-4.287 1.055C11.01 15.376.275 22.229.275 36.796c0 .765-.063 1.564-.132 2.41-.245 3.049-.523 6.504 2.39 9.058a.953.953 0 0 0 .933.188l12.164-4.057c2.429-.81 4.05-3.405 3.692-5.919-.01-.065-.676-4.435-1.118-8.5 1.752-2.7 4.73-4.312 7.983-4.312a9.488 9.488 0 0 1 7.657 3.862c-.44 4.185-1.156 8.885-1.167 8.96-.357 2.504 1.265 5.1 3.694 5.909l12.163 4.055a.957.957 0 0 0 .934-.187c2.912-2.554 2.634-6.008 2.39-9.057zM15.02 42.629L3.408 46.502c-1.8-1.906-1.594-4.457-1.378-7.148.067-.846.138-1.72.138-2.558 0-13.923 10.853-20.45 10.963-20.515a.966.966 0 0 0 .13-.092c.717-.602 1.405-.934 1.903-.934.137 0 .26.026.366.078.394.195.78.927.683 2.37-.011.125-.287 3.072-.287 7.004 0 4.064 1.46 13.641 1.522 14.037.226 1.592-.885 3.371-2.428 3.885zm33.572 3.873l-11.615-3.873c-1.541-.514-2.652-2.293-2.427-3.876.042-.278.745-4.882 1.181-9.056a.906.906 0 0 0 .06-.585c.166-1.686.281-3.263.281-4.405 0-3.932-.276-6.88-.285-6.979-.1-1.468.287-2.2.682-2.395a.823.823 0 0 1 .365-.078c.5 0 1.187.332 1.902.934.041.034.086.065.132.092.11.064 10.964 6.592 10.964 20.514 0 .839.07 1.713.137 2.557.216 2.692.422 5.244-1.377 7.15z" mask="url(#b)"/>
        </g>
    </g>
</svg>
