<svg xmlns="http://www.w3.org/2000/svg" xmlns:xlink="http://www.w3.org/1999/xlink" width="90" height="90" viewBox="0 0 90 90">
    <defs>
        <path id="a" d="M0 .105h44.906V54H0z"/>
    </defs>
    <g fill="none" fill-rule="evenodd">
        <path fill="none" d="M0 0h90v90H0z"/>
        <path fill="#88C74A" d="M39.103 50.786c-1.16 1.018-3.046 1.018-4.206 0a1.224 1.224 0 0 0-1.572 0 .894.894 0 0 0 0 1.38C34.34 53.056 35.67 53.5 37 53.5c1.33 0 2.661-.445 3.675-1.334a.894.894 0 0 0 0-1.38 1.223 1.223 0 0 0-1.572 0"/>
        <g transform="translate(23 18.5)">
            <mask id="b" fill="#fff">
                <use xlink:href="#a"/>
            </mask>
            <path fill="#88C74A" d="M32.493 31.22a2.826 2.826 0 0 1-3.99 0 1.055 1.055 0 0 0-1.49 0 1.052 1.052 0 0 0 0 1.489c.96.96 2.223 1.439 3.485 1.439s2.524-.48 3.485-1.44a1.052 1.052 0 0 0 0-1.488 1.055 1.055 0 0 0-1.49 0" mask="url(#b)"/>
            <path fill="#88C74A" d="M4.56 35.404a2.438 2.438 0 0 1-1.736-.719 2.431 2.431 0 0 1-.716-1.734l.005-2.667c.002-1.2.873-2.2 2.016-2.405v2.987c0 1.547.149 3.065.433 4.538H4.56zm17.907-27.51c8.949 0 16.23 7.273 16.23 16.211v3.406h-.122a16.72 16.72 0 0 1-13.19-6.434 51.345 51.345 0 0 0 2.147-1.605 1.052 1.052 0 1 0-1.307-1.651 50.39 50.39 0 0 1-19.988 9.543v-3.259c0-8.938 7.28-16.21 16.23-16.21zm0-5.684c3.62 0 6.752 2.22 8.029 5.431a18.244 18.244 0 0 0-8.03-1.852c-2.878 0-5.602.667-8.029 1.852a8.628 8.628 0 0 1 8.03-5.43zm20.327 28.074l.005 2.666a2.43 2.43 0 0 1-.717 1.735c-.46.46-1.07.715-1.72.719.291-1.495.442-3.017.442-4.544v-2.976a2.455 2.455 0 0 1 1.99 2.4zM27.259 49.978a21.776 21.776 0 0 1-4.804 1.883A21.676 21.676 0 0 1 6.237 30.866v-1.344l.455-.103a52.556 52.556 0 0 0 16.946-7.158 18.827 18.827 0 0 0 14.937 7.356h.121v1.243c0 3.572-.892 7.119-2.579 10.258a1.052 1.052 0 0 0 .928 1.55c.375 0 .739-.2.929-.554a23.72 23.72 0 0 0 1.878-4.605h.495c1.219 0 2.365-.474 3.227-1.336a4.522 4.522 0 0 0 1.332-3.226l-.005-2.666a4.565 4.565 0 0 0-4.097-4.523v-1.653c0-6.149-3.05-11.6-7.717-14.923-.806-5.207-5.29-9.077-10.62-9.077-5.331 0-9.815 3.87-10.621 9.077-4.667 3.324-7.717 8.774-7.717 14.923v1.65A4.564 4.564 0 0 0 .005 30.28L0 32.947a4.522 4.522 0 0 0 1.333 3.226 4.533 4.533 0 0 0 3.227 1.336h.51A23.786 23.786 0 0 0 22.2 53.97a1.056 1.056 0 0 0 .509 0l.017-.005a23.89 23.89 0 0 0 5.531-2.132 1.052 1.052 0 1 0-.998-1.854z" mask="url(#b)"/>
        </g>
        <path fill="#88C74A" d="M52.994 36.5a.99.99 0 0 0 .66-.253l.015-.012a.994.994 0 0 0-1.324-1.482l-.014.012a.994.994 0 0 0 .663 1.735M54.413 57.563l2.1 5.203-2.98 2.822-5.356-2.101c.599-2.98 3.093-5.348 6.236-5.924zm4.29 4.887l-2.298-5.693c-.355-.879-1.322-1.394-2.3-1.225-4.08.706-7.323 3.776-8.067 7.637l-.005.024c-.173.9.349 1.809 1.241 2.159l5.9 2.314 4.787 4.534c.211.2.488.3.765.3s.554-.1.766-.3a.987.987 0 0 0 0-1.45l-4.174-3.952 2.458-2.328 5.376 5.092c.423.4 1.108.4 1.531 0a.987.987 0 0 0 0-1.45l-5.98-5.662zM66 70.5c-.263 0-.521.107-.708.293A1.007 1.007 0 0 0 65 71.5c0 .263.106.521.292.707.187.186.445.293.708.293.263 0 .521-.107.707-.293.186-.186.293-.444.293-.707 0-.263-.107-.521-.293-.707A1.007 1.007 0 0 0 66 70.5"/>
    </g>
</svg>
