<svg xmlns="http://www.w3.org/2000/svg" xmlns:xlink="http://www.w3.org/1999/xlink" width="90" height="90" viewBox="0 0 90 90">
    <defs>
        <path id="a" d="M0 .104h47.994v53.79H0z"/>
    </defs>
    <g fill="none" fill-rule="evenodd">
        <g transform="translate(21 18)">
            <mask id="b" fill="#fff">
                <use xlink:href="#a"/>
            </mask>
            <path fill="#88C74A" d="M5.696 20.289c-.358-.332-.697-.646-.735-.92.004-.218.052-.433.142-.63.146-.392.316-.774.485-1.157.362-.753.65-1.54.86-2.35l.075-.326c.189-.916.435-1.818.738-2.702a15.26 15.26 0 0 1 3.18-5.25c1.718-1.833 4.317-3.083 7.945-3.822a57.26 57.26 0 0 1 8.317-1.206c5.018-.256 9.323 1.268 13.965 4.95a12.94 12.94 0 0 1 4.687 6.787c.621 2.312.91 4.702.86 7.097a12.125 12.125 0 0 1-1.895 6.434c-.463.738-.997 1.465-1.513 2.168a21.9 21.9 0 0 0-2.608 4.193 17.12 17.12 0 0 0-1.295 8.802c.2 1.902.573 3.782 1.111 5.616.294.966.661 1.908 1.1 2.816a8.412 8.412 0 0 0 .84 1.313H21.755a14.355 14.355 0 0 0-3.125-5.728l.656-.232c.664-.235 1.164-.413 1.416-.493 3.801-1.207 5.703-2.953 5.65-5.192a.891.891 0 0 0-.907-.875.893.893 0 0 0-.866.917c.022.924-.725 2.27-4.41 3.44-.26.083-.781.267-1.47.51-.635.226-1.418.503-2.274.799l-.005.002a73.087 73.087 0 0 1-7.616 2.325 1.57 1.57 0 0 1-1.829-1.203 3.507 3.507 0 0 1-.214-1.582c.024-.186.066-.371.107-.557.181-.622.21-1.28.082-1.915a2.948 2.948 0 0 0-1.634-1.835l-.19-.11c.095-.197.209-.383.34-.556a.903.903 0 0 0-.17-1.274c-.214-.159-.72-.542-1.085-.837.045-.083.096-.175.143-.257.136-.244.292-.524.444-.846a3.348 3.348 0 0 0 .238-2.005c-.207-1.1-1.246-1.635-2.005-2.026a5.116 5.116 0 0 1-.737-.432 4.573 4.573 0 0 1-.522-.428c.003-.135.142-.462.824-1.304a36.229 36.229 0 0 0 4.05-6.66 2.61 2.61 0 0 0 .348-1.216 3.133 3.133 0 0 0-1.299-2.243zm-4.51 9.03c-.636.786-1.304 1.703-1.168 2.636a2.772 2.772 0 0 0 1.284 1.672c.294.206.603.387.925.542.383.197 1.023.528 1.068.764a1.54 1.54 0 0 1-.097.899c-.132.28-.269.523-.386.734-.326.582-.872 1.556-.049 2.253.191.172.519.432.818.663a2.282 2.282 0 0 0-.286 1.299c.048.35.237.666.523.871.198.142.41.266.62.388.522.3.725.44.795.72.047.365.014.736-.096 1.087a8.78 8.78 0 0 0-.132.705c-.09.815.012 1.64.297 2.409.46 1.702 2.156 2.743 3.862 2.37a71.78 71.78 0 0 0 7.48-2.262c1.993 1.19 3.251 4.792 3.58 6.143a.89.89 0 0 0 .861.683h22.416a.884.884 0 0 0 .712-.363.905.905 0 0 0 .135-.796 6.224 6.224 0 0 0-.998-1.742c-.24-.31-.454-.64-.639-.986a17.79 17.79 0 0 1-1.002-2.564 30.02 30.02 0 0 1-1.045-5.302 15.312 15.312 0 0 1 1.16-7.87 20.167 20.167 0 0 1 2.407-3.84c.535-.73 1.089-1.484 1.587-2.279a13.899 13.899 0 0 0 2.17-7.368c.053-2.569-.26-5.133-.927-7.612a14.863 14.863 0 0 0-5.3-7.709C36.758 1.497 32.081-.148 26.611.135a58.81 58.81 0 0 0-8.575 1.24c-4 .813-6.905 2.235-8.883 4.346a17.036 17.036 0 0 0-3.556 5.862c-.329.954-.597 1.93-.802 2.919l-.075.324a11.42 11.42 0 0 1-.751 2.023c-.185.416-.368.832-.526 1.256a3.086 3.086 0 0 0-.239 1.509c.18.8.64 1.51 1.294 1.997.435.403.72.685.723.943a1.546 1.546 0 0 1-.155.382 34.761 34.761 0 0 1-3.88 6.384z" mask="url(#b)"/>
        </g>
        <path fill="#88C74A" d="M41.786 33.81h1.709a.87.87 0 0 0 .841-.705c.207-.983.58-1.92 1.103-2.767a.922.922 0 0 0-.115-1.119l-1.21-1.258c.48-.62 1.022-1.184 1.618-1.683l1.21 1.258a.835.835 0 0 0 1.075.12 7.974 7.974 0 0 1 2.662-1.147.89.89 0 0 0 .677-.876v-1.777a10.31 10.31 0 0 1 2.288 0v1.777c0 .421.282.786.677.876a7.968 7.968 0 0 1 2.662 1.148.838.838 0 0 0 1.075-.12l1.21-1.259a10.794 10.794 0 0 1 1.618 1.683l-1.21 1.258a.922.922 0 0 0-.115 1.119 8.664 8.664 0 0 1 1.103 2.767.87.87 0 0 0 .841.704h1.71c.081.791.081 1.59 0 2.38h-1.71a.87.87 0 0 0-.841.705 8.665 8.665 0 0 1-1.103 2.767.922.922 0 0 0 .115 1.119l1.21 1.258c-.48.62-1.022 1.184-1.618 1.683l-1.21-1.258a.837.837 0 0 0-1.075-.12 7.97 7.97 0 0 1-2.662 1.147.89.89 0 0 0-.677.876v1.777c-.76.085-1.528.085-2.288 0v-1.778a.89.89 0 0 0-.677-.875 7.974 7.974 0 0 1-2.662-1.148.835.835 0 0 0-1.075.12l-1.21 1.259a10.794 10.794 0 0 1-1.618-1.683l1.21-1.259a.922.922 0 0 0 .115-1.118 8.664 8.664 0 0 1-1.103-2.767.87.87 0 0 0-.842-.704h-1.708a11.546 11.546 0 0 1 0-2.38zm-.747 4.173h1.787c.199.702.469 1.379.806 2.02l-1.265 1.316a.923.923 0 0 0-.097 1.147 12.533 12.533 0 0 0 3.05 3.173.839.839 0 0 0 1.103-.101l1.265-1.315c.617.35 1.269.631 1.944.838v1.859c0 .434.3.806.71.883a11.89 11.89 0 0 0 4.316 0 .888.888 0 0 0 .71-.883v-1.86a9.656 9.656 0 0 0 1.944-.837l1.265 1.315c.295.307.76.35 1.102.101a12.533 12.533 0 0 0 3.051-3.173.924.924 0 0 0-.097-1.147l-1.265-1.315c.337-.642.607-1.32.806-2.021h1.787a.872.872 0 0 0 .849-.739 13.335 13.335 0 0 0 0-4.489.872.872 0 0 0-.849-.74h-1.787a10.483 10.483 0 0 0-.806-2.02l1.265-1.315a.924.924 0 0 0 .097-1.147 12.533 12.533 0 0 0-3.05-3.173.836.836 0 0 0-1.103.101l-1.265 1.315a9.651 9.651 0 0 0-1.944-.838V23.08c0-.434-.3-.806-.71-.883a11.952 11.952 0 0 0-4.316 0 .888.888 0 0 0-.71.883v1.86a9.651 9.651 0 0 0-1.944.837l-1.265-1.315a.836.836 0 0 0-1.102-.101 12.53 12.53 0 0 0-3.051 3.173.923.923 0 0 0 .097 1.147l1.265 1.315c-.337.642-.607 1.32-.806 2.02H41.04a.872.872 0 0 0-.849.74 13.335 13.335 0 0 0 0 4.489c.074.428.431.74.849.739zM35.5 47.333a1.833 1.833 0 1 1 0-3.666 1.833 1.833 0 0 1 0 3.666zm1.85-4.98a3.626 3.626 0 0 0-.933-.39v-1.046a.917.917 0 0 0-1.834 0v1.047a3.622 3.622 0 0 0-.934.389l-.741-.742a.917.917 0 0 0-1.297 1.296l.742.742a3.622 3.622 0 0 0-.39.934h-1.046a.917.917 0 1 0 0 1.834h1.047c.085.328.216.642.389.934l-.742.742a.917.917 0 0 0 1.297 1.296l.741-.742c.292.173.606.304.934.39v1.046a.917.917 0 1 0 1.834 0v-1.046a3.63 3.63 0 0 0 .934-.39l.741.742a.917.917 0 0 0 1.297-1.296l-.742-.742c.173-.292.304-.606.39-.934h1.046a.917.917 0 0 0 0-1.834h-1.047a3.62 3.62 0 0 0-.389-.934l.742-.742a.917.917 0 0 0-1.296-1.296l-.742.742zM32.88 33.5c0-.57.34-1.07.83-1.218.49-.148 1.007.093 1.26.587.254.494.18 1.118-.178 1.522-.32.36-.802.468-1.22.273-.42-.195-.692-.654-.692-1.164zm-2.08.9h.612c.05.18.114.355.193.522l-.433.487a.979.979 0 0 0-.207.87c.074.31.29.553.565.636a.74.74 0 0 0 .773-.233l.434-.488c.148.088.303.16.463.216v.69c0 .497.358.9.8.9.442 0 .8-.403.8-.9v-.69c.16-.056.315-.128.463-.216l.434.488a.739.739 0 0 0 1.131 0 .981.981 0 0 0 0-1.273l-.433-.487c.079-.167.143-.341.193-.522h.612c.442 0 .8-.403.8-.9s-.358-.9-.8-.9h-.612a3.224 3.224 0 0 0-.193-.522l.433-.487a.979.979 0 0 0 .207-.87c-.074-.31-.29-.553-.565-.636a.74.74 0 0 0-.773.233l-.434.488a2.525 2.525 0 0 0-.463-.215V29.9c0-.497-.358-.9-.8-.9-.442 0-.8.403-.8.9v.69c-.16.056-.315.128-.463.216l-.434-.488a.739.739 0 0 0-1.131 0 .981.981 0 0 0 0 1.273l.433.487a3.216 3.216 0 0 0-.193.522H30.8c-.442 0-.8.403-.8.9s.358.9.8.9z"/>
        <path fill="#88C74A" d="M52.5 31.692a3.808 3.808 0 1 1 0 7.616 3.808 3.808 0 0 1 0-7.616zm0 9.308a5.5 5.5 0 1 0-5.5-5.5 5.506 5.506 0 0 0 5.5 5.5z"/>
    </g>
</svg>
