<svg xmlns="http://www.w3.org/2000/svg" xmlns:xlink="http://www.w3.org/1999/xlink" width="90" height="90" viewBox="0 0 90 90">
    <defs>
        <path id="a" d="M.006.071H51.93v52.82H.006z"/>
    </defs>
    <g fill="none" fill-rule="evenodd">
        <g transform="translate(21 19)">
            <mask id="b" fill="#fff">
                <use xlink:href="#a"/>
            </mask>
            <path fill="#88C74A" d="M19.913 3.646c-9.057 0-16.398 7.467-16.398 16.679 0 9.211 7.341 16.679 16.398 16.679 9.056 0 16.398-7.468 16.398-16.68-.01-9.207-7.346-16.668-16.398-16.678zm0 31.602c-8.103 0-14.672-6.681-14.672-14.923S11.81 5.402 19.913 5.402c8.103 0 14.672 6.68 14.672 14.923-.01 8.238-6.573 14.914-14.672 14.923z" mask="url(#b)"/>
            <path fill="#88C74A" d="M50.68 45.41l-9.765-9.93a.877.877 0 0 0-1.22 0l-.61.62-3.433-3.492c6.38-8.453 5.216-20.49-2.66-27.517a19.639 19.639 0 0 0-27.169.903c-7.408 7.535-7.796 19.624-.887 27.634 6.908 8.01 18.743 9.194 27.053 2.705l3.433 3.492-.61.62a.889.889 0 0 0 0 1.241l9.765 9.932a4.264 4.264 0 0 0 6.09-.013 4.443 4.443 0 0 0 .013-6.194zM1.788 20.326c0-10.181 8.115-18.435 18.125-18.435s18.124 8.254 18.124 18.435c0 10.18-8.114 18.435-18.124 18.435C9.908 38.748 1.8 30.5 1.788 20.325zM34.54 33.959l3.326 3.378-1.226 1.247-3.322-3.379c.425-.398.832-.813 1.222-1.246zm14.92 16.415a2.559 2.559 0 0 1-3.662 0l-9.154-9.308 3.662-3.724 9.154 9.31a2.67 2.67 0 0 1 0 3.725v-.003z" mask="url(#b)"/>
        </g>
        <path fill="#88C74A" d="M53.779 38.416c-.224-.253-5.396-5.977-12.055-6.378a6.825 6.825 0 0 0-1.448 0c-6.66.401-11.83 6.125-12.055 6.378a.881.881 0 0 0 0 1.168c.224.253 5.396 5.977 12.055 6.378.481.05.967.05 1.448 0 6.66-.401 11.83-6.125 12.055-6.378a.88.88 0 0 0 0-1.168zM46.2 39c0 2.9-2.328 5.25-5.2 5.25-2.872 0-5.2-2.35-5.2-5.25s2.328-5.25 5.2-5.25c2.87.003 5.197 2.352 5.2 5.25zm-11.094-3.67a6.993 6.993 0 0 0 0 7.333A22.163 22.163 0 0 1 30.08 39a22.025 22.025 0 0 1 5.026-3.67zm11.787 7.339a6.993 6.993 0 0 0 0-7.332c1.838.977 3.53 2.21 5.027 3.663a22.018 22.018 0 0 1-5.027 3.669z"/>
        <path fill="#88C74A" d="M40.5 43a3.5 3.5 0 1 0 0-7 3.5 3.5 0 0 0 0 7zm0-5.25a1.75 1.75 0 1 1 0 3.5 1.75 1.75 0 0 1 0-3.5z"/>
    </g>
</svg>
