<svg xmlns="http://www.w3.org/2000/svg" xmlns:xlink="http://www.w3.org/1999/xlink" width="90" height="90" viewBox="0 0 90 90">
    <defs>
        <path id="a" d="M0 0h54v54H0z"/>
    </defs>
    <g fill="none" fill-rule="evenodd" transform="translate(18 18)">
        <mask id="b" fill="#fff">
            <use xlink:href="#a"/>
        </mask>
        <path fill="#88C74A" d="M47.504 10.356a6.054 6.054 0 0 0 1.771-4.281A6.082 6.082 0 0 0 43.2 0H10.8C4.845 0 0 4.845 0 10.8c0 4.093 2.316 7.619 5.68 9.45C2.316 22.081 0 25.607 0 29.7c0 5.955 4.845 10.8 10.8 10.8h8.1c.745 0 1.35.605 1.35 1.35v10.8a1.35 1.35 0 0 0 2.7 0v-10.8a4.055 4.055 0 0 0-4.05-4.05h-8.1a8.1 8.1 0 0 1-8.1-8.1 8.1 8.1 0 0 1 8.1-8.1h32.4a1.35 1.35 0 0 0 0-2.7H10.8a8.1 8.1 0 0 1-8.1-8.1 8.1 8.1 0 0 1 8.1-8.1h32.4a3.375 3.375 0 0 1 0 6.75H10.8a1.35 1.35 0 1 0 0 2.7h32.4a8.1 8.1 0 0 1 8.1 8.1 8.1 8.1 0 0 1-8.1 8.1H10.8a1.35 1.35 0 1 0 0 2.7h10.8a8.1 8.1 0 0 1 8.1 8.1v13.5a1.35 1.35 0 0 0 2.7 0v-13.5c0-3.24-1.464-6.12-3.732-8.1H43.2c5.955 0 10.8-4.845 10.8-10.8 0-4.424-2.68-8.226-6.496-9.894" mask="url(#b)"/>
    </g>
</svg>
