<svg xmlns="http://www.w3.org/2000/svg" xmlns:xlink="http://www.w3.org/1999/xlink" width="90" height="90" viewBox="0 0 90 90">
    <defs>
        <path id="a" d="M.075.332H50v2.136H.075z"/>
    </defs>
    <g fill="none" fill-rule="evenodd">
        <path fill="#88C74A" d="M45 27c-9.374 0-17 7.461-17 16.632 0 6.96 4.394 13.121 11 15.553v8.903c0 .54.45.98 1 .98h1.002v1.953c0 .545.444.979 1 .979h5.995a.985.985 0 0 0 1.001-.98v-1.952H50a.993.993 0 0 0 1.001-.98v-8.903c6.606-2.432 11-8.594 11-15.553C62 34.462 54.374 27 45 27zm2.997 40.109a.987.987 0 0 0-.995.98v1.958h-4.004v-1.959c0-.539-.444-.98-.995-.98h-1.001v-4.89h7.996v4.89h-1zm1.69-9.543a.977.977 0 0 0-.689.926v1.773h-7.996v-1.773a.977.977 0 0 0-.689-.926c-6.166-1.987-10.31-7.586-10.31-13.934 0-8.09 6.727-14.673 14.997-14.673s14.998 6.582 14.998 14.673c0 6.348-4.145 11.947-10.311 13.934zM45 25c.55 0 1-.45 1-1.001v-3.998c0-.552-.45-1.001-1-1.001s-1 .449-1 1.001v3.998c0 .551.45 1.001 1 1.001z"/>
        <g transform="translate(20 42)">
            <mask id="b" fill="#fff">
                <use xlink:href="#a"/>
            </mask>
            <path fill="#88C74A" d="M48.999.332H45c-.551 0-1.001.48-1.001 1.068 0 .588.45 1.068 1.001 1.068h3.999C49.55 2.468 50 1.988 50 1.4c0-.588-.449-1.068-1.001-1.068zM5 .332H1.001C.45.332 0 .812 0 1.4c0 .588.449 1.068 1.001 1.068H5c.551 0 1.001-.48 1.001-1.068C6.001.812 5.551.332 5 .332z" mask="url(#b)"/>
        </g>
        <path fill="#88C74A" d="M61.231 26.305l-2.928 2.93a1.034 1.034 0 1 0 1.462 1.462l2.928-2.93c.41-.404.41-1.057 0-1.462a1.028 1.028 0 0 0-1.462 0zM30.235 56.304l-2.928 2.93a1.025 1.025 0 0 0 0 1.463c.198.202.466.303.729.303.268 0 .53-.101.733-.303l2.928-2.93a1.034 1.034 0 0 0-1.462-1.463zM59.765 56.304a1.034 1.034 0 0 0-1.462 1.463l2.928 2.93c.202.202.465.303.733.303.263 0 .531-.101.73-.303.408-.406.408-1.058 0-1.463l-2.93-2.93zM30.235 30.697a1.03 1.03 0 0 0 1.462 0 1.033 1.033 0 0 0 0-1.462l-2.928-2.928a1.024 1.024 0 0 0-1.462 0 1.024 1.024 0 0 0 0 1.462l2.928 2.928zM44.999 32C38.385 32 33 37.385 33 43.999c0 .551.45 1.001 1.001 1.001.552 0 1-.45 1-1.001 0-5.51 4.487-9.997 9.998-9.997.551 0 1.001-.449 1.001-1.001C46 32.45 45.55 32 44.999 32z"/>
    </g>
</svg>
