<svg xmlns="http://www.w3.org/2000/svg" xmlns:xlink="http://www.w3.org/1999/xlink" width="90" height="90" viewBox="0 0 90 90">
    <defs>
        <path id="a" d="M.006 0h41.137v54H.006z"/>
    </defs>
    <g fill="none" fill-rule="evenodd">
        <g transform="matrix(-1 0 0 1 66.5 18)">
            <mask id="b" fill="#fff">
                <use xlink:href="#a"/>
            </mask>
            <path fill="#88C74A" d="M35.73 27.422c1.79 0 3.247-1.42 3.247-3.164V6.328h1.083c.598 0 1.083-.472 1.083-1.055V1.055C41.143.472 40.658 0 40.06 0H1.083C.485 0 0 .472 0 1.055v4.218c0 .583.485 1.055 1.083 1.055h1.082v5.274c0 .582.485 1.054 1.083 1.054s1.083-.472 1.083-1.054V6.328h32.481v17.93c0 .582-.485 1.055-1.083 1.055h-1.107c-.386-8.56-5.876-16.875-14.05-16.875-8.325 0-13.674 8.513-14.051 16.874H5.414c-.598 0-1.083-.472-1.083-1.054v-4.219c0-.582-.485-1.055-1.083-1.055s-1.083.473-1.083 1.055v4.219c0 1.745 1.457 3.164 3.249 3.164h1.105c.068 1.665.29 3.41.619 4.881-1.583.21-2.807 1.536-2.807 3.135v2.109c0 .582.485 1.055 1.083 1.055h1.46c.832 3.464 2.994 6.619 5.957 8.69l-1.94 5.299a1.03 1.03 0 0 0 .134.962c.203.28.533.447.885.447h17.323c.352 0 .682-.167.885-.447a1.03 1.03 0 0 0 .135-.962l-1.941-5.3c2.963-2.07 5.125-5.225 5.957-8.69h1.46c.598 0 1.083-.472 1.083-1.054v-2.11c0-1.598-1.224-2.923-2.807-3.134a28.67 28.67 0 0 0 .619-4.881h1.105zM2.164 4.219h36.812v-2.11H2.165v2.11zm18.406 6.328c6.567 0 11.91 7.097 11.91 15.82 0 1.985-.264 4.209-.69 5.906h-2.269c.494-1.766.794-3.934.794-5.906 0-6.238-3.588-13.71-9.745-13.71-6.072 0-9.744 7.336-9.744 13.71 0 1.972.3 4.14.793 5.906H9.351c-.425-1.697-.69-3.921-.69-5.906 0-8.723 5.344-15.82 11.91-15.82zm7.58 15.82c0 1.988-.347 4.258-.884 5.906H13.876c-.538-1.648-.884-3.918-.884-5.906 0-4.811 2.696-11.601 7.58-11.601 4.876 0 7.578 6.778 7.578 11.601zM13.444 51.891l1.276-3.484a13.313 13.313 0 0 0 5.85 1.374c2.01 0 4.009-.473 5.85-1.374l1.276 3.484H13.445zm7.126-4.22c-5.41 0-10.044-4.07-11.464-9.07h22.928c-1.419 5-6.054 9.07-11.464 9.07zm14.076-12.233v1.054H6.497v-1.054c0-.582.485-1.055 1.082-1.055h25.985c.597 0 1.083.473 1.083 1.054z" mask="url(#b)"/>
        </g>
        <path fill="#88C74A" d="M62.5 33.5a1.5 1.5 0 1 0 3 0 1.5 1.5 0 0 0-3 0z"/>
    </g>
</svg>
