<svg xmlns="http://www.w3.org/2000/svg" xmlns:xlink="http://www.w3.org/1999/xlink" width="90" height="90" viewBox="0 0 90 90">
    <defs>
        <path id="a" d="M0 0h44v57H0z"/>
    </defs>
    <g fill="none" fill-rule="evenodd" transform="translate(23 17)">
        <mask id="b" fill="#fff">
            <use xlink:href="#a"/>
        </mask>
        <path fill="#88C74A" d="M15.5 15A10.5 10.5 0 1 0 26 25.5c-.007-5.796-4.704-10.493-10.5-10.5zm0 19.09a8.591 8.591 0 1 1 8.59-8.59 8.6 8.6 0 0 1-8.59 8.59z" mask="url(#b)"/>
        <path fill="#88C74A" d="M15.325 10.45C7.612 10.435 1.095 16.13.123 23.735c-.971 7.605 3.907 14.739 11.379 16.64v2.375H7.678a.953.953 0 0 0-.956.95v4.75c0 .524.429.95.956.95h3.824v6.65c0 .524.428.95.955.95h5.735a.953.953 0 0 0 .956-.95V49.4h3.824a.953.953 0 0 0 .955-.95V43.7a.953.953 0 0 0-.955-.95h-3.824v-2.375c6.745-1.75 11.457-7.797 11.47-14.725a14.93 14.93 0 0 0-1.242-5.97l6.977-6.936v5.306c0 .524.429.95.956.95h5.735a.953.953 0 0 0 .956-.95V.95a.953.953 0 0 0-.956-.95H25.84a.953.953 0 0 0-.956.95v5.7c0 .524.428.95.956.95h5.34l-6.266 6.227a15.296 15.296 0 0 0-9.588-3.377zm10.313 5.342l8.524-8.47a.947.947 0 0 0 .207-1.036.956.956 0 0 0-.883-.586h-6.691V1.9h15.293v15.2h-3.823v-6.65a.95.95 0 0 0-.59-.878.961.961 0 0 0-1.042.206l-9.08 9.025a.946.946 0 0 0-.186 1.085 13.092 13.092 0 0 1 1.34 5.762C28.694 31.966 24.225 37.407 18 38.683a.953.953 0 0 0-.764.931V43.7c0 .524.428.95.955.95h3.824v2.85h-3.824a.953.953 0 0 0-.955.95v6.65h-3.824v-6.65a.953.953 0 0 0-.956-.95H8.634v-2.85h3.823a.953.953 0 0 0 .956-.95v-4.085c0-.452-.32-.84-.765-.931a13.37 13.37 0 0 1-9.393-7.24 13.228 13.228 0 0 1 .11-11.814 13.374 13.374 0 0 1 9.528-7.066 13.44 13.44 0 0 1 11.426 3.26.96.96 0 0 0 1.319-.032z" mask="url(#b)"/>
    </g>
</svg>
