<svg xmlns="http://www.w3.org/2000/svg" xmlns:xlink="http://www.w3.org/1999/xlink" width="90" height="90" viewBox="0 0 90 90">
    <defs>
        <path id="a" d="M0 0h41v59H0z"/>
    </defs>
    <g fill="none" fill-rule="evenodd" transform="matrix(-1 0 0 1 66 16)">
        <mask id="b" fill="#fff">
            <use xlink:href="#a"/>
        </mask>
        <path fill="#88C74A" d="M1 2c.263 0 .521-.107.707-.293C1.893 1.521 2 1.263 2 1c0-.263-.107-.521-.293-.707A1.008 1.008 0 0 0 1 0C.737 0 .479.107.293.293A1.008 1.008 0 0 0 0 1c0 .263.107.521.293.707C.479 1.893.737 2 1 2M33.889 43.457c-.008.279-.09.483-.25.625a.746.746 0 0 1-.183.118c-.368-.655-1.063-1.441-2.027-1.543-.402-.042-1.41 0-2.093 1.317-.82 1.583-3.083 2.64-6.97.856-2.738-1.256-3.345-3.738-3.426-5.368a5.308 5.308 0 0 0 3.381.545c.562.231 4.124 1.578 5.758-.674.335-.461.693-.749.96-.77a.491.491 0 0 1 .365.151c.046.079.15.385-.006.814-.357.982-1.779 1.877-3.9 2.457a1.153 1.153 0 1 0 .61 2.224c3.274-.895 4.696-2.285 5.29-3.49.453-.01.88.236 1.122.41.789.564 1.39 1.587 1.369 2.328zM21.434 31.748a3.021 3.021 0 0 1 3.021 3.014 3.021 3.021 0 0 1-6.042 0 3.021 3.021 0 0 1 3.021-3.014zm18.107-2.904a1.14 1.14 0 0 0-.132-.323 20.3 20.3 0 0 0-1.758-3.31l-.636-.967a1.158 1.158 0 0 0-.108-.139c.19-.415.297-.876.297-1.362 0-2.702-2.202-4.9-4.91-4.9h-2.719a5.49 5.49 0 0 0 1.044-3.223 5.81 5.81 0 0 0-1.932-4.321L17.526.295a1.157 1.157 0 0 0-1.632.087 1.151 1.151 0 0 0 .087 1.629l11.162 10.003a3.504 3.504 0 0 1 1.165 2.606 3.231 3.231 0 0 1-3.231 3.223h-.12c-.065 0-.13.006-.193.017l-11.517 1.95a.059.059 0 0 1-.052-.015c-.023-.02-.023-.04-.023-.05V7.354c0-.637-.518-1.153-1.156-1.153-.638 0-1.155.516-1.155 1.153v12.393a2.375 2.375 0 0 0 2.773 2.337l11.42-1.934h7.24a2.6 2.6 0 0 1 2.6 2.594c0 .54-.441.98-.983.98h-8.723c-.15 0-.3.03-.44.086l-12.403 5.089a7.322 7.322 0 0 1-5.684-.066 7.254 7.254 0 0 1-4.35-6.643V4.701c0-.637-.517-1.153-1.156-1.153C.517 3.548 0 4.064 0 4.701V22.19c0 3.486 1.9 6.67 4.91 8.345v4.416a8.51 8.51 0 0 1-.437 2.695 33.386 33.386 0 0 0-.51 19.514l.276.994a1.156 1.156 0 0 0 2.228-.612l-.275-.995a31.092 31.092 0 0 1 .474-18.173c.369-1.106.555-2.258.555-3.423v-3.5a9.672 9.672 0 0 0 2.36.294c1.241 0 2.482-.238 3.643-.714l12.192-5.001h8.495c.473 0 .923-.101 1.33-.28l.477.727c.605.92 1.115 1.876 1.535 2.857a3.004 3.004 0 0 1-2.994 2.774 5.32 5.32 0 0 0-5.186 4.15 2.65 2.65 0 0 0-.218.008c-.679.054-1.69.395-2.647 1.715-.15.208-.444.302-.8.324a5.29 5.29 0 0 0 1.358-3.542c0-2.933-2.392-5.32-5.332-5.32s-5.332 2.387-5.332 5.32c0 .938.246 1.82.674 2.585a1.15 1.15 0 0 0-.033.132c-.013.07-.31 1.708.095 3.662.554 2.669 2.132 4.669 4.563 5.784 1.759.807 3.302 1.14 4.627 1.14 2.655 0 4.432-1.342 5.297-2.914.077.1.145.21.172.284.219.786 1.032 1.234 2.027 1.115 1.25-.149 2.621-1.16 2.675-3.027.043-1.523-.893-3.238-2.331-4.268-.69-.494-1.422-.774-2.146-.833a2.818 2.818 0 0 0-.464-1.084 3.003 3.003 0 0 1 3.001-2.925c1.61 0 3.054-.72 4.03-1.852 1.256 5.722-.329 11.836-4.575 16.308a8.281 8.281 0 0 0-2.287 5.725v3.253a1.154 1.154 0 0 0 2.311 0v-3.252c0-1.547.587-3.017 1.653-4.14a20.487 20.487 0 0 0 5.529-12.23 20.463 20.463 0 0 0-1.38-9.381z" mask="url(#b)"/>
    </g>
</svg>
