<?xml version="1.0" encoding="utf-8"?>
<!-- Generator: Adobe Illustrator 23.0.2, SVG Export Plug-In . SVG Version: 6.00 Build 0)  -->
<!DOCTYPE svg PUBLIC "-//W3C//DTD SVG 1.1//EN" "http://www.w3.org/Graphics/SVG/1.1/DTD/svg11.dtd" [
	<!ENTITY ns_extend "http://ns.adobe.com/Extensibility/1.0/">
	<!ENTITY ns_ai "http://ns.adobe.com/AdobeIllustrator/10.0/">
	<!ENTITY ns_graphs "http://ns.adobe.com/Graphs/1.0/">
	<!ENTITY ns_vars "http://ns.adobe.com/Variables/1.0/">
	<!ENTITY ns_imrep "http://ns.adobe.com/ImageReplacement/1.0/">
	<!ENTITY ns_sfw "http://ns.adobe.com/SaveForWeb/1.0/">
	<!ENTITY ns_custom "http://ns.adobe.com/GenericCustomNamespace/1.0/">
	<!ENTITY ns_adobe_xpath "http://ns.adobe.com/XPath/1.0/">
]>
<svg version="1.1" id="圖層_1" xmlns:x="&ns_extend;" xmlns:i="&ns_ai;" xmlns:graph="&ns_graphs;"
	 xmlns="http://www.w3.org/2000/svg" xmlns:xlink="http://www.w3.org/1999/xlink" x="0px" y="0px" viewBox="0 0 40 30"
	 style="enable-background:new 0 0 40 30;" xml:space="preserve">
<style type="text/css">
	.st0{fill-rule:evenodd;clip-rule:evenodd;fill:#D8D8D8;fill-opacity:0;}
	.st1{fill-rule:evenodd;clip-rule:evenodd;fill:#FFFFFF;stroke:#88C74A;stroke-width:0.25;stroke-miterlimit:10;}
</style>
<metadata>
	<sfw  xmlns="&ns_sfw;">
		<slices></slices>
		<sliceSourceBounds  bottomLeftOrigin="true" height="30.2" width="40" x="0" y="-0.1"></sliceSourceBounds>
	</sfw>
</metadata>
<title>矩形</title>
<desc>Created with Sketch.</desc>
<g id="icon_2_">
	<g id="群組-23_1_">
		<g id="群組-24_1_">
			<rect id="矩形_1_" class="st0" width="40" height="30"/>
			<g id="loan_1_" transform="translate(5.000000, 0.000000)">
				<path id="Fill-1_2_" class="st1" d="M16.4,7.8c0,1.4,1.2,2.6,2.6,2.6h2c0.5,0,0.9,0.4,0.9,0.9s-0.4,0.9-0.9,0.9l0,0h-2.1
					c-0.3,0-0.5-0.1-0.8-0.3c-0.4-0.3-0.9-0.2-1.2,0.2c-0.3,0.4-0.2,0.9,0.2,1.2c0.8,0.6,1.6,0.6,2,0.6v0.7c0,0.5,0.4,0.9,0.9,0.9
					s0.9-0.4,0.9-0.9v-0.7c1.7,0,2.8-1.3,2.8-2.6c0-1.4-1.2-2.6-2.6-2.6h-2c-0.5,0-0.9-0.4-0.9-0.9s0.4-0.9,0.9-0.9l0,0H21
					c0.4,0,0.7,0.2,1,0.4c0.3,0.3,0.9,0.4,1.2,0c0.3-0.3,0.4-0.9,0-1.2c-0.6-0.6-1.4-1-2.3-1V4.5c0-0.5-0.4-0.9-0.9-0.9
					S19.1,4,19.1,4.5v0.7C17.4,5.2,16.4,6.4,16.4,7.8z"/>
				<path id="Fill-3_1_" class="st1" d="M29.2,21c-1.1-1.1-2.8-1.1-3.9,0l-2.7,2.7c-0.1,0.1-0.3,0.2-0.5,0.2H15c-0.5,0-1-0.4-1-1
					c0-0.5,0.4-1,1-1h2.1c1.4,0,2.6-1.1,2.6-2.5C25.4,19.7,30,15.3,30,9.8c0-6.4-6.1-11.1-12.4-9.4c-6.3-1.7-12.4,3-12.4,9.4
					c0,2.9,1.3,5.6,3.5,7.5c-1.4,0.4-2.7,1.3-3.6,2.4l0,0l-0.8,1H0.9c-0.5,0-0.9,0.4-0.9,0.9v7.5C0,29.6,0.4,30,0.9,30h21.9
					c0.8,0,1.5-0.3,2.1-0.8l4.3-4.3C30.3,23.8,30.3,22.1,29.2,21L29.2,21z M28.2,9.8c0,4.8-4.2,8.6-9.1,7.9
					c-0.9-0.9-1.8-0.8-2.6-0.8c-2.7-1.4-4.3-4.1-4.3-7.1c0-4.5,3.7-8,8-8C24.6,1.8,28.2,5.4,28.2,9.8z M7,9.8c0-4.3,3.4-7.8,7.6-8
					c-2.5,1.7-4.2,4.6-4.2,8c0,2.7,1.1,5.3,3.1,7.1c-1.3,0-1,0-2.2,0C8.7,15.5,7,12.8,7,9.8z M28,23.6l-4.3,4.3
					c-0.2,0.2-0.5,0.3-0.8,0.3H1.8v-5.8h2.9c0.3,0,0.5-0.1,0.7-0.3l1.1-1.4c1.1-1.4,2.8-2.2,4.6-2.2c0.6,0,4.6,0,5.2,0
					s1.7-0.2,1.7,0.8c0,0.4-0.4,0.8-0.8,0.8h-2.1c-1.5,0-2.7,1.2-2.7,2.7s1.2,2.7,2.7,2.7h7.1c0.6,0,1.3-0.3,1.7-0.7l2.7-2.7
					c0.4-0.4,1-0.4,1.4,0C28.3,22.6,28.3,23.2,28,23.6z"/>
			</g>
		</g>
	</g>
</g>
</svg>
