<svg xmlns="http://www.w3.org/2000/svg" xmlns:xlink="http://www.w3.org/1999/xlink" width="57" height="57" viewBox="0 0 57 57">
    <defs>
        <path id="prefix__a" d="M0 0.149L30.804 0.149 30.804 13.125 0 13.125z"/>
        <path id="prefix__c" d="M0.328 0.397L25.111 0.397 25.111 18.529 0.328 18.529z"/>
        <path id="prefix__e" d="M0.048 1.069L1.061 1.069 1.061 2.249 0.048 2.249z"/>
        <path id="prefix__g" d="M0.06 0.26L1.061 0.26 1.061 1.374 0.06 1.374z"/>
    </defs>
    <g fill="none" fill-rule="evenodd">
        <g transform="translate(10.5 15) translate(0 21.478)">
            <mask id="prefix__b" fill="#fff">
                <use xlink:href="#prefix__a"/>
            </mask>
            <path fill="#0B1D37" d="M18.88 12.199c-.492-.114-.985-.218-1.474-.341-1.524-.383-3.047-.774-4.57-1.162-1.034-.262-2.069-.52-3.1-.793-.48-.128-.911-.058-1.307.238-.193.144-.488.268-.538.454-.04.153.209.387.337.58.225.342.197.55-.126.786-.484.352-.973.692-1.458 1.039-.195.139-.403.178-.603.035-.245-.174-.225-.509.043-.713.331-.25.67-.493 1.015-.726.17-.114.196-.21.069-.388C5.513 8.89 3.863 6.57 2.22 4.244c-.133-.185-.229-.209-.412-.07-.336.258-.689.498-1.039.738-.285.198-.524.173-.688-.06-.156-.223-.09-.465.193-.666.515-.367 1.031-.734 1.55-1.096.303-.212.517-.174.745.122l.017.022c.432.58.431.58 1.028.152L7.125.882C8.141.159 9.247-.03 10.447.319c2.49.722 4.982 1.441 7.472 2.164.815.238 1.632.473 2.443.723 1.105.343 1.731 1.405 1.622 2.415-.13 1.216-1.048 2.084-2.233 2.105-.408.006-.822-.108-1.225-.203-1.486-.35-2.968-.717-4.453-1.077-.08-.019-.157-.043-.235-.066-.285-.086-.423-.298-.356-.544.064-.237.308-.365.586-.3.484.116.966.236 1.45.353 1.245.305 2.489.627 3.741.91 1.121.253 2.025-.573 1.823-1.655-.117-.62-.536-.984-1.13-1.156l-8.955-2.6c-.356-.102-.708-.224-1.07-.301-.803-.175-1.55-.01-2.216.461-1.33.937-2.648 1.892-3.976 2.833-.181.128-.178.23-.059.396 1.16 1.625 2.318 3.253 3.469 4.886.123.175.214.145.372.049.373-.233.741-.504 1.15-.638.346-.111.766-.137 1.118-.051 2.343.57 4.678 1.181 7.015 1.78.578.146 1.154.299 1.735.439.452.11.853-.013 1.227-.28.986-.702 1.977-1.399 2.966-2.098 2.155-1.522 4.312-3.044 6.467-4.568.816-.577.962-1.567.339-2.254-.506-.557-1.299-.646-1.944-.2-1.091.757-2.177 1.523-3.266 2.284-.082.057-.162.116-.245.17-.269.177-.516.148-.668-.072-.144-.207-.081-.47.176-.654.433-.31.873-.612 1.31-.918.717-.502 1.435-1.003 2.155-1.505 1.329-.929 3.04-.406 3.614 1.104.359.943 0 2.074-.868 2.693-1.14.815-2.287 1.619-3.43 2.426l-6.137 4.334c-.401.284-.84.453-1.351.495" mask="url(#prefix__b)"/>
        </g>
        <path fill="#0B1D37" d="M18.616 18.642c1.492.4 3.141.278 4.542-.35.9-.402 1.65-.917 2.288-1.677.766-.911 1.286-1.98 1.479-3.182.483-3.024-1.08-5.898-3.887-7.137-3.36-1.483-7.426.219-8.708 3.66-.188.504-.294 1.041-.408 1.57-.07.329-.021.36.307.361.588 0 1.175.002 1.765-.002.209 0 .398.035.51.236.113.204.038.379-.075.557-1.253 1.988-2.502 3.977-3.753 5.966-.175.28-.35.56-.532.835-.225.337-.594.346-.821.013-.186-.272-.348-.56-.558-.901.546 0 1.091-.015 1.585-.015.09.217-.602.636-.626.544-.103.073-.202.14-.303.21l-.067-.059c.015-.063 2.64-4.403 3.703-6.087.07-.111.127-.228.215-.391-.167-.01-.279-.026-.39-.027-1.04-.002-2.08 0-3.122-.004-.288 0-.458-.164-.466-.418-.007-.267.165-.44.462-.454.08-.005.163-.004.244-.004.253 0 .507-.005.76.004.186.006.247-.08.27-.256.407-3.236 2.159-5.409 5.244-6.428 3.507-1.162 7.495.667 8.966 4.063 1.053 2.428.883 4.802-.509 7.051-.35.568-.813 1.086-1.302 1.545-2.308 2.159-5.916 2.437-8.652.93-.244-.134-.481-.285-.717-.434-.308-.191-.572-.458-.84-.708-.22-.21-.226-.492-.044-.676.16-.166.468-.169.658.036.755.806 1.73 1.347 2.782 1.63" transform="translate(10.5 15)"/>
        <g transform="translate(10.5 15) translate(6.563 .697)">
            <mask id="prefix__d" fill="#fff">
                <use xlink:href="#prefix__c"/>
            </mask>
            <path fill="#0B1D37" d="M1.633 12.156c1.156 1.84 2.8 4.424 3.958 6.266-.476.226-.999.08-1.247-.316-1.109-1.756-2.708-4.259-3.816-6.018-.13-.204-.29-.408-.138-.673.146-.252.39-.225.625-.226.46 0 .922-.005 1.383.004.196.004.262-.068.28-.265C3.1 6.351 5.424 3.115 9.61 1.254c1.876-.834 3.871-1.026 5.9-.72 3.344.506 5.944 2.2 7.803 5.012 1.016 1.534 1.597 3.233 1.741 5.074.024.306.05.612.057.92.007.342-.16.527-.446.527-.275-.002-.438-.168-.443-.506-.017-1-.149-1.98-.453-2.936-.885-2.795-2.636-4.868-5.23-6.216-1.746-.907-3.618-1.255-5.57-1.078C8.725 1.713 5.31 4.61 4.064 8.4c-.337 1.022-.514 2.067-.524 3.143-.003.376-.154.525-.528.527-.44.002-.882 0-1.321 0l-.058.087" mask="url(#prefix__d)"/>
        </g>
        <g transform="translate(10.5 15) translate(30.625 12.728)">
            <mask id="prefix__f" fill="#fff">
                <use xlink:href="#prefix__e"/>
            </mask>
            <path fill="#0B1D37" d="M1.06 1.673c-.002.342-.144.578-.4.576-.141-.002-.34-.08-.41-.189-.16-.247-.161-.55 0-.797.07-.11.268-.193.409-.194.261-.002.404.246.401.604" mask="url(#prefix__f)"/>
        </g>
        <g transform="translate(10.5 15) translate(30.625 16.01)">
            <mask id="prefix__h" fill="#fff">
                <use xlink:href="#prefix__g"/>
            </mask>
            <path fill="#0B1D37" d="M1.06.83c.005.432-.095.536-.469.544-.33.006-.435-.11-.436-.493 0-.097.002-.2.028-.293C.243.374.394.254.618.26c.225.006.365.138.418.353.023.086.02.178.023.217" mask="url(#prefix__h)"/>
        </g>
        <path fill="#0B1D37" d="M21.195 15.143c-.395.157-.43.133-.43-.287-.002-.308 0-.615 0-.921 0-.345-.003-.688 0-1.032.004-.267.057-.296.315-.205.455.16.827.42.977.9.197.628-.175 1.276-.862 1.545zm-1.304-5.047c0 .377.002.755 0 1.133-.003.274-.072.316-.329.214-.567-.224-.795-.94-.448-1.443.175-.252.398-.451.777-.52v.616zm2.565 2.398c-.395-.426-.905-.652-1.46-.782-.156-.037-.234-.112-.233-.278.003-.588.003-1.175 0-1.764 0-.191.088-.25.257-.18.437.18.744.474.81.965.046.345.23.515.528.475.28-.036.424-.275.38-.609-.104-.805-.563-1.353-1.289-1.643-.4-.16-.727-.262-.672-.802.027-.242-.24-.409-.467-.388-.235.022-.403.197-.426.45-.008.073-.012.147-.002.217.034.234-.036.386-.293.418-.06.008-.119.042-.179.064-.891.331-1.44 1.146-1.382 2.053.052.847.684 1.532 1.615 1.729.192.04.254.127.25.311-.008.361-.003.723-.003 1.085 0 .363.003.725 0 1.085-.002.29-.062.325-.318.193-.454-.233-.757-.573-.807-1.107-.027-.302-.237-.483-.496-.463-.266.021-.443.253-.424.562.002.063.014.124.027.187.18.9.739 1.48 1.587 1.76.33.107.441.258.418.593-.025.357.182.565.478.554.264-.009.428-.221.431-.555 0-.037.002-.073-.004-.108-.043-.244.087-.335.303-.39.234-.058.47-.135.687-.24 1.35-.66 1.683-2.314.684-3.392z" transform="translate(10.5 15)"/>
    </g>
</svg>
