<svg xmlns="http://www.w3.org/2000/svg" width="57" height="57" viewBox="0 0 57 57">
    <g fill="#0B1D37">
        <path d="M3.612 24.034H4.612V28.034H3.612zM5.578 25.034H6.578V26.034H5.578zM5.578 27.034H6.578V28.034H5.578z" transform="translate(8.509 19)"/>
        <path stroke="#FFF" stroke-width=".3" d="M14.706 9.252c1.19.522 2.91.782 4.63.782 1.72 0 3.308-.26 4.63-.782 1.456-.522 2.25-1.304 2.25-2.218 0-.913-.794-1.695-2.25-2.217-1.19-.522-2.91-.783-4.63-.783-1.72 0-3.307.261-4.63.783-1.455.522-2.25 1.304-2.25 2.217 0 .914.795 1.696 2.25 2.218zm4.498-4.044c3.44 0 5.556 1.044 5.556 1.826 0 .783-2.116 1.827-5.556 1.827s-5.556-1.044-5.556-1.827c0-.782 2.249-1.826 5.556-1.826z" transform="translate(8.509 19)"/>
        <path stroke="#FFF" stroke-width=".3" d="M32.199 13.605h-.652v-6.12c0-1.996-1.433-3.991-3.909-5.322C25.292.833 22.165.034 18.777.034c-3.388 0-6.516.799-8.861 2.13-2.476 1.463-3.91 3.325-3.91 5.321v8.648c0 1.996 1.434 3.992 3.91 5.322.521.266 1.173.532 1.824.798H1.315c-.39 0-.651.266-.651.666v7.45c0 .4.26.665.651.665H32.2c2.736 0 4.821-2.261 4.821-4.922v-7.45c.13-2.795-2.085-5.057-4.821-5.057zM7.96 29.704H1.967v-6.12H7.96v6.12zm22.414-16.099h-4.431c.652-.266 1.173-.532 1.824-.798 1.173-.665 1.955-1.33 2.607-2.129v2.927zM10.698 3.228c2.215-1.198 5.082-1.863 8.34-1.863 3.127 0 6.124.665 8.34 1.863 2.084 1.197 3.257 2.66 3.257 4.257 0 1.597-1.173 3.06-3.258 4.258-2.215 1.197-5.082 1.862-8.34 1.862-3.127 0-6.124-.665-8.34-1.862C8.614 10.545 7.44 9.082 7.44 7.485c0-1.596 1.173-3.193 3.258-4.257zm0 17.163C8.613 19.193 7.44 17.73 7.44 16.133v-5.455c.651.799 1.564 1.464 2.606 2.129.26.133.652.4 1.043.532v2.794h1.172v-2.262c.652.266 1.173.4 1.825.533v1.73h1.173v-1.597c.651.133 1.172.133 1.824.266v3.725h1.173v-3.725h1.824V16h1.173v-1.197h1.824V16h1.173v-1.197h1.824v3.725h1.173v-3.725h1.824V16h1.173v-1.197h1.825V16h1.172v-1.064c1.955.665 2.867 2.794 2.216 4.79-.522 1.463-1.825 2.527-3.388 2.527H18.777c-2.997 0-5.864-.665-8.08-1.862zm25.15 5.588c0 1.995-1.564 3.725-3.65 3.725H9.135v-6.12h1.824v1.197h1.173v-1.197h1.824v1.197h1.173v-1.197h1.825v3.725h1.172v-3.725h1.825v1.197h1.173v-1.197h1.824v1.197h1.173v-1.197h1.824v3.725h1.173v-3.725h1.824v1.197h1.173v-1.197h1.824v1.197h1.173v-1.33c.912-.266 1.824-.798 2.476-1.464v3.992h.26z" transform="translate(8.509 19)"/>
    </g>
</svg>
