<?xml version="1.0" encoding="UTF-8"?>
<svg width="105px" height="15px" viewBox="0 0 105 15" version="1.1" xmlns="http://www.w3.org/2000/svg" xmlns:xlink="http://www.w3.org/1999/xlink">
    <!-- Generator: Sketch 55.1 (78136) - https://sketchapp.com -->
    <title>群組</title>
    <desc>Created with Sketch.</desc>
    <g id="footer" stroke="none" stroke-width="1" fill="none" fill-rule="evenodd">
        <g transform="translate(-651.000000, -360.000000)" fill="#B6B6B6" id="群組">
            <g transform="translate(651.000000, 360.000000)">
                <path d="M7.94971875,0.1374375 C3.84871875,0.1374375 0.5244375,3.46171875 0.5244375,7.5624375 C0.5244375,11.66325 3.84871875,14.9874375 7.94971875,14.9874375 C11.7999375,14.9874375 14.9652187,12.057375 15.3377812,8.30475 L11.9316563,8.30475 C11.5828125,10.1869687 9.93271875,11.6124375 7.94971875,11.6124375 C5.7129375,11.6124375 3.8994375,9.7993125 3.8994375,7.5624375 C3.8994375,5.3259375 5.7129375,3.5124375 7.94971875,3.5124375 C9.93271875,3.5124375 11.5828125,4.9381875 11.9316563,6.82021875 L15.3377812,6.82021875 C14.9652187,3.067875 11.7999375,0.1374375 7.94971875,0.1374375" id="Fill-119"></path>
                <path d="M22.7997188,0.1374375 C18.9490313,0.1374375 15.7834688,3.0684375 15.411375,6.8210625 C15.8044688,6.84046875 16.1172188,7.1649375 16.1172188,7.5624375 C16.1172188,7.9603125 15.8044688,8.28478125 15.411375,8.30390625 C15.7834688,12.0568125 18.9490313,14.9874375 22.7997188,14.9874375 C26.9005313,14.9874375 30.2247188,11.66325 30.2247188,7.5624375 C30.2247188,3.46171875 26.9005313,0.1374375 22.7997188,0.1374375 Z M22.7997188,3.5124375 C20.5629375,3.5124375 18.7497188,5.3259375 18.7497188,7.5624375 C18.7497188,9.7993125 20.5629375,11.6124375 22.7997188,11.6124375 C25.0363125,11.6124375 26.8497188,9.7993125 26.8497188,7.5624375 C26.8497188,5.3259375 25.0363125,3.5124375 22.7997188,3.5124375 L22.7997188,3.5124375 Z" id="Fill-121"></path>
                <path d="M37.6497187,0.1374375 C33.549,0.1374375 30.2247188,3.46171875 30.2247188,7.5624375 C30.2247188,11.4129375 33.1551562,14.5785 36.9075,14.9507812 L36.9075,11.5444687 C35.0251875,11.1958125 33.5997187,9.54571875 33.5997187,7.5624375 C33.5997187,5.3259375 35.4129375,3.5124375 37.6497187,3.5124375 C39.8863125,3.5124375 41.6997188,5.3259375 41.6997188,7.5624375 C41.6997188,9.54571875 40.2739688,11.1958125 38.3919375,11.5444687 L38.3919375,14.9507812 C42.1440938,14.5785 45.0747187,11.4129375 45.0747187,7.5624375 C45.0747187,3.46171875 41.7505313,0.1374375 37.6497187,0.1374375" id="Fill-122"></path>
                <path d="M52.4997188,0.1374375 C48.399,0.1374375 45.0747188,3.46171875 45.0747188,7.5624375 C45.0747188,11.66325 48.399,14.9874375 52.4997188,14.9874375 C54.2829375,14.9874375 55.9191563,14.35875 57.1989375,13.3111875 L54.7905,10.9026563 C54.1388438,11.3506875 53.3498437,11.6124375 52.4997188,11.6124375 C50.2629375,11.6124375 48.4497188,9.7993125 48.4497188,7.5624375 C48.4497188,5.3259375 50.2629375,3.5124375 52.4997188,3.5124375 C54.7365,3.5124375 56.5497188,5.3259375 56.5497188,7.5624375 C56.5497188,8.41284375 56.2876875,9.20165625 55.8399375,9.85321875 L58.248375,12.2616562 C59.29575,10.9815937 59.9247188,9.34565625 59.9247188,7.5624375 C59.9247188,3.46171875 56.6005312,0.1374375 52.4997188,0.1374375" id="Fill-123"></path>
                <path d="M66.589125,0.17596875 C62.8455937,0.5570625 59.9247188,3.71840625 59.9247188,7.5624375 C59.9247188,11.66325 63.249,14.9874375 67.3497187,14.9874375 C71.200125,14.9874375 74.3659688,12.0568125 74.7380625,8.30390625 C74.3450625,8.28478125 74.0322188,7.9603125 74.0322188,7.5624375 C74.0322188,7.1649375 74.3450625,6.84046875 74.7380625,6.8210625 C74.3894063,3.3065625 71.5907813,0.5124375 68.0736562,0.1723125 L68.0736562,3.57703125 C69.9649687,3.91828125 71.3997188,5.57278125 71.3997188,7.5624375 C71.3997188,9.7993125 69.5865,11.6124375 67.3497187,11.6124375 C65.1132188,11.6124375 63.2997187,9.7993125 63.2997187,7.5624375 C63.2997187,5.5858125 64.7159063,3.9403125 66.589125,3.58396875 L66.589125,0.17596875 Z" id="Fill-124"></path>
                <path d="M82.1997188,0.1374375 C78.3495937,0.1374375 75.18375,3.06815625 74.811375,6.82021875 L78.2177813,6.82021875 C78.5667188,4.9381875 80.2167188,3.5124375 82.1997188,3.5124375 C84.183,3.5124375 85.833,4.9381875 86.1816563,6.82021875 L89.5880625,6.82021875 C89.2157812,3.06815625 86.050125,0.1374375 82.1997188,0.1374375 Z M74.811375,8.30475 C75.18375,12.0570937 78.3495937,14.9874375 82.1997188,14.9874375 C86.050125,14.9874375 89.2157812,12.0570937 89.5880625,8.30475 L86.1816563,8.30475 C85.833,10.1869687 84.183,11.6124375 82.1997188,11.6124375 C80.2167188,11.6124375 78.5667188,10.1869687 78.2177813,8.30475 L74.811375,8.30475 Z" id="Fill-125"></path>
                <path d="M97.0497187,0.1374375 C93.1993125,0.1374375 90.03375,3.0684375 89.6616563,6.8210625 C90.05475,6.84046875 90.3672188,7.1649375 90.3672188,7.5624375 C90.3672188,7.9603125 90.05475,8.28478125 89.6616563,8.30390625 C90.0100313,11.8186875 92.8089375,14.6125312 96.3260625,14.9526562 L96.3260625,11.548125 C94.4344687,11.2066875 92.9997187,9.55209375 92.9997187,7.5624375 C92.9997187,5.3259375 94.8132187,3.5124375 97.0497187,3.5124375 C99.2865,3.5124375 101.1,5.3259375 101.1,7.5624375 C101.1,8.41284375 100.837969,9.20165625 100.389938,9.85321875 L102.798375,12.2616562 C103.845938,10.9815937 104.475,9.34565625 104.475,7.5624375 C104.475,3.46171875 101.150719,0.1374375 97.0497187,0.1374375 Z M99.3405,10.9026563 C98.8881563,11.213625 98.3697188,11.4346875 97.8105937,11.541 L97.8105937,14.9489062 C99.2969062,14.7977812 100.653281,14.208 101.748938,13.3111875 L99.3405,10.9026563 Z" id="Fill-126"></path>
            </g>
        </g>
    </g>
</svg>