<?xml version="1.0" encoding="utf-8"?>
<!-- Generator: Adobe Illustrator 23.0.2, SVG Export Plug-In . SVG Version: 6.00 Build 0)  -->
<!DOCTYPE svg PUBLIC "-//W3C//DTD SVG 1.1//EN" "http://www.w3.org/Graphics/SVG/1.1/DTD/svg11.dtd" [
	<!ENTITY ns_extend "http://ns.adobe.com/Extensibility/1.0/">
	<!ENTITY ns_ai "http://ns.adobe.com/AdobeIllustrator/10.0/">
	<!ENTITY ns_graphs "http://ns.adobe.com/Graphs/1.0/">
	<!ENTITY ns_vars "http://ns.adobe.com/Variables/1.0/">
	<!ENTITY ns_imrep "http://ns.adobe.com/ImageReplacement/1.0/">
	<!ENTITY ns_sfw "http://ns.adobe.com/SaveForWeb/1.0/">
	<!ENTITY ns_custom "http://ns.adobe.com/GenericCustomNamespace/1.0/">
	<!ENTITY ns_adobe_xpath "http://ns.adobe.com/XPath/1.0/">
]>
<svg version="1.1" id="圖層_1" xmlns:x="&ns_extend;" xmlns:i="&ns_ai;" xmlns:graph="&ns_graphs;"
	 xmlns="http://www.w3.org/2000/svg" xmlns:xlink="http://www.w3.org/1999/xlink" x="0px" y="0px" viewBox="0 0 40 30"
	 style="enable-background:new 0 0 40 30;" xml:space="preserve">
<style type="text/css">
	.st0{fill-rule:evenodd;clip-rule:evenodd;fill:#D8D8D8;fill-opacity:0;}
	.st1{fill-rule:evenodd;clip-rule:evenodd;fill:#8BCE47;stroke:#8BCE47;stroke-width:0.25;stroke-miterlimit:10;}
</style>
<metadata>
	<sfw  xmlns="&ns_sfw;">
		<slices></slices>
		<sliceSourceBounds  bottomLeftOrigin="true" height="30" width="40" x="0" y="0"></sliceSourceBounds>
	</sfw>
</metadata>
<title>矩形</title>
<desc>Created with Sketch.</desc>
<g>
	<rect id="矩形" class="st0" width="40" height="30"/>
	<g id="couponcopy" transform="translate(2.000000, 8.000000)">
		<g id="群組">
			<g id="Clip-2">
			</g>
			<path id="Fill-1" class="st1" d="M29.9,7c0,2.7,2,5.1,4.7,5.6c0.3,0.1,0.4,0.3,0.4,0.6v4.6c0,0.3-0.3,0.6-0.6,0.6H10.1
				c0-0.3-0.3-0.6-0.6-0.6H8.4c-0.3,0-0.6,0.3-0.6,0.6H1.6C1.3,18.3,1,18,1,17.7v-4.6c0-0.3,0.2-0.5,0.4-0.6C4.5,12,6.6,9,6,6
				C5.6,3.6,3.8,1.8,1.4,1.4C1.2,1.3,1,1.1,1,0.8v-4.6c0-0.3,0.3-0.6,0.6-0.6h6.2c0,0.3,0.3,0.6,0.6,0.6h1.1c0.3,0,0.6-0.3,0.6-0.6
				h24.4c0.3,0,0.6,0.3,0.6,0.6v4.6c0,0.3-0.2,0.5-0.4,0.6C31.9,1.9,29.9,4.3,29.9,7z M34.8,2.5c0.8-0.2,1.4-0.9,1.4-1.7v-4.6
				c0-0.9-0.8-1.7-1.7-1.7H1.6c-0.9,0-1.7,0.8-1.7,1.7v4.6c0,0.8,0.6,1.5,1.4,1.7c2.4,0.5,4,2.8,3.6,5.3c-0.3,1.9-1.8,3.3-3.7,3.7
				c-0.8,0.2-1.4,0.8-1.4,1.7v4.6c0,0.9,0.8,1.7,1.7,1.7h32.9c0.9,0,1.7-0.8,1.7-1.7v-4.6c0-0.8-0.6-1.5-1.4-1.7
				c-2.5-0.4-4.1-2.8-3.7-5.2C31.4,4.3,32.9,2.9,34.8,2.5L34.8,2.5L34.8,2.5z"/>
		</g>
		<path id="Fill-3" class="st1" d="M9.5-2.1H8.4c-0.3,0-0.6,0.3-0.6,0.6s0.3,0.6,0.6,0.6h1.1c0.3,0,0.6-0.3,0.6-0.6S9.8-2.1,9.5-2.1
			"/>
		<path id="Fill-4" class="st1" d="M9.5,0.8H8.4C8.1,0.8,7.8,1,7.8,1.3s0.3,0.6,0.6,0.6h1.1c0.3,0,0.6-0.3,0.6-0.6S9.8,0.8,9.5,0.8"
			/>
		<path id="Fill-5" class="st1" d="M9.5,3.6H8.4c-0.3,0-0.6,0.3-0.6,0.6s0.3,0.6,0.6,0.6h1.1c0.3,0,0.6-0.3,0.6-0.6
			C10.1,3.8,9.8,3.6,9.5,3.6"/>
		<path id="Fill-6" class="st1" d="M9.5,6.4H8.4C8.1,6.4,7.8,6.7,7.8,7s0.3,0.6,0.6,0.6h1.1c0.3,0,0.6-0.3,0.6-0.6S9.8,6.4,9.5,6.4"
			/>
		<path id="Fill-7" class="st1" d="M9.5,9.2H8.4c-0.3,0-0.6,0.3-0.6,0.6s0.3,0.6,0.6,0.6h1.1c0.3,0,0.6-0.3,0.6-0.6S9.8,9.2,9.5,9.2
			"/>
		<path id="Fill-8" class="st1" d="M9.5,12.1H8.4c-0.3,0-0.6,0.3-0.6,0.6s0.3,0.6,0.6,0.6h1.1c0.3,0,0.6-0.3,0.6-0.6
			S9.8,12.1,9.5,12.1"/>
		<path id="Fill-9" class="st1" d="M9.5,14.9H8.4c-0.3,0-0.6,0.3-0.6,0.6S8.1,16,8.4,16h1.1c0.3,0,0.6-0.3,0.6-0.6
			S9.8,14.9,9.5,14.9"/>
		<path id="Fill-10" class="st1" d="M18,4.2V2.5c0-0.3,0.3-0.6,0.6-0.6h0.6c0.3,0,0.6,0.3,0.6,0.6v1.7c0,0.3-0.3,0.6-0.6,0.6h-0.6
			C18.3,4.7,18,4.5,18,4.2z M19.1,5.9c0.9,0,1.7-0.8,1.7-1.7V2.5c0-0.9-0.8-1.7-1.7-1.7h-0.6c-0.9,0-1.7,0.8-1.7,1.7v1.7
			c0,0.9,0.8,1.7,1.7,1.7L19.1,5.9L19.1,5.9z"/>
		<path id="Fill-11" class="st1" d="M25.9,11.5c0,0.3-0.3,0.6-0.6,0.6h-0.6c-0.3,0-0.6-0.3-0.6-0.6V9.8c0-0.3,0.3-0.6,0.6-0.6h0.6
			c0.3,0,0.6,0.3,0.6,0.6V11.5z M25.4,8.1h-0.6c-0.9,0-1.7,0.8-1.7,1.7v1.7c0,0.9,0.8,1.7,1.7,1.7h0.6c0.9,0,1.7-0.8,1.7-1.7V9.8
			C27.1,8.9,26.3,8.1,25.4,8.1L25.4,8.1z"/>
		<path id="Fill-12" class="st1" d="M25.6,0.3c-0.3-0.1-0.6,0-0.8,0.2l-6.8,13c-0.1,0.3,0,0.6,0.3,0.8c0.3,0.1,0.6,0,0.7-0.2l6.8-13
			C26,0.8,25.9,0.4,25.6,0.3"/>
		<path id="Fill-13" class="st1" d="M11.8-3.2c-0.3,0-0.6,0.3-0.6,0.6v19.2c0,0.3,0.3,0.6,0.6,0.6s0.6-0.3,0.6-0.6V-2.6
			C12.3-2.9,12.1-3.2,11.8-3.2"/>
	</g>
</g>
</svg>
