<?xml version="1.0" encoding="UTF-8"?>
<svg width="25px" height="25px" viewBox="0 0 25 25" version="1.1" xmlns="http://www.w3.org/2000/svg" xmlns:xlink="http://www.w3.org/1999/xlink">
    <!-- Generator: Sketch 61.1 (89650) - https://sketch.com -->
    <title>Combined Shape Copy 3</title>
    <desc>Created with Sketch.</desc>
    <g id="首頁" stroke="none" stroke-width="1" fill="none" fill-rule="evenodd">
        <g id="icon" transform="translate(-217.000000, -32.000000)" fill="#FFFFFF">
            <path d="M238,32 C240.209139,32 242,33.790861 242,36 L242,53 C242,55.209139 240.209139,57 238,57 L221,57 C218.790861,57 217,55.209139 217,53 L217,36 C217,33.790861 218.790861,32 221,32 L238,32 Z M233.017788,36.9156237 L230.888942,36.9156237 L230.888942,36.9156237 C230.534135,36.9156237 229.292308,37.0858962 228.405288,37.9372592 C227.340865,38.9588947 227.518269,40.1508028 227.518269,40.1508028 L227.518269,42.0238012 L225.744231,42.0238012 C225.566827,42.0238012 225.566827,42.1940738 225.566827,42.1940738 L225.566827,44.57789 L227.695673,44.57789 L227.695673,51.3887933 C227.695673,51.5590659 227.873077,51.5590659 227.873077,51.5590659 L230.711538,51.5590659 C230.863599,51.5590659 230.885322,51.4339677 230.888425,51.3982254 L230.888942,44.57789 L232.840385,44.57789 C233.017788,44.57789 233.017788,44.4076174 233.017788,44.4076174 L233.55,42.0238012 C233.55,41.8535286 233.55,41.8535286 233.372596,41.8535286 C233.372596,41.8535286 233.195192,41.683256 233.195192,41.683256 L230.888942,41.683256 L230.888942,40.1508028 C230.888942,39.639985 231.066346,39.4697124 231.598558,39.4697124 L233.017788,39.4697124 L233.017788,39.4697124 C233.195192,39.4697124 233.195192,39.2994398 233.195192,39.2994398 L233.195192,37.0858962 C233.195192,36.9156237 233.017788,36.9156237 233.017788,36.9156237 Z" id="Combined-Shape"></path>
        </g>
    </g>
</svg>