<?xml version="1.0" encoding="UTF-8"?>
<svg width="25px" height="25px" viewBox="0 0 25 25" version="1.1" xmlns="http://www.w3.org/2000/svg" xmlns:xlink="http://www.w3.org/1999/xlink">
    <!-- Generator: Sketch 61.1 (89650) - https://sketch.com -->
    <title>Combined Shape Copy 3</title>
    <desc>Created with Sketch.</desc>
    <g id="首頁" stroke="none" stroke-width="1" fill="none" fill-rule="evenodd">
        <g id="icon" transform="translate(-217.000000, -69.000000)" fill="#FFFFFF">
            <path d="M226.099038,81.6622663 L227.695673,81.6622663 L227.695673,88.4731697 C227.695673,88.6434423 227.873077,88.6434423 227.873077,88.6434423 L230.711538,88.6434423 C230.888942,88.6434423 230.888942,88.4731697 230.888942,88.4731697 L230.888942,81.6622663 L232.840385,81.6622663 C233.017788,81.6622663 233.017788,81.4919937 233.017788,81.4919937 L233.55,79.1081775 C233.55,78.937905 233.55,78.937905 233.372596,78.937905 C233.372596,78.937905 233.195192,78.7676324 233.195192,78.7676324 L230.888942,78.7676324 L230.888942,77.2351791 C230.888942,76.7243614 231.066346,76.5540888 231.598558,76.5540888 C231.775962,76.5540888 233.017788,76.5540888 233.017788,76.5540888 C233.195192,76.5540888 233.195192,76.3838162 233.195192,76.3838162 L233.195192,74.1702726 C233.195192,74 233.017788,74 233.017788,74 L231.066346,74 C231.066346,74 231.066346,74 230.888942,74 C230.534135,74 229.292308,74.1702726 228.405288,75.0216355 C227.340865,76.043271 227.518269,77.2351791 227.518269,77.2351791 L227.518269,79.1081775 L225.744231,79.1081775 C225.566827,79.1081775 225.566827,79.2784501 225.566827,79.2784501 L225.566827,81.6622663 C225.744231,81.6622663 225.921635,81.6622663 226.099038,81.6622663" id="Combined-Shape-Copy-3"></path>
        </g>
    </g>
</svg>