<?xml version="1.0" encoding="UTF-8"?>
<svg width="16px" height="16px" viewBox="0 0 16 16" version="1.1" xmlns="http://www.w3.org/2000/svg" xmlns:xlink="http://www.w3.org/1999/xlink">
    <!-- Generator: Sketch 55.1 (78136) - https://sketchapp.com -->
    <title>矩形</title>
    <desc>Created with Sketch.</desc>
    <g id="icon" stroke="none" stroke-width="1" fill="none" fill-rule="evenodd">
        <g id="群組-12copy">
            <rect id="矩形" fill="#0b1d37" opacity="0" x="0" y="0" width="16" height="16"></rect>
            <path d="M4.22350503,8.45639453 L5.74251645,8.45639453 L5.74251645,14.7741953 C5.74251645,14.8989375 5.8425497,15 5.96602148,15 L8.54152586,15 C8.66499764,15 8.76503089,14.8989375 8.76503089,14.7741953 L8.76503089,8.48617188 L10.5112553,8.48617188 C10.6247941,8.48617188 10.7203075,8.40009375 10.7332717,8.28615234 L10.9984843,5.96023828 C11.0057649,5.89625391 10.9857095,5.83216016 10.9433253,5.78417188 C10.900914,5.73610156 10.8402066,5.70859375 10.776495,5.70859375 L8.76511209,5.70859375 L8.76511209,4.250625 C8.76511209,3.81110156 8.99936203,3.58825 9.46139332,3.58825 C9.52724313,3.58825 10.776495,3.58825 10.776495,3.58825 C10.8999667,3.58825 11,3.48713281 11,3.36241797 L11,1.22747266 C11,1.10273047 10.8999667,1.00166797 10.776495,1.00166797 L8.96409598,1.00166797 C8.95129411,1.00103906 8.92290263,1 8.88108679,1 C8.56658831,1 7.47353016,1.06237109 6.61006674,1.86488281 C5.65336344,2.75421094 5.7863622,3.81900391 5.81813683,4.00362891 L5.81813683,5.70856641 L4.22350503,5.70856641 C4.10003325,5.70856641 4,5.80962891 4,5.93437109 L4,8.23053516 C4,8.35527734 4.10003325,8.45639453 4.22350503,8.45639453" id="Fill-1拷貝" fill="#0b1d37"></path>
        </g>
    </g>
</svg>