<?xml version="1.0" encoding="utf-8"?>
<!-- Generator: Adobe Illustrator 23.0.2, SVG Export Plug-In . SVG Version: 6.00 Build 0)  -->
<!DOCTYPE svg PUBLIC "-//W3C//DTD SVG 1.1//EN" "http://www.w3.org/Graphics/SVG/1.1/DTD/svg11.dtd" [
	<!ENTITY ns_extend "http://ns.adobe.com/Extensibility/1.0/">
	<!ENTITY ns_ai "http://ns.adobe.com/AdobeIllustrator/10.0/">
	<!ENTITY ns_graphs "http://ns.adobe.com/Graphs/1.0/">
	<!ENTITY ns_vars "http://ns.adobe.com/Variables/1.0/">
	<!ENTITY ns_imrep "http://ns.adobe.com/ImageReplacement/1.0/">
	<!ENTITY ns_sfw "http://ns.adobe.com/SaveForWeb/1.0/">
	<!ENTITY ns_custom "http://ns.adobe.com/GenericCustomNamespace/1.0/">
	<!ENTITY ns_adobe_xpath "http://ns.adobe.com/XPath/1.0/">
]>
<svg version="1.1" id="圖層_1" xmlns:x="&ns_extend;" xmlns:i="&ns_ai;" xmlns:graph="&ns_graphs;"
	 xmlns="http://www.w3.org/2000/svg" xmlns:xlink="http://www.w3.org/1999/xlink" x="0px" y="0px" viewBox="0 0 40 40"
	 style="enable-background:new 0 0 40 40;" xml:space="preserve">
<style type="text/css">
	.st0{fill-rule:evenodd;clip-rule:evenodd;fill:#FFFFFF;}
	.st1{fill-rule:evenodd;clip-rule:evenodd;fill:#88C74A;}
</style>
<metadata>
	<sfw  xmlns="&ns_sfw;">
		<slices></slices>
		<sliceSourceBounds  bottomLeftOrigin="true" height="40" width="40" x="0" y="0"></sliceSourceBounds>
	</sfw>
</metadata>
<title>群組 5copy</title>
<desc>Created with Sketch.</desc>
<g id="icon">
	<g id="群組-5copy">
		<circle id="橢圓形copy" class="st0" cx="20" cy="20" r="20"/>
		<circle id="橢圓形copy_1_" class="st1" cx="20" cy="20" r="19"/>
		<path id="Fill-1拷貝" class="st0" d="M16.2,20.5h1.5v6.3c0,0.1,0.1,0.2,0.2,0.2h2.6c0.1,0,0.2-0.1,0.2-0.2v-6.3h1.7
			c0.1,0,0.2-0.1,0.2-0.2L23,18c0-0.1,0-0.1-0.1-0.2c0,0-0.1-0.1-0.2-0.1h-2v-1.5c0-0.4,0.2-0.7,0.7-0.7c0.1,0,1.3,0,1.3,0
			c0.1,0,0.2-0.1,0.2-0.2v-2.1c0-0.1-0.1-0.2-0.2-0.2H21c0,0,0,0-0.1,0c-0.3,0-1.4,0.1-2.3,0.9c-1,0.9-0.8,2-0.8,2.1v1.7h-1.6
			c-0.1,0-0.2,0.1-0.2,0.2v2.3C16,20.4,16.1,20.5,16.2,20.5"/>
	</g>
</g>
</svg>
