<?xml version="1.0" encoding="UTF-8"?>
<svg width="25px" height="25px" viewBox="0 0 25 25" version="1.1" xmlns="http://www.w3.org/2000/svg" xmlns:xlink="http://www.w3.org/1999/xlink">
    <!-- Generator: Sketch 61.1 (89650) - https://sketch.com -->
    <title>Combined Shape Copy</title>
    <desc>Created with Sketch.</desc>
    <g id="首頁" stroke="none" stroke-width="1" fill="none" fill-rule="evenodd">
        <g id="icon" transform="translate(-83.000000, -69.000000)" fill="#FFFFFF">
            <path d="M92.2407407,73.5 C89.7222222,73.5 87.5,75.5740741 87.5,78.2407407 L87.5,84.7592593 C87.5,87.2777778 89.5740741,89.5 92.2407407,89.5 L98.7592593,89.5 C101.277778,89.5 103.5,87.4259259 103.5,84.7592593 L103.5,78.2407407 C103.5,75.7222222 101.425926,73.5 98.7592593,73.5 L92.2407407,73.5 Z M92.2407407,74.9814815 L98.7592593,74.9814815 C100.537037,74.9814815 102.018519,76.462963 102.018519,78.2407407 L102.018519,84.7592593 C102.018519,86.537037 100.537037,88.0185185 98.7592593,88.0185185 L92.2407407,88.0185185 C90.462963,88.0185185 88.9814815,86.537037 88.9814815,84.7592593 L88.9814815,78.2407407 C88.9814815,76.462963 90.462963,74.9814815 92.2407407,74.9814815 Z M99.7962963,76.6111111 C99.5,76.6111111 99.2037037,76.9074074 99.2037037,77.2037037 C99.2037037,77.5 99.5,77.7962963 99.7962963,77.7962963 C100.092593,77.7962963 100.388889,77.5 100.388889,77.2037037 C100.388889,76.9074074 100.092593,76.6111111 99.7962963,76.6111111 Z M95.5,77.2037037 C93.1296296,77.2037037 91.2037037,79.1296296 91.2037037,81.5 C91.2037037,83.8703704 93.1296296,85.7962963 95.5,85.7962963 C97.8703704,85.7962963 99.7962963,83.8703704 99.7962963,81.5 C99.7962963,79.1296296 97.8703704,77.2037037 95.5,77.2037037 Z M95.5,78.6851852 C97.1296296,78.6851852 98.3148148,80.0185185 98.3148148,81.5 C98.3148148,82.9814815 96.9814815,84.3148148 95.5,84.3148148 C94.0185185,84.3148148 92.6851852,82.9814815 92.6851852,81.5 C92.6851852,80.0185185 93.8703704,78.6851852 95.5,78.6851852 Z" id="Combined-Shape-Copy"></path>
        </g>
    </g>
</svg>