<?xml version="1.0" encoding="utf-8"?>
<!-- Generator: Adobe Illustrator 23.0.2, SVG Export Plug-In . SVG Version: 6.00 Build 0)  -->
<!DOCTYPE svg PUBLIC "-//W3C//DTD SVG 1.1//EN" "http://www.w3.org/Graphics/SVG/1.1/DTD/svg11.dtd" [
	<!ENTITY ns_extend "http://ns.adobe.com/Extensibility/1.0/">
	<!ENTITY ns_ai "http://ns.adobe.com/AdobeIllustrator/10.0/">
	<!ENTITY ns_graphs "http://ns.adobe.com/Graphs/1.0/">
	<!ENTITY ns_vars "http://ns.adobe.com/Variables/1.0/">
	<!ENTITY ns_imrep "http://ns.adobe.com/ImageReplacement/1.0/">
	<!ENTITY ns_sfw "http://ns.adobe.com/SaveForWeb/1.0/">
	<!ENTITY ns_custom "http://ns.adobe.com/GenericCustomNamespace/1.0/">
	<!ENTITY ns_adobe_xpath "http://ns.adobe.com/XPath/1.0/">
]>
<svg version="1.1" id="圖層_1" xmlns:x="&ns_extend;" xmlns:i="&ns_ai;" xmlns:graph="&ns_graphs;"
	 xmlns="http://www.w3.org/2000/svg" xmlns:xlink="http://www.w3.org/1999/xlink" x="0px" y="0px" viewBox="0 0 40 40"
	 style="enable-background:new 0 0 40 40;" xml:space="preserve">
<style type="text/css">
	.st0{fill-rule:evenodd;clip-rule:evenodd;fill:#FFFFFF;}
	.st1{fill-rule:evenodd;clip-rule:evenodd;fill:#87C749;}
</style>
<metadata>
	<sfw  xmlns="&ns_sfw;">
		<slices></slices>
		<sliceSourceBounds  bottomLeftOrigin="true" height="40" width="40" x="1" y="1"></sliceSourceBounds>
	</sfw>
</metadata>
<title>群組 11</title>
<desc>Created with Sketch.</desc>
<g id="icon">
	<g id="群組-11" transform="translate(1.000000, 1.000000)">
		<g id="群組-7copy">
			<g id="群組-7copy_1_">
				<circle id="橢圓形_1_" class="st0" cx="19" cy="19" r="20"/>
			</g>
			<circle id="橢圓形" class="st1" cx="19" cy="19" r="19"/>
		</g>
		<g id="群組-9" transform="translate(13.000000, 13.000000)">
			<path id="Fill-2" class="st0" d="M12.9,5.4c0-0.2,0-0.3,0.1-0.4c0-0.2,0-0.5,0-0.6C12.8,1.4,9.7-1,6-1C2.1-1-1,1.5-1,4.7
				c0,2.9,2.6,5.3,6.1,5.6c0.2,0,0.4,0.2,0.3,0.4l-0.1,1.3c0,0.3,0.3,0.5,0.5,0.4c2.9-1.4,4.6-2.9,5.6-4.2c0.2-0.2,0.8-1.1,0.9-1.3
				C12.6,6.5,12.8,6,12.9,5.4z"/>
			<path id="Fill-3" class="st1" d="M2.1,5.8V3.4c0-0.2-0.2-0.4-0.4-0.4c-0.2,0-0.4,0.2-0.4,0.4v2.8c0,0.2,0.2,0.4,0.4,0.4h1.4
				c0.2,0,0.4-0.2,0.4-0.4c0-0.2-0.2-0.4-0.4-0.4H2.1z"/>
			<path id="Fill-4" class="st1" d="M4.3,6.6H4.2C4,6.6,3.9,6.4,3.9,6.3V3.4c0-0.2,0.1-0.3,0.3-0.3h0.2c0.2,0,0.3,0.1,0.3,0.3v2.9
				C4.6,6.4,4.5,6.6,4.3,6.6z"/>
			<path id="Fill-5" class="st1" d="M7.2,3.4v1.7c0,0-1.4-1.9-1.4-1.9C5.7,3.1,5.6,3.1,5.5,3.1c-0.2,0-0.3,0.2-0.3,0.4v2.7
				c0,0.2,0.2,0.4,0.4,0.4c0.2,0,0.4-0.2,0.4-0.4V4.5c0,0,1.4,1.9,1.5,1.9c0.1,0.1,0.1,0.1,0.2,0.1c0.2,0,0.4-0.2,0.4-0.4V3.4
				c0-0.2-0.2-0.4-0.4-0.4C7.4,3.1,7.2,3.2,7.2,3.4z"/>
			<path id="Fill-6" class="st1" d="M10.6,3.4c0-0.2-0.2-0.4-0.4-0.4H8.8c-0.2,0-0.4,0.2-0.4,0.4v2.8c0,0.2,0.2,0.4,0.4,0.4h1.4
				c0.2,0,0.4-0.2,0.4-0.4c0-0.2-0.2-0.4-0.4-0.4H9.2V5.2h1.1c0.2,0,0.4-0.2,0.4-0.4c0-0.2-0.2-0.4-0.4-0.4H9.2V3.8h1.1
				C10.5,3.8,10.6,3.6,10.6,3.4z"/>
		</g>
	</g>
</g>
</svg>
