<?xml version="1.0" encoding="UTF-8"?>
<svg width="25px" height="25px" viewBox="0 0 25 25" version="1.1" xmlns="http://www.w3.org/2000/svg" xmlns:xlink="http://www.w3.org/1999/xlink">
    <!-- Generator: Sketch 61.1 (89650) - https://sketch.com -->
    <title>Combined Shape Copy 4</title>
    <desc>Created with Sketch.</desc>
    <g id="首頁" stroke="none" stroke-width="1" fill="none" fill-rule="evenodd">
        <g id="icon" transform="translate(-172.000000, -32.000000)" fill="#FFFFFF">
            <path d="M193,32 C195.209139,32 197,33.790861 197,36 L197,53 C197,55.209139 195.209139,57 193,57 L176,57 C173.790861,57 172,55.209139 172,53 L172,36 C172,33.790861 173.790861,32 176,32 L193,32 Z M184.5,36 C179.794643,36 176,38.9644261 176,42.81818 C176,46.22727 179.035714,48.8952535 183.133929,49.4881387 C183.4375,49.4881387 183.741071,49.63636 183.892857,49.9328026 C184.044643,50.0810239 183.892857,50.5256878 183.892857,50.6739091 C183.892857,50.6739091 183.741071,51.2667943 183.741071,51.4150157 C183.741071,51.563237 183.589286,52.3043435 184.5,51.8596796 C185.381336,51.4293596 189.105693,49.1944723 190.995844,47.1700433 L191.178571,46.9683765 C192.392857,45.6343848 193,44.300393 193,42.81818 C193,39.1126474 189.205357,36 184.5,36 Z M179.491071,40.891303 C179.794643,40.891303 179.946429,41.0395243 179.946429,41.335967 L179.946429,44.1521717 L181.160714,44.1521717 C181.464286,44.1521717 181.616071,44.300393 181.616071,44.5968357 C181.616071,44.8932783 181.3125,45.0414996 181.160714,45.0414996 L179.491071,45.0414996 C179.1875,45.0414996 179.035714,44.8932783 179.035714,44.5968357 L179.035714,41.335967 C179.035714,41.0395243 179.1875,40.891303 179.491071,40.891303 Z M182.375,40.891303 C182.678571,40.891303 182.830357,41.0395243 182.830357,41.335967 L182.830357,44.5968357 C182.830357,44.8932783 182.678571,45.0414996 182.375,45.0414996 C182.071429,45.0414996 181.919643,44.8932783 181.919643,44.5968357 L181.919643,41.335967 C181.919643,41.0395243 182.071429,40.891303 182.375,40.891303 Z M184.044643,40.891303 C184.196429,40.891303 184.348214,40.891303 184.348214,41.0395243 L186.017857,43.4110652 L186.017857,41.335967 C186.017857,41.0395243 186.169643,40.891303 186.473214,40.891303 C186.776786,40.891303 186.928571,41.0395243 186.928571,41.335967 L186.928571,44.5968357 C186.928571,44.745057 186.776786,44.8932783 186.625,45.0414996 L186.473214,45.0414996 C186.321429,45.0414996 186.169643,45.0414996 186.169643,44.8932783 L184.5,42.5217374 L184.5,44.5968357 C184.5,44.8932783 184.348214,45.0414996 184.044643,45.0414996 C183.741071,45.0414996 183.589286,44.8932783 183.589286,44.5968357 L183.589286,41.335967 C183.589286,41.1877457 183.741071,41.0395243 183.892857,40.891303 L184.044643,40.891303 L184.044643,40.891303 Z M189.660714,40.891303 C189.964286,40.891303 190.116071,41.0395243 190.116071,41.335967 C190.116071,41.6324096 189.964286,41.7806309 189.660714,41.7806309 L188.446429,41.7806309 L188.446429,42.5217374 L189.660714,42.5217374 C189.964286,42.5217374 190.116071,42.6699587 190.116071,42.9664013 C190.116071,43.2628439 189.964286,43.4110652 189.660714,43.4110652 L188.446429,43.4110652 L188.446429,44.1521717 L189.660714,44.1521717 C189.964286,44.1521717 190.116071,44.300393 190.116071,44.5968357 C190.116071,44.8932783 189.964286,45.0414996 189.660714,45.0414996 L187.991071,45.0414996 C187.6875,45.0414996 187.535714,44.8932783 187.535714,44.5968357 L187.535714,41.335967 L187.535714,41.335967 C187.535714,41.0395243 187.6875,40.891303 187.991071,40.891303 L189.660714,40.891303 Z" id="Combined-Shape"></path>
        </g>
    </g>
</svg>