<?xml version="1.0" encoding="UTF-8"?>
<svg width="25px" height="25px" viewBox="0 0 25 25" version="1.1" xmlns="http://www.w3.org/2000/svg" xmlns:xlink="http://www.w3.org/1999/xlink">
    <!-- Generator: Sketch 61.1 (89650) - https://sketch.com -->
    <title>Combined Shape Copy</title>
    <desc>Created with Sketch.</desc>
    <g id="首頁" stroke="none" stroke-width="1" fill="none" fill-rule="evenodd">
        <g id="icon" transform="translate(-83.000000, -32.000000)" fill="#FFFFFF">
            <path d="M104,32 C106.209139,32 108,33.790861 108,36 L108,53 C108,55.209139 106.209139,57 104,57 L87,57 C84.790861,57 83,55.209139 83,53 L83,36 C83,33.790861 84.790861,32 87,32 L104,32 Z M98.7592593,36.5 L92.2407407,36.5 C89.7222222,36.5 87.5,38.5740741 87.5,41.2407407 L87.5,47.7592593 C87.5,50.2777778 89.5740741,52.5 92.2407407,52.5 L98.7592593,52.5 C101.277778,52.5 103.5,50.4259259 103.5,47.7592593 L103.5,41.2407407 C103.5,38.7222222 101.425926,36.5 98.7592593,36.5 Z M98.7592593,37.9814815 C100.537037,37.9814815 102.018519,39.462963 102.018519,41.2407407 L102.018519,47.7592593 C102.018519,49.537037 100.537037,51.0185185 98.7592593,51.0185185 L92.2407407,51.0185185 C90.462963,51.0185185 88.9814815,49.537037 88.9814815,47.7592593 L88.9814815,41.2407407 C88.9814815,39.462963 90.462963,37.9814815 92.2407407,37.9814815 L98.7592593,37.9814815 Z M95.5,40.2037037 C93.1296296,40.2037037 91.2037037,42.1296296 91.2037037,44.5 C91.2037037,46.8703704 93.1296296,48.7962963 95.5,48.7962963 C97.8703704,48.7962963 99.7962963,46.8703704 99.7962963,44.5 C99.7962963,42.1296296 97.8703704,40.2037037 95.5,40.2037037 Z M95.5,41.6851852 C97.1296296,41.6851852 98.3148148,43.0185185 98.3148148,44.5 C98.3148148,45.9814815 96.9814815,47.3148148 95.5,47.3148148 C94.0185185,47.3148148 92.6851852,45.9814815 92.6851852,44.5 C92.6851852,43.0185185 93.8703704,41.6851852 95.5,41.6851852 Z M99.7962963,39.6111111 C99.5,39.6111111 99.2037037,39.9074074 99.2037037,40.2037037 C99.2037037,40.5 99.5,40.7962963 99.7962963,40.7962963 C100.092593,40.7962963 100.388889,40.5 100.388889,40.2037037 C100.388889,39.9074074 100.092593,39.6111111 99.7962963,39.6111111 Z" id="Combined-Shape-Copy-5"></path>
        </g>
    </g>
</svg>