<?xml version="1.0" encoding="utf-8"?>
<!-- Generator: Adobe Illustrator 23.0.2, SVG Export Plug-In . SVG Version: 6.00 Build 0)  -->
<!DOCTYPE svg PUBLIC "-//W3C//DTD SVG 1.1//EN" "http://www.w3.org/Graphics/SVG/1.1/DTD/svg11.dtd" [
	<!ENTITY ns_extend "http://ns.adobe.com/Extensibility/1.0/">
	<!ENTITY ns_ai "http://ns.adobe.com/AdobeIllustrator/10.0/">
	<!ENTITY ns_graphs "http://ns.adobe.com/Graphs/1.0/">
	<!ENTITY ns_vars "http://ns.adobe.com/Variables/1.0/">
	<!ENTITY ns_imrep "http://ns.adobe.com/ImageReplacement/1.0/">
	<!ENTITY ns_sfw "http://ns.adobe.com/SaveForWeb/1.0/">
	<!ENTITY ns_custom "http://ns.adobe.com/GenericCustomNamespace/1.0/">
	<!ENTITY ns_adobe_xpath "http://ns.adobe.com/XPath/1.0/">
]>
<svg version="1.1" id="圖層_1" xmlns:x="&ns_extend;" xmlns:i="&ns_ai;" xmlns:graph="&ns_graphs;"
	 xmlns="http://www.w3.org/2000/svg" xmlns:xlink="http://www.w3.org/1999/xlink" x="0px" y="0px" viewBox="0 0 16 16"
	 style="enable-background:new 0 0 16 16;" xml:space="preserve">
<style type="text/css">
	.st0{fill-rule:evenodd;clip-rule:evenodd;fill:#FFFFFF;fill-opacity:0;}
	.st1{fill-rule:evenodd;clip-rule:evenodd;fill:#88C74A;}
	.st2{fill-rule:evenodd;clip-rule:evenodd;fill:#FFFFFF;}
</style>
<metadata>
	<sfw  xmlns="&ns_sfw;">
		<slices></slices>
		<sliceSourceBounds  bottomLeftOrigin="true" height="16" width="16" x="-1" y="-1.5"></sliceSourceBounds>
	</sfw>
</metadata>
<title>群組 20copycopycopy</title>
<desc>Created with Sketch.</desc>
<g id="icon">
	<g id="群組-20copycopycopy" transform="translate(-1.000000, -1.000000)">
		<rect id="矩形copycopycopycopy" x="1" y="1" class="st0" width="16" height="16"/>
		<g id="群組-9" transform="translate(1.000000, 1.000000)">
			<path id="Fill-2" class="st1" d="M14.2,7.1c0-0.2,0-0.3,0.1-0.4c0-0.2,0-0.4,0-0.5C14.1,3.3,11.2,1,7.6,1C4,1,1,3.4,1,6.4
				c0,2.7,2.5,5,5.8,5.4c0.2,0,0.3,0.2,0.3,0.4l-0.1,1.3c0,0.3,0.3,0.5,0.5,0.4c2.7-1.4,4.4-2.8,5.4-4c0.2-0.2,0.8-1.1,0.9-1.3
				C14,8.1,14.1,7.6,14.2,7.1z"/>
			<path id="Fill-3" class="st2" d="M4,7.5V5.2C4,5,3.8,4.9,3.6,4.9C3.5,4.9,3.3,5,3.3,5.2v2.6c0,0.2,0.2,0.3,0.3,0.3H5
				c0.2,0,0.3-0.2,0.3-0.3c0-0.2-0.2-0.3-0.3-0.3H4z"/>
			<path id="Fill-4" class="st2" d="M6.1,8.2H5.9c-0.1,0-0.3-0.1-0.3-0.3V5.1c0-0.1,0.1-0.3,0.3-0.3h0.1c0.1,0,0.3,0.1,0.3,0.3v2.8
				C6.3,8.1,6.2,8.2,6.1,8.2z"/>
			<path id="Fill-5" class="st2" d="M8.8,5.2v1.6c0,0-1.4-1.8-1.4-1.8C7.4,4.9,7.3,4.9,7.2,4.9C7,4.9,6.9,5,6.9,5.2v2.6
				C6.9,8,7,8.2,7.2,8.2c0.2,0,0.3-0.2,0.3-0.3V6.2c0,0,1.4,1.8,1.4,1.8C9,8.2,9.1,8.2,9.2,8.2c0.2,0,0.3-0.2,0.3-0.4V5.2
				c0-0.2-0.2-0.3-0.3-0.3C9,4.9,8.8,5,8.8,5.2z"/>
			<path id="Fill-6" class="st2" d="M12,5.2c0-0.2-0.2-0.3-0.3-0.3h-1.4C10.2,4.9,10,5,10,5.2v2.6c0,0.2,0.2,0.3,0.3,0.3h1.4
				C11.9,8.2,12,8,12,7.8c0-0.2-0.2-0.3-0.3-0.3h-1V6.9h1c0.2,0,0.3-0.2,0.3-0.3c0-0.2-0.2-0.3-0.3-0.3h-1V5.6h1
				C11.9,5.6,12,5.4,12,5.2z"/>
		</g>
	</g>
</g>
</svg>
