<?xml version="1.0" encoding="UTF-8"?>
<svg width="40px" height="40px" viewBox="0 0 40 40" version="1.1" xmlns="http://www.w3.org/2000/svg" xmlns:xlink="http://www.w3.org/1999/xlink">
    <!-- Generator: Sketch 55.1 (78136) - https://sketchapp.com -->
    <title>群組 11copy</title>
    <desc>Created with Sketch.</desc>
    <g id="icon" stroke="none" stroke-width="1" fill="none" fill-rule="evenodd">
        <g id="群組-11copy">
            <g id="群組-7copy" fill="#FFFFFF">
                <circle id="橢圓形" cx="20" cy="20" r="20"></circle>
            </g>
            <g id="群組-9" transform="translate(13.000000, 13.000000)">
                <path d="M13.9022092,6.40743279 C13.9342715,6.23462077 13.9502242,6.08906667 13.9573898,5.97505464 C13.9694197,5.78676612 13.9557684,5.50727869 13.9508518,5.41966776 C13.7814919,2.40335628 10.7249589,-1.09245946e-13 6.97911333,-1.09245946e-13 C3.12458032,-1.09245946e-13 -1.10134124e-13,2.54478689 -1.10134124e-13,5.68383934 C-1.10134124e-13,8.56894863 2.63972354,10.9520087 6.05971606,11.318518 C6.26893151,11.3409027 6.41972354,11.5341716 6.39639601,11.748165 L6.25072976,13.0899082 C6.21783064,13.3946721 6.52532503,13.6162164 6.79500374,13.4829792 C9.6844259,12.0552852 11.4122839,10.5863563 12.4440299,9.31385574 C12.6318007,9.08229727 13.2439128,8.20415301 13.3687621,7.97339781 C13.6337335,7.48366557 13.8164309,6.958 13.9022092,6.40743279 Z" id="Fill-2" fill="#88C74A"></path>
                <path d="M3.14152677,6.83520546 L3.14152677,4.44106011 C3.14152677,4.23922295 2.98173848,4.07562186 2.78460523,4.07562186 C2.58741968,4.07562186 2.42742217,4.23922295 2.42742217,4.44106011 L2.42742217,7.20064372 C2.42742217,7.40253443 2.58741968,7.56613552 2.78460523,7.56613552 L4.21250062,7.56613552 C4.40968618,7.56613552 4.56947447,7.40253443 4.56947447,7.20064372 C4.56947447,6.99880656 4.40968618,6.83520546 4.21250062,6.83520546 L3.14152677,6.83520546 Z" id="Fill-3" fill="#FFFFFF"></path>
                <path d="M5.34357161,7.56613552 L5.18749689,7.56613552 C5.03346202,7.56613552 4.9086127,7.4383071 4.9086127,7.28059672 L4.9086127,4.36116066 C4.9086127,4.20345027 5.03346202,4.07562186 5.18749689,4.07562186 L5.34357161,4.07562186 C5.49765878,4.07562186 5.62266501,4.20345027 5.62266501,4.36116066 L5.62266501,7.28059672 C5.62266501,7.4383071 5.49765878,7.56613552 5.34357161,7.56613552 Z" id="Fill-4" fill="#FFFFFF"></path>
                <path d="M8.22849564,4.44106011 L8.22849564,6.12692787 C8.22849564,6.12692787 6.80279701,4.22288962 6.78114321,4.19798798 C6.71288667,4.11953443 6.61256787,4.07144481 6.50121295,4.07583607 C6.30690411,4.08333333 6.15799502,4.25716284 6.15799502,4.4561082 L6.15799502,7.20064372 C6.15799502,7.40253443 6.31794022,7.56615007 6.51512578,7.56615007 C6.71225903,7.56615007 6.87204732,7.40253443 6.87204732,7.20064372 L6.87204732,5.52505792 C6.87204732,5.52505792 8.31939975,7.44564372 8.34063512,7.46631475 C8.40376588,7.52741749 8.48855044,7.56527869 8.58233126,7.56615007 C8.78051059,7.56800984 8.94254795,7.38850383 8.94254795,7.18538142 L8.94254795,4.44106011 C8.94254795,4.23922295 8.78275965,4.07562186 8.5856264,4.07562186 C8.38844085,4.07562186 8.22849564,4.23922295 8.22849564,4.44106011 Z" id="Fill-5" fill="#FFFFFF"></path>
                <path d="M11.6200349,4.44106011 C11.6200349,4.23922295 11.4600897,4.07562186 11.2629041,4.07562186 L9.83495641,4.07562186 C9.63782316,4.07562186 9.47803487,4.23922295 9.47803487,4.44106011 L9.47803487,7.20064372 C9.47803487,7.40253443 9.63782316,7.56613552 9.83495641,7.56613552 L11.2629041,7.56613552 C11.4600897,7.56613552 11.6200349,7.40253443 11.6200349,7.20064372 C11.6200349,6.99880656 11.4600897,6.83520546 11.2629041,6.83520546 L10.1919303,6.83520546 L10.1919303,6.18631694 L11.2629041,6.18631694 C11.4600897,6.18631694 11.6200349,6.02271585 11.6200349,5.82087869 C11.6200349,5.61898798 11.4600897,5.45522623 11.2629041,5.45522623 L10.1919303,5.45522623 L10.1919303,4.80649836 L11.2629041,4.80649836 C11.4600897,4.80649836 11.6200349,4.64295082 11.6200349,4.44106011 Z" id="Fill-6" fill="#FFFFFF"></path>
            </g>
        </g>
    </g>
</svg>