<?xml version="1.0" encoding="UTF-8"?>
<svg width="25px" height="25px" viewBox="0 0 25 25" version="1.1" xmlns="http://www.w3.org/2000/svg" xmlns:xlink="http://www.w3.org/1999/xlink">
    <!-- Generator: Sketch 61.1 (89650) - https://sketch.com -->
    <title>Combined Shape Copy 4</title>
    <desc>Created with Sketch.</desc>
    <g id="首頁" stroke="none" stroke-width="1" fill="none" fill-rule="evenodd">
        <g id="icon" transform="translate(-172.000000, -69.000000)" fill="#FFFFFF">
            <path d="M184.5,73.0843763 C189.205357,73.0843763 193,76.1970237 193,79.9025563 C193,81.3847694 192.392857,82.7187611 191.178571,84.0527529 L191.178571,84.0527529 L190.995844,84.2544196 C189.105693,86.2788487 185.381336,88.513736 184.5,88.9440559 C183.589286,89.3887198 183.741071,88.6476133 183.741071,88.499392 C183.741071,88.3511707 183.892857,87.7582855 183.892857,87.7582855 C183.892857,87.6100642 184.044643,87.1654002 183.892857,87.0171789 C183.741071,86.7207363 183.4375,86.572515 183.133929,86.572515 C179.035714,85.9796298 176,83.3116463 176,79.9025563 C176,76.0488024 179.794643,73.0843763 184.5,73.0843763 Z M179.491071,77.9756794 C179.1875,77.9756794 179.035714,78.1239007 179.035714,78.4203433 L179.035714,78.4203433 L179.035714,81.681212 C179.035714,81.9776546 179.1875,82.1258759 179.491071,82.1258759 L179.491071,82.1258759 L181.160714,82.1258759 C181.3125,82.1258759 181.616071,81.9776546 181.616071,81.681212 C181.616071,81.3847694 181.464286,81.2365481 181.160714,81.2365481 L181.160714,81.2365481 L179.946429,81.2365481 L179.946429,78.4203433 C179.946429,78.1239007 179.794643,77.9756794 179.491071,77.9756794 Z M182.375,77.9756794 C182.071429,77.9756794 181.919643,78.1239007 181.919643,78.4203433 L181.919643,78.4203433 L181.919643,81.681212 C181.919643,81.9776546 182.071429,82.1258759 182.375,82.1258759 C182.678571,82.1258759 182.830357,81.9776546 182.830357,81.681212 L182.830357,81.681212 L182.830357,78.4203433 C182.830357,78.1239007 182.678571,77.9756794 182.375,77.9756794 Z M184.109251,77.9761115 L183.892857,77.9756794 C183.741071,78.1239007 183.589286,78.272122 183.589286,78.4203433 L183.589286,78.4203433 L183.589286,81.681212 C183.589286,81.9776546 183.741071,82.1258759 184.044643,82.1258759 C184.348214,82.1258759 184.5,81.9776546 184.5,81.681212 L184.5,81.681212 L184.5,79.6061137 L186.169643,81.9776546 C186.169643,82.1258759 186.321429,82.1258759 186.473214,82.1258759 L186.625,82.1258759 C186.776786,81.9776546 186.928571,81.8294333 186.928571,81.681212 L186.928571,81.681212 L186.928571,78.4203433 C186.928571,78.1239007 186.776786,77.9756794 186.473214,77.9756794 C186.169643,77.9756794 186.017857,78.1239007 186.017857,78.4203433 L186.017857,78.4203433 L186.017857,80.4954416 L184.348214,78.1239007 C184.348214,77.9756794 184.196429,77.9756794 184.044643,77.9756794 Z M189.660714,77.9756794 L187.991071,77.9756794 C187.6875,77.9756794 187.535714,78.1239007 187.535714,78.4203433 L187.535714,78.4203433 L187.535714,81.681212 C187.535714,81.9776546 187.6875,82.1258759 187.991071,82.1258759 L187.991071,82.1258759 L189.660714,82.1258759 C189.964286,82.1258759 190.116071,81.9776546 190.116071,81.681212 C190.116071,81.3847694 189.964286,81.2365481 189.660714,81.2365481 L189.660714,81.2365481 L188.446429,81.2365481 L188.446429,80.4954416 L189.660714,80.4954416 C189.964286,80.4954416 190.116071,80.3472203 190.116071,80.0507776 C190.116071,79.754335 189.964286,79.6061137 189.660714,79.6061137 L189.660714,79.6061137 L188.446429,79.6061137 L188.446429,78.8650072 L189.660714,78.8650072 C189.964286,78.8650072 190.116071,78.7167859 190.116071,78.4203433 C190.116071,78.1239007 189.964286,77.9756794 189.660714,77.9756794 L189.660714,77.9756794 Z" id="Combined-Shape-Copy-4"></path>
        </g>
    </g>
</svg>