<?xml version="1.0" encoding="UTF-8"?>
<svg width="16px" height="16px" viewBox="0 0 16 16" version="1.1" xmlns="http://www.w3.org/2000/svg" xmlns:xlink="http://www.w3.org/1999/xlink">
    <!-- Generator: Sketch 55.1 (78136) - https://sketchapp.com -->
    <title>矩形copycopycopycopy</title>
    <desc>Created with Sketch.</desc>
    <g id="icon" stroke="none" stroke-width="1" fill="none" fill-rule="evenodd">
        <g id="群組-20copy">
            <rect id="矩形copycopycopycopy" fill="#0b1d37" opacity="0" x="0" y="0" width="16" height="16"></rect>
            <g id="群組-9" transform="translate(1.000000, 1.000000)">
                <path d="M13.2070988,6.08706115 C13.2375579,5.92288973 13.252713,5.78461333 13.2595203,5.67630191 C13.2709487,5.49742781 13.25798,5.23191475 13.2533092,5.14868437 C13.0924173,2.28318847 10.188711,-1.09245946e-13 6.63015766,-1.09245946e-13 C2.96835131,-1.09245946e-13 -1.10134124e-13,2.41754754 -1.10134124e-13,5.39964738 C-1.10134124e-13,8.1405012 2.50773736,10.4044083 5.75673026,10.7525921 C5.95548493,10.7738576 6.09873736,10.957463 6.07657621,11.1607568 L5.93819328,12.4354128 C5.9069391,12.7249385 6.19905878,12.9354056 6.45525355,12.8088303 C9.20020461,11.452521 10.8416697,10.0570385 11.8218284,8.84816295 C12.0002107,8.6281824 12.5817172,7.79394536 12.700324,7.57472792 C12.9520468,7.1094823 13.1256093,6.6101 13.2070988,6.08706115 Z" id="Fill-2" fill="#0b1d37"></path>
                <path d="M2.98445044,6.49344519 L2.98445044,4.2190071 C2.98445044,4.0272618 2.83265156,3.87184077 2.64537497,3.87184077 C2.45804869,3.87184077 2.30605106,4.0272618 2.30605106,4.2190071 L2.30605106,6.84061153 C2.30605106,7.0324077 2.45804869,7.18782874 2.64537497,7.18782874 L4.00187559,7.18782874 C4.18920187,7.18782874 4.34100075,7.0324077 4.34100075,6.84061153 C4.34100075,6.64886623 4.18920187,6.49344519 4.00187559,6.49344519 L2.98445044,6.49344519 Z" id="Fill-3" fill="#fff"></path>
                <path d="M5.07639303,7.18782874 L4.92812204,7.18782874 C4.78178892,7.18782874 4.66318207,7.06639175 4.66318207,6.91656689 L4.66318207,4.14310262 C4.66318207,3.99327776 4.78178892,3.87184077 4.92812204,3.87184077 L5.07639303,3.87184077 C5.22277584,3.87184077 5.34153176,3.99327776 5.34153176,4.14310262 L5.34153176,6.91656689 C5.34153176,7.06639175 5.22277584,7.18782874 5.07639303,7.18782874 Z" id="Fill-4" fill="#fff"></path>
                <path d="M7.81707086,4.2190071 L7.81707086,5.82058148 C7.81707086,5.82058148 6.46265716,4.01174514 6.44208605,3.98808858 C6.37724234,3.9135577 6.28193948,3.86787257 6.1761523,3.87204426 C5.9915589,3.87916667 5.85009527,4.0443047 5.85009527,4.23330279 L5.85009527,6.84061153 C5.85009527,7.0324077 6.00204321,7.18784256 6.18936949,7.18784256 C6.37664608,7.18784256 6.52844496,7.0324077 6.52844496,6.84061153 L6.52844496,5.24880503 C6.52844496,5.24880503 7.90342976,7.07336153 7.92360336,7.09299902 C7.98357758,7.15104661 8.06412291,7.18701475 8.15321469,7.18784256 C8.34148506,7.18960934 8.49542055,7.01907863 8.49542055,6.82611235 L8.49542055,4.2190071 C8.49542055,4.0272618 8.34362167,3.87184077 8.15634508,3.87184077 C7.9690188,3.87184077 7.81707086,4.0272618 7.81707086,4.2190071 Z" id="Fill-5" fill="#fff"></path>
                <path d="M11.0390331,4.2190071 C11.0390331,4.0272618 10.8870852,3.87184077 10.6997589,3.87184077 L9.34320859,3.87184077 C9.155932,3.87184077 9.00413313,4.0272618 9.00413313,4.2190071 L9.00413313,6.84061153 C9.00413313,7.0324077 9.155932,7.18782874 9.34320859,7.18782874 L10.6997589,7.18782874 C10.8870852,7.18782874 11.0390331,7.0324077 11.0390331,6.84061153 C11.0390331,6.64886623 10.8870852,6.49344519 10.6997589,6.49344519 L9.68233375,6.49344519 L9.68233375,5.87700109 L10.6997589,5.87700109 C10.8870852,5.87700109 11.0390331,5.72158005 11.0390331,5.52983475 C11.0390331,5.33803858 10.8870852,5.18246492 10.6997589,5.18246492 L9.68233375,5.18246492 L9.68233375,4.56617344 L10.6997589,4.56617344 C10.8870852,4.56617344 11.0390331,4.41080328 11.0390331,4.2190071 Z" id="Fill-6" fill="#fff"></path>
            </g>
        </g>
    </g>
</svg>