<svg viewBox="0 0 93 37" xmlns="http://www.w3.org/2000/svg"><path d="m0 0h93v37h-93z" fill="none"/><path d="m51.17 8.3v2.37h-3.69a8 8 0 0 0 -2.09.2 2.2 2.2 0 0 0 -1.1.78 2.34 2.34 0 0 0 -.41.8 9.69 9.69 0 0 0 -.19 1.35h7.48v2.38h-7.48a3.3 3.3 0 0 0 1 2.38 4.86 4.86 0 0 0 2.91.67h3.55v2.37h-3.67a17 17 0 0 1 -2.63-.18 4.47 4.47 0 0 1 -2.85-1.58 7.54 7.54 0 0 1 -1.52-5 6.9 6.9 0 0 1 2.14-5.4 4.2 4.2 0 0 1 1.56-.92 7.75 7.75 0 0 1 2.22-.22z" fill="#636363"/><path d="m61.16 10.67h-8.38v-2.37h11.55v2.45l-8.1 8.48h8.1v2.37h-11.55v-2.29z" fill="#636363"/><path d="m71.32 13.7h6.52v7.9h-5.94a10.48 10.48 0 0 1 -2.44-.23 4.32 4.32 0 0 1 -1.65-.81c-1.39-1.07-2.09-2.93-2.09-5.56a8.41 8.41 0 0 1 1-4.29 4.39 4.39 0 0 1 2-1.83 8 8 0 0 1 3.28-.58h5.8v2.37h-5.44a3.58 3.58 0 0 0 -2.57.78 4.47 4.47 0 0 0 -1 3.29 8.67 8.67 0 0 0 .25 2.19 3.37 3.37 0 0 0 .69 1.46 2.22 2.22 0 0 0 1 .64 6 6 0 0 0 1.65.2h2.62v-3.15h-3.68z" fill="#636363"/><path d="m86.05 8.22a8.55 8.55 0 0 1 3.51.68 4.64 4.64 0 0 1 2.49 2.73 9.87 9.87 0 0 1 .56 3.51 8.55 8.55 0 0 1 -.67 3.53 4.91 4.91 0 0 1 -2.64 2.49 8.08 8.08 0 0 1 -3 .52 8.5 8.5 0 0 1 -3.9-.84 4.74 4.74 0 0 1 -2.14-2.19 8.19 8.19 0 0 1 -.76-3.65q0-3.81 1.89-5.42a7.1 7.1 0 0 1 4.66-1.36zm0 2.23a3.09 3.09 0 0 0 -2.79 1.28 5.88 5.88 0 0 0 -.67 3.21 5.73 5.73 0 0 0 .83 3.43 3.14 3.14 0 0 0 2.65 1.08 3.06 3.06 0 0 0 2.59-1.1 5.64 5.64 0 0 0 .84-3.35 6.14 6.14 0 0 0 -.67-3.19 3 3 0 0 0 -2.76-1.36z" fill="#636363"/><path d="m51.17 8.3v2.37h-3.69a8 8 0 0 0 -2.09.2 2.2 2.2 0 0 0 -1.1.78 2.34 2.34 0 0 0 -.41.8 9.69 9.69 0 0 0 -.19 1.35h7.48v2.38h-7.48a3.3 3.3 0 0 0 1 2.38 4.86 4.86 0 0 0 2.91.67h3.55v2.37h-3.67a17 17 0 0 1 -2.63-.18 4.47 4.47 0 0 1 -2.85-1.58 7.54 7.54 0 0 1 -1.52-5 6.9 6.9 0 0 1 2.14-5.4 4.2 4.2 0 0 1 1.56-.92 7.75 7.75 0 0 1 2.22-.22z" fill="#636363"/><path d="m61.16 10.67h-8.38v-2.37h11.55v2.45l-8.1 8.48h8.1v2.37h-11.55v-2.29z" fill="#636363"/><path d="m71.32 13.7h6.52v7.9h-5.94a10.48 10.48 0 0 1 -2.44-.23 4.32 4.32 0 0 1 -1.65-.81c-1.39-1.07-2.09-2.93-2.09-5.56a8.41 8.41 0 0 1 1-4.29 4.39 4.39 0 0 1 2-1.83 8 8 0 0 1 3.28-.58h5.8v2.37h-5.44a3.58 3.58 0 0 0 -2.57.78 4.47 4.47 0 0 0 -1 3.29 8.67 8.67 0 0 0 .25 2.19 3.37 3.37 0 0 0 .69 1.46 2.22 2.22 0 0 0 1 .64 6 6 0 0 0 1.65.2h2.62v-3.15h-3.68z" fill="#636363"/><path d="m86.05 8.22a8.55 8.55 0 0 1 3.51.68 4.64 4.64 0 0 1 2.49 2.73 9.87 9.87 0 0 1 .56 3.51 8.55 8.55 0 0 1 -.67 3.53 4.91 4.91 0 0 1 -2.64 2.49 8.08 8.08 0 0 1 -3 .52 8.5 8.5 0 0 1 -3.9-.84 4.74 4.74 0 0 1 -2.14-2.19 8.19 8.19 0 0 1 -.76-3.65q0-3.81 1.89-5.42a7.1 7.1 0 0 1 4.66-1.36zm0 2.23a3.09 3.09 0 0 0 -2.79 1.28 5.88 5.88 0 0 0 -.67 3.21 5.73 5.73 0 0 0 .83 3.43 3.14 3.14 0 0 0 2.65 1.08 3.06 3.06 0 0 0 2.59-1.1 5.64 5.64 0 0 0 .84-3.35 6.14 6.14 0 0 0 -.67-3.19 3 3 0 0 0 -2.76-1.36z" fill="#636363"/><path d="m27.62 2.61a21.73 21.73 0 0 0 -21.55 1.63 12 12 0 0 0 -3.84 3.63s12 3.72 15.64-3a10.51 10.51 0 0 0 -8.75 1.13 9.69 9.69 0 0 1 8.15-2.9 12.38 12.38 0 0 1 6.09 2.27 33.77 33.77 0 0 1 2.64 2.07 14.87 14.87 0 0 1 4.66 15.3h-16.48a14.58 14.58 0 0 0 .06 3.1h22.76s4.44-16.36-9.38-23.23z" fill="#88c74a"/><path d="m20.2 32.15a10.51 10.51 0 0 0 8.8-1.15 9.69 9.69 0 0 1 -8.15 2.9 12.34 12.34 0 0 1 -6.09-2.27 32 32 0 0 1 -2.76-2.07 14.89 14.89 0 0 1 -4.67-15.3h16.3a14.58 14.58 0 0 0 -.07-3.1h-22.49s-4.44 16.36 9.38 23.23a21.73 21.73 0 0 0 21.55-1.63 12.14 12.14 0 0 0 3.84-3.63s-12-3.72-15.64 3.02z" fill="#88c74a"/><path d="m7.81 19.65h22.36a14.58 14.58 0 0 0 -.07-3.1h-22.35a14.61 14.61 0 0 0 .06 3.1z" fill="#88c74a"/><g fill="#636363"><path d="m39.85 28.9h7.47v.65h-7.47z"/><path d="m84.8 28.86h7.47v.65h-7.47z"/><path d="m58.35 25.91h-2.94a.36.36 0 0 0 0-.19l-1.08-2.09c-.24-.46-.93-.06-.7.4.33.63.65 1.26 1 1.88h-3.99a.41.41 0 0 0 0 .81h3v8a.41.41 0 0 0 .81 0v-5.8l3.15 2.25c.42.3.83-.39.41-.69l-3.56-2.55v-1.21h3.87a.41.41 0 0 0 .03-.81z"/><path d="m49.71 28c-.78-1 .32-1.46.47-2.32.2-1.22-1-1.75-1.85-2.31-.43-.28-.83.41-.4.7a4.72 4.72 0 0 1 1.14.76c.63.9-.11 1.23-.37 1.91-.46 1.21.28 1.44 1 2.19.9 1-.29 2.1-.83 3l-1.39 2.18c-.28.44.42.84.7.4l1.82-3c.49-.77 1.28-1.64.75-2.59-.23-.5-.75-.53-1.04-.92z"/><path d="m65.67 27h-3v-2.38h.15c.81 0 1.87.17 2.25-.62a.47.47 0 0 0 .11-.31c.1-.51-.68-.72-.78-.21s-1.36.42-2.07.36a.27.27 0 0 0 -.09 0h-.3-2.2a.4.4 0 0 0 0 .8h2.12v2.36h-2.42a.4.4 0 0 0 0 .8h2.45v.8c-1.17 0-2.12.17-2.15 1.65s0 2.68 0 4a.41.41 0 0 0 .81 0c0-1 0-2 0-3.08a4.76 4.76 0 0 1 0-1.25c.17-.59.8-.59 1.34-.56v5.39a.41.41 0 0 0 .81 0v-7h3a.4.4 0 0 0 -.03-.75z"/><path d="m63.87 28.6v5.66a.41.41 0 0 0 .81 0v-5.66a.41.41 0 0 0 -.81 0z"/><path d="m67.58 31.62v-6.54a.4.4 0 0 0 -.8 0v6.54a.4.4 0 0 0 .8 0z"/><path d="m70.05 23.71a.41.41 0 0 0 -.81 0v6.62a12.13 12.13 0 0 1 0 3c-.36 1.28-2.11.89-3.14.89a.41.41 0 0 0 0 .81c1 0 2.55.31 3.37-.34s.58-1.85.58-2.73z"/><path d="m72.53 30.49v.05s0 0 0 0v.05c.31.89 1.38.85 2.21.74s.94-.5 1-1.17c.07-1 0-2.09 0-3.13a12.51 12.51 0 0 0 0-2.37c-.3-1.41-3.1-1.28-3.24.2-.18 1.81 0 3.72 0 5.54a.13.13 0 0 0 .03.09zm.79-5.6a1.44 1.44 0 0 1 1.55-.2c.24.24.09 1 .09 1.38v2.44a5.9 5.9 0 0 1 0 1.78c-.15.32-1.47.51-1.64.06v-1.06h1a.41.41 0 0 0 0-.81h-1v-1.48h1a.41.41 0 0 0 0-.81h-1a3 3 0 0 1 0-1.3z"/><path d="m75.71 32.73c-.31-.76-.78-.86-1.55-.86s-1.17.07-1.52.74-.66 1.26-1 1.9c-.24.46.46.86.69.4l.75-1.42c.29-.57.32-.81 1-.81.22 0 .6-.08.77.06s.19.47.25.61l.6 1.5c.19.48 1 .27.77-.21-.25-.64-.47-1.28-.76-1.91z"/><path d="m83.41 28.17a.41.41 0 0 0 0-.81h-1.82v-.64h1a.41.41 0 0 0 0-.81h-1v-.79h1.48a.41.41 0 0 0 0-.81h-1.48v-.6a.41.41 0 0 0 -.81 0v.6h-1.85v-.6a.4.4 0 0 0 -.8 0v.6h-1.45a.41.41 0 0 0 0 .81h1.45v.79h-1.13a.41.41 0 0 0 0 .81h1.16v.64h-1.75a.41.41 0 0 0 0 .81h3.1v.41h-.94c-.74 0-1.3.17-1.38 1a20.43 20.43 0 0 0 -.07 2.6h-.71a.41.41 0 0 0 0 .81h.74v1.77a.4.4 0 0 0 .8 0v-1.76h3.76v1.77a.41.41 0 0 0 .81 0v-1.77h.85a.41.41 0 0 0 0-.81h-.85v-3.19a.41.41 0 0 0 -.81 0v1.53h-1.4v-1.14h1a.41.41 0 0 0 0-.81h-1v-.41zm-5.41 3.16h1.52v.86h-1.52zm3.76 0v.86h-1.45v-.86zm-2.24-.8h-1.52v-.4c0-.79.17-.74.94-.74h.58zm-.58-5.41h1.85v.79h-1.86zm0 1.6h1.85v.64h-1.86z"/></g></svg>