<svg xmlns="http://www.w3.org/2000/svg" viewBox="0 0 93 37"><defs><style>.cls-1{fill:none;}.cls-2{fill:#fff;}</style></defs><title>資產 3</title><g id="圖層_2" data-name="圖層 2"><g id="圖層_1-2" data-name="圖層 1"><rect class="cls-1" width="93" height="37"/><path class="cls-2" d="M51.17,8.3v2.37H47.48a8,8,0,0,0-2.09.2,2.2,2.2,0,0,0-1.1.78,2.34,2.34,0,0,0-.41.8,9.69,9.69,0,0,0-.19,1.35h7.48v2.38H43.69a3.3,3.3,0,0,0,1,2.38,4.86,4.86,0,0,0,2.91.67h3.55V21.6H47.48a17,17,0,0,1-2.63-.18A4.47,4.47,0,0,1,42,19.84a7.54,7.54,0,0,1-1.52-5,6.9,6.9,0,0,1,2.14-5.4,4.2,4.2,0,0,1,1.56-.92A7.75,7.75,0,0,1,46.4,8.3Z"/><path class="cls-2" d="M61.16,10.67H52.78V8.3H64.33v2.45l-8.1,8.48h8.1V21.6H52.78V19.31Z"/><path class="cls-2" d="M71.32,13.7h6.52v7.9H71.9a10.48,10.48,0,0,1-2.44-.23,4.32,4.32,0,0,1-1.65-.81c-1.39-1.07-2.09-2.93-2.09-5.56a8.41,8.41,0,0,1,1-4.29,4.39,4.39,0,0,1,2-1.83A8,8,0,0,1,72,8.3h5.8v2.37H72.36a3.58,3.58,0,0,0-2.57.78,4.47,4.47,0,0,0-1,3.29,8.67,8.67,0,0,0,.25,2.19,3.37,3.37,0,0,0,.69,1.46,2.22,2.22,0,0,0,1,.64,6,6,0,0,0,1.65.2H75V16.08H71.32Z"/><path class="cls-2" d="M86.05,8.22a8.55,8.55,0,0,1,3.51.68,4.64,4.64,0,0,1,2.49,2.73,9.87,9.87,0,0,1,.56,3.51,8.55,8.55,0,0,1-.67,3.53,4.91,4.91,0,0,1-2.64,2.49,8.08,8.08,0,0,1-3,.52,8.5,8.5,0,0,1-3.9-.84,4.74,4.74,0,0,1-2.14-2.19A8.19,8.19,0,0,1,79.5,15q0-3.81,1.89-5.42A7.1,7.1,0,0,1,86.05,8.22Zm0,2.23a3.09,3.09,0,0,0-2.79,1.28,5.88,5.88,0,0,0-.67,3.21,5.73,5.73,0,0,0,.83,3.43,3.14,3.14,0,0,0,2.65,1.08,3.06,3.06,0,0,0,2.59-1.1A5.64,5.64,0,0,0,89.5,15a6.14,6.14,0,0,0-.67-3.19A3,3,0,0,0,86.07,10.45Z"/><path class="cls-2" d="M51.17,8.3v2.37H47.48a8,8,0,0,0-2.09.2,2.2,2.2,0,0,0-1.1.78,2.34,2.34,0,0,0-.41.8,9.69,9.69,0,0,0-.19,1.35h7.48v2.38H43.69a3.3,3.3,0,0,0,1,2.38,4.86,4.86,0,0,0,2.91.67h3.55V21.6H47.48a17,17,0,0,1-2.63-.18A4.47,4.47,0,0,1,42,19.84a7.54,7.54,0,0,1-1.52-5,6.9,6.9,0,0,1,2.14-5.4,4.2,4.2,0,0,1,1.56-.92A7.75,7.75,0,0,1,46.4,8.3Z"/><path class="cls-2" d="M61.16,10.67H52.78V8.3H64.33v2.45l-8.1,8.48h8.1V21.6H52.78V19.31Z"/><path class="cls-2" d="M71.32,13.7h6.52v7.9H71.9a10.48,10.48,0,0,1-2.44-.23,4.32,4.32,0,0,1-1.65-.81c-1.39-1.07-2.09-2.93-2.09-5.56a8.41,8.41,0,0,1,1-4.29,4.39,4.39,0,0,1,2-1.83A8,8,0,0,1,72,8.3h5.8v2.37H72.36a3.58,3.58,0,0,0-2.57.78,4.47,4.47,0,0,0-1,3.29,8.67,8.67,0,0,0,.25,2.19,3.37,3.37,0,0,0,.69,1.46,2.22,2.22,0,0,0,1,.64,6,6,0,0,0,1.65.2H75V16.08H71.32Z"/><path class="cls-2" d="M86.05,8.22a8.55,8.55,0,0,1,3.51.68,4.64,4.64,0,0,1,2.49,2.73,9.87,9.87,0,0,1,.56,3.51,8.55,8.55,0,0,1-.67,3.53,4.91,4.91,0,0,1-2.64,2.49,8.08,8.08,0,0,1-3,.52,8.5,8.5,0,0,1-3.9-.84,4.74,4.74,0,0,1-2.14-2.19A8.19,8.19,0,0,1,79.5,15q0-3.81,1.89-5.42A7.1,7.1,0,0,1,86.05,8.22Zm0,2.23a3.09,3.09,0,0,0-2.79,1.28,5.88,5.88,0,0,0-.67,3.21,5.73,5.73,0,0,0,.83,3.43,3.14,3.14,0,0,0,2.65,1.08,3.06,3.06,0,0,0,2.59-1.1A5.64,5.64,0,0,0,89.5,15a6.14,6.14,0,0,0-.67-3.19A3,3,0,0,0,86.07,10.45Z"/><path class="cls-2" d="M27.62,2.61A21.73,21.73,0,0,0,6.07,4.24,12,12,0,0,0,2.23,7.87s12,3.72,15.64-3A10.51,10.51,0,0,0,9.12,6a9.69,9.69,0,0,1,8.15-2.9,12.38,12.38,0,0,1,6.09,2.27A33.77,33.77,0,0,1,26,7.44a14.87,14.87,0,0,1,4.66,15.3H14.18a14.58,14.58,0,0,0,.06,3.1H37S41.44,9.48,27.62,2.61Z"/><path class="cls-2" d="M20.2,32.15A10.51,10.51,0,0,0,29,31a9.69,9.69,0,0,1-8.15,2.9,12.34,12.34,0,0,1-6.09-2.27A32,32,0,0,1,12,29.56a14.89,14.89,0,0,1-4.67-15.3h16.3a14.58,14.58,0,0,0-.07-3.1H1.07s-4.44,16.36,9.38,23.23A21.73,21.73,0,0,0,32,32.76a12.14,12.14,0,0,0,3.84-3.63S23.84,25.41,20.2,32.15Z"/><path class="cls-2" d="M7.81,19.65H30.17a14.58,14.58,0,0,0-.07-3.1H7.75A14.61,14.61,0,0,0,7.81,19.65Z"/><rect class="cls-2" x="39.85" y="28.9" width="7.47" height="0.65"/><rect class="cls-2" x="84.8" y="28.86" width="7.47" height="0.65"/><path class="cls-2" d="M58.35,25.91H55.41a.36.36,0,0,0,0-.19l-1.08-2.09c-.24-.46-.93-.06-.7.4.33.63.65,1.26,1,1.88H50.64a.41.41,0,0,0,0,.81h3v8a.41.41,0,0,0,.81,0V28.92l3.15,2.25c.42.3.83-.39.41-.69l-3.56-2.55V26.72h3.87A.41.41,0,0,0,58.35,25.91Z"/><path class="cls-2" d="M49.71,28c-.78-1,.32-1.46.47-2.32.2-1.22-1-1.75-1.85-2.31-.43-.28-.83.41-.4.7a4.72,4.72,0,0,1,1.14.76c.63.9-.11,1.23-.37,1.91-.46,1.21.28,1.44,1,2.19.9,1-.29,2.1-.83,3l-1.39,2.18c-.28.44.42.84.7.4L50,31.51c.49-.77,1.28-1.64.75-2.59C50.52,28.42,50,28.39,49.71,28Z"/><path class="cls-2" d="M65.67,27h-3V24.62h.15c.81,0,1.87.17,2.25-.62a.47.47,0,0,0,.11-.31h0c.1-.51-.68-.72-.78-.21s-1.36.42-2.07.36a.27.27,0,0,0-.09,0l-.3,0h-2.2a.4.4,0,0,0,0,.8h2.12V27H59.44a.4.4,0,0,0,0,.8h2.45v.8c-1.17,0-2.12.17-2.15,1.65s0,2.68,0,4a.41.41,0,0,0,.81,0c0-1,0-2,0-3.08a4.76,4.76,0,0,1,0-1.25c.17-.59.8-.59,1.34-.56v5.39a.41.41,0,0,0,.81,0v-7h3A.4.4,0,0,0,65.67,27Z"/><path class="cls-2" d="M63.87,28.6v5.66a.41.41,0,0,0,.81,0V28.6A.41.41,0,0,0,63.87,28.6Z"/><path class="cls-2" d="M67.58,31.62V25.08a.4.4,0,0,0-.8,0v6.54A.4.4,0,0,0,67.58,31.62Z"/><path class="cls-2" d="M70.05,23.71a.41.41,0,0,0-.81,0v6.62a12.13,12.13,0,0,1,0,3c-.36,1.28-2.11.89-3.14.89a.41.41,0,0,0,0,.81c1,0,2.55.31,3.37-.34s.58-1.85.58-2.73Z"/><path class="cls-2" d="M72.53,30.49v.05s0,0,0,0l0,.05c.31.89,1.38.85,2.21.74s.94-.5,1-1.17c.07-1,0-2.09,0-3.13a12.51,12.51,0,0,0,0-2.37c-.3-1.41-3.1-1.28-3.24.2-.18,1.81,0,3.72,0,5.54A.13.13,0,0,0,72.53,30.49Zm.79-5.6a1.44,1.44,0,0,1,1.55-.2c.24.24.09,1,.09,1.38v2.44a5.9,5.9,0,0,1,0,1.78c-.15.32-1.47.51-1.64.06V29.29h1a.41.41,0,0,0,0-.81h-1V27h1a.41.41,0,0,0,0-.81h-1A3,3,0,0,1,73.32,24.89Z"/><path class="cls-2" d="M75.71,32.73c-.31-.76-.78-.86-1.55-.86s-1.17.07-1.52.74-.66,1.26-1,1.9c-.24.46.46.86.69.4l.75-1.42c.29-.57.32-.81,1-.81.22,0,.6-.08.77.06s.19.47.25.61l.6,1.5c.19.48,1,.27.77-.21C76.22,34,76,33.36,75.71,32.73Z"/><path class="cls-2" d="M83.41,28.17a.41.41,0,0,0,0-.81H81.59v-.64h1a.41.41,0,0,0,0-.81h-1v-.79h1.48a.41.41,0,0,0,0-.81H81.59v-.6a.41.41,0,0,0-.81,0v.6H78.93v-.6a.4.4,0,0,0-.8,0v.6H76.68a.41.41,0,0,0,0,.81h1.45v.79H77a.41.41,0,0,0,0,.81h1.16v.64H76.41a.41.41,0,0,0,0,.81h3.1v.41h-.94c-.74,0-1.3.17-1.38,1a20.43,20.43,0,0,0-.07,2.6h-.71a.41.41,0,0,0,0,.81h.74c0,.59,0,1.19,0,1.77a.4.4,0,0,0,.8,0V33h3.76v1.77a.41.41,0,0,0,.81,0V33h.85a.41.41,0,0,0,0-.81h-.85V29a.41.41,0,0,0-.81,0v1.53H80.31V29.39h1a.41.41,0,0,0,0-.81h-1v-.41ZM78,31.33h1.52v.86H78Zm3.76,0v.86H80.31v-.86Zm-2.24-.8H78v-.4c0-.79.17-.74.94-.74h.58Zm-.58-5.41h1.85v.79H78.93Zm0,1.6h1.85v.64H78.93Z"/></g></g></svg>