<svg xmlns="http://www.w3.org/2000/svg" xmlns:xlink="http://www.w3.org/1999/xlink" width="690" height="400" viewBox="0 0 690 400">
    <defs>
        <path id="a" d="M0 .45h560v121.334H0z"/>
        <path id="c" d="M0 350h561.605V0H0z"/>
    </defs>
    <g fill="none" fill-rule="evenodd" transform="translate(64 25)">
        <path fill="#FAF4E7" d="M80.42 349h427.088c35.712 0 44.459 0 49.562-10.742 5.1-10.742 6.559-32.225-21.502-71.256-28.057-39.03-85.635-95.608-130.702-138.063-45.067-42.455-77.622-70.786-112.613-82.044-34.991-11.26-72.414-5.445-98.954 9.451-26.542 14.895-42.197 38.873-49.749 67.838-7.552 28.964-7 62.916-25.402 82.082-18.404 19.162-55.76 23.539-79.905 38.135-24.147 14.6-35.079 39.423-37.631 58.558-2.55 19.135 3.281 32.587 9.84 39.314C17.01 349 24.3 349 80.42 349"/>
        <path fill="#F4EFE3" d="M240.5 259c6.904 0 12.5 5.594 12.5 12.5 0 6.902-5.596 12.5-12.5 12.5-6.903 0-12.5-5.598-12.5-12.5 0-6.906 5.597-12.5 12.5-12.5"/>
        <g transform="translate(0 227)">
            <mask id="b" fill="#fff">
                <use xlink:href="#a"/>
            </mask>
            <path fill="#F4EFE3" d="M80.42 121.784H507.508c35.711 0 44.462 0 49.561-10.703 3.758-7.882 5.537-21.572-4.998-43.774-4.194.513-8.66 1.165-13.482 1.534-14.954 1.15-33.362-.381-53.667-12.252-20.303-11.866-42.506-34.07-62.701-45.042C402.026.577 383.837.842 367.968 7.989c-15.87 7.15-29.415 21.181-44.498 36.742-15.084 15.564-31.699 32.656-50.36 35.72-18.664 3.058-39.37-7.911-66.339-27.396-26.97-19.482-60.203-47.484-95.608-51.949-31.114-3.922-63.904 10.33-86.49 26.89C9.857 42.309 2.625 60.872.612 75.913c-2.55 19.065 3.28 32.47 9.84 39.17 6.558 6.702 13.848 6.702 69.968 6.702" mask="url(#b)"/>
        </g>
        <path fill="#88C74A" d="M367.208 349h116.584c27.333-31.302 25.257-78.647-4.71-107.42-29.965-28.773-77.199-28.773-107.167 0-29.964 28.773-32.04 76.118-4.707 107.42"/>
        <path fill="#63A14E" d="M367.406 348H483.82c27.293-31.162 25.22-78.296-4.703-106.94a79.545 79.545 0 0 0-5.833-5.06L365 345.112a79.829 79.829 0 0 0 2.406 2.888"/>
        <path fill="#FFF" d="M424.027 349h3.325v-52.798l22.08-19.183c.69-.601.762-1.649.16-2.336a1.66 1.66 0 0 0-2.341-.164l-19.899 17.287V254.66c0-.919-.745-1.661-1.664-1.661a1.66 1.66 0 0 0-1.661 1.66v55.752l-22.279-19.427a1.66 1.66 0 0 0-2.338.156 1.649 1.649 0 0 0 .157 2.332l24.46 21.328V349z"/>
        <path fill="#88C74A" d="M534.955 349c7.504-8.695 12.045-20.023 12.045-32.42C547 289.2 524.838 267 497.499 267 470.162 267 448 289.199 448 316.58c0 12.397 4.542 23.725 12.045 32.42h74.91z"/>
        <path fill="#63A14E" d="M534.917 349A49.83 49.83 0 0 0 547 316.386 49.81 49.81 0 0 0 540.09 291L478 349h56.917z"/>
        <path fill="#FFF" d="M491.806 349h3.78l-.003-.076-.113-14.805 20.104-22.518a1.683 1.683 0 0 0-.107-2.347 1.614 1.614 0 0 0-2.304.11l-17.729 19.858-.1-13.17c.002-.057 0-.115-.003-.172l-.117-15.236a1.642 1.642 0 0 0-1.641-1.644c-.898.009-1.62.757-1.611 1.67l.088 11.682-7.892-6.873a1.61 1.61 0 0 0-2.298.182 1.68 1.68 0 0 0 .178 2.34l10.045 8.744.128 16.653c-.003.057-.003.118.003.179l.084 10.927-13.439-15.835a1.607 1.607 0 0 0-2.295-.166 1.676 1.676 0 0 0-.167 2.337l15.41 18.16z"/>
        <path fill="#88C74A" d="M99.957 349A49.441 49.441 0 0 0 112 316.58C112 289.2 89.838 267 62.5 267S13 289.199 13 316.58c0 12.397 4.542 23.725 12.045 32.42h74.912z"/>
        <path fill="#63A14E" d="M99.918 349A49.82 49.82 0 0 0 112 316.386c0-9.271-2.52-17.949-6.908-25.386L43 349h56.918z"/>
        <path fill="#FFF" d="M56.806 349h3.78l-.002-.076-.113-14.805 20.105-22.518a1.686 1.686 0 0 0-.108-2.347 1.614 1.614 0 0 0-2.304.11l-17.73 19.858-.103-13.17c.003-.057.002-.115 0-.172l-.117-15.236c-.006-.915-.742-1.65-1.64-1.644-.899.009-1.621.757-1.615 1.67l.09 11.682-7.893-6.873a1.608 1.608 0 0 0-2.297.182 1.682 1.682 0 0 0 .18 2.34l10.043 8.744.13 16.653a1.542 1.542 0 0 0 0 .179l.085 10.927-13.437-15.835a1.609 1.609 0 0 0-2.298-.166 1.678 1.678 0 0 0-.165 2.337L56.806 349z"/>
        <path fill="#FF9C9C" d="M428.404 38.822c5.414-6.904 6.108-16.444 1.747-24.07-4.357-7.626-12.885-11.797-21.518-10.526-8.63 1.275-15.621 7.735-17.633 16.302.887 10.961 2.871 21.225 5.949 30.789 1.513 4.318 5.246 5.12 11.204 2.4 1.423 6.427 2.137 9.643 2.137 9.643a14.904 14.904 0 0 0 17.195-2.589l.919-21.949"/>
        <path fill="#CC4F30" d="M408 53.727l2.268 9.347c.802.376 1.629.685 2.469.926 1.954-3.818 3.376-8.484 4.263-14 0 0-3 1.241-9 3.727"/>
        <path fill="#F39874" d="M314 127.138c6.846 3.97 24.845 1.591 54-7.138-36.001 4.76-54 7.138-54 7.138"/>
        <path fill="#FF9C9C" d="M373.28 118c1.687 9.102 6.926 14.992 15.72 17.675-11.655 6.749-30.082 8.54-55.275 5.375-4.044 1.33-7.22 1.238-9.523-.272a5.651 5.651 0 0 0-1.447-7.012 5.616 5.616 0 0 0-7.143.061 5.645 5.645 0 0 0-1.324 7.037l4.876 3.028 2.876-.858a3.975 3.975 0 0 1 3.786 1.61l-3.317 3.538a7.752 7.752 0 0 1-4.726 1.642l-4.249.16a8.696 8.696 0 0 1-4.485-.94l-4.804-3.241a4.477 4.477 0 0 1-1.225-3.522s.076-1.785.223-5.359c.339-1.82 1.434-3.33 3.293-4.532l6.236-4.396a10.697 10.697 0 0 1 5.963-1.104l8.625.411c8.428-1.29 23.735-4.391 45.92-9.301"/>
        <path fill="#F39874" d="M321 149.906a7.512 7.512 0 0 1-2.246.796c-1.274-.325-2.287-.867-3.043-1.624l-6.251-3.81a3.723 3.723 0 0 1-1.108-1.003l-.018-.026a3.839 3.839 0 0 1-.64-1.411 4.025 4.025 0 0 1-.042-1.552 3.87 3.87 0 0 1 .498-1.348l.995-5.472a.542.542 0 0 1 .632-.446.56.56 0 0 1 .432.655l-1.016 5.578a.572.572 0 0 1-.08.206 2.763 2.763 0 0 0-.394 1.02c-.062.361-.053.737.03 1.101.082.363.236.7.45.993l.02.03c.206.278.472.517.774.697l.015.008 6.308 3.845c.047.029.089.064.124.105.747.76 1.85 1.266 3.304 1.514.394.067.812.115 1.256.144zm-7.102 1.055l-.61.022a8.074 8.074 0 0 1-1.218-.013l-6.065-4.568a3.682 3.682 0 0 1-1.748-1.977 3.864 3.864 0 0 1-.033-2.683l1.135-5.913a.547.547 0 0 1 .637-.445c.294.06.486.357.427.662l-1.144 5.958c-.006.038-.02.076-.032.114a2.697 2.697 0 0 0 .014 1.892c.226.596.66 1.105 1.256 1.402a.53.53 0 0 1 .107.07l7.274 5.479zm2.542-2.713a.578.578 0 0 1 .068.665l-.068-.665z"/>
        <path fill="#CC4F30" d="M373.132 118c1.703 9.156 6.992 15.082 15.868 17.781-3 1.73-6.44 3.135-10.328 4.219a33.16 33.16 0 0 1-7.67-21.533l2.13-.467z"/>
        <path fill="#FF9C9C" d="M459.406 257c6.647 8.932 16.547 37.971 22.594 65.19a32.229 32.229 0 0 1-19.677 6.81l-27.616-56.908c-3.109-5.091-5.012-9.81-5.707-14.161 10.694 1.785 20.83 1.477 30.406-.931"/>
        <path fill="#2E88D1" d="M467.284 349H431c0-7.88 9.353-11.068 16.426-9.282 7.245-9.055 10.867-13.585 10.867-13.585a2.858 2.858 0 0 1 3.927-.46 21.75 21.75 0 0 0 18.374-4.075 2.238 2.238 0 0 1 3.543.684c4.578 14.245 6.863 21.366 6.863 21.366L467.284 349"/>
        <path fill="#CC4F30" d="M431 347c.245-.803.6-1.544 1.048-2.214h32.06L489.32 339l.679 2.109-25.448 5.84a1.07 1.07 0 0 1-.33.051H431zM469 258.373L461.883 191c-17.113 10.198-33.075 13.507-47.883 9.921l14.325 61.326A62.675 62.675 0 0 0 469 258.373"/>
        <path fill="#FF9C9C" d="M392.29 264.73c1.928 10.93.025 35.547-6.9 62.515-5.476 5.768-14.546 6.365-20.753 1.372 0 0-.881-24.257-1.444-61.442-.486-5.928-.055-10.984 1.297-15.175 8.82 6.365 18.088 10.607 27.8 12.73"/>
        <path fill="#EF5934" d="M402.17 194.367c13.997 11.506 33.923 10.384 59.77-3.367 1.759 19.962-35.825 40.278-61.197 74.637h-.003a47.325 47.325 0 0 1-20.56-1.98l-.597-.198A47.061 47.061 0 0 1 362 252.684c5.597-13.52 18.986-32.96 40.17-58.317"/>
        <path fill="#CC4F30" d="M427.227 202.233c.911-.052 1.838-.13 2.773-.233-14.558 12.7-26.342 24.77-35.354 36.211-7.085 8.996-12.448 17.592-16.09 25.789a47.301 47.301 0 0 1-1.556-.58c3.7-8.358 9.147-17.102 16.338-26.233 8.72-11.066 20.017-22.72 33.889-34.954"/>
        <path fill="#CC4F30" d="M402.033 194.35c14.03 11.45 34.002 10.334 59.91-3.35.075.863.075 1.726.006 2.59-18.297 14.99-43.936 17.635-64.949 6.815a677.212 677.212 0 0 1 5.033-6.054"/>
        <path fill="#43A3EF" d="M464 192.274c8.182-32.881-.373-75.364-25.658-127.445a25.983 25.983 0 0 0-36.728 6.773c-12.555 22.355-22.404 37.218-29.542 44.593a20.94 20.94 0 0 0 5.26 15.697 20.986 20.986 0 0 0 15.021 6.987l11.368-6.234c4.766 28.005 2.887 48.636-5.637 61.894 17.987 13.33 39.959 12.574 65.917-2.265"/>
        <path fill="#4AA9F8" d="M398 77c-10.863 19.314-19.505 32.36-25.929 39.139a21.53 21.53 0 0 0 .325 5.861c14.387-14.519 22.923-29.518 25.604-45"/>
        <path fill="#4563BD" d="M375.524 112a77.29 77.29 0 0 1-1.524 1.77c.36 3.922 1.128 7.286 2.306 10.089 1.847 4.394 4.694 7.418 8.54 9.074a.831.831 0 0 0 1.086-.425.814.814 0 0 0-.429-1.074c-3.435-1.479-5.991-4.213-7.67-8.203-1.271-3.025-2.04-6.768-2.309-11.231"/>
        <path fill="#2E88D1" d="M403 132.537c3.314 19.337 3.438 35.158.37 47.463 22.099-3.745 30.444-24.409 25.034-62L403 132.537"/>
        <path fill="#4563BD" d="M402 133l1.279-.707 17.754-9.336.006-.003 7.544-4.38a.85.85 0 0 0 .307-1.152.833.833 0 0 0-1.142-.31l-24.886 14.45a.832.832 0 0 0-.333.358h-.003L402 133z"/>
        <path fill="#545151" d="M386.385 5.175c-2.479.344-5.156 2.119-6.487 5.35-1.329 3.233-1.31 7.923.921 10.873 2.232 2.95 6.676 4.156 10.608 4.438 3.932.282 7.355-.359 9.44-.59 2.088-.232 2.84-.054 3.465.816.629.87 1.131 2.432 1.79 3.788.66 1.353 1.477 2.494 2.476 2.97.999.474 2.181.282 2.512-.256.337-.535-.178-1.412-.304-2.859-.123-1.446.139-3.46.774-4.216.631-.755 1.63-.252 2.637.336 1.005.588 2.02 1.26 2.564 2.623.547 1.36.629 3.408.568 5.093-.057 1.688-.252 3.014-.382 4.05-.13 1.034-.192 1.78.668 2.749.86.97 2.647 2.16 4.919 3.378 2.274 1.215 5.03 2.456 6.639 2.262 1.606-.193 2.07-1.822 2.824-3.698.756-1.876 1.809-4 2.657-7.082.845-3.08 1.486-7.116 1.29-11.723-.195-4.607-1.224-9.785-2.728-13.59-1.507-3.808-3.492-6.241-5.833-7.224-2.34-.984-5.042-.516-7.391-.786-2.353-.27-4.353-1.277-7.623-1.684-3.27-.407-7.81-.216-11.182 1.019-3.372 1.235-5.577 3.513-7.819 4.109-2.244.596-4.524-.49-7.003-.146"/>
        <path fill="#43A3EF" d="M345.546 334.304c11.727-6.47 17.591-9.703 17.591-9.703a2.815 2.815 0 0 1 3.903.415 21.359 21.359 0 0 0 18.689.07 2.195 2.195 0 0 1 2.006-.116 2.244 2.244 0 0 1 1.28 1.571A71377.34 71377.34 0 0 1 391 349h-60.926a13.565 13.565 0 0 1 4.127-11.244 13.201 13.201 0 0 1 11.345-3.452"/>
        <path fill="#EF5934" d="M390.801 344l.199 2h-61c.115-.68.296-1.35.533-2h60.268z"/>
        <path fill="#D2D5D9" d="M318.229 132.667a2.191 2.191 0 0 1 3.106-.042c.869.847.89 2.244.042 3.117l-28.999 29.918-28.793 153.536a2.198 2.198 0 0 1-2.159 1.798V321H85.202A2.207 2.207 0 0 1 83 318.787a2.21 2.21 0 0 1 2.202-2.212h174.404l28.575-152.381h.003c.075-.413.27-.808.583-1.13l29.462-30.397z"/>
        <mask id="d" fill="#fff">
            <use xlink:href="#c"/>
        </mask>
        <path fill="#43A3EF" d="M182 192h69v-42h-69z" mask="url(#d)"/>
        <path fill="#2E88D1" d="M229.503 150H251v42h-62z" mask="url(#d)"/>
        <path fill="#4563BD" d="M215 192h2v-42h-2z" mask="url(#d)"/>
        <path fill="#FFB45C" d="M174 268h96v-78h-96z" mask="url(#d)"/>
        <path fill="#F9AD56" d="M190 268h80v-78h-5.284z" mask="url(#d)"/>
        <path fill="#43A3EF" d="M79 268h90v-63H79z" mask="url(#d)"/>
        <path fill="#2E88D1" d="M155.544 205H169v63H86z" mask="url(#d)"/>
        <path fill="#FFB45C" d="M84 217.788L115.275 209 118 219.212 86.725 228z" mask="url(#d)"/>
        <path fill="#D6964E" d="M216 199h11v-9h-11z" mask="url(#d)"/>
        <path fill="#4563BD" d="M160 268h2v-63h-2z" mask="url(#d)"/>
        <path fill="#D2D5D9" d="M290.89 163a2.11 2.11 0 1 1 0 4.22h-22.795v96.56h3.86a2.11 2.11 0 0 1 0 4.22H69.526v-.005a2.102 2.102 0 0 1-1.994-1.435l-1.36-100.616A2.11 2.11 0 0 1 68.109 163h222.78zm-53.812 100.78h27.852v-96.56h-27.852v96.56zm-31.018 0h27.852v-96.56H206.06v96.56zm-31.017 0h27.852v-96.56h-27.852v96.56zm-31.017 0h27.851v-96.56h-27.851v96.56zm-31.02 0h27.854v-96.56h-27.853v96.56zm-31.015 0h27.85v-96.56h-27.85v96.56zm-10.955 0h7.79v-96.56h-7.79v96.56zM108.5 326c6.35 0 11.5 5.151 11.5 11.502 0 6.35-5.15 11.498-11.5 11.498S97 343.852 97 337.502 102.15 326 108.5 326M236.5 326c6.352 0 11.5 5.151 11.5 11.502 0 6.35-5.148 11.498-11.5 11.498-6.35 0-11.5-5.148-11.5-11.498S230.15 326 236.5 326" mask="url(#d)"/>
        <path fill="#AAA9A5" d="M108.5 333a4.5 4.5 0 1 1 0 9 4.5 4.5 0 0 1 0-9M236.5 333a4.5 4.5 0 1 1 0 9 4.5 4.5 0 0 1 0-9" mask="url(#d)"/>
        <path fill="#D2D5D9" d="M318.599 132.014a6 6 0 1 1 .801 11.972 6 6 0 0 1-.801-11.972" mask="url(#d)"/>
    </g>
</svg>
