<?xml version="1.0" encoding="UTF-8"?>
<svg width="40px" height="40px" viewBox="0 0 40 40" version="1.1" xmlns="http://www.w3.org/2000/svg" xmlns:xlink="http://www.w3.org/1999/xlink">
    <!-- Generator: Sketch 55.1 (78136) - https://sketchapp.com -->
    <title>群組 25</title>
    <desc>Created with Sketch.</desc>
    <defs>
        <polygon id="path-1" points="0 0 16 0 16 15.9975 0 15.9975"></polygon>
    </defs>
    <g id="icon" stroke="none" stroke-width="1" fill="none" fill-rule="evenodd">
        <g id="群組-25">
            <circle id="橢圓形" fill="#8BCE47" cx="20" cy="20" r="20"></circle>
            <g id="share-(1)" transform="translate(12.000000, 12.000000)">
                <mask id="mask-2" fill="white">
                    <use xlink:href="#path-1"></use>
                </mask>
                <g id="Clip-2"></g>
                <path d="M12.5714583,9.14291667 C11.4373333,9.14291667 10.4378333,9.702625 9.81333333,10.5537083 L6.69320833,8.99316667 C6.78970833,8.67658333 6.85708333,8.34766667 6.85708333,8 C6.85708333,7.65233333 6.78970833,7.32325 6.69320833,7.00683333 L9.81333333,5.44629167 C10.4378333,6.29720833 11.4373333,6.85708333 12.5714583,6.85708333 C14.4620833,6.85708333 16,5.31916667 16,3.42854167 C16,1.53791667 14.4620833,0 12.5714583,0 C10.6808333,0 9.14291667,1.53791667 9.14291667,3.42854167 C9.14291667,3.77620833 9.21029167,4.10529167 9.30695833,4.42170833 L6.18654167,5.98225 C5.56216667,5.13133333 4.56266667,4.57145833 3.42854167,4.57145833 C1.53791667,4.57145833 0,6.109375 0,8 C0,9.890625 1.53791667,11.4285417 3.42854167,11.4285417 C4.56266667,11.4285417 5.56216667,10.8688333 6.18666667,10.01775 L9.30679167,11.5782917 C9.21029167,11.8947083 9.14291667,12.2237917 9.14291667,12.5714583 C9.14291667,14.4620833 10.6808333,16 12.5714583,16 C14.4620833,16 16,14.4620833 16,12.5714583 C16,10.6808333 14.4620833,9.14291667 12.5714583,9.14291667 Z M12.5714583,1.14291667 C13.8320417,1.14291667 14.8570833,2.168625 14.8570833,3.42854167 C14.8570833,4.688625 13.8320417,5.714375 12.5714583,5.714375 C11.310875,5.714375 10.285625,4.688625 10.285625,3.42854167 C10.285625,2.168625 11.310875,1.14291667 12.5714583,1.14291667 Z M3.42854167,10.285625 C2.16795833,10.285625 1.14291667,9.26008333 1.14291667,8 C1.14291667,6.73991667 2.16795833,5.714375 3.42854167,5.714375 C4.689125,5.714375 5.714375,6.74008333 5.714375,8 C5.714375,9.26008333 4.689125,10.285625 3.42854167,10.285625 Z M12.5714583,14.8570833 C11.310875,14.8570833 10.285625,13.831375 10.285625,12.5714583 C10.285625,11.311375 11.310875,10.285625 12.5714583,10.285625 C13.8320417,10.285625 14.8570833,11.311375 14.8570833,12.5714583 C14.8570833,13.8315417 13.8320417,14.8570833 12.5714583,14.8570833 Z" id="Fill-1" fill="#FFFFFF" mask="url(#mask-2)"></path>
            </g>
        </g>
    </g>
</svg>