<?xml version="1.0" encoding="UTF-8"?>
<svg width="40px" height="40px" viewBox="0 0 40 40" version="1.1" xmlns="http://www.w3.org/2000/svg" xmlns:xlink="http://www.w3.org/1999/xlink">
    <!-- Generator: Sketch 55.1 (78136) - https://sketchapp.com -->
    <title>群組 15</title>
    <desc>Created with Sketch.</desc>
    <defs>
        <polygon id="path-1" points="0.0209880952 0.0303154511 7.95557589 0.0303154511 7.95557589 2.92352823 0.0209880952 2.92352823"></polygon>
        <polygon id="path-3" points="0.00191964286 0.00736186458 16.3809204 0.00736186458 16.3809204 11.6894515 0.00191964286 11.6894515"></polygon>
    </defs>
    <g id="icon" stroke="none" stroke-width="1" fill="none" fill-rule="evenodd">
        <g id="群組-15">
            <circle id="橢圓形" fill="#88C74A" cx="20" cy="20" r="20"></circle>
            <g id="shopping-cartcopycopy" transform="translate(12.000000, 12.000000)">
                <g id="群組" transform="translate(5.406994, 12.312638)">
                    <mask id="mask-2" fill="white">
                        <use xlink:href="#path-1"></use>
                    </mask>
                    <g id="Clip-2"></g>
                    <path d="M1.46164807,2.1171951 C1.11080134,2.1171951 0.82538244,1.83037171 0.82538244,1.47783806 C0.82538244,1.12533655 1.11080134,0.838513161 1.46164807,0.838513161 C1.8124628,0.838513161 2.09791369,1.12533655 2.09791369,1.47783806 C2.09791369,1.83040386 1.8124628,2.1171951 1.46164807,2.1171951 Z M1.46164807,0.0303154511 C0.667267857,0.0303154511 0.0209880952,0.679702632 0.0209880952,1.47790235 C0.0209880952,2.27606992 0.667267857,2.9254571 1.46164807,2.9254571 C2.25599628,2.9254571 2.90227604,2.27606992 2.90227604,1.47790235 C2.90227604,0.679702632 2.25599628,0.0303154511 1.46164807,0.0303154511 L1.46164807,0.0303154511 Z" id="Fill-1" fill="#FFFFFF" mask="url(#mask-2)"></path>
                    <path d="M6.51494792,2.1171951 C6.16410119,2.1171951 5.87868229,1.83037171 5.87868229,1.47783806 C5.87868229,1.12533655 6.16410119,0.838513161 6.51494792,0.838513161 C6.86576265,0.838513161 7.15121354,1.12533655 7.15121354,1.47783806 C7.15121354,1.83040386 6.86576265,2.1171951 6.51494792,2.1171951 Z M6.51494792,0.0303154511 C5.72056771,0.0303154511 5.07428795,0.679702632 5.07428795,1.47790235 C5.07428795,2.27606992 5.72056771,2.9254571 6.51494792,2.9254571 C7.30929613,2.9254571 7.95557589,2.27606992 7.95557589,1.47790235 C7.95557589,0.679702632 7.30929613,0.0303154511 6.51494792,0.0303154511 L6.51494792,0.0303154511 Z" id="Fill-3" fill="#FFFFFF" mask="url(#mask-2)"></path>
                </g>
                <path d="M6.51293229,5.52978903 L12.276628,5.52978903 C12.4987626,5.52978903 12.6788251,5.34886076 12.6788251,5.12565803 C12.6788251,4.90248744 12.4987626,4.72155917 12.276628,4.72155917 L6.51293229,4.72155917 C6.29079762,4.72155917 6.11073512,4.90248744 6.11073512,5.12565803 C6.11073512,5.34886076 6.29082961,5.52978903 6.51293229,5.52978903" id="Fill-4" fill="#FFFFFF"></path>
                <g id="群組">
                    <mask id="mask-4" fill="white">
                        <use xlink:href="#path-3"></use>
                    </mask>
                    <g id="Clip-6"></g>
                    <path d="M11.9629263,6.82017279 L6.82666592,6.82017279 C6.60456324,6.82017279 6.42450074,7.00110106 6.42450074,7.2243038 C6.42450074,7.44750653 6.60456324,7.6284348 6.82666592,7.6284348 L11.9629263,7.6284348 C12.185029,7.6284348 12.3650915,7.44750653 12.3650915,7.2243038 C12.3650915,7.00113321 12.185029,6.82017279 11.9629263,6.82017279" id="Fill-5" fill="#FFFFFF" mask="url(#mask-4)"></path>
                    <path d="M14.4513914,8.91833635 L4.33900074,8.91833635 L3.21405804,3.43152903 L15.5763661,3.43159333 L14.4513914,8.91833635 Z M16.1998981,2.92092425 C16.0464866,2.73176612 15.8192009,2.62329918 15.5763661,2.62329918 L3.04832887,2.62329918 L2.79531994,1.3891742 C2.74249777,1.13173398 2.56774628,0.915571629 2.32775893,0.810865984 L0.562423363,0.0409242516 C0.35862128,-0.0480289331 0.121769345,0.0459393209 0.0333697917,0.250657022 C-0.05509375,0.455439019 0.0383928571,0.693461925 0.242130952,0.782286518 L2.00746652,1.5522604 L3.95353646,11.0443078 C4.0301942,11.4181234 4.36152455,11.6894515 4.74138988,11.6894515 L14.3769092,11.6894515 C14.5990439,11.6894515 14.7791064,11.5085232 14.7791064,11.2853205 C14.7791064,11.0621177 14.5990439,10.8811895 14.3769092,10.8811895 L4.74142188,10.8811895 L4.50469792,9.7265662 L14.4513914,9.7265662 C14.8312247,9.7265662 15.1625871,9.4552381 15.2392128,9.08142254 L16.3642195,3.59455093 C16.4132024,3.35562789 16.3533095,3.11005023 16.1998981,2.92092425 L16.1998981,2.92092425 Z" id="Fill-7" fill="#FFFFFF" mask="url(#mask-4)"></path>
                </g>
            </g>
        </g>
    </g>
</svg>