<?xml version="1.0" encoding="UTF-8"?>
<svg width="40px" height="40px" viewBox="0 0 40 40" version="1.1" xmlns="http://www.w3.org/2000/svg" xmlns:xlink="http://www.w3.org/1999/xlink">
    <!-- Generator: Sketch 55.1 (78136) - https://sketchapp.com -->
    <title>群組 16</title>
    <desc>Created with Sketch.</desc>
    <defs>
        <polygon id="path-1" points="0.0220375 0.0318312236 8.35335469 0.0318312236 8.35335469 3.06970464 0.0220375 3.06970464"></polygon>
        <polygon id="path-3" points="0.002015625 0.00772995781 17.1999664 0.00772995781 17.1999664 12.2739241 0.002015625 12.2739241"></polygon>
    </defs>
    <g id="icon" stroke="none" stroke-width="1" fill="none" fill-rule="evenodd">
        <g id="群組-16">
            <circle id="橢圓形" fill="#EAEFF4" cx="20" cy="20" r="20"></circle>
            <g id="shopping-cartcopycopycopycopy" transform="translate(11.000000, 12.000000)">
                <g id="群組" transform="translate(5.677344, 12.928270)">
                    <mask id="mask-2" fill="white">
                        <use xlink:href="#path-1"></use>
                    </mask>
                    <g id="Clip-2"></g>
                    <path d="M1.53473047,2.22305485 C1.16634141,2.22305485 0.866651562,1.9218903 0.866651562,1.55172996 C0.866651562,1.18160338 1.16634141,0.880438819 1.53473047,0.880438819 C1.90308594,0.880438819 2.20280937,1.18160338 2.20280937,1.55172996 C2.20280937,1.92192405 1.90308594,2.22305485 1.53473047,2.22305485 Z M1.53473047,0.0318312236 C0.70063125,0.0318312236 0.0220375,0.713687764 0.0220375,1.55179747 C0.0220375,2.38987342 0.70063125,3.07172996 1.53473047,3.07172996 C2.36879609,3.07172996 3.04738984,2.38987342 3.04738984,1.55179747 C3.04738984,0.713687764 2.36879609,0.0318312236 1.53473047,0.0318312236 L1.53473047,0.0318312236 Z" id="Fill-1" fill="#0A0B09" mask="url(#mask-2)"></path>
                    <path d="M6.84069531,2.22305485 C6.47230625,2.22305485 6.17261641,1.9218903 6.17261641,1.55172996 C6.17261641,1.18160338 6.47230625,0.880438819 6.84069531,0.880438819 C7.20905078,0.880438819 7.50877422,1.18160338 7.50877422,1.55172996 C7.50877422,1.92192405 7.20905078,2.22305485 6.84069531,2.22305485 Z M6.84069531,0.0318312236 C6.00659609,0.0318312236 5.32800234,0.713687764 5.32800234,1.55179747 C5.32800234,2.38987342 6.00659609,3.07172996 6.84069531,3.07172996 C7.67476094,3.07172996 8.35335469,2.38987342 8.35335469,1.55179747 C8.35335469,0.713687764 7.67476094,0.0318312236 6.84069531,0.0318312236 L6.84069531,0.0318312236 Z" id="Fill-3" fill="#0A0B09" mask="url(#mask-2)"></path>
                </g>
                <path d="M6.83857891,5.80627848 L12.8904594,5.80627848 C13.1237008,5.80627848 13.3127664,5.6163038 13.3127664,5.38194093 C13.3127664,5.14761181 13.1237008,4.95763713 12.8904594,4.95763713 L6.83857891,4.95763713 C6.6053375,4.95763713 6.41627188,5.14761181 6.41627188,5.38194093 C6.41627188,5.6163038 6.60537109,5.80627848 6.83857891,5.80627848" id="Fill-4" fill="#0A0B09"></path>
                <g id="群組">
                    <mask id="mask-4" fill="white">
                        <use xlink:href="#path-3"></use>
                    </mask>
                    <g id="Clip-6"></g>
                    <path d="M12.5610727,7.16118143 L7.16799922,7.16118143 C6.93479141,7.16118143 6.74572578,7.35115612 6.74572578,7.58551899 C6.74572578,7.81988186 6.93479141,8.00985654 7.16799922,8.00985654 L12.5610727,8.00985654 C12.7942805,8.00985654 12.9833461,7.81988186 12.9833461,7.58551899 C12.9833461,7.35118987 12.7942805,7.16118143 12.5610727,7.16118143" id="Fill-5" fill="#0A0B09" mask="url(#mask-4)"></path>
                    <path d="M15.1739609,9.36425316 L4.55595078,9.36425316 L3.37476094,3.60310549 L16.3551844,3.603173 L15.1739609,9.36425316 Z M17.009893,3.06697046 C16.8488109,2.86835443 16.6101609,2.75446414 16.3551844,2.75446414 L3.20074531,2.75446414 L2.93508594,1.45863291 C2.87962266,1.18832068 2.69613359,0.961350211 2.44414687,0.851409283 L0.590544531,0.0429704641 C0.376552344,-0.0504303797 0.127857812,0.0482362869 0.0350382812,0.263189873 C-0.0578484375,0.47821097 0.0403125,0.728135021 0.2542375,0.821400844 L2.10783984,1.62987342 L4.15121328,11.5965232 C4.23170391,11.9890295 4.57960078,12.2739241 4.97845937,12.2739241 L15.0957547,12.2739241 C15.3289961,12.2739241 15.5180617,12.0839494 15.5180617,11.8495865 C15.5180617,11.6152236 15.3289961,11.4252489 15.0957547,11.4252489 L4.97849297,11.4252489 L4.72993281,10.2128945 L15.1739609,10.2128945 C15.5727859,10.2128945 15.9207164,9.928 16.0011734,9.53549367 L17.1824305,3.77427848 C17.2338625,3.52340928 17.170975,3.26555274 17.009893,3.06697046 L17.009893,3.06697046 Z" id="Fill-7" fill="#0A0B09" mask="url(#mask-4)"></path>
                </g>
            </g>
        </g>
    </g>
</svg>