<?xml version="1.0" encoding="utf-8"?>
<!-- Generator: Adobe Illustrator 23.0.2, SVG Export Plug-In . SVG Version: 6.00 Build 0)  -->
<!DOCTYPE svg PUBLIC "-//W3C//DTD SVG 1.1//EN" "http://www.w3.org/Graphics/SVG/1.1/DTD/svg11.dtd" [
	<!ENTITY ns_extend "http://ns.adobe.com/Extensibility/1.0/">
	<!ENTITY ns_ai "http://ns.adobe.com/AdobeIllustrator/10.0/">
	<!ENTITY ns_graphs "http://ns.adobe.com/Graphs/1.0/">
	<!ENTITY ns_vars "http://ns.adobe.com/Variables/1.0/">
	<!ENTITY ns_imrep "http://ns.adobe.com/ImageReplacement/1.0/">
	<!ENTITY ns_sfw "http://ns.adobe.com/SaveForWeb/1.0/">
	<!ENTITY ns_custom "http://ns.adobe.com/GenericCustomNamespace/1.0/">
	<!ENTITY ns_adobe_xpath "http://ns.adobe.com/XPath/1.0/">
]>
<svg version="1.1" id="圖層_1" xmlns:x="&ns_extend;" xmlns:i="&ns_ai;" xmlns:graph="&ns_graphs;"
	 xmlns="http://www.w3.org/2000/svg" xmlns:xlink="http://www.w3.org/1999/xlink" x="0px" y="0px" viewBox="0 0 40 30"
	 style="enable-background:new 0 0 40 30;" xml:space="preserve">
<style type="text/css">
	.st0{fill-rule:evenodd;clip-rule:evenodd;fill:#FFFFFF;fill-opacity:0;}
	.st1{fill-rule:evenodd;clip-rule:evenodd;fill:#8BCE47;stroke:#8BCE47;stroke-width:0.25;stroke-miterlimit:10;}
</style>
<metadata>
	<sfw  xmlns="&ns_sfw;">
		<slices></slices>
		<sliceSourceBounds  bottomLeftOrigin="true" height="30" width="40" x="0" y="5.4"></sliceSourceBounds>
	</sfw>
</metadata>
<title>矩形</title>
<desc>Created with Sketch.</desc>
<g id="icon">
	<g id="群組-2">
		<rect id="矩形" class="st0" width="40" height="30"/>
		<g id="truckcopy" transform="translate(2.000000, 9.000000)">
			<path id="Fill-1" class="st1" d="M7.1,13.9c-0.3,0-0.6,0.3-0.6,0.6c0,0.3-0.3,0.6-0.6,0.6c-0.3,0-0.6-0.3-0.6-0.6
				c0-0.3,0.3-0.6,0.6-0.6c0.3,0,0.6-0.3,0.6-0.6c0-0.3-0.3-0.6-0.6-0.6c-1,0-1.7,0.8-1.7,1.7c0,0.9,0.8,1.7,1.7,1.7
				c1,0,1.7-0.8,1.7-1.7C7.7,14.1,7.4,13.9,7.1,13.9z"/>
			<g id="群組">
				<g id="Clip-3">
				</g>
				<path id="Fill-2" class="st1" d="M31.4,13.6c-0.3,0-0.6,0.3-0.6,0.6c0,0.3-0.3,0.6-0.6,0.6c-0.3,0-0.6-0.3-0.6-0.6
					c0-0.3,0.3-0.6,0.6-0.6c0.3,0,0.6-0.3,0.6-0.6c0-0.3-0.3-0.6-0.6-0.6c-1,0-1.8,0.8-1.8,1.8s0.8,1.8,1.8,1.8s1.8-0.8,1.8-1.8
					C32,13.9,31.7,13.6,31.4,13.6z"/>
				<path id="Fill-4" class="st1" d="M37.5,5.9c0-0.2-0.1-0.3-0.2-0.4c-0.3-0.7-0.8-1.3-1.5-1.6c0,0,0,0-0.1,0l-2-0.7l-1.2-4.6l0,0
					c-0.4-1.3-1.6-2.1-2.9-2.1h-4.3v-1.4c0-0.7-0.5-1.2-1.2-1.2H-0.3c-0.7,0-1.2,0.5-1.2,1.2v16.7c0,0.7,0.5,1.2,1.2,1.2h2
					c-0.1,0.2-0.1,0.4-0.1,0.6h-2.5c-0.3,0-0.6,0.3-0.6,0.6c0,0.3,0.3,0.6,0.6,0.6h2.5c0.3,2,2.1,3.6,4.2,3.6s3.9-1.6,4.2-3.6h1.3
					c0,1,0.8,1.8,1.8,1.8h3.7c1,0,1.8-0.8,1.8-1.8H26c0.3,2,2.1,3.6,4.2,3.6s3.9-1.6,4.2-3.6h2.5c0.3,0,0.6-0.3,0.6-0.6
					c0-0.3-0.3-0.6-0.6-0.6h-2.5c0-0.2-0.1-0.4-0.1-0.6h2c0.7,0,1.2-0.5,1.2-1.2V6.4c0-0.1,0-0.3,0-0.4C37.5,6,37.5,5.9,37.5,5.9z
					 M35.6,9.4h0.6V8.8h-0.6V9.4z M35.8,5.3H25.3V4.1h7.8l2.2,0.8C35.5,5,35.6,5.1,35.8,5.3z M29.6-2.5c0.8,0,1.5,0.5,1.7,1.3
					l1.1,4.1h-7.1v-5.4H29.6z M2.2,11.8h-2.4v-3h18.9c0.3,0,0.6-0.3,0.6-0.6S19,7.6,18.7,7.6h-19V-4.9H24v16.7H9.5
					c-0.1,0-0.1,0-0.1,0C8.6,10.7,7.3,10,5.8,10s-2.7,0.7-3.5,1.8C2.3,11.8,2.2,11.8,2.2,11.8z M5.8,17.2c-1.7,0-3-1.3-3-3
					c0-1.6,1.4-3,3-3c1.7,0,3,1.3,3,3C8.9,15.9,7.5,17.2,5.8,17.2z M10,13.6c0-0.2-0.1-0.4-0.1-0.6h1.5c-0.1,0.2-0.1,0.4-0.1,0.6H10
					z M17.4,14.8c0,0.3-0.3,0.6-0.6,0.6h-3.7c-0.3,0-0.6-0.3-0.6-0.6v-0.6l0,0l0,0v-0.6c0-0.3,0.3-0.6,0.6-0.6h3.7
					c0.3,0,0.6,0.3,0.6,0.6V14.8z M18.5,13h7.6C26,13.2,26,13.4,26,13.6h-7.3C18.6,13.4,18.6,13.2,18.5,13z M30.2,17.2
					c-1.7,0-3-1.3-3-3c0-1.6,1.4-3,3-3c1.7,0,3,1.3,3,3C33.2,15.9,31.8,17.2,30.2,17.2z M33.8,11.8C33.7,11.8,33.7,11.8,33.8,11.8
					c-0.9-1.1-2.2-1.8-3.6-1.8c-1.5,0-2.7,0.7-3.5,1.8h-0.1h-1.2V6.4h11v1.2h-0.6c-0.7,0-1.2,0.5-1.2,1.2v0.6c0,0.7,0.5,1.2,1.2,1.2
					h0.6v1.2H33.8z"/>
			</g>
			<path id="Fill-5" class="st1" d="M13.7,13.9c-0.2,0-0.3,0.1-0.4,0.2c-0.1,0.1-0.2,0.3-0.2,0.4s0.1,0.3,0.2,0.4
				c0.1,0.1,0.3,0.2,0.4,0.2c0.2,0,0.3-0.1,0.4-0.2c0.1-0.1,0.2-0.3,0.2-0.4s-0.1-0.3-0.2-0.4C14,13.9,13.9,13.9,13.7,13.9z"/>
			<path id="Fill-6" class="st1" d="M20.9,9.1H22c0.3,0,0.6-0.3,0.6-0.6S22.3,7.9,22,7.9h-1.1c-0.3,0-0.6,0.3-0.6,0.6
				S20.6,9.1,20.9,9.1z"/>
		</g>
	</g>
</g>
</svg>
