<?xml version="1.0" encoding="UTF-8"?>
<svg width="18px" height="15px" viewBox="0 0 18 15" version="1.1" xmlns="http://www.w3.org/2000/svg" xmlns:xlink="http://www.w3.org/1999/xlink">
    <!-- Generator: Sketch 55.1 (78136) - https://sketchapp.com -->
    <title>twitter</title>
    <desc>Created with Sketch.</desc>
    <defs>
        <polygon id="path-1" points="0.00205078125 0 17.5 0 17.5 16 0.00205078125 16"></polygon>
    </defs>
    <g id="icon" stroke="none" stroke-width="1" fill="none" fill-rule="evenodd">
        <g id="twitter" transform="translate(0.000000, -1.000000)">
            <mask id="mask-2" fill="white">
                <use xlink:href="#path-1"></use>
            </mask>
            <g id="Clip-2"></g>
            <path d="M17.5,2.68328125 C16.8492188,2.96875 16.1557813,3.15796875 15.4328125,3.24984375 C16.1765625,2.80578125 16.7442188,2.10796875 17.0110938,1.266875 C16.3176562,1.6803125 15.5520312,1.97234375 14.7360938,2.1353125 C14.0776563,1.43421875 13.1392187,1 12.1154687,1 C10.1292188,1 8.53015625,2.6121875 8.53015625,4.58859375 C8.53015625,4.87296875 8.55421875,5.14640625 8.61328125,5.40671875 C5.630625,5.26125 2.99140625,3.83171875 1.2184375,1.6540625 C0.90890625,2.19109375 0.72734375,2.80578125 0.72734375,3.4675 C0.72734375,4.71 1.3671875,5.81140625 2.3209375,6.4490625 C1.74453125,6.438125 1.1790625,6.27078125 0.7,6.0071875 C0.7,6.018125 0.7,6.03234375 0.7,6.0465625 C0.7,7.79 1.94359375,9.238125 3.574375,9.57171875 C3.28234375,9.6515625 2.9640625,9.68984375 2.63375,9.68984375 C2.4040625,9.68984375 2.1721875,9.67671875 1.95453125,9.62859375 C2.419375,11.049375 3.7384375,12.0939062 5.306875,12.1278125 C4.08625,13.0826563 2.53640625,13.6579688 0.85859375,13.6579688 C0.564375,13.6579688 0.2821875,13.6448438 0,13.60875 C1.58921875,14.6335937 3.47265625,15.21875 5.50375,15.21875 C12.105625,15.21875 15.715,9.75 15.715,5.0096875 C15.715,4.85109375 15.7095312,4.69796875 15.701875,4.5459375 C16.4139063,4.040625 17.0121875,3.40953125 17.5,2.68328125" id="Fill-1" fill="#000000" mask="url(#mask-2)"></path>
        </g>
    </g>
</svg>