<?xml version="1.0" encoding="utf-8"?>
<!-- Generator: Adobe Illustrator 23.0.2, SVG Export Plug-In . SVG Version: 6.00 Build 0)  -->
<!DOCTYPE svg PUBLIC "-//W3C//DTD SVG 1.1//EN" "http://www.w3.org/Graphics/SVG/1.1/DTD/svg11.dtd" [
	<!ENTITY ns_extend "http://ns.adobe.com/Extensibility/1.0/">
	<!ENTITY ns_ai "http://ns.adobe.com/AdobeIllustrator/10.0/">
	<!ENTITY ns_graphs "http://ns.adobe.com/Graphs/1.0/">
	<!ENTITY ns_vars "http://ns.adobe.com/Variables/1.0/">
	<!ENTITY ns_imrep "http://ns.adobe.com/ImageReplacement/1.0/">
	<!ENTITY ns_sfw "http://ns.adobe.com/SaveForWeb/1.0/">
	<!ENTITY ns_custom "http://ns.adobe.com/GenericCustomNamespace/1.0/">
	<!ENTITY ns_adobe_xpath "http://ns.adobe.com/XPath/1.0/">
]>
<svg version="1.1" id="圖層_1" xmlns:x="&ns_extend;" xmlns:i="&ns_ai;" xmlns:graph="&ns_graphs;"
	 xmlns="http://www.w3.org/2000/svg" xmlns:xlink="http://www.w3.org/1999/xlink" x="0px" y="0px" viewBox="0 0 40 40"
	 style="enable-background:new 0 0 40 40;" xml:space="preserve">
<style type="text/css">
	.st0{fill-rule:evenodd;clip-rule:evenodd;fill:#FFFFFF;}
	.st1{fill-rule:evenodd;clip-rule:evenodd;fill:#87C749;}
</style>
<metadata>
	<sfw  xmlns="&ns_sfw;">
		<slices></slices>
		<sliceSourceBounds  bottomLeftOrigin="true" height="40" width="40" x="0.5" y="0.5"></sliceSourceBounds>
	</sfw>
</metadata>
<title>群組 7</title>
<desc>Created with Sketch.</desc>
<g id="icon">
	<g id="群組-7" transform="translate(1.000000, 1.000000)">
		<circle id="橢圓形_1_" class="st0" cx="19" cy="19" r="20"/>
		<circle id="橢圓形" class="st1" cx="19" cy="19" r="19"/>
		<g id="twitter" transform="translate(13.631579, 14.736842)">
			<path id="Fill-1" class="st0" d="M13,0.3c-0.5,0.2-1.1,0.4-1.7,0.4c0.6-0.3,1-0.9,1.3-1.5c-0.6,0.3-1.2,0.5-1.8,0.7
				C10.3-0.7,9.5-1,8.7-1C7.1-1,5.8,0.2,5.8,1.8c0,0.2,0,0.4,0.1,0.6C3.5,2.3,1.4,1.2,0-0.5c-0.3,0.4-0.4,0.9-0.4,1.4
				c0,1,0.5,1.8,1.3,2.3C0.4,3.2,0,3.1-0.4,2.9l0,0c0,1.3,1,2.5,2.3,2.7C1.6,5.7,1.4,5.7,1.1,5.7c-0.2,0-0.4,0-0.5,0
				C1,6.8,2,7.6,3.3,7.6c-1,0.7-2.2,1.2-3.6,1.2c-0.2,0-0.5,0-0.7,0C0.3,9.6,1.8,10,3.4,10c5.3,0,8.2-4.2,8.2-7.9c0-0.1,0-0.2,0-0.4
				C12.1,1.4,12.6,0.9,13,0.3"/>
		</g>
	</g>
</g>
</svg>
