<?xml version="1.0" encoding="UTF-8"?>
<svg width="261px" height="24px" viewBox="0 0 261 24" version="1.1" xmlns="http://www.w3.org/2000/svg" xmlns:xlink="http://www.w3.org/1999/xlink">
    <!-- Generator: Sketch 55.1 (78136) - https://sketchapp.com -->
    <title>群組 18</title>
    <desc>Created with Sketch.</desc>
    <defs>
        <polygon id="path-1" points="0 0.0725294118 22.6207941 0.0725294118 22.6207941 21 0 21"></polygon>
    </defs>
    <g id="icon" stroke="none" stroke-width="1" fill="none" fill-rule="evenodd">
        <g id="群組-18" transform="translate(-13.000000, 0.000000)">
            <rect id="矩形copycopy" fill="#FFFFFF" opacity="0" x="0" y="0" width="286" height="23"></rect>
            <g id="群組-10" transform="translate(13.000000, 1.000000)">
                <g id="FamilyMart全家便利商店LOGO-1" transform="translate(183.512847, 0.000000)">
                    <g id="群組">
                        <mask id="mask-2" fill="white">
                            <use xlink:href="#path-1"></use>
                        </mask>
                        <g id="Clip-2"></g>
                        <path d="M11.3131765,20.9974412 C7.57597059,20.9974412 3.83885294,20.9970882 0.101647059,21.0000003 C0.0133235294,21.0000003 0,20.9791765 0,20.8957941 C0.00238235294,13.9895294 0.00238235294,7.08335294 0,0.177088235 C0,0.0941470588 0.0125294118,0.0725294118 0.101382353,0.0725294118 C7.57226471,0.0753529412 15.0430588,0.0753529412 22.5139412,0.0725294118 C22.6065882,0.0725294118 22.6207941,0.0956470588 22.6207941,0.182117647 C22.6184118,7.08838235 22.6185,13.9945588 22.6204412,20.9008235 C22.6204412,20.9775882 22.6073824,20.9997353 22.5247059,20.9996471 C18.7875882,20.9971765 15.0503824,20.9974412 11.3131765,20.9974412" id="Fill-1" fill="#FEFDFC" mask="url(#mask-2)"></path>
                    </g>
                    <path d="M11.2384412,0.650558824 C14.7285,0.650558824 18.2186471,0.651088235 21.7087059,0.648087972 C21.8137941,0.648087972 21.841942,0.670058824 21.841942,0.779294118 C21.8384118,3.64129412 21.8385,6.50320588 21.841942,9.36511765 C21.841942,9.47214706 21.8171471,9.49755905 21.7097647,9.49755905 C14.7260294,9.49473529 7.74238235,9.49491176 0.758647059,9.49491176 C0.620117646,9.49491176 0.620117646,9.49482353 0.620117646,9.36088235 C0.620117646,6.5025 0.620117646,3.64411765 0.620117646,0.785735294 C0.620117646,0.650735294 0.620117646,0.650647059 0.757588235,0.650647059 C4.25117647,0.650647059 7.74485294,0.650647059 11.2384412,0.650558824" id="Fill-3" fill="#3F9846"></path>
                    <path d="M11.2281176,20.2987059 C7.73752941,20.2987059 4.24694118,20.2982647 0.756441176,20.3008235 C0.651176471,20.3009118 0.615088235,20.2818529 0.616543589,20.1661765 C0.623558824,19.5945 0.621352941,19.0226471 0.617911765,18.4508824 C0.617382353,18.3688235 0.637235294,18.3447353 0.722470588,18.3448233 C7.72473529,18.3469412 14.7269118,18.3469412 21.7291765,18.345 C21.8151176,18.345 21.8416765,18.3638824 21.84099,18.4541471 C21.8365588,19.0294412 21.8363824,19.6047353 21.84099,20.1800294 C21.8417647,20.2756765 21.8184706,20.3010882 21.7208824,20.3010002 C18.2232353,20.2982647 14.7256765,20.2987059 11.2281176,20.2987059" id="Fill-4" fill="#2C6AA4"></path>
                    <path d="M15.1005882,13.2700588 C14.9071765,13.4976176 14.7129706,13.7244706 14.5206176,13.953 C14.3696471,14.1322059 14.3715882,14.1322941 14.2209706,13.9514118 C14.0295,13.7215588 13.8365294,13.4930294 13.6383529,13.257 C13.6124118,13.2979412 13.6224706,13.3362353 13.6224706,13.3712647 C13.6216765,13.9391471 13.6200882,14.5071176 13.6239706,15.075 C13.6245,15.1592647 13.6014706,15.1832647 13.5179118,15.1797353 C13.3594412,15.1729412 13.2004412,15.1755882 13.0417941,15.1791176 C12.9810882,15.1804412 12.963882,15.1595294 12.9640588,15.1001471 C12.9655588,14.1653824 12.9657353,13.2306176 12.963882,12.2958529 C12.9637941,12.2313529 12.9822353,12.2096471 13.0476176,12.2114118 C13.2027353,12.2154706 13.3581176,12.2158235 13.5131471,12.2110588 C13.5768529,12.2091176 13.6178824,12.2332059 13.6570588,12.279 C13.8659118,12.5223529 14.0767059,12.7640294 14.2866176,13.0064118 C14.3694706,13.1020588 14.3697353,13.1025882 14.4566471,13.0037647 C14.6661176,12.7655294 14.8765588,12.5281765 15.0833824,12.2876471 C15.1312941,12.2320588 15.1812353,12.2077059 15.2553529,12.2109706 C15.3892059,12.2168824 15.5236765,12.2178529 15.6573529,12.2107059 C15.7414412,12.2062941 15.7630588,12.2327647 15.7626242,12.3159706 C15.7592647,12.972 15.7607647,13.6281176 15.7607647,14.2842353 C15.7607647,14.5487647 15.7580294,14.8133824 15.7625294,15.0778235 C15.7637647,15.1534412 15.7489412,15.1837941 15.6655588,15.1796471 C15.5177647,15.1724118 15.3690882,15.1727647 15.2212941,15.1797353 C15.1373824,15.1837941 15.1233529,15.1513235 15.1237941,15.0762353 C15.1265294,14.5153235 15.1252059,13.9545 15.1252059,13.3936765 C15.1252059,13.3556471 15.1252059,13.3177059 15.1252059,13.2797647 C15.117,13.2765 15.1087941,13.2732353 15.1005882,13.2700588" id="Fill-5" fill="#2C6BA4"></path>
                    <path d="M6.18670588,13.2848824 C6.45414706,13.0842353 6.71091176,13.0747941 6.97747059,13.1429118 C7.06738235,13.1659412 7.15164706,13.2073235 7.20908824,13.2825 C7.24658824,13.3317353 7.26732353,13.3137353 7.30747059,13.2867353 C7.59097059,13.0953529 7.89679412,13.0625294 8.21391176,13.1844706 C8.42161765,13.2642353 8.53491176,13.4275588 8.53755882,13.6494706 C8.54338235,14.1326471 8.53879412,14.6159118 8.54055882,15.0991765 C8.54082353,15.1566176 8.52705882,15.1809706 8.46432353,15.1792059 C8.31979412,15.1749706 8.17508824,15.1751471 8.03047059,15.1789412 C7.9695,15.1805294 7.9515,15.1584706 7.95194118,15.0998824 C7.95485294,14.7048529 7.95247059,14.3097353 7.95767647,13.9147941 C7.95997059,13.7417647 7.87120588,13.6416176 7.68891176,13.6327941 C7.51897059,13.6245 7.39491176,13.7293235 7.39376471,13.8930882 C7.39076471,14.2881176 7.39076471,14.6832353 7.39447059,15.0782647 C7.39517647,15.1538824 7.38123529,15.1841471 7.29785294,15.1795588 C7.16064706,15.1720588 7.02264706,15.1739118 6.88526471,15.1795588 C6.81344118,15.1825588 6.79773529,15.1567059 6.79826471,15.0895588 C6.80126471,14.7121765 6.79994118,14.3347059 6.79985294,13.9572353 C6.79976471,13.7921471 6.74647059,13.7115882 6.615,13.6761176 C6.46667647,13.6362353 6.29223529,13.7010882 6.22473529,13.8193235 C6.20391176,13.8557647 6.20708824,13.8940588 6.20708824,13.9324412 C6.20682353,14.3169706 6.20488235,14.7014118 6.20867647,15.0858529 C6.20938235,15.1604118 6.18908824,15.1826471 6.11497059,15.1792059 C5.98826471,15.1732059 5.86102941,15.1757647 5.73414706,15.1788529 C5.67538235,15.1802647 5.64547059,15.1703824 5.64573355,15.0993529 C5.64838235,14.4644118 5.64794118,13.8295588 5.64626471,13.1945294 C5.64608824,13.1355882 5.66285294,13.1136176 5.72347059,13.1156471 C5.83623529,13.1193529 5.94926471,13.119 6.06202941,13.1155588 C6.15714706,13.1127353 6.25305882,13.1018824 6.18670588,13.2848824" id="Fill-6" fill="#2C6BA4"></path>
                    <path d="M1.56591176,13.6975588 C1.56591176,13.2355588 1.56785294,12.7735588 1.56404023,12.3115588 C1.56335294,12.2330294 1.5825,12.2101765 1.66305882,12.2106969 C2.24144118,12.2142353 2.81982353,12.2145882 3.39820588,12.2106969 C3.48423529,12.2101765 3.50611765,12.237 3.50161765,12.318 C3.49526471,12.4340294 3.49482353,12.5510294 3.50214706,12.6669706 C3.50752941,12.7525588 3.48485294,12.7812353 3.39388235,12.7799118 C3.02011765,12.7746176 2.64617647,12.7806176 2.27241176,12.7755882 C2.18267647,12.7744412 2.15779412,12.8016176 2.16370588,12.8881765 C2.17129412,13.0005 2.16944118,13.1139706 2.16405882,13.2265588 C2.16070588,13.2963529 2.18329412,13.3160294 2.253,13.3154118 C2.63382353,13.3121471 3.01482353,13.3159412 3.39564706,13.3119706 C3.47602941,13.3111765 3.50761765,13.3291765 3.50205882,13.4157353 C3.49411765,13.5386471 3.49605882,13.6626176 3.50144118,13.7858824 C3.50470588,13.8593824 3.4815,13.8814412 3.40694118,13.8807353 C3.02964706,13.8771176 2.65226471,13.8817941 2.27488235,13.8769412 C2.18752941,13.8757941 2.16229412,13.899 2.16344118,13.9875 C2.16847059,14.3506765 2.16352941,14.7140294 2.16714706,15.0772059 C2.16794118,15.1527353 2.15338235,15.1841471 2.06964706,15.1796471 C1.93252941,15.1722353 1.79444118,15.1732941 1.65723529,15.1795588 C1.58002941,15.1831765 1.56397059,15.1553824 1.56441176,15.0836471 C1.56732353,14.6216471 1.56591176,14.1595588 1.56591176,13.6975588" id="Fill-7" fill="#2C6BA4"></path>
                    <path d="M11.0363824,16.0634118 C11.1206471,15.8592353 11.1996176,15.6680294 11.2785882,15.4768235 C11.331,15.3499412 11.3802353,15.2214706 11.4372353,15.0966176 C11.4661765,15.0333529 11.4637941,14.9788235 11.4377647,14.9158235 C11.2059706,14.3563235 10.9765588,13.7959412 10.7463529,13.2358235 C10.7025,13.1288824 10.7025,13.1287941 10.8180882,13.1287941 C10.9591765,13.1287941 11.1002647,13.1315294 11.2411765,13.1277353 C11.3017059,13.1261471 11.3332059,13.1415 11.3571176,13.2032647 C11.4763235,13.5118235 11.6022353,13.8177353 11.7260294,14.1245294 C11.7401471,14.1595588 11.7553235,14.1940588 11.7791471,14.2506176 C11.8892647,13.9588235 11.9906471,13.6877647 12.0941471,13.4175 C12.1305,13.3225588 12.1374706,13.1921471 12.2146765,13.1438824 C12.2862353,13.0992353 12.4056176,13.1303824 12.5039118,13.1294118 C12.5780294,13.1285294 12.6525882,13.1356765 12.7259118,13.1283529 C12.8122059,13.1197941 12.8184706,13.1473235 12.7896176,13.2200294 C12.6184412,13.6519412 12.4505294,14.0852647 12.2812941,14.5178824 C12.0915,15.0030882 11.8994118,15.4874118 11.7135882,15.9741176 C11.6857941,16.0468235 11.6497941,16.0670294 11.5768235,16.0650882 C11.4017647,16.0601471 11.2264412,16.0634118 11.0363824,16.0634118" id="Fill-8" fill="#2C6BA4"></path>
                    <path d="M17.8425882,15.1773529 C17.6610882,15.1773529 17.4960882,15.1773529 17.3310882,15.1773529 C17.3056765,15.1773529 17.2814118,15.177 17.2784118,15.1418824 C17.2669412,15.0087353 17.2040294,15.0518824 17.1320294,15.0955588 C16.8430588,15.2710588 16.3731176,15.1843235 16.1687647,14.9206765 C15.9293824,14.6119412 16.0363235,14.1516176 16.4001176,13.9258235 C16.5955588,13.8046765 16.8110294,13.788 17.0329412,13.806 C17.0468824,13.8070588 17.061,13.8138529 17.0745882,13.8127941 C17.1216176,13.8091765 17.1888529,13.8532941 17.2101176,13.812 C17.2391471,13.7557059 17.1859412,13.6995 17.1457941,13.6558235 C17.0937353,13.5990882 17.0237647,13.572 16.9482353,13.5642353 C16.7288824,13.5417353 16.5191471,13.5688235 16.3288235,13.6905882 C16.3149706,13.6994118 16.2992647,13.7055 16.2694412,13.7203235 C16.2694412,13.5541765 16.2707647,13.4009118 16.2687353,13.2475588 C16.2681176,13.2014118 16.2950294,13.1863235 16.3308529,13.1758235 C16.6807059,13.0731176 17.0324118,13.0479706 17.3790882,13.1801471 C17.6524412,13.2843529 17.7808235,13.4857059 17.7811765,13.7763529 C17.7814412,14.0798824 17.7795,14.3833235 17.7817941,14.6868529 C17.7829412,14.8478824 17.7585,15.0119118 17.8425882,15.1773529" id="Fill-9" fill="#2C6BA4"></path>
                    <path d="M5.32844118,15.1775294 C5.15232353,15.1775294 4.98414706,15.1777059 4.81588235,15.1774412 C4.78826471,15.1774412 4.76823529,15.1678235 4.767,15.1355294 C4.76241176,15.0155294 4.70788235,15.0522353 4.63711765,15.0865588 C4.36261765,15.2198824 4.08264706,15.2294118 3.82111765,15.0637059 C3.45379412,14.8309412 3.43588235,14.3236765 3.77223529,14.0179412 C3.98726471,13.8224118 4.24491176,13.7818235 4.52135294,13.8060882 C4.54941176,13.8085588 4.57729412,13.8169412 4.60517647,13.8168529 C4.63905882,13.8166765 4.68494118,13.8441176 4.70391176,13.8112059 C4.72261765,13.7788235 4.69844118,13.7367353 4.67744118,13.7031176 C4.62264706,13.6149706 4.53855882,13.5752647 4.43982353,13.5642353 C4.2015,13.5376765 3.97773529,13.5791471 3.75988235,13.7296765 C3.75988235,13.5562941 3.76023529,13.3999412 3.75970588,13.2435 C3.75952941,13.2100588 3.77532353,13.1914412 3.80629412,13.1825294 C4.20970588,13.0661471 4.61108824,13.0270588 4.99482353,13.2442941 C5.18444118,13.3516765 5.27488235,13.5259412 5.27497059,13.7447647 C5.27532353,14.1187059 5.27735294,14.4926471 5.27373529,14.8665882 C5.27267647,14.9706176 5.29164706,15.0689118 5.32844118,15.1775294" id="Fill-10" fill="#2C6BA4"></path>
                    <path d="M20.9000294,14.6095588 C20.9000294,14.7600882 20.8984412,14.9043529 20.901,15.0485294 C20.9017059,15.0926471 20.8831765,15.1102941 20.8440882,15.1216765 C20.6622353,15.1744412 20.4765,15.1977353 20.2905,15.1634118 C20.0134412,15.1124118 19.8477353,14.8944706 19.8450882,14.5905 C19.8426176,14.3119412 19.8424412,14.0333824 19.8458824,13.7549118 C19.8466765,13.6871471 19.8295588,13.6639412 19.7586176,13.665 C19.6757647,13.6662353 19.5652059,13.7055882 19.5167647,13.6455 C19.4764412,13.5954706 19.5038824,13.4902941 19.5025588,13.4095588 C19.5015,13.3425882 19.5062647,13.2752647 19.5010588,13.2086471 C19.4958529,13.1411471 19.5240882,13.1190882 19.5864706,13.1285294 C19.5899118,13.1290588 19.5935294,13.1286176 19.5970588,13.1286176 C19.8443824,13.1265 19.8443824,13.1265 19.8443824,12.8731765 C19.8443824,12.6533824 19.8442941,12.6530294 20.0539412,12.5820882 C20.1606176,12.5459118 20.2677353,12.5111471 20.3749412,12.4764706 C20.3842059,12.4734706 20.3952353,12.4760294 20.4132353,12.4760294 C20.4132353,12.6637059 20.4166765,12.8502353 20.4115588,13.0365882 C20.4093529,13.1125588 20.4356471,13.1339118 20.5078235,13.1302941 C20.6097353,13.1251765 20.7123529,13.1322353 20.8144412,13.1278235 C20.8735588,13.1252647 20.8971176,13.1429118 20.8956176,13.2041471 C20.8923529,13.3344706 20.8927059,13.4650588 20.895,13.5954706 C20.8959706,13.6504412 20.8754118,13.6697647 20.8204412,13.6680882 C20.7112059,13.6647353 20.6017941,13.6695 20.4926471,13.6658824 C20.4358235,13.6640294 20.4111176,13.6772647 20.4120882,13.7409706 C20.4155294,13.9735588 20.4109412,14.2064118 20.4142059,14.439 C20.4162353,14.5844118 20.4785294,14.6408824 20.6226176,14.6481176 C20.715,14.6527941 20.8031471,14.6300294 20.9000294,14.6095588" id="Fill-11" fill="#2C6BA4"></path>
                    <path d="M9.91570588,13.7022353 C9.91570588,13.2398824 9.91808824,12.7775294 9.9135,12.3152647 C9.91270588,12.2285294 9.94005882,12.2070882 10.0212353,12.2109706 C10.1515588,12.2171471 10.2826765,12.2181176 10.4128235,12.2106176 C10.4963824,12.2057647 10.5108529,12.2367353 10.5105882,12.3127059 C10.5082059,13.2373235 10.5081176,14.1620294 10.5107657,15.0866471 C10.5109412,15.1627059 10.488,15.1820294 10.4155588,15.1792059 C10.2781765,15.1737353 10.1401765,15.1738235 10.0027941,15.1793824 C9.93105882,15.1823824 9.91394118,15.1571471 9.91429412,15.0892059 C9.91685294,14.6268529 9.91561765,14.1645 9.91570588,13.7022353" id="Fill-12" fill="#2C6BA4"></path>
                    <path d="M19.3788529,13.7940882 C19.2165,13.7609118 19.0639412,13.7142353 18.9028235,13.7518235 C18.7436471,13.7889706 18.6921176,13.8478235 18.6920294,14.0102647 C18.6917647,14.3666471 18.6895588,14.7229412 18.6937941,15.0791471 C18.6946765,15.1586471 18.6731471,15.1829118 18.5932059,15.1792941 C18.4488529,15.1727647 18.3039706,15.1755882 18.1593529,15.1786765 C18.1060588,15.1798235 18.0855882,15.1662353 18.0857636,15.1087059 C18.0876176,14.4701471 18.0874412,13.8316765 18.0861176,13.1931176 C18.0860294,13.1415 18.1035882,13.1268529 18.1535294,13.1280882 C18.2840294,13.1311765 18.4147941,13.1339118 18.5450294,13.1275588 C18.6405,13.1228824 18.7168235,13.1260588 18.6868235,13.2783529 C18.8867647,13.1051471 19.0942059,13.1167941 19.308,13.1768824 C19.3467353,13.1877353 19.3804412,13.1967353 19.3797462,13.2502941 C19.3774412,13.4297647 19.3788529,13.6094118 19.3788529,13.7940882" id="Fill-13" fill="#2C6BA4"></path>
                    <path d="M8.96311765,14.1469412 C8.96320588,13.8363529 8.96541176,13.5257647 8.96152941,13.2152647 C8.96064706,13.1442353 8.98288235,13.1246471 9.05117647,13.1272941 C9.18158824,13.1321471 9.31235294,13.1314412 9.44285294,13.1279118 C9.50135294,13.1263235 9.5235,13.1428235 9.52323764,13.2046765 C9.52067647,13.8362647 9.51988235,14.4679412 9.52067647,15.0997059 C9.52076471,15.1589118 9.50329412,15.1804412 9.44258824,15.1787647 C9.31217647,15.1750588 9.18132353,15.1737353 9.051,15.1792941 C8.97961765,15.1823824 8.961,15.1575 8.96170588,15.0891176 C8.96470588,14.7750882 8.96294118,14.4609706 8.96311765,14.1469412" id="Fill-14" fill="#2D6BA4"></path>
                    <path d="M9.61914706,12.5710588 C9.62047059,12.7778824 9.45970588,12.9394412 9.25252941,12.9395294 C9.03123529,12.9396176 8.85679412,12.7761176 8.85891176,12.5706176 C8.86094118,12.3669706 9.03202941,12.2063824 9.24697059,12.2062941 C9.45458824,12.2062059 9.61791176,12.3662647 9.61914706,12.5710588" id="Fill-15" fill="#2D6BA4"></path>
                    <path d="M17.2221176,14.4599118 C17.2221176,14.6636471 17.2027941,14.6872059 17.0001176,14.7204706 C16.9372059,14.7307941 16.8747353,14.7281471 16.8119118,14.7112941 C16.6558235,14.6695588 16.59,14.5972059 16.5974118,14.4689118 C16.6055294,14.3308235 16.7117647,14.2174412 16.8517941,14.2013824 C16.8934412,14.1966176 16.9363235,14.1981176 16.9783235,14.2009412 C17.2093235,14.2165588 17.2220294,14.2306765 17.2221176,14.4599118" id="Fill-16" fill="#FEFEFB"></path>
                    <path d="M4.71256231,14.4568235 C4.71238235,14.6626765 4.67964706,14.7000882 4.47344118,14.7231176 C4.41776471,14.7292941 4.36208824,14.7263824 4.30641176,14.7116471 C4.14882353,14.67 4.08414706,14.6000294 4.08997059,14.4709412 C4.09605882,14.3348824 4.20123529,14.2201765 4.34126471,14.2016471 C4.38264706,14.1960882 4.42544118,14.1983824 4.46744118,14.2008529 C4.69861765,14.2146176 4.71282353,14.2299706 4.71256231,14.4568235" id="Fill-17" fill="#FEFDFC"></path>
                </g>
                <g id="visa" transform="translate(0.357777, 5.000000)">
                    <polyline id="Fill-1" fill="#304D8F" points="14.7731092 12 16.7800779 0.857142857 19.9159664 0.857142857 17.9717155 12 14.7731092 12"></polyline>
                    <polyline id="Fill-2" fill="#333473" points="14.7731092 12 17.3445378 0.857142857 19.9159664 0.857142857 17.9717155 12 14.7731092 12"></polyline>
                    <path d="M28.487395,0.505263158 C27.8711485,0.252631579 26.8851541,0 25.6526611,0 C22.5714286,0 20.3529412,1.57894737 20.3529412,3.85263158 C20.3529412,5.55789474 21.8935574,6.44210526 23.1260504,7.01052632 C24.3585434,7.57894737 24.7282913,7.95789474 24.7282913,8.46315789 C24.7282913,9.22105263 23.7422969,9.6 22.8795518,9.6 C21.6470588,9.6 20.9691877,9.41052632 19.9215686,8.96842105 L19.4901961,8.77894737 L19.0588235,11.3684211 C19.7983193,11.6842105 21.1540616,12 22.5714286,12 C25.837535,12 27.9943978,10.4210526 27.9943978,8.02105263 C27.9943978,6.69473684 27.1932773,5.68421053 25.3445378,4.86315789 C24.2352941,4.29473684 23.557423,3.97894737 23.557423,3.41052632 C23.557423,2.90526316 24.1120448,2.4 25.3445378,2.4 C26.3921569,2.4 27.1316527,2.58947368 27.6862745,2.84210526 L27.9943978,2.96842105 L28.487395,0.505263158" id="Fill-3" fill="#304D8F"></path>
                    <path d="M28.487395,0.505263158 C27.8711485,0.252631579 26.8851541,0 25.6526611,0 C22.5714286,0 20.907563,1.57894737 20.907563,3.85263158 C20.907563,5.55789474 21.8935574,6.44210526 23.1260504,7.01052632 C24.3585434,7.57894737 24.7282913,7.95789474 24.7282913,8.46315789 C24.7282913,9.22105263 23.7422969,9.6 22.8795518,9.6 C21.6470588,9.6 20.9691877,9.41052632 19.9215686,8.96842105 L19.4901961,8.77894737 L19.0588235,11.3684211 C19.7983193,11.6842105 21.1540616,12 22.5714286,12 C25.837535,12 27.9943978,10.4210526 27.9943978,8.02105263 C27.9943978,6.69473684 27.1932773,5.68421053 25.3445378,4.86315789 C24.2352941,4.29473684 23.557423,3.97894737 23.557423,3.41052632 C23.557423,2.90526316 24.1120448,2.4 25.3445378,2.4 C26.3921569,2.4 27.1316527,2.58947368 27.6862745,2.84210526 L27.9943978,2.96842105 L28.487395,0.505263158" id="Fill-4" fill="#333473"></path>
                    <path d="M33.2629052,8.28571429 C33.4465786,7.72857143 34.487395,5.0047619 34.487395,5.0047619 C34.487395,5.0047619 34.7322929,4.32380952 34.9159664,3.89047619 L35.0996399,4.94285714 C35.0996399,4.94285714 35.7118848,7.72857143 35.8343337,8.34761905 L33.2629052,8.34761905 L33.2629052,8.28571429 Z M34.6710684,0.857142857 C33.9363745,0.857142857 33.3853541,0.919047619 33.0792317,1.66190476 L28.487395,12 L31.7935174,12 L32.4057623,10.1428571 L36.3241297,10.1428571 L36.6914766,12 L39.6302521,12 L37.0588235,0.857142857 L34.6710684,0.857142857 L34.6710684,0.857142857 Z" id="Fill-5" fill="#304D8F"></path>
                    <path d="M33.2629052,8.28571429 C33.5078031,7.66666667 34.487395,5.0047619 34.487395,5.0047619 C34.487395,5.0047619 34.7322929,4.32380952 34.9159664,3.89047619 L35.0996399,4.94285714 C35.0996399,4.94285714 35.7118848,7.72857143 35.8343337,8.34761905 L33.2629052,8.34761905 L33.2629052,8.28571429 Z M35.4057623,0.857142857 C34.6710684,0.857142857 34.120048,0.919047619 33.8139256,1.66190476 L28.487395,12 L31.7935174,12 L32.4057623,10.1428571 L36.3241297,10.1428571 L36.6914766,12 L39.6302521,12 L37.0588235,0.857142857 L35.4057623,0.857142857 L35.4057623,0.857142857 Z" id="Fill-6" fill="#333473"></path>
                    <path d="M9.1302521,8.5952381 L8.82072829,6.98571429 C8.26358543,5.12857143 6.46834734,3.08571429 4.48739496,2.0952381 L7.27310924,12 L10.6159664,12 L15.6302521,0.857142857 L12.287395,0.857142857 L9.1302521,8.5952381" id="Fill-7" fill="#304D8F"></path>
                    <path d="M9.1302521,8.5952381 L8.82072829,6.98571429 C8.26358543,5.12857143 6.46834734,3.08571429 4.48739496,2.0952381 L7.27310924,12 L10.6159664,12 L15.6302521,0.857142857 L12.9064426,0.857142857 L9.1302521,8.5952381" id="Fill-8" fill="#333473"></path>
                    <path d="M0.201680672,0.857142857 L0.777373636,0.977142857 C4.87119027,1.87714286 7.6856892,4.15714286 8.77310924,6.85714286 L7.62172332,1.75714286 C7.42982566,1.03714286 6.8541327,0.857142857 6.15050796,0.857142857 L0.201680672,0.857142857" id="Fill-9" fill="#EFA639"></path>
                    <path d="M0.201680672,0.857142857 L0.201680672,0.857142857 C4.2954973,1.76623377 7.6856892,4.12987013 8.77310924,6.85714286 L7.6856892,2.55411255 C7.49379155,1.82683983 6.8541327,1.4025974 6.15050796,1.4025974 L0.201680672,0.857142857" id="Fill-10" fill="#E9833A"></path>
                    <path d="M0.201680672,0.857142857 L0.201680672,0.857142857 C4.2954973,1.76623377 7.6856892,4.12987013 8.77310924,6.85714286 L8.00551863,4.49350649 C7.81362097,3.76623377 7.55775743,3.03896104 6.66223504,2.73593074 L0.201680672,0.857142857" id="Fill-11" fill="#E46A34"></path>
                    <path d="M12.2016807,8.14285714 L10.0864733,5.95714286 L9.09108159,8.4 L8.84223367,6.79285714 C8.28232583,4.86428571 6.47817837,2.74285714 4.48739496,1.71428571 L7.28693413,12 L10.6463811,12 L12.2016807,8.14285714" id="Fill-12" fill="#1D1B35"></path>
                    <polyline id="Fill-13" fill="#1D1B35" points="17.3445378 12 14.4537815 9.42857143 13.9159664 12 17.3445378 12"></polyline>
                    <path d="M25.0786037,7.71428571 L25.0786037,7.71428571 C25.3159664,7.97014925 25.4346477,8.16204691 25.375307,8.41791045 C25.375307,9.18550107 24.4258565,9.56929638 23.5950873,9.56929638 C22.4082741,9.56929638 21.7555268,9.37739872 20.7467356,8.92963753 L20.331351,8.73773987 L19.9159664,11.3603412 C20.6280543,11.6801706 21.9335488,12 23.298384,12 C25.1972851,12 26.7401422,11.424307 27.6302521,10.4008529 L25.0786037,7.71428571" id="Fill-14" fill="#1D1B35"></path>
                    <path d="M28.487395,12 L31.480048,12 L32.1167827,10.0370774 L36.1918848,10.0370774 L36.5739256,12 L39.6302521,12 L38.5478031,7.22355507 L34.727395,3.42857143 L34.9184154,4.47546347 C34.9184154,4.47546347 35.5551501,7.41984733 35.682497,8.07415485 L33.0082113,8.07415485 C33.2629052,7.41984733 34.2816807,4.60632497 34.2816807,4.60632497 C34.2816807,4.60632497 34.5363745,3.8865867 34.727395,3.42857143" id="Fill-15" fill="#1D1B35"></path>
                </g>
                <g id="mastercard" transform="translate(70.454174, 1.000000)">
                    <path d="M33.1578947,9.98684211 C33.1578947,15.4605263 28.7368421,19.9342105 23.2105263,19.9342105 C17.7368421,19.9342105 13.2631579,15.4605263 13.2631579,9.98684211 C13.2631579,4.51315789 17.6842105,0.0394736842 23.1578947,0.0394736842 C28.7368421,0.0394736842 33.1578947,4.51315789 33.1578947,9.98684211" id="Fill-1" fill="#EE9F39"></path>
                    <path d="M23.2105263,0.0394736842 C28.6842105,0.0394736842 33.1578947,4.51315789 33.1578947,9.98684211 C33.1578947,15.4605263 28.7368421,19.9342105 23.2105263,19.9342105 C17.7368421,19.9342105 13.2631579,15.4605263 13.2631579,9.98684211" id="Fill-2" fill="#E9833A"></path>
                    <path d="M23.2105263,0.0394736842 C28.6842105,0.0394736842 33.1578947,4.51315789 33.1578947,9.98684211 C33.1578947,15.4605263 28.7368421,19.9342105 23.2105263,19.9342105" id="Fill-3" fill="#E46F37"></path>
                    <path d="M9.84210526,0.0394736842 C4.42105263,0.0921052632 0,4.51315789 0,9.98684211 C0,15.4605263 4.42105263,19.9342105 9.94736842,19.9342105 C12.5263158,19.9342105 14.8421053,18.9342105 16.6315789,17.3552632 C17,17.0394737 17.3157895,16.6710526 17.6315789,16.3026316 L15.5789474,16.3026316 C15.3157895,15.9868421 15.0526316,15.6184211 14.8421053,15.3026316 L18.3684211,15.3026316 C18.5789474,14.9868421 18.7894737,14.6184211 18.9473684,14.25 L14.2631579,14.25 C14.1052632,13.9342105 13.9473684,13.5657895 13.8421053,13.1973684 L19.3157895,13.1973684 C19.6315789,12.1973684 19.8421053,11.1447368 19.8421053,10.0394737 C19.8421053,9.30263158 19.7368421,8.61842105 19.6315789,7.93421053 L13.5263158,7.93421053 C13.5789474,7.56578947 13.6842105,7.25 13.7894737,6.88157895 L19.2631579,6.88157895 C19.1578947,6.51315789 19,6.14473684 18.8421053,5.82894737 L14.2105263,5.82894737 C14.3684211,5.46052632 14.5789474,5.14473684 14.7894737,4.77631579 L18.3157895,4.77631579 C18.1052632,4.40789474 17.8421053,4.03947368 17.5263158,3.72368421 L15.5789474,3.72368421 C15.8947368,3.35526316 16.2105263,3.03947368 16.5789474,2.72368421 C14.8421053,1.09210526 12.4736842,0.144736842 9.89473684,0.144736842 C9.89473684,0.0394736842 9.89473684,0.0394736842 9.84210526,0.0394736842" id="Fill-4" fill="#DD4352"></path>
                    <path d="M0,9.98684211 C0,15.4605263 4.42105263,19.9342105 9.94736842,19.9342105 C12.5263158,19.9342105 14.8421053,18.9342105 16.6315789,17.3552632 C17,17.0394737 17.3157895,16.6710526 17.6315789,16.3026316 L15.5789474,16.3026316 C15.3157895,15.9868421 15.0526316,15.6184211 14.8421053,15.3026316 L18.3684211,15.3026316 C18.5789474,14.9868421 18.7894737,14.6184211 18.9473684,14.25 L14.2631579,14.25 C14.1052632,13.9342105 13.9473684,13.5657895 13.8421053,13.1973684 L19.3157895,13.1973684 C19.6315789,12.1973684 19.8421053,11.1447368 19.8421053,10.0394737 C19.8421053,9.30263158 19.7368421,8.61842105 19.6315789,7.93421053 L13.5263158,7.93421053 C13.5789474,7.56578947 13.6842105,7.25 13.7894737,6.88157895 L19.2631579,6.88157895 C19.1578947,6.51315789 19,6.14473684 18.8421053,5.82894737 L14.2105263,5.82894737 C14.3684211,5.46052632 14.5789474,5.14473684 14.7894737,4.77631579 L18.3157895,4.77631579 C18.1052632,4.40789474 17.8421053,4.03947368 17.5263158,3.72368421 L15.5789474,3.72368421 C15.8947368,3.35526316 16.2105263,3.03947368 16.5789474,2.72368421 C14.8421053,1.09210526 12.4736842,0.144736842 9.89473684,0.144736842 L9.84210526,0.144736842" id="Fill-5" fill="#DB3242"></path>
                    <path d="M9.94736842,19.9342105 C12.5263158,19.9342105 14.8421053,18.9342105 16.6315789,17.3552632 C17,17.0394737 17.3157895,16.6710526 17.6315789,16.3026316 L15.5789474,16.3026316 C15.3157895,15.9868421 15.0526316,15.6184211 14.8421053,15.3026316 L18.3684211,15.3026316 C18.5789474,14.9868421 18.7894737,14.6184211 18.9473684,14.25 L14.2631579,14.25 C14.1052632,13.9342105 13.9473684,13.5657895 13.8421053,13.1973684 L19.3157895,13.1973684 C19.6315789,12.1973684 19.8421053,11.1447368 19.8421053,10.0394737 C19.8421053,9.30263158 19.7368421,8.61842105 19.6315789,7.93421053 L13.5263158,7.93421053 C13.5789474,7.56578947 13.6842105,7.25 13.7894737,6.88157895 L19.2631579,6.88157895 C19.1578947,6.51315789 19,6.14473684 18.8421053,5.82894737 L14.2105263,5.82894737 C14.3684211,5.46052632 14.5789474,5.14473684 14.7894737,4.77631579 L18.3157895,4.77631579 C18.1052632,4.40789474 17.8421053,4.03947368 17.5263158,3.72368421 L15.5789474,3.72368421 C15.8947368,3.35526316 16.2105263,3.03947368 16.5789474,2.72368421 C14.8421053,1.09210526 12.4736842,0.144736842 9.89473684,0.144736842 L9.84210526,0.144736842" id="Fill-6" fill="#D32C34"></path>
                    <path d="M13.4736842,12.5131579 L13.6315789,11.6184211 C13.5789474,11.6184211 13.4736842,11.6710526 13.3684211,11.6710526 C13,11.6710526 12.9473684,11.4605263 13,11.3552632 L13.3157895,9.51315789 L13.8947368,9.51315789 L14.0526316,8.51315789 L13.5263158,8.51315789 L13.6315789,7.88157895 L12.5789474,7.88157895 C12.5789474,7.88157895 11.9473684,11.3552632 11.9473684,11.7763158 C11.9473684,12.4078947 12.3157895,12.6710526 12.7894737,12.6710526 C13.1052632,12.6710526 13.3684211,12.5657895 13.4736842,12.5131579" id="Fill-7" fill="#FFFFFE"></path>
                    <path d="M15.6842105,9.30263158 C16.2631579,9.30263158 16.1578947,9.98684211 16.1578947,10.0394737 L15,10.0394737 C15,9.98684211 15.1052632,9.30263158 15.6842105,9.30263158 Z M13.8421053,10.8289474 C13.8421053,12.3026316 14.8421053,12.6710526 15.6842105,12.6710526 C16.4736842,12.6710526 16.7894737,12.5131579 16.7894737,12.5131579 L17,11.5131579 C17,11.5131579 16.4210526,11.7763158 15.8947368,11.7763158 C14.7368421,11.7763158 14.9473684,10.9342105 14.9473684,10.9342105 L17.1052632,10.9342105 C17.1052632,10.9342105 17.2631579,10.25 17.2631579,9.98684211 C17.2631579,9.30263158 16.8947368,8.46052632 15.7368421,8.46052632 C14.6315789,8.35526316 13.8421053,9.51315789 13.8421053,10.8289474 L13.8421053,10.8289474 Z" id="Fill-8" fill="#FFFFFE"></path>
                    <path d="M22.3684211,12.5131579 L22.5789474,11.3552632 C22.5789474,11.3552632 22.0526316,11.6184211 21.6842105,11.6184211 C20.9473684,11.6184211 20.6315789,11.0394737 20.6315789,10.4078947 C20.6315789,9.14473684 21.2631579,8.46052632 22,8.46052632 C22.5263158,8.46052632 22.9473684,8.77631579 22.9473684,8.77631579 L23.1052632,7.67105263 C23.1052632,7.67105263 22.4736842,7.40789474 21.8947368,7.40789474 C20.6842105,7.40789474 19.4736842,8.46052632 19.4736842,10.4605263 C19.4736842,11.7763158 20.1052632,12.6710526 21.3684211,12.6710526 C21.7894737,12.6710526 22.3684211,12.5131579 22.3684211,12.5131579" id="Fill-9" fill="#FFFFFE"></path>
                    <path d="M7.89473684,10.7236842 C7.89473684,10.8815789 7.78947368,11.7236842 7.15789474,11.7236842 C6.84210526,11.7236842 6.73684211,11.4605263 6.73684211,11.3026316 C6.73684211,11.0394737 6.89473684,10.6710526 7.68421053,10.6710526 C7.84210526,10.7236842 7.89473684,10.7236842 7.89473684,10.7236842 Z M7.68421053,8.35526316 C6.94736842,8.35526316 6.42105263,8.56578947 6.42105263,8.56578947 L6.26315789,9.46052632 C6.26315789,9.46052632 6.73684211,9.25 7.42105263,9.25 C7.78947368,9.25 8.10526316,9.30263158 8.10526316,9.61842105 C8.10526316,9.82894737 8.05263158,9.88157895 8.05263158,9.88157895 C8.05263158,9.88157895 7.73684211,9.88157895 7.57894737,9.88157895 C6.68421053,9.88157895 5.68421053,10.25 5.68421053,11.4605263 C5.68421053,12.4078947 6.31578947,12.6184211 6.68421053,12.6184211 C7.42105263,12.6184211 7.73684211,12.1447368 7.78947368,12.1447368 L7.73684211,12.5657895 L8.68421053,12.5657895 L9.10526316,9.67105263 C9.10526316,8.40789474 8.05263158,8.35526316 7.68421053,8.35526316 L7.68421053,8.35526316 Z" id="Fill-10" fill="#FFFFFE"></path>
                    <path d="M10.1052632,12.6184211 C10.3684211,12.6184211 11.6842105,12.6710526 11.6842105,11.25 C11.6842105,9.93421053 10.4210526,10.1973684 10.4210526,9.67105263 C10.4210526,9.40789474 10.6315789,9.30263158 11,9.30263158 C11.1578947,9.30263158 11.7368421,9.35526316 11.7368421,9.35526316 L11.8947368,8.40789474 C11.8947368,8.40789474 11.5263158,8.30263158 10.8947368,8.30263158 C10.1052632,8.30263158 9.31578947,8.61842105 9.31578947,9.67105263 C9.31578947,10.8815789 10.6315789,10.7763158 10.6315789,11.25 C10.6315789,11.5657895 10.2631579,11.6184211 10,11.6184211 C9.52631579,11.6184211 9.05263158,11.4605263 9.05263158,11.4605263 L8.89473684,12.4078947 C8.94736842,12.5131579 9.21052632,12.6184211 10.1052632,12.6184211" id="Fill-11" fill="#FFFFFE"></path>
                    <path d="M30.6315789,10.3026316 C30.6315789,10.8815789 30.3684211,11.6184211 29.7894737,11.6184211 C29.4210526,11.6184211 29.2105263,11.3026316 29.2105263,10.7763158 C29.2105263,9.93421053 29.5789474,9.40789474 30.0526316,9.40789474 C30.4210526,9.40789474 30.6315789,9.67105263 30.6315789,10.3026316 Z M31.1052632,7.51315789 L30.8947368,8.93421053 C30.8947368,8.93421053 30.4736842,8.40789474 29.8947368,8.40789474 C28.9473684,8.40789474 28.1052632,9.56578947 28.1052632,10.9342105 C28.1052632,11.7763158 28.5263158,12.6710526 29.4210526,12.6710526 C30.0526316,12.6710526 30.4210526,12.25 30.4210526,12.25 L30.3684211,12.6184211 L31.4210526,12.6184211 L32.2105263,7.56578947 L31.1052632,7.51315789 L31.1052632,7.51315789 Z" id="Fill-12" fill="#FFFFFE"></path>
                    <polyline id="Fill-13" fill="#FFFFFE" points="1.94736842 12.5657895 2.57894737 8.77631579 2.68421053 12.5657895 3.42105263 12.5657895 4.78947368 8.77631579 4.21052632 12.5657895 5.31578947 12.5657895 6.15789474 7.51315789 4.42105263 7.51315789 3.36842105 10.6184211 3.31578947 7.51315789 1.78947368 7.51315789 0.947368421 12.5657895 1.94736842 12.5657895"></polyline>
                    <path d="M18.2631579,12.5657895 C18.5789474,10.8289474 18.6315789,9.40789474 19.3684211,9.67105263 C19.4736842,8.98684211 19.6315789,8.72368421 19.7368421,8.46052632 C19.7368421,8.46052632 19.6842105,8.46052632 19.5263158,8.46052632 C19.0526316,8.46052632 18.6842105,9.09210526 18.6842105,9.09210526 L18.7894737,8.51315789 L17.7894737,8.51315789 L17.1052632,12.6184211 L18.2631579,12.6184211 L18.2631579,12.5657895" id="Fill-14" fill="#FFFFFE"></path>
                    <path d="M25.0526316,10.7236842 C25.0526316,10.8815789 24.9473684,11.7236842 24.3157895,11.7236842 C24,11.7236842 23.8947368,11.4605263 23.8947368,11.3026316 C23.8947368,11.0394737 24.0526316,10.6710526 24.8421053,10.6710526 C25,10.7236842 25,10.7236842 25.0526316,10.7236842 Z M24.7894737,8.35526316 C24.0526316,8.35526316 23.5263158,8.56578947 23.5263158,8.56578947 L23.3684211,9.46052632 C23.3684211,9.46052632 23.8421053,9.25 24.5263158,9.25 C24.8947368,9.25 25.2105263,9.30263158 25.2105263,9.61842105 C25.2105263,9.82894737 25.1578947,9.88157895 25.1578947,9.88157895 C25.1578947,9.88157895 24.8421053,9.88157895 24.6842105,9.88157895 C23.7894737,9.88157895 22.7894737,10.25 22.7894737,11.4605263 C22.7894737,12.4078947 23.4210526,12.6184211 23.7894737,12.6184211 C24.5263158,12.6184211 24.8421053,12.1447368 24.8947368,12.1447368 L24.8421053,12.5657895 L25.7894737,12.5657895 L26.2105263,9.67105263 C26.2631579,8.40789474 25.1578947,8.35526316 24.7894737,8.35526316 L24.7894737,8.35526316 Z" id="Fill-15" fill="#FFFFFE"></path>
                    <path d="M27.1052632,12.5657895 C27.4210526,10.8289474 27.4736842,9.40789474 28.2105263,9.67105263 C28.3157895,8.98684211 28.4736842,8.72368421 28.5789474,8.46052632 C28.5789474,8.46052632 28.5263158,8.46052632 28.3684211,8.46052632 C27.8947368,8.46052632 27.5263158,9.09210526 27.5263158,9.09210526 L27.6315789,8.51315789 L26.6315789,8.51315789 L25.9473684,12.6184211 L27.1052632,12.6184211 L27.1052632,12.5657895" id="Fill-16" fill="#FFFFFE"></path>
                    <path d="M11.8421053,11.7763158 C11.8421053,12.4078947 12.2105263,12.6710526 12.6842105,12.6710526 C13.0526316,12.6710526 13.3684211,12.5657895 13.4736842,12.5131579 L13.6315789,11.6184211 C13.5789474,11.6184211 13.4736842,11.6710526 13.3684211,11.6710526 C13,11.6710526 12.9473684,11.4605263 13,11.3552632 L13.3157895,9.51315789 L13.8947368,9.51315789 L14.0526316,8.51315789 L13.5263158,8.51315789 L13.6315789,7.88157895" id="Fill-17" fill="#C9D6D0"></path>
                    <path d="M15.6842105,9.30263158 C16.2631579,9.30263158 16.3684211,9.98684211 16.3684211,10.0394737 L15,10.0394737 C15,9.98684211 15.1052632,9.30263158 15.6842105,9.30263158 Z M14.3684211,10.8289474 C14.3684211,12.3026316 14.8421053,12.6710526 15.6842105,12.6710526 C16.4736842,12.6710526 16.7894737,12.5131579 16.7894737,12.5131579 L17,11.5131579 C17,11.5131579 16.4210526,11.7763158 15.8947368,11.7763158 C14.7368421,11.7763158 14.9473684,10.9342105 14.9473684,10.9342105 L17.1052632,10.9342105 C17.1052632,10.9342105 17.2631579,10.25 17.2631579,9.98684211 C17.2631579,9.30263158 16.8947368,8.46052632 15.7368421,8.46052632 C14.6315789,8.35526316 14.3684211,9.51315789 14.3684211,10.8289474 L14.3684211,10.8289474 Z" id="Fill-18" fill="#C9D6D0"></path>
                    <path d="M22.3684211,12.5131579 L22.5789474,11.3552632 C22.5789474,11.3552632 22.0526316,11.6184211 21.6842105,11.6184211 C20.9473684,11.6184211 20.6315789,11.0394737 20.6315789,10.4078947 C20.6315789,9.14473684 21.2631579,8.46052632 22,8.46052632 C22.5263158,8.46052632 22.9473684,8.77631579 22.9473684,8.77631579 L23.1052632,7.67105263 C23.1052632,7.67105263 22.4736842,7.40789474 21.8947368,7.40789474 C20.6842105,7.40789474 20,8.46052632 20,10.4605263 C20,11.7763158 20.1052632,12.6710526 21.3684211,12.6710526 C21.7894737,12.6710526 22.3684211,12.5131579 22.3684211,12.5131579" id="Fill-19" fill="#C9D6D0"></path>
                    <path d="M8.42105263,10.7236842 C8.42105263,10.8815789 7.78947368,11.7236842 7.15789474,11.7236842 C6.84210526,11.7236842 6.73684211,11.4605263 6.73684211,11.3026316 C6.73684211,11.0394737 6.89473684,10.6710526 7.68421053,10.6710526 C7.84210526,10.7236842 8.42105263,10.7236842 8.42105263,10.7236842 Z M6.26315789,9.51315789 C6.26315789,9.51315789 6.73684211,9.30263158 7.42105263,9.30263158 C7.78947368,9.30263158 8.10526316,9.35526316 8.10526316,9.67105263 C8.10526316,9.88157895 8.05263158,9.93421053 8.05263158,9.93421053 C8.05263158,9.93421053 7.73684211,9.93421053 7.57894737,9.93421053 C6.68421053,9.93421053 5.68421053,10.3026316 5.68421053,11.5131579 C5.68421053,12.4605263 6.31578947,12.6710526 6.68421053,12.6710526 C7.42105263,12.6710526 7.73684211,12.1973684 7.78947368,12.1973684 L7.73684211,12.6184211 L8.68421053,12.6184211 L9.10526316,9.72368421 C9.10526316,8.51315789 8.05263158,8.46052632 7.63157895,8.46052632 L6.26315789,9.51315789 Z" id="Fill-20" fill="#C9D6D0"></path>
                    <path d="M8.94736842,12.5131579 C8.94736842,12.5131579 9.26315789,12.6184211 10.1578947,12.6184211 C10.4210526,12.6184211 11.7368421,12.6710526 11.7368421,11.25 C11.7368421,9.93421053 10.4736842,10.1973684 10.4736842,9.67105263 C10.4736842,9.40789474 10.6842105,9.30263158 11.0526316,9.30263158 C11.2105263,9.30263158 11.7894737,9.35526316 11.7894737,9.35526316 L11.9473684,8.40789474 C11.9473684,8.40789474 11.5789474,8.30263158 10.9473684,8.30263158 C10.1578947,8.30263158 9.89473684,8.61842105 9.89473684,9.67105263 C9.89473684,10.8815789 10.6842105,10.7763158 10.6842105,11.25 C10.6842105,11.5657895 10.3157895,11.6184211 10.0526316,11.6184211" id="Fill-21" fill="#C9D6D0"></path>
                    <path d="M30.8421053,10.3026316 C30.8421053,10.8815789 30.3684211,11.6184211 29.7894737,11.6184211 C29.4210526,11.6184211 29.2105263,11.3026316 29.2105263,10.7763158 C29.2105263,9.93421053 29.5789474,9.40789474 30.0526316,9.40789474 C30.4210526,9.40789474 30.8421053,9.67105263 30.8421053,10.3026316 Z M30.8947368,8.93421053 C30.8947368,8.93421053 30.4736842,8.40789474 29.8947368,8.40789474 C28.9473684,8.40789474 28.6315789,9.56578947 28.6315789,10.9342105 C28.6315789,11.7763158 28.5263158,12.6710526 29.4210526,12.6710526 C30.0526316,12.6710526 30.4210526,12.25 30.4210526,12.25 L30.3684211,12.6184211 L31.4210526,12.6184211 L32.2105263,7.56578947 L30.8947368,8.93421053 Z" id="Fill-22" fill="#C9D6D0"></path>
                    <polyline id="Fill-23" fill="#C9D6D0" points="1.94736842 12.5657895 2.57894737 8.77631579 2.68421053 12.5657895 3.42105263 12.5657895 4.78947368 8.77631579 4.21052632 12.5657895 5.31578947 12.5657895 6.15789474 7.51315789 4.84210526 7.51315789 3.36842105 10.6184211 3.31578947 7.51315789 2.73684211 7.51315789 0.947368421 12.5657895 1.94736842 12.5657895"></polyline>
                    <path d="M17.1578947,12.5657895 L18.2631579,12.5657895 C18.5789474,10.8289474 18.6315789,9.40789474 19.3684211,9.67105263 C19.4736842,8.98684211 19.6315789,8.72368421 19.7368421,8.46052632 C19.7368421,8.46052632 19.6842105,8.46052632 19.5263158,8.46052632 C19.0526316,8.46052632 18.6842105,9.09210526 18.6842105,9.09210526 L18.7894737,8.51315789" id="Fill-24" fill="#C9D6D0"></path>
                    <path d="M25.5263158,10.7236842 C25.5263158,10.8815789 24.8947368,11.7236842 24.2631579,11.7236842 C23.9473684,11.7236842 23.8421053,11.4605263 23.8421053,11.3026316 C23.8421053,11.0394737 24,10.6710526 24.7894737,10.6710526 C25,10.7236842 25.5263158,10.7236842 25.5263158,10.7236842 Z M23.3684211,9.51315789 C23.3684211,9.51315789 23.8421053,9.30263158 24.5263158,9.30263158 C24.8947368,9.30263158 25.2105263,9.35526316 25.2105263,9.67105263 C25.2105263,9.88157895 25.1578947,9.93421053 25.1578947,9.93421053 C25.1578947,9.93421053 24.8421053,9.93421053 24.6842105,9.93421053 C23.7894737,9.93421053 22.7894737,10.3026316 22.7894737,11.5131579 C22.7894737,12.4605263 23.4210526,12.6710526 23.7894737,12.6710526 C24.5263158,12.6710526 24.8421053,12.1973684 24.8947368,12.1973684 L24.8421053,12.6184211 L25.7894737,12.6184211 L26.2105263,9.72368421 C26.2105263,8.51315789 25.1578947,8.46052632 24.7368421,8.46052632 L23.3684211,9.51315789 Z" id="Fill-25" fill="#C9D6D0"></path>
                    <path d="M26,12.5657895 L27.1052632,12.5657895 C27.4210526,10.8289474 27.4736842,9.40789474 28.2105263,9.67105263 C28.3157895,8.98684211 28.4736842,8.72368421 28.5789474,8.46052632 C28.5789474,8.46052632 28.5263158,8.46052632 28.3684211,8.46052632 C27.8947368,8.46052632 27.5263158,9.09210526 27.5263158,9.09210526 L27.6315789,8.51315789" id="Fill-26" fill="#C9D6D0"></path>
                </g>
                <g id="7-Eleven" transform="translate(133.422752, 0.000000)">
                    <polygon id="Fill-1" fill="#006546" points="0 20.9938235 20.1992206 20.9938235 20.1992206 0.0347941176 0 0.0347941176"></polygon>
                    <path d="M12.6109118,18.9364412 L12.6109118,19.7227059 L7.76577941,19.7227059 L7.76577941,18.9355147 L4.09922059,18.9355147 C3.74047059,18.9355147 3.44935294,18.5610147 3.44935294,18.0996324 L1.91625,2.58454412 C1.91625,2.12275 2.27355882,1.74835294 2.71445588,1.74835294 L17.5288235,1.74835294 C17.9697206,1.74835294 18.3274412,2.12275 18.3274412,2.58454412 L16.8110147,18.0996324 C16.8110147,18.5610147 16.5196912,18.9355147 16.1610441,18.9355147 L12.6109118,18.9364412" id="Fill-3" fill="#FFFFFF"></path>
                    <path d="M4.61207353,4.01964706 L14.5318971,4.01964706 C13.5550882,4.38591176 10.5816324,6.39841176 9.83901471,7.75157353 L4.62329412,7.75157353 L4.61207353,4.01964706" id="Fill-4" fill="#FF6600"></path>
                    <path d="M12.5178529,14.7133824 C12.3765147,16.0647941 12.3712647,17.7107206 12.3712647,19.4388971 L8.07161765,19.4388971 C8.07161765,17.7107206 8.14223529,16.0647941 8.28357353,14.7133824 L12.5178529,14.7133824" id="Fill-5" fill="#FE000C"></path>
                    <polyline id="Fill-6" fill="#006546" points="4.29594118 11.61475 5.86723529 11.61475 5.86723529 12.2367206 5.17948529 12.2367206 5.17948529 12.7605882 5.86723529 12.7605882 5.86723529 13.2843529 5.17948529 13.2843529 5.17948529 13.8081176 5.86723529 13.8081176 5.86723529 14.4082647 4.29594118 14.4082647 4.29594118 11.61475"></polyline>
                    <polyline id="Fill-7" fill="#006546" points="7.95158824 11.61475 9.52298529 11.61475 9.52298529 12.2367206 8.83533824 12.2367206 8.83533824 12.7605882 9.52298529 12.7605882 9.52298529 13.2843529 8.83533824 13.2843529 8.83533824 13.8081176 9.52298529 13.8081176 9.52298529 14.4082647 7.95158824 14.4082647 7.95158824 11.61475"></polyline>
                    <polyline id="Fill-8" fill="#006546" points="11.9784412 11.61475 13.5497353 11.61475 13.5497353 12.2367206 12.8618824 12.2367206 12.8618824 12.7605882 13.5497353 12.7605882 13.5497353 13.2843529 12.8618824 13.2843529 12.8618824 13.8081176 13.5497353 13.8081176 13.5497353 14.4082647 11.9784412 14.4082647 11.9784412 11.61475"></polyline>
                    <polyline id="Fill-9" fill="#006546" points="7.04570588 13.8081176 7.73325 13.8081176 7.73325 14.4082647 6.16195588 14.4082647 6.16195588 11.61475 7.04570588 11.61475 7.04570588 13.8081176"></polyline>
                    <polyline id="Fill-10" fill="#006546" points="9.68336765 11.61475 10.1215882 14.4082647 11.2578529 14.4082647 11.7898529 11.61475 11.1325735 11.61475 10.7885441 13.5024853 10.4552206 11.61475 9.68336765 11.61475"></polyline>
                    <polygon id="Fill-11" fill="#006546" points="13.9206324 14.4082647 14.77175 14.4082647 14.77175 11.61475 13.9206324 11.61475"></polygon>
                    <path d="M14.77175,12.44425 C14.8157059,12.1386176 15.2520735,12.2203529 15.2520735,12.3949412 L15.2520735,14.4082647 L16.1030882,14.4082647 L16.1030882,12.0403088 C16.1030882,11.5383676 15.3941324,11.3365 14.7771029,11.7784265" id="Fill-12" fill="#006546"></path>
                    <path d="M12.9169559,11.2217206 C13.0039412,10.1523676 14.4665294,8.40638235 15.8851618,7.94819118 L15.8851618,3.82323529 C11.9838971,5.56911765 9.44608824,8.20997059 8.89761765,11.2112206 L12.9169559,11.2217206" id="Fill-13" fill="#FE000C"></path>
                    <path d="M13.7575735,15.2901618 C13.7296765,15.2751324 13.6855147,15.2674118 13.6240588,15.2674118 L13.5299706,15.2674118 L13.5299706,15.4886324 L13.6295147,15.4886324 C13.6763529,15.4886324 13.7111471,15.4842059 13.7344118,15.4753529 C13.7776471,15.4584706 13.7989559,15.4266618 13.7989559,15.3795147 C13.7989559,15.3353529 13.7851618,15.3052941 13.7575735,15.2901618 L13.7575735,15.2901618 Z M13.6385735,15.1901029 C13.7155735,15.1901029 13.7722941,15.1977206 13.8076029,15.2123382 C13.8718382,15.239 13.9041618,15.2915 13.9041618,15.3693235 C13.9041618,15.4245 13.8840882,15.4655735 13.8440441,15.4915147 C13.8229412,15.5054118 13.7929853,15.5153971 13.755,15.5212647 C13.8025588,15.5289853 13.8375588,15.5493676 13.8594853,15.5822059 C13.8820294,15.6148382 13.8934559,15.64675 13.8934559,15.6780441 L13.8934559,15.7233382 C13.8934559,15.7376471 13.8934559,15.7528824 13.8946912,15.76925 C13.8955147,15.7854118 13.8974706,15.7965294 13.9001471,15.8014706 L13.9041618,15.8093971 L13.80225,15.8093971 C13.80225,15.8071324 13.8013235,15.8052794 13.8010147,15.8033235 C13.8006029,15.8011618 13.8001912,15.7985882 13.7993676,15.7962206 L13.7976176,15.7763529 L13.7976176,15.7274559 C13.7976176,15.6560147 13.7776471,15.6088676 13.7386324,15.5858088 C13.7151618,15.5724265 13.6745,15.5659412 13.6166471,15.5659412 L13.5299706,15.5659412 L13.5299706,15.8093971 L13.4215735,15.8093971 L13.4215735,15.1901029 L13.6385735,15.1901029 Z M13.3050441,15.1595294 C13.2105441,15.2541324 13.1637059,15.3683971 13.1637059,15.5021176 C13.1637059,15.6372794 13.2102353,15.7521618 13.3048382,15.8470735 C13.3989265,15.9422941 13.5137059,15.98975 13.6485588,15.98975 C13.7837206,15.98975 13.8980882,15.9422941 13.993,15.8470735 C14.0872941,15.7521618 14.1343382,15.6372794 14.1343382,15.5021176 C14.1343382,15.3683971 14.0872941,15.2541324 13.993,15.1595294 C13.8974706,15.0645147 13.7828971,15.0170588 13.6485588,15.0170588 C13.5147353,15.0170588 13.4000588,15.0645147 13.3050441,15.1595294 L13.3050441,15.1595294 Z M14.0480735,15.9012206 C13.9381324,16.0116765 13.8048235,16.0670588 13.6487647,16.0670588 C13.4925,16.0670588 13.3592941,16.0116765 13.2498676,15.9012206 C13.14075,15.7913824 13.0860882,15.6579706 13.0860882,15.5013971 C13.0860882,15.3467794 13.1413676,15.2140882 13.2517206,15.1037353 C13.3610441,14.9945147 13.4934265,14.9396471 13.6487647,14.9396471 C13.8048235,14.9396471 13.9381324,14.9945147 14.0480735,15.1037353 C14.1585294,15.2132647 14.2136029,15.3459559 14.2136029,15.5013971 C14.2136029,15.6574559 14.1585294,15.7907647 14.0480735,15.9012206 L14.0480735,15.9012206 Z" id="Fill-14" fill="#006546"></path>
                </g>
                <g id="Hi-Life" transform="translate(236.000000, 1.000000)">
                    <path d="M23.0698939,3.21010045 C24.2215402,4.93756973 24.1005162,7.55301339 22.9049246,9.2253767 C20.6459263,13.3656529 16.5928432,17.4462891 12.0884487,19.9867466 L11.9583566,19.9867466 C7.18540732,17.245745 3.02873884,12.9338728 0.633021786,8.55119982 C-0.251813571,6.78187777 -0.132882232,4.35791018 1.11083982,2.77832036 C2.70926339,0.623256161 5.38853232,-0.295410179 8.20033482,0.123116607 C9.609375,0.370047411 10.8332171,0.960518929 11.9231305,1.94545196 C12.2248187,1.76688054 12.5219727,1.46065848 12.8435407,1.24232696 C14.917341,-0.211704821 18.3893695,-0.418875536 20.6459263,0.852399554 C21.6608537,1.3745117 22.530692,2.29561946 23.0698939,3.21010045" id="路徑" fill="#D61918" fill-rule="nonzero"></path>
                    <path d="M23.0698943,3.21010148 C24.2211916,4.93756866 24.1001679,7.55301238 22.904926,9.22537681 C20.6459258,13.3656538 16.5928442,17.446289 12.0880999,19.9867465 L11.9583577,19.9867465 C7.18505828,17.2457439 3.02838984,12.9338724 0.633022777,8.55119883 C-0.251813657,6.78187798 -0.132882145,4.35825827 1.11084082,2.77832007 C2.70926325,0.623255744 5.38853299,-0.295410049 8.19998652,0.123116561 C9.60902675,0.370047072 10.8332179,0.960519903 11.9231316,1.94545287 C12.224819,1.76688013 12.5219733,1.46065754 12.8431915,1.2426747 C14.9173404,-0.211704903 18.3893695,-0.418875414 20.6459258,0.852398828 C21.6608541,1.37486137 22.5303425,2.29562017 23.0698943,3.21010148 Z" id="路徑" stroke="#FFFFFF" stroke-width="2.29414348"></path>
                    <path d="M23.0078125,3.38553295 C24.370466,5.67696705 23.3841379,8.56794089 21.917899,10.5179269 C19.672154,14.1224888 16.1143276,17.5554548 12.1229771,19.8228237 L11.957659,19.8228237 C7.25934714,17.156808 2.94852125,12.7699498 0.725097679,8.37611607 C-0.386788482,6.2433733 0.244838214,3.62792964 2.03508652,1.973005 C3.77406527,0.272042411 6.43589562,-0.144391786 8.8598633,0.419573125 C9.97837607,0.7038225 11.0285296,1.28348214 11.8387277,2.14704241 C11.882673,2.18889509 11.957659,2.16273714 12.0040457,2.16273714 C13.8267299,0.179617768 16.953125,-0.320870536 19.540318,0.511997768 C21.0239955,0.985979375 22.2921317,2.13169643 23.0078125,3.38553295" id="路徑" fill="#FFFFFF" fill-rule="nonzero"></path>
                    <path d="M23.0078127,3.38553216 C24.3704667,5.67696741 23.3841377,8.5679403 21.917899,10.5179271 C19.6721549,14.1228384 16.1143282,17.5554545 12.1229781,19.8228242 L11.9576598,19.8228242 C7.25934796,17.1568079 2.94852123,12.7699501 0.725097239,8.37611629 C-0.386788684,6.24337245 0.244837587,3.62792873 2.03508603,1.97300425 C3.77406506,0.272041829 6.43589567,-0.144391767 8.85986414,0.41992114 C9.97837698,0.703823241 11.0285291,1.28348176 11.8387276,2.14739052 C11.8826722,2.18889606 11.9576598,2.16273723 12.004046,2.16273723 C13.826731,0.17961781 16.9531259,-0.320522033 19.5403189,0.512347362 C21.0239967,0.985980245 22.2921325,2.13169567 23.0078127,3.38553216 Z" id="路徑" stroke="#FFFFFF" stroke-width="2.29414348"></path>
                    <path d="M7.12297714,7.00892857 C6.95103232,6.80175786 6.67829241,6.68945312 6.39195036,6.76234652 C6.14118304,6.80175786 5.93401232,7.02008929 5.89215964,7.23597938 L5.87681357,8.56026786 L5.85693357,8.59340125 L5.25146482,8.60212054 L5.24065286,7.87283759 C5.20542687,7.50488286 5.33063616,7.00892857 4.85316687,6.83489116 C4.67041018,6.7511858 4.41929411,6.7511858 4.24769812,6.83489116 C3.78069196,7.05078125 3.92822268,7.56417411 3.90415732,7.96316964 L3.90415732,10.4924665 C3.91741071,10.78125 3.88218473,11.098284 4.20131143,11.2859236 C4.38406804,11.3957868 4.65715679,11.4093889 4.85316687,11.3253348 C5.05789625,11.2440709 5.20542687,11.0609654 5.25146482,10.8736746 L5.25146482,9.78515625 L5.85693357,9.77434429 L5.87681357,9.78515625 L5.89215964,10.7700893 C5.91203964,10.9375 5.95842634,11.1094447 6.13002232,11.2217495 C6.3016183,11.3584682 6.55029295,11.3957868 6.77943643,11.3253348 C7.00857982,11.2440709 7.21086777,11.0389928 7.22412107,10.8231027 L7.22412107,7.68763946 C7.21086777,7.46058875 7.27050786,7.21365795 7.12297714,7.00892857 M9.75376679,4.93338446 C9.63065009,4.73737446 9.4015067,4.5828683 9.17480464,4.5629883 C8.84451732,4.50160437 8.5473633,4.64250839 8.34263393,4.86955911 C8.23904857,4.76806643 8.11383929,4.68645366 7.99909321,4.62472098 C7.70403179,4.52113562 7.32526509,4.53229634 7.08775107,4.72621375 C6.84779571,4.91141179 6.73304964,5.23088732 6.82582312,5.51932196 C7.05461777,6.23779295 7.63602125,6.93638393 8.3666992,7.37897598 C8.73012,7.14320589 9.08447268,6.77106589 9.33349607,6.43171036 C9.58426339,5.98005018 10.0313895,5.48863 9.75376679,4.93338446 M8.97007536,7.99386161 C8.9128767,7.88155696 8.82045196,7.76053295 8.68617464,7.70751955 C8.51213732,7.60393411 8.23904857,7.62590679 8.05629187,7.68763946 C7.84075054,7.79122491 7.69077848,7.9760742 7.67996652,8.203125 L7.67996652,10.5761719 C7.65799384,10.811942 7.70403179,11.0170201 7.87353518,11.1624581 C8.04547991,11.3253348 8.29868857,11.3584682 8.52539062,11.3253348 C8.77406527,11.2747629 9.01402062,11.0609654 9.01402062,10.811942 L9.01402062,8.92159598 C8.98123607,8.59340125 9.07366071,8.32659036 8.97007536,7.99386161 M10.5419921,9.70354357 L9.80015348,9.69273161 C9.70982143,9.70354357 9.58426339,9.67075893 9.51590402,9.71261161 C9.12876679,9.86676893 9.33349607,10.2877371 9.28920196,10.5653599 C9.48311946,10.9552874 9.97384205,10.750558 10.3505162,10.7899693 C10.5221121,10.811942 10.6455776,10.74149 10.7380022,10.6270927 C10.850307,10.4112026 10.7843889,10.1642718 10.8060174,9.93931357 C10.7711356,9.82491625 10.6696429,9.73249161 10.5419921,9.70354357 M12.2307478,6.97823661 C12.0612445,6.7511858 11.6824777,6.64969304 11.4093889,6.80175786 C11.1938477,6.91859652 11.0089983,7.10170196 11.0330636,7.3371233 L11.046317,10.4530553 L11.0791016,10.8956473 C11.101423,11.0808454 11.3323103,11.2859236 11.5593611,11.3253348 C11.957659,11.3671875 12.4135045,11.3584682 12.8337751,11.3166155 C13.0189732,11.2747629 13.1992885,11.1512974 13.2809012,10.9971401 C13.3820452,10.7700893 13.3468192,10.4924665 13.1640625,10.2985491 C12.9725865,10.0913784 12.6534598,10.1224191 12.3782785,10.1224191 C12.3451451,9.17724607 12.3671178,8.25404571 12.3451451,7.31515071 C12.3451451,7.1941267 12.2991071,7.09263393 12.2307478,6.97823661 M14.9452428,6.26883375 C14.8416573,6.09235491 14.6372768,5.94029018 14.4545201,5.88727679 C14.1594587,5.80601286 13.8267299,5.86774554 13.6111886,6.09235491 C13.3932059,6.31033759 13.3269392,6.64969304 13.4636579,6.92731589 C13.5759626,7.18296598 13.8839286,7.3901367 14.1793387,7.3901367 C14.4785854,7.39885607 14.7297014,7.23597937 14.8992048,7.00892857 C15.0708008,6.81291857 15.0708008,6.484375 14.9452428,6.26883375 M18.2631138,8.8089425 L19.3132673,8.79813054 C19.2672294,8.67466518 19.1172572,8.59340125 18.9808873,8.54248045 C18.7761579,8.48981589 18.5627093,8.52050786 18.3998326,8.64397321 C18.3555385,8.68373321 18.2631138,8.75627786 18.2631138,8.8089425 M20.5904715,8.54248045 C20.4077148,7.92340964 19.7140067,7.42989679 19.0049526,7.35700339 C18.2059152,7.29771205 17.430943,7.67647875 17.0654296,8.30252509 C16.9750977,8.4699358 16.917899,8.64397321 16.8718611,8.82672991 C16.7926897,8.8089425 16.7023577,8.83998321 16.645159,8.8089425 L16.645159,7.21365795 L16.6779437,7.18296598 L17.2481864,7.18296598 C17.4881418,7.15227402 17.7040318,7.05984929 17.8292411,6.85477125 C17.9439871,6.64969304 17.9241071,6.38985768 17.7612304,6.21582036 C17.5101144,5.86774554 17.0082311,6.01074214 16.600865,5.98005018 C16.2772043,6.01074214 15.9141322,5.92947821 15.6410436,6.06375554 C15.4251535,6.17606027 15.2755302,6.36125839 15.2755302,6.58796036 L15.2755302,8.8089425 C15.1611329,8.87067518 15.0024414,8.82672991 14.8552595,8.83998321 C14.8200335,8.4699358 14.9762835,8.08872768 14.7052874,7.7999442 C14.5225307,7.60393411 14.2717634,7.54429411 14.0339007,7.60393411 C13.8267299,7.67647875 13.6223493,7.84179688 13.5759626,8.046875 C13.55399,8.93031527 13.55399,9.82491625 13.5648019,10.6996373 C13.5759626,10.9134347 13.6683873,11.098284 13.8511439,11.2350028 C14.0339007,11.3584682 14.3178013,11.3584682 14.500558,11.2440709 C14.9762835,11.0170201 14.8088728,10.5235072 14.8552595,10.0913784 L14.8416573,10.0739397 L15.2755302,10.0739397 L15.2755302,10.1531111 L15.2975028,13.0751255 C15.2975028,13.2777623 15.3194754,13.4737723 15.4914202,13.6080496 C15.6522043,13.7712751 15.9029715,13.8131278 16.1296736,13.7712751 C16.3807896,13.7203544 16.609933,13.515625 16.645159,13.2690429 L16.645159,10.4112026 L16.655971,10.0519671 L16.8718611,10.0519671 C16.9290597,10.1224191 16.9290597,10.2368164 16.9750977,10.3295898 C17.1930804,10.9375 17.9241071,11.4181082 18.6178153,11.4488002 C19.1172572,11.4093889 19.7558594,11.6249303 20.1014928,11.2440709 C20.2357701,11.0808454 20.2954102,10.8339146 20.2270508,10.6270927 C20.1346261,10.4112026 19.9054827,10.2765764 19.6655273,10.2458845 L18.5142299,10.2458845 C18.4238979,10.1949637 18.3314732,10.1136998 18.2875279,10.0408063 L19.1877093,10.0408063 C19.6327428,9.99023438 20.1785714,10.1754325 20.4537528,9.81619696 C20.6584821,9.4458008 20.7509068,8.95228795 20.5904715,8.54248045 M22.5917271,3.78766741 C23.7098912,5.67801339 22.9924665,8.13058036 21.781529,9.78969027 C19.6261161,13.3855329 16.0041155,16.8802316 12.1051897,19.2246791 L11.8763951,19.1849191 C7.34514509,16.4327567 3.44168527,12.3918805 1.24441964,8.15464562 C0.255998929,6.17606027 0.837402321,3.71930804 2.57219589,2.20772875 C4.28048268,0.663365 7.09228518,0.174037411 9.32233536,1.07945036 C10.3372629,1.4254325 11.1938477,2.15715679 11.922433,2.9813058 L11.9862584,2.95479911 C13.55399,0.945173036 16.2332589,0.231236071 18.8155692,0.812988304 C20.3724888,1.20291571 21.9464983,2.40164625 22.5917271,3.78766741" id="形狀" fill="#D61918" fill-rule="nonzero"></path>
                    <path d="M7.12297666,7.00892783 C6.95103358,6.8017571 6.67829318,6.68945396 6.39195109,6.762347 C6.14083512,6.8017571 5.93401159,7.02009028 5.89216076,7.23597989 L5.87681319,8.56026805 L5.85693465,8.59340065 L5.25146597,8.60211952 L5.24030369,7.87283659 C5.20507758,7.50488341 5.33063666,7.00892783 4.85316648,6.8348919 C4.67041119,6.75118676 4.41929522,6.75118676 4.24734994,6.8348919 C3.78069198,7.05078151 3.92822335,7.56417483 3.90415731,7.96316958 L3.90415731,10.4924668 C3.91706108,10.7812494 3.88183496,11.0986323 4.20131161,11.2859239 C4.3840691,11.3957856 4.6568073,11.4093895 4.85316648,11.325334 C5.0575484,11.2440702 5.20507758,11.0609651 5.25146597,10.8736734 L5.25146597,9.78515621 L5.85693465,9.77434411 L5.87681319,9.78515621 L5.89216076,10.7700892 C5.9120393,10.9378476 5.95807763,11.1094444 6.13002291,11.2217497 C6.30161812,11.3584688 6.55029248,11.3957856 6.77943617,11.325334 C7.00857985,11.2440702 7.21086802,11.0389927 7.22412184,10.8231031 L7.22412184,7.68764042 C7.21086802,7.46058836 7.27016018,7.21400753 7.12297666,7.00892783 Z M9.75376646,4.93338439 C9.63065118,4.7373739 9.4015075,4.58286895 9.17480543,4.56333797 C8.84451656,4.50160518 8.54736446,4.64250851 8.34263468,4.86955836 C8.23904788,4.76806733 8.113491,4.68645322 7.99909419,4.62472043 C7.70403144,4.52113616 7.32526483,4.53229641 7.08740268,4.72621366 C6.84779685,4.91141204 6.73304998,5.23088811 6.82582236,5.51932261 C7.05461818,6.23779343 7.63567296,6.93638293 8.36669852,7.37897645 C8.73011975,7.14320553 9.08447246,6.77106588 9.33314682,6.43171069 C9.58426279,5.98005015 10.0313901,5.48862918 9.75376646,4.93338439 Z M8.97007565,7.99386081 C8.91287724,7.88155767 8.82045272,7.76053345 8.68582511,7.70751953 C8.51213835,7.60393307 8.23904788,7.62590762 8.05629259,7.68764042 C7.8407506,7.79122468 7.69077761,7.97607492 7.6799676,8.20312477 L7.6799676,10.5765201 C7.65799311,10.8119429 7.70403144,11.0170204 7.8735351,11.1624583 C8.04513032,11.325334 8.2986879,11.3584688 8.52538997,11.325334 C8.77406653,11.2747636 9.01402023,11.0609651 9.01402023,10.8119429 L9.01402023,8.92159559 C8.98123572,8.59340065 9.07366024,8.32659036 8.97007565,7.99386081 Z M10.5419926,9.70389244 L9.79980479,9.69273219 C9.70982188,9.70389244 9.58426279,9.67075984 9.51590431,9.71261131 C9.12841704,9.86676812 9.33314682,10.2877374 9.28920224,10.5653598 C9.48311981,10.9552876 9.97384161,10.7505582 10.3505167,10.7899683 C10.5221119,10.8119429 10.6455772,10.741489 10.7380017,10.6270926 C10.850307,10.411203 10.7840401,10.1642718 10.8060124,9.93966116 C10.7711363,9.82491665 10.6696433,9.73249043 10.5419926,9.70389244 Z M12.230748,6.97823661 C12.0612444,6.75118676 11.6824778,6.64969352 11.4093895,6.8017571 C11.1938475,6.91859705 11.0086506,7.10170219 11.0330645,7.33712278 L11.0463161,10.4530545 L11.0791028,10.895648 C11.1010751,11.0808442 11.3323103,11.2859239 11.5590124,11.325334 C11.9576598,11.3671877 12.4135055,11.3584688 12.8337751,11.3166151 C13.0189742,11.2747636 13.1992879,11.151298 13.2809024,10.997139 C13.3820454,10.7700892 13.3468193,10.4924668 13.1640618,10.2985495 C12.9725858,10.0913788 12.6534592,10.1224182 12.3782794,10.1224182 C12.3451448,9.17724564 12.3671171,8.25404546 12.3451448,7.31515042 C12.3451448,7.19412621 12.2987586,7.09263298 12.230748,6.97823661 Z M14.9452439,6.2688328 C14.8416571,6.0923555 14.6369273,5.94028971 14.454172,5.88727579 C14.1594593,5.80601202 13.826731,5.86774481 13.611189,6.0923555 C13.3932054,6.31033833 13.3269385,6.64969352 13.4636577,6.92766406 C13.5759629,7.18296597 13.8839295,7.3901367 14.17899,7.3901367 C14.4785859,7.39885557 14.7293518,7.23597989 14.8992055,7.00892783 C15.0708008,6.81291735 15.0708008,6.48472461 14.9452439,6.2688328 Z M18.2631147,8.80929025 L19.3132668,8.79813001 C19.2672307,8.67466442 19.1172577,8.59340065 18.9808886,8.54247996 C18.7761588,8.48981638 18.5627106,8.52050761 18.3994838,8.64397319 C18.3555392,8.68373363 18.2631147,8.75627853 18.2631147,8.80929025 Z M20.5901232,8.54247996 C20.4077158,7.92340914 19.7140079,7.42989714 19.0049524,7.35735224 C18.2059163,7.29771268 17.4309439,7.67647797 17.0654289,8.30252477 C16.9750982,8.46993506 16.9178998,8.64397319 16.8718614,8.8267302 C16.7923407,8.80929025 16.7020099,8.83998368 16.6448115,8.80929025 L16.6448115,7.21400753 L16.6779439,7.18296597 L17.2481864,7.18296597 C17.4881423,7.15227474 17.7040322,7.05984852 17.8292412,6.85477102 C17.9439881,6.64969352 17.9241073,6.38985701 17.7612306,6.21582108 C17.5101146,5.86774481 17.0082305,6.01074138 16.6008647,5.98005015 C16.277205,6.01074138 15.9141316,5.92947761 15.6410433,6.0637553 C15.4251535,6.17606064 15.2755305,6.36125902 15.2755305,6.58830887 L15.2755305,8.80929025 C15.1611337,8.87067491 15.0024423,8.8267302 14.8549109,8.83998368 C14.8196848,8.46993506 14.9759346,8.0887284 14.705288,7.79994355 C14.5225305,7.60393307 14.2714145,7.54429351 14.0339002,7.60393307 C13.826731,7.67647797 13.6220013,7.84179723 13.5759629,8.04687473 C13.5536406,8.93031446 13.5536406,9.82491665 13.5648029,10.6996375 C13.5759629,10.9134339 13.6683875,11.0986323 13.8511449,11.2350032 C14.0339002,11.3584688 14.3178007,11.3584688 14.5005582,11.2440702 C14.9759346,11.0170204 14.8088726,10.5235062 14.8549109,10.0913788 L14.8416571,10.0739389 L15.2755305,10.0739389 L15.2755305,10.1531116 L15.2975028,13.0751261 C15.2975028,13.2777622 15.3194751,13.4737727 15.4910725,13.6080504 C15.6518555,13.7712742 15.9029715,13.8131279 16.1296736,13.7712742 C16.3807896,13.7207038 16.6095854,13.5156241 16.6448115,13.2690433 L16.6448115,10.411203 L16.6559716,10.0519665 L16.8718614,10.0519665 C16.9290598,10.1224182 16.9290598,10.2368167 16.9750982,10.3295889 C17.1930796,10.9378476 17.9241073,11.4181083 18.6174674,11.4487996 C19.1172577,11.4093895 19.7558587,11.6249309 20.101493,11.2440702 C20.2357705,11.0808442 20.2950627,10.8342634 20.2270521,10.6270926 C20.1346254,10.411203 19.9054839,10.2765772 19.665528,10.2458838 L18.5138806,10.2458838 C18.4238977,10.1949631 18.3311253,10.1136993 18.2875286,10.0408063 L19.1877099,10.0408063 C19.6323934,9.99023371 20.1785721,10.1754321 20.4537541,9.81619778 C20.6584817,9.44614916 20.7509062,8.95228682 20.5901232,8.54247996 Z M22.5917284,3.78766676 C23.7098912,5.67801403 22.9921172,8.13057987 21.7811799,9.78969082 C19.6257687,13.3855329 16.0041167,16.8802321 12.1051889,19.2246791 L11.8763953,19.1849186 C7.34514557,16.4327558 3.44168465,12.3918811 1.24442045,8.1549936 C0.255999862,6.17606064 0.837054641,3.71930833 2.57219623,2.20772856 C4.28048231,0.663364322 7.09193585,0.174036586 9.3223346,1.07979902 C10.3372628,1.42543171 11.1938475,2.15715601 11.9224336,2.98130653 L11.986259,2.95479957 C13.5536406,0.945173188 16.2332582,0.231236975 18.8155702,0.812988729 C20.3721396,1.20291647 21.9464982,2.40164581 22.5917284,3.78766676 Z" id="形狀" stroke="#FFFFFF" stroke-width="2.29414348"></path>
                    <path d="M23.0698939,3.21010045 C24.2215402,4.93756973 24.1005162,7.55301339 22.9049246,9.2253767 C20.6459263,13.3656529 16.5928432,17.4462891 12.0884487,19.9867466 L11.9583566,19.9867466 C7.18540732,17.245745 3.02873884,12.9338728 0.633021786,8.55119982 C-0.251813571,6.78187777 -0.132882232,4.35791018 1.11083982,2.77832036 C2.70926339,0.623256161 5.38853232,-0.295410179 8.20033482,0.123116607 C9.609375,0.370047411 10.8332171,0.960518929 11.9231305,1.94545196 C12.2248187,1.76688054 12.5219727,1.46065848 12.8435407,1.24232696 C14.917341,-0.211704821 18.3893695,-0.418875536 20.6459263,0.852399554 C21.6608537,1.3745117 22.530692,2.29561946 23.0698939,3.21010045" id="路徑" fill="#D61918" fill-rule="nonzero"></path>
                    <path d="M23.0078125,3.38553295 C24.370466,5.67696705 23.3841379,8.56794089 21.917899,10.5179269 C19.672154,14.1224888 16.1143276,17.5554548 12.1229771,19.8228237 L11.957659,19.8228237 C7.25934714,17.156808 2.94852125,12.7699498 0.725097679,8.37611607 C-0.386788482,6.2433733 0.244838214,3.62792964 2.03508652,1.973005 C3.77406527,0.272042411 6.43589562,-0.144391786 8.8598633,0.419573125 C9.97837607,0.7038225 11.0285296,1.28348214 11.8387277,2.14704241 C11.882673,2.18889509 11.957659,2.16273714 12.0040457,2.16273714 C13.8267299,0.179617768 16.953125,-0.320870536 19.540318,0.511997768 C21.0239955,0.985979375 22.2921317,2.13169643 23.0078125,3.38553295" id="路徑" fill="#FFFFFF" fill-rule="nonzero"></path>
                    <path d="M7.12297714,7.00892857 C6.95103232,6.80175786 6.67829241,6.68945312 6.39195036,6.76234652 C6.14118304,6.80175786 5.93401232,7.02008929 5.89215964,7.23597938 L5.87681357,8.56026786 L5.85693357,8.59340125 L5.25146482,8.60212054 L5.24065286,7.87283759 C5.20542687,7.50488286 5.33063616,7.00892857 4.85316687,6.83489116 C4.67041018,6.7511858 4.41929411,6.7511858 4.24769812,6.83489116 C3.78069196,7.05078125 3.92822268,7.56417411 3.90415732,7.96316964 L3.90415732,10.4924665 C3.91741071,10.78125 3.88218473,11.098284 4.20131143,11.2859236 C4.38406804,11.3957868 4.65715679,11.4093889 4.85316687,11.3253348 C5.05789625,11.2440709 5.20542687,11.0609654 5.25146482,10.8736746 L5.25146482,9.78515625 L5.85693357,9.77434429 L5.87681357,9.78515625 L5.89215964,10.7700893 C5.91203964,10.9375 5.95842634,11.1094447 6.13002232,11.2217495 C6.3016183,11.3584682 6.55029295,11.3957868 6.77943643,11.3253348 C7.00857982,11.2440709 7.21086777,11.0389928 7.22412107,10.8231027 L7.22412107,7.68763946 C7.21086777,7.46058875 7.27050786,7.21365795 7.12297714,7.00892857 M9.75376679,4.93338446 C9.63065009,4.73737446 9.4015067,4.5828683 9.17480464,4.5629883 C8.84451732,4.50160437 8.5473633,4.64250839 8.34263393,4.86955911 C8.23904857,4.76806643 8.11383929,4.68645366 7.99909321,4.62472098 C7.70403179,4.52113562 7.32526509,4.53229634 7.08775107,4.72621375 C6.84779571,4.91141179 6.73304964,5.23088732 6.82582312,5.51932196 C7.05461777,6.23779295 7.63602125,6.93638393 8.3666992,7.37897598 C8.73012,7.14320589 9.08447268,6.77106589 9.33349607,6.43171036 C9.58426339,5.98005018 10.0313895,5.48863 9.75376679,4.93338446 M8.97007536,7.99386161 C8.9128767,7.88155696 8.82045196,7.76053295 8.68617464,7.70751955 C8.51213732,7.60393411 8.23904857,7.62590679 8.05629187,7.68763946 C7.84075054,7.79122491 7.69077848,7.9760742 7.67996652,8.203125 L7.67996652,10.5761719 C7.65799384,10.811942 7.70403179,11.0170201 7.87353518,11.1624581 C8.04547991,11.3253348 8.29868857,11.3584682 8.52539062,11.3253348 C8.77406527,11.2747629 9.01402062,11.0609654 9.01402062,10.811942 L9.01402062,8.92159598 C8.98123607,8.59340125 9.07366071,8.32659036 8.97007536,7.99386161 M10.5419921,9.70354357 L9.80015348,9.69273161 C9.70982143,9.70354357 9.58426339,9.67075893 9.51590402,9.71261161 C9.12876679,9.86676893 9.33349607,10.2877371 9.28920196,10.5653599 C9.48311946,10.9552874 9.97384205,10.750558 10.3505162,10.7899693 C10.5221121,10.811942 10.6455776,10.74149 10.7380022,10.6270927 C10.850307,10.4112026 10.7843889,10.1642718 10.8060174,9.93931357 C10.7711356,9.82491625 10.6696429,9.73249161 10.5419921,9.70354357 M12.2307478,6.97823661 C12.0612445,6.7511858 11.6824777,6.64969304 11.4093889,6.80175786 C11.1938477,6.91859652 11.0089983,7.10170196 11.0330636,7.3371233 L11.046317,10.4530553 L11.0791016,10.8956473 C11.101423,11.0808454 11.3323103,11.2859236 11.5593611,11.3253348 C11.957659,11.3671875 12.4135045,11.3584682 12.8337751,11.3166155 C13.0189732,11.2747629 13.1992885,11.1512974 13.2809012,10.9971401 C13.3820452,10.7700893 13.3468192,10.4924665 13.1640625,10.2985491 C12.9725865,10.0913784 12.6534598,10.1224191 12.3782785,10.1224191 C12.3451451,9.17724607 12.3671178,8.25404571 12.3451451,7.31515071 C12.3451451,7.1941267 12.2991071,7.09263393 12.2307478,6.97823661 M14.9452428,6.26883375 C14.8416573,6.09235491 14.6372768,5.94029018 14.4545201,5.88727679 C14.1594587,5.80601286 13.8267299,5.86774554 13.6111886,6.09235491 C13.3932059,6.31033759 13.3269392,6.64969304 13.4636579,6.92731589 C13.5759626,7.18296598 13.8839286,7.3901367 14.1793387,7.3901367 C14.4785854,7.39885607 14.7297014,7.23597937 14.8992048,7.00892857 C15.0708008,6.81291857 15.0708008,6.484375 14.9452428,6.26883375 M18.2631138,8.8089425 L19.3132673,8.79813054 C19.2672294,8.67466518 19.1172572,8.59340125 18.9808873,8.54248045 C18.7761579,8.48981589 18.5627093,8.52050786 18.3998326,8.64397321 C18.3555385,8.68373321 18.2631138,8.75627786 18.2631138,8.8089425 M20.5904715,8.54248045 C20.4077148,7.92340964 19.7140067,7.42989679 19.0049526,7.35700339 C18.2059152,7.29771205 17.430943,7.67647875 17.0654296,8.30252509 C16.9750977,8.4699358 16.917899,8.64397321 16.8718611,8.82672991 C16.7926897,8.8089425 16.7023577,8.83998321 16.645159,8.8089425 L16.645159,7.21365795 L16.6779437,7.18296598 L17.2481864,7.18296598 C17.4881418,7.15227402 17.7040318,7.05984929 17.8292411,6.85477125 C17.9439871,6.64969304 17.9241071,6.38985768 17.7612304,6.21582036 C17.5101144,5.86774554 17.0082311,6.01074214 16.600865,5.98005018 C16.2772043,6.01074214 15.9141322,5.92947821 15.6410436,6.06375554 C15.4251535,6.17606027 15.2755302,6.36125839 15.2755302,6.58796036 L15.2755302,8.8089425 C15.1611329,8.87067518 15.0024414,8.82672991 14.8552595,8.83998321 C14.8200335,8.4699358 14.9762835,8.08872768 14.7052874,7.7999442 C14.5225307,7.60393411 14.2717634,7.54429411 14.0339007,7.60393411 C13.8267299,7.67647875 13.6223493,7.84179688 13.5759626,8.046875 C13.55399,8.93031527 13.55399,9.82491625 13.5648019,10.6996373 C13.5759626,10.9134347 13.6683873,11.098284 13.8511439,11.2350028 C14.0339007,11.3584682 14.3178013,11.3584682 14.500558,11.2440709 C14.9762835,11.0170201 14.8088728,10.5235072 14.8552595,10.0913784 L14.8416573,10.0739397 L15.2755302,10.0739397 L15.2755302,10.1531111 L15.2975028,13.0751255 C15.2975028,13.2777623 15.3194754,13.4737723 15.4914202,13.6080496 C15.6522043,13.7712751 15.9029715,13.8131278 16.1296736,13.7712751 C16.3807896,13.7203544 16.609933,13.515625 16.645159,13.2690429 L16.645159,10.4112026 L16.655971,10.0519671 L16.8718611,10.0519671 C16.9290597,10.1224191 16.9290597,10.2368164 16.9750977,10.3295898 C17.1930804,10.9375 17.9241071,11.4181082 18.6178153,11.4488002 C19.1172572,11.4093889 19.7558594,11.6249303 20.1014928,11.2440709 C20.2357701,11.0808454 20.2954102,10.8339146 20.2270508,10.6270927 C20.1346261,10.4112026 19.9054827,10.2765764 19.6655273,10.2458845 L18.5142299,10.2458845 C18.4238979,10.1949637 18.3314732,10.1136998 18.2875279,10.0408063 L19.1877093,10.0408063 C19.6327428,9.99023438 20.1785714,10.1754325 20.4537528,9.81619696 C20.6584821,9.4458008 20.7509068,8.95228795 20.5904715,8.54248045 M22.5917271,3.78766741 C23.7098912,5.67801339 22.9924665,8.13058036 21.781529,9.78969027 C19.6261161,13.3855329 16.0041155,16.8802316 12.1051897,19.2246791 L11.8763951,19.1849191 C7.34514509,16.4327567 3.44168527,12.3918805 1.24441964,8.15464562 C0.255998929,6.17606027 0.837402321,3.71930804 2.57219589,2.20772875 C4.28048268,0.663365 7.09228518,0.174037411 9.32233536,1.07945036 C10.3372629,1.4254325 11.1938477,2.15715679 11.922433,2.9813058 L11.9862584,2.95479911 C13.55399,0.945173036 16.2332589,0.231236071 18.8155692,0.812988304 C20.3724888,1.20291571 21.9464983,2.40164625 22.5917271,3.78766741" id="形狀" fill="#D61918" fill-rule="nonzero"></path>
                </g>
            </g>
        </g>
    </g>
</svg>