<svg xmlns="http://www.w3.org/2000/svg" xmlns:xlink="http://www.w3.org/1999/xlink" width="250" height="24" viewBox="0 0 250 24">
    <defs>
        <path id="prefix__a" d="M0 0.073L21.629 0.073 21.629 21.037 0 21.037z"/>
        <path id="prefix__c" d="M0 0.039L20.583 0.039 20.583 5.71 0 5.71z"/>
        <path id="prefix__e" d="M0.003 0.03L20.6 0.03 20.6 7.978 0.003 7.978z"/>
    </defs>
    <g fill="none" fill-rule="evenodd">
        <g transform="translate(146.375 .96)">
            <mask id="prefix__b" fill="#fff">
                <use xlink:href="#prefix__a"/>
            </mask>
            <path fill="#FEFDFC" fill-rule="nonzero" d="M10.817 21.034c-3.573 0-7.146 0-10.72.003-.084 0-.097-.021-.097-.105C.002 14.014.002 7.096 0 .177 0 .094.012.073.097.073c7.143.002 14.287.002 21.43 0 .089 0 .102.023.102.11-.002 6.918-.002 13.836 0 20.754 0 .077-.012.1-.091.1-3.574-.003-7.147-.003-10.72-.003" mask="url(#prefix__b)"/>
            <path fill="#3F9846" fill-rule="nonzero" d="M10.746.652c3.337 0 6.674 0 10.011-.003.1 0 .128.022.128.132-.004 2.867-.004 5.734 0 8.6 0 .108-.024.133-.127.133-6.677-.003-13.355-.003-20.033-.003-.132 0-.132 0-.132-.134V.787c0-.135 0-.135.131-.135h10.022"/>
            <path fill="#2C6AA4" fill-rule="nonzero" d="M10.736 20.334c-3.338 0-6.675 0-10.013.002-.1 0-.135-.019-.134-.135.007-.572.005-1.145.002-1.718 0-.082.018-.106.1-.106 6.695.002 13.39.002 20.086 0 .082 0 .107.019.107.11-.004.576-.005 1.152 0 1.728 0 .096-.022.121-.115.121-3.344-.002-6.689-.002-10.033-.002"/>
            <path fill="#2C6BA4" fill-rule="nonzero" d="M14.439 13.293l-.555.684c-.144.18-.142.18-.286-.001l-.557-.696c-.025.041-.016.08-.016.115 0 .568-.002 1.137.002 1.706 0 .085-.022.109-.102.105-.151-.007-.303-.004-.455 0-.058 0-.074-.02-.074-.08.001-.936.002-1.872 0-2.809 0-.064.017-.086.08-.084.148.004.297.004.445 0 .06-.003.1.021.138.067.2.244.4.486.602.729.079.096.079.096.162-.003.2-.238.402-.476.6-.717.045-.056.093-.08.164-.077.128.006.256.007.384 0 .08-.004.101.022.1.105-.002.658 0 1.315 0 1.972 0 .265-.004.53 0 .795.002.076-.012.106-.092.102-.141-.007-.283-.007-.425 0-.08.004-.093-.028-.093-.104.003-.561.001-1.123.001-1.685v-.114l-.023-.01M5.916 13.308c.255-.201.5-.21.756-.142.086.023.166.064.221.14.036.049.056.03.094.004.271-.192.564-.225.867-.103.199.08.307.244.31.466.005.484 0 .968.002 1.452 0 .058-.013.082-.073.08-.138-.004-.276-.003-.414 0-.059.002-.076-.02-.076-.079.003-.396.001-.791.006-1.187.002-.173-.083-.274-.257-.282-.163-.009-.281.096-.282.26-.003.396-.003.792 0 1.187.001.076-.012.107-.092.102-.131-.008-.263-.006-.394 0-.07.003-.084-.023-.084-.09.003-.378.002-.756.002-1.134 0-.166-.051-.247-.177-.282-.142-.04-.309.025-.373.143-.02.037-.017.075-.017.114 0 .385-.002.77.002 1.155 0 .075-.02.097-.09.094-.121-.006-.243-.004-.364 0-.056 0-.085-.01-.085-.08.003-.636.002-1.272 0-1.909 0-.059.017-.08.075-.079.107.004.216.004.323 0 .091-.002.183-.013.12.17M1.497 13.721c0-.462.002-.925-.002-1.388 0-.079.018-.102.095-.101.553.003 1.106.004 1.66 0 .082 0 .102.026.098.107-.006.117-.006.234 0 .35.006.086-.016.114-.103.113-.357-.005-.715 0-1.072-.004-.086-.001-.11.026-.104.113.007.112.005.226 0 .339-.003.07.019.09.085.089.364-.004.729 0 1.093-.004.077 0 .107.017.102.104-.008.123-.006.247-.001.37.003.074-.02.097-.09.096-.361-.004-.722 0-1.083-.004-.083-.001-.107.022-.106.11.004.365 0 .729.003 1.092 0 .076-.013.108-.093.103-.131-.007-.263-.006-.394 0-.074.004-.09-.024-.09-.096.004-.463.002-.926.002-1.389M10.553 16.091l.231-.587c.05-.127.097-.256.152-.381.028-.064.025-.118 0-.181-.221-.56-.44-1.122-.66-1.683-.043-.107-.043-.107.068-.107.135 0 .27.002.405-.001.057-.002.088.013.11.075.114.31.235.616.353.923l.05.126.302-.834c.035-.095.042-.226.115-.274.069-.045.183-.014.277-.015.07 0 .142.007.212 0 .083-.01.089.018.061.091-.164.433-.324.867-.486 1.3-.181.486-.365.971-.543 1.459-.026.073-.06.093-.13.091-.168-.005-.336-.002-.517-.002M17.06 15.204h-.488c-.025 0-.048 0-.05-.036-.012-.133-.072-.09-.14-.046-.277.176-.726.089-.922-.175-.229-.31-.126-.77.221-.997.187-.121.393-.138.605-.12.014.001.027.008.04.007.045-.004.11.04.13-.001.028-.056-.023-.113-.062-.156-.05-.057-.116-.084-.189-.092-.21-.023-.41.004-.592.126-.013.01-.028.015-.057.03 0-.166.002-.32 0-.473 0-.047.025-.062.06-.072.334-.103.67-.128 1.001.004.262.104.385.306.385.597 0 .304-.002.608 0 .912.002.162-.022.326.059.492M5.095 15.204h-.49c-.027 0-.046-.01-.047-.042-.004-.12-.056-.084-.124-.05-.263.134-.53.144-.78-.022-.352-.233-.369-.741-.047-1.048.206-.196.452-.236.716-.212.027.003.054.011.08.01.033 0 .077.028.095-.005.018-.032-.005-.074-.026-.108-.052-.088-.132-.128-.227-.14-.228-.026-.442.016-.65.167v-.487c0-.034.015-.053.044-.062.386-.116.77-.155 1.137.062.181.108.268.282.268.502 0 .374.002.749-.001 1.123-.001.105.017.203.052.312M19.984 14.635c0 .15-.001.295.001.44 0 .044-.017.062-.054.073-.174.053-.352.076-.53.042-.265-.051-.423-.27-.426-.574-.002-.28-.002-.558.001-.837 0-.068-.015-.091-.083-.09-.08.001-.185.04-.232-.02-.038-.05-.012-.155-.013-.236-.001-.067.003-.135-.002-.201-.005-.068.022-.09.082-.08h.01c.237-.003.237-.003.237-.256 0-.22 0-.221.2-.292l.307-.106c.009-.003.02 0 .037 0 0 .188.003.375-.002.561-.002.076.023.098.092.094.098-.005.196.002.293-.002.057-.003.08.015.078.076-.003.13-.003.261 0 .392 0 .055-.02.075-.072.073-.104-.003-.21.001-.313-.002-.055-.002-.078.011-.077.075.003.233-.002.466.002.7.001.145.061.201.199.209.088.004.172-.019.265-.039M9.481 13.726c0-.463.002-.926-.002-1.39 0-.086.025-.108.103-.104.125.006.25.007.374 0 .08-.005.094.026.094.102-.002.926-.002 1.853 0 2.779 0 .076-.022.095-.09.093-.132-.006-.264-.006-.396 0-.068.003-.085-.022-.084-.09.002-.464.001-.927.001-1.39M18.53 13.818c-.156-.033-.302-.08-.456-.042-.152.037-.201.096-.201.259 0 .357-.003.714.002 1.07 0 .08-.02.104-.097.1-.138-.006-.276-.003-.414 0-.051.001-.071-.012-.07-.07v-1.919c0-.052.016-.066.064-.065.125.003.25.006.374 0 .092-.005.165-.002.136.15.191-.173.39-.161.594-.101.037.01.07.02.068.073-.002.18 0 .36 0 .545"/>
            <path fill="#2D6BA4" fill-rule="nonzero" d="M8.57 14.172c0-.312.003-.623-.001-.934-.001-.07.02-.09.086-.088.124.005.25.004.374 0 .056 0 .077.016.077.078-.003.632-.003 1.265-.003 1.898 0 .06-.016.08-.074.08-.125-.005-.25-.006-.375 0-.068.003-.086-.022-.085-.09.003-.315.001-.63.001-.944M9.198 12.593c0 .207-.153.369-.351.369-.212 0-.378-.164-.376-.37.002-.204.165-.364.37-.364.2 0 .355.16.357.365"/>
            <path fill="#FEFEFB" fill-rule="nonzero" d="M16.467 14.485c0 .204-.018.228-.212.261-.06.01-.12.008-.18-.01-.15-.04-.212-.113-.205-.242.008-.138.11-.252.243-.268.04-.005.081-.003.121 0 .221.015.233.03.233.26"/>
            <path fill="#FEFDFC" fill-rule="nonzero" d="M4.506 14.482c0 .206-.031.244-.229.267-.053.006-.106.003-.16-.012-.15-.041-.212-.112-.206-.24.006-.137.106-.252.24-.27.04-.006.08-.004.12-.001.222.013.235.029.235.256"/>
        </g>
        <g fill="#FFF" fill-rule="nonzero">
            <path d="M14.126 12.021L16.045 0.859 19.043 0.859 17.184 12.021 14.126 12.021" transform="translate(1.992 5.76)"/>
            <path d="M14.126 12.021L16.584.859 19.043.859 17.184 12.021 14.126 12.021M27.239.506C26.649.253 25.707 0 24.529 0c-2.947 0-5.068 1.582-5.068 3.86 0 1.708 1.473 2.593 2.652 3.163 1.178.57 1.532.949 1.532 1.455 0 .76-.943 1.139-1.768 1.139-1.179 0-1.827-.19-2.828-.633l-.413-.19-.412 2.594c.707.317 2.003.633 3.358.633 3.123 0 5.186-1.582 5.186-3.986 0-1.329-.766-2.34-2.534-3.163-1.06-.57-1.709-.886-1.709-1.456 0-.506.53-1.012 1.709-1.012 1.002 0 1.709.19 2.239.443l.295.127.47-2.468" transform="translate(1.992 5.76)"/>
            <path d="M27.239.506C26.649.253 25.707 0 24.529 0c-2.947 0-4.538 1.582-4.538 3.86 0 1.708.943 2.593 2.122 3.163 1.178.57 1.532.949 1.532 1.455 0 .76-.943 1.139-1.768 1.139-1.179 0-1.827-.19-2.828-.633l-.413-.19-.412 2.594c.707.317 2.003.633 3.358.633 3.123 0 5.186-1.582 5.186-3.986 0-1.329-.766-2.34-2.534-3.163-1.06-.57-1.709-.886-1.709-1.456 0-.506.53-1.012 1.709-1.012 1.002 0 1.709.19 2.239.443l.295.127.47-2.468M31.805 8.3c.176-.558 1.171-3.287 1.171-3.287s.234-.682.41-1.116l.175 1.054s.586 2.791.703 3.411h-2.459V8.3zM33.152.86c-.703 0-1.23.062-1.522.806L27.239 12.02H30.4l.586-1.86h3.746l.351 1.86h2.81L35.435.859h-2.283z" transform="translate(1.992 5.76)"/>
            <path d="M31.805 8.3c.234-.62 1.171-3.287 1.171-3.287s.234-.682.41-1.116l.175 1.054s.586 2.791.703 3.411h-2.459V8.3zM33.855.86c-.703 0-1.23.062-1.523.806L27.239 12.02H30.4l.586-1.86h3.746l.351 1.86h2.81L35.435.859h-1.58zM8.73 8.61l-.296-1.612c-.533-1.86-2.25-3.907-4.143-4.9l2.663 9.923h3.197L14.945.859H11.75L8.73 8.61" transform="translate(1.992 5.76)"/>
            <path d="M8.73 8.61l-.296-1.612c-.533-1.86-2.25-3.907-4.143-4.9l2.663 9.923h3.197L14.945.859h-2.604L8.73 8.61" transform="translate(1.992 5.76)"/>
            <path d="M.193.859l.55.12c3.915.901 6.606 3.185 7.646 5.89L7.288 1.76C7.104 1.04 6.554.86 5.88.86H.193" transform="translate(1.992 5.76)"/>
            <path d="M.193.859c3.914.91 7.156 3.278 8.196 6.01l-1.04-4.31c-.184-.729-.795-1.154-1.468-1.154L.193.859" transform="translate(1.992 5.76)"/>
            <path d="M.193.859c3.914.91 7.156 3.278 8.196 6.01l-.734-2.368c-.184-.728-.428-1.457-1.285-1.76L.193.859" transform="translate(1.992 5.76)"/>
            <path d="M11.667 8.157l-2.023-2.19-.951 2.448-.238-1.61c-.536-1.932-2.26-4.057-4.164-5.088l2.677 10.304h3.212l1.487-3.864M16.584 12.021L13.82 9.445 13.306 12.021 16.584 12.021M23.98 7.728c.227.256.34.448.283.705 0 .768-.908 1.153-1.702 1.153-1.135 0-1.759-.192-2.723-.64l-.398-.193-.397 2.627c.681.32 1.93.64 3.234.64 1.816 0 3.291-.576 4.142-1.601l-2.44-2.691M27.239 12.02H30.1l.61-1.965h3.896l.365 1.966h2.922l-1.035-4.785-3.653-3.801.183 1.048s.609 2.95.73 3.605h-2.556c.243-.655 1.217-3.474 1.217-3.474s.244-.72.426-1.18" transform="translate(1.992 5.76)"/>
        </g>
        <g fill-rule="nonzero">
            <path fill="#EE9F39" d="M31.705 10.004c0 5.483-4.228 9.965-9.512 9.965-5.233 0-9.511-4.482-9.511-9.965S16.909.04 22.143.04c5.334 0 9.562 4.481 9.562 9.964" transform="translate(57.45 1.92)"/>
            <path fill="#E9833A" d="M22.193.04c5.234 0 9.512 4.481 9.512 9.964 0 5.483-4.228 9.965-9.512 9.965-5.233 0-9.511-4.482-9.511-9.965" transform="translate(57.45 1.92)"/>
            <path fill="#E46F37" d="M22.193.04c5.234 0 9.512 4.481 9.512 9.964 0 5.483-4.228 9.965-9.512 9.965" transform="translate(57.45 1.92)"/>
            <path fill="#DD4352" d="M9.41.04C4.228.092 0 4.52 0 10.004c0 5.483 4.227 9.965 9.511 9.965 2.466 0 4.68-1.002 6.392-2.584.352-.316.654-.685.956-1.054h-1.963c-.251-.316-.503-.685-.704-1.002h3.371c.202-.316.403-.685.554-1.054h-4.479c-.15-.317-.302-.686-.403-1.055h5.234c.302-1.001.504-2.056.504-3.163 0-.738-.101-1.424-.202-2.109h-5.837c.05-.37.15-.685.251-1.054h5.234c-.1-.37-.252-.739-.403-1.055h-4.428c.15-.369.352-.685.553-1.054h3.372c-.201-.37-.453-.739-.755-1.055h-1.862c.302-.369.604-.685.956-1.002-1.66-1.634-3.925-2.583-6.39-2.583 0-.105 0-.105-.051-.105" transform="translate(57.45 1.92)"/>
            <path fill="#DB3242" d="M0 10.004c0 5.483 4.227 9.965 9.511 9.965 2.466 0 4.68-1.002 6.392-2.584.352-.316.654-.685.956-1.054h-1.963c-.251-.316-.503-.685-.704-1.002h3.371c.202-.316.403-.685.554-1.054h-4.479c-.15-.317-.302-.686-.403-1.055h5.234c.302-1.001.504-2.056.504-3.163 0-.738-.101-1.424-.202-2.109h-5.837c.05-.37.15-.685.251-1.054h5.234c-.1-.37-.252-.739-.403-1.055h-4.428c.15-.369.352-.685.553-1.054h3.372c-.201-.37-.453-.739-.755-1.055h-1.862c.302-.369.604-.685.956-1.002-1.66-1.634-3.925-2.583-6.39-2.583H9.41" transform="translate(57.45 1.92)"/>
            <path fill="#D32C34" d="M9.511 19.969c2.466 0 4.68-1.002 6.392-2.584.352-.316.654-.685.956-1.054h-1.963c-.251-.316-.503-.685-.704-1.002h3.371c.202-.316.403-.685.554-1.054h-4.479c-.15-.317-.302-.686-.403-1.055h5.234c.302-1.001.504-2.056.504-3.163 0-.738-.101-1.424-.202-2.109h-5.837c.05-.37.15-.685.251-1.054h5.234c-.1-.37-.252-.739-.403-1.055h-4.428c.15-.369.352-.685.553-1.054h3.372c-.201-.37-.453-.739-.755-1.055h-1.862c.302-.369.604-.685.956-1.002-1.66-1.634-3.925-2.583-6.39-2.583H9.41" transform="translate(57.45 1.92)"/>
            <path fill="#FFFFFE" d="M12.883 12.535l.151-.896c-.05 0-.15.052-.251.052-.353 0-.403-.21-.353-.316l.302-1.845h.554l.15-1.002h-.502l.1-.633h-1.006s-.604 3.48-.604 3.902c0 .632.352.896.805.896.302 0 .554-.105.654-.158M14.997 9.319c.553 0 .453.685.453.738h-1.107c0-.053.1-.738.654-.738zm-1.762 1.529c0 1.476.957 1.845 1.762 1.845.755 0 1.057-.158 1.057-.158l.201-1.002s-.554.264-1.057.264c-1.107 0-.906-.844-.906-.844h2.064s.15-.685.15-.949c0-.685-.352-1.529-1.459-1.529-1.057-.105-1.812 1.055-1.812 2.373zM21.388 12.535l.201-1.16s-.503.264-.855.264c-.705 0-1.007-.58-1.007-1.213 0-1.265.604-1.95 1.309-1.95.503 0 .906.316.906.316l.15-1.108s-.603-.263-1.157-.263c-1.157 0-2.315 1.054-2.315 3.058 0 1.318.604 2.214 1.812 2.214.403 0 .956-.158.956-.158M7.549 10.742c0 .159-.1 1.002-.705 1.002-.302 0-.402-.264-.402-.422 0-.263.15-.632.905-.632.151.052.202.052.202.052zM7.347 8.37c-.704 0-1.207.21-1.207.21l-.151.897s.453-.21 1.107-.21c.352 0 .654.052.654.368 0 .211-.05.264-.05.264h-.453c-.856 0-1.812.369-1.812 1.581 0 .95.604 1.16.956 1.16.705 0 1.007-.474 1.057-.474l-.05.422h.906l.402-2.9c0-1.265-1.006-1.318-1.359-1.318zM9.662 12.64c.252 0 1.51.053 1.51-1.37 0-1.319-1.208-1.055-1.208-1.582 0-.264.202-.37.554-.37.15 0 .704.054.704.054l.151-.95s-.352-.105-.956-.105c-.755 0-1.51.316-1.51 1.37 0 1.214 1.259 1.108 1.259 1.583 0 .316-.353.369-.604.369-.453 0-.906-.159-.906-.159l-.151.95c.05.105.302.21 1.157.21M29.29 10.32c0 .58-.252 1.319-.806 1.319-.352 0-.554-.317-.554-.844 0-.844.353-1.37.806-1.37.352 0 .553.263.553.896zm.452-2.794l-.201 1.424s-.403-.527-.956-.527c-.906 0-1.711 1.16-1.711 2.53 0 .844.402 1.74 1.258 1.74.604 0 .956-.422.956-.422l-.05.37h1.006l.755-5.062-1.057-.053zM1.862 12.588L2.466 8.792 2.567 12.588 3.271 12.588 4.58 8.792 4.026 12.588 5.083 12.588 5.888 7.526 4.227 7.526 3.221 10.637 3.17 7.526 1.711 7.526.906 12.588 1.862 12.588M17.463 12.588c.302-1.74.352-3.164 1.057-2.9.1-.686.251-.95.352-1.213h-.201c-.453 0-.806.633-.806.633l.101-.58h-.956l-.654 4.112h1.107v-.052M23.955 10.742c0 .159-.1 1.002-.705 1.002-.302 0-.402-.264-.402-.422 0-.263.15-.632.905-.632.151.052.151.052.202.052zm-.252-2.372c-.704 0-1.208.21-1.208.21l-.15.897s.452-.21 1.106-.21c.353 0 .655.052.655.368 0 .211-.05.264-.05.264h-.454c-.855 0-1.811.369-1.811 1.581 0 .95.604 1.16.956 1.16.704 0 1.006-.474 1.057-.474l-.05.422h.905l.403-2.9c.05-1.265-1.007-1.318-1.359-1.318zM25.917 12.588c.302-1.74.353-3.164 1.057-2.9.1-.686.252-.95.352-1.213h-.2c-.454 0-.806.633-.806.633l.1-.58h-.956l-.654 4.112h1.107v-.052" transform="translate(57.45 1.92)"/>
            <path fill="#C9D6D0" d="M11.323 11.797c0 .632.352.896.805.896.353 0 .655-.105.755-.158l.151-.896c-.05 0-.15.052-.251.052-.353 0-.403-.21-.353-.316l.302-1.845h.554l.15-1.002h-.502l.1-.633M14.997 9.319c.553 0 .654.685.654.738h-1.308c0-.053.1-.738.654-.738zm-1.258 1.529c0 1.476.453 1.845 1.258 1.845.755 0 1.057-.158 1.057-.158l.201-1.002s-.554.264-1.057.264c-1.107 0-.906-.844-.906-.844h2.064s.15-.685.15-.949c0-.685-.352-1.529-1.459-1.529-1.057-.105-1.308 1.055-1.308 2.373zM21.388 12.535l.201-1.16s-.503.264-.855.264c-.705 0-1.007-.58-1.007-1.213 0-1.265.604-1.95 1.309-1.95.503 0 .906.316.906.316l.15-1.108s-.603-.263-1.157-.263c-1.157 0-1.811 1.054-1.811 3.058 0 1.318.1 2.214 1.308 2.214.403 0 .956-.158.956-.158M8.052 10.742c0 .159-.604 1.002-1.208 1.002-.302 0-.402-.264-.402-.422 0-.263.15-.632.905-.632.151.052.705.052.705.052zM5.989 9.53s.453-.211 1.107-.211c.352 0 .654.053.654.369 0 .21-.05.263-.05.263h-.453c-.856 0-1.812.37-1.812 1.582 0 .95.604 1.16.956 1.16.705 0 1.007-.474 1.057-.474l-.05.421h.906l.402-2.9c0-1.212-1.006-1.265-1.409-1.265L5.99 9.53zM8.555 12.535s.302.105 1.158.105c.251 0 1.51.053 1.51-1.37 0-1.319-1.208-1.055-1.208-1.582 0-.264.201-.37.553-.37.151 0 .705.054.705.054l.15-.95s-.351-.105-.955-.105c-.755 0-1.007.316-1.007 1.37 0 1.214.755 1.108.755 1.583 0 .316-.352.369-.604.369M29.49 10.32c0 .58-.452 1.319-1.006 1.319-.352 0-.554-.317-.554-.844 0-.844.353-1.37.806-1.37.352 0 .754.263.754.896zm.05-1.37s-.402-.527-.955-.527c-.906 0-1.208 1.16-1.208 2.53 0 .844-.1 1.74.755 1.74.604 0 .956-.422.956-.422l-.05.37h1.006l.755-5.062-1.258 1.37zM1.862 12.588L2.466 8.792 2.567 12.588 3.271 12.588 4.58 8.792 4.026 12.588 5.083 12.588 5.888 7.526 4.63 7.526 3.221 10.637 3.17 7.526 2.617 7.526.906 12.588 1.862 12.588M16.406 12.588h1.057c.302-1.74.352-3.164 1.057-2.9.1-.686.251-.95.352-1.213h-.201c-.453 0-.806.633-.806.633l.101-.58M24.408 10.742c0 .159-.604 1.002-1.208 1.002-.302 0-.403-.264-.403-.422 0-.263.151-.632.906-.632.201.052.705.052.705.052zM22.344 9.53s.453-.211 1.107-.211c.353 0 .655.053.655.369 0 .21-.05.263-.05.263h-.454c-.855 0-1.811.37-1.811 1.582 0 .95.604 1.16.956 1.16.704 0 1.006-.474 1.057-.474l-.05.421h.905l.403-2.9c0-1.212-1.007-1.265-1.41-1.265L22.345 9.53zM24.86 12.588h1.057c.302-1.74.353-3.164 1.057-2.9.1-.686.252-.95.352-1.213h-.2c-.454 0-.806.633-.806.633l.1-.58" transform="translate(57.45 1.92)"/>
        </g>
        <g fill-rule="nonzero">
            <path fill="#006546" d="M0 23L21.992 23 21.992 0.882 0 0.882z" transform="translate(107.171)"/>
            <path fill="#FFF" d="M13.751 21.232v.846H8.388v-.847h-4.06c-.396 0-.718-.404-.718-.9L1.912 3.625c0-.497.396-.9.884-.9h16.4c.488 0 .884.403.884.9L18.4 20.331c0 .496-.323.9-.72.9h-3.93" transform="translate(107.171)"/>
            <path fill="#F60" d="M4.78 5.49H15.3c-1.036.361-4.189 2.35-4.976 3.686h-5.53L4.78 5.49" transform="translate(107.171)"/>
            <path fill="#FE000C" d="M13.386 16.549c-.152 1.318-.157 2.923-.157 4.608H8.606c0-1.685.076-3.29.227-4.608h4.553" transform="translate(107.171)"/>
            <path fill="#006546" d="M4.781 12.862L6.693 12.862 6.693 13.478 5.856 13.478 5.856 13.996 6.693 13.996 6.693 14.515 5.856 14.515 5.856 15.033 6.693 15.033 6.693 15.627 4.781 15.627 4.781 12.862M8.606 12.862L10.518 12.862 10.518 13.478 9.681 13.478 9.681 13.996 10.518 13.996 10.518 14.515 9.681 14.515 9.681 15.033 10.518 15.033 10.518 15.627 8.606 15.627 8.606 12.862M13.386 12.862L15.299 12.862 15.299 13.478 14.462 13.478 14.462 13.996 15.299 13.996 15.299 14.515 14.462 14.515 14.462 15.033 15.299 15.033 15.299 15.627 13.386 15.627 13.386 12.862M7.769 15.033L8.606 15.033 8.606 15.627 6.693 15.627 6.693 12.862 7.769 12.862 7.769 15.033M10.518 12.862L10.916 15.627 11.947 15.627 12.43 12.862 11.834 12.862 11.521 14.731 11.219 12.862 10.518 12.862M15.37 15.627L16.184 15.627 16.184 12.862 15.37 12.862zM16.255 13.737c.063-.294.69-.215.69-.047v1.937h1.222V13.35c0-.483-1.018-.677-1.904-.252" transform="translate(107.171)"/>
            <path fill="#FE000C" d="M13.962 12.862c.095-1.199 1.696-3.156 3.25-3.67V4.568c-4.272 1.957-7.05 4.918-7.65 8.283l4.4.011" transform="translate(107.171)"/>
            <path fill="#006546" d="M14.938 17.781c-.025-.013-.064-.02-.118-.02h-.084v.196h.089c.041 0 .072-.004.093-.012.038-.014.057-.043.057-.085 0-.039-.012-.065-.037-.079zm-.105-.089c.068 0 .118.007.15.02.057.024.085.07.085.14 0 .048-.018.085-.053.108-.019.012-.045.021-.08.026.043.007.074.025.094.054.02.03.03.058.03.085v.081c.002.015.003.024.006.029l.003.007h-.09l-.001-.006-.002-.006-.001-.018v-.043c0-.063-.018-.105-.053-.126-.02-.011-.057-.017-.108-.017h-.077v.216h-.096v-.55h.193zm-.296-.027c-.084.084-.126.186-.126.304 0 .12.042.222.126.306.083.085.185.127.304.127.12 0 .222-.042.306-.127.084-.084.125-.186.125-.306 0-.118-.041-.22-.125-.304-.085-.084-.186-.126-.306-.126-.118 0-.22.042-.304.126zm.659.658c-.098.098-.216.147-.354.147-.139 0-.257-.049-.354-.147-.097-.097-.145-.216-.145-.354 0-.138.049-.255.147-.353.096-.097.214-.146.352-.146.138 0 .256.049.354.146.098.097.147.215.147.353 0 .138-.05.256-.147.354z" transform="translate(107.171)"/>
        </g>
        <g>
            <path fill="#D61918" fill-rule="nonzero" d="M22.059 3.216c1.101 1.73.985 4.35-.158 6.025-2.16 4.148-6.035 8.236-10.342 10.78h-.125C6.871 17.277 2.896 12.957.605 8.567c-.846-1.772-.732-4.2.457-5.783C2.591.624 5.152-.296 7.841.123c1.347.248 2.517.84 3.56 1.826.288-.179.572-.486.88-.705 1.983-1.456 5.302-1.664 7.46-.39.97.523 1.802 1.446 2.318 2.362" transform="translate(185.578 1.92)"/>
            <path stroke="#FFF" stroke-width="2.294" d="M22.059 3.216c1.1 1.73.985 4.35-.158 6.025-2.16 4.148-6.035 8.236-10.343 10.78h-.124C6.87 17.277 2.896 12.957.605 8.567c-.846-1.772-.732-4.2.457-5.783C2.591.624 5.152-.296 7.841.123c1.347.248 2.517.84 3.56 1.826.288-.179.572-.486.88-.704C14.263-.212 17.582-.42 19.74.854c.97.523 1.802 1.446 2.318 2.362z" transform="translate(185.578 1.92)"/>
            <path fill="#FFF" fill-rule="nonzero" d="M22 3.391c1.302 2.296.36 5.192-1.043 7.145-2.147 3.611-5.549 7.05-9.365 9.321h-.158C6.94 17.187 2.819 12.792.694 8.391-.37 6.254.233 3.634 1.945 1.976 3.609.273 6.154-.144 8.472.42c1.07.285 2.073.866 2.848 1.73.042.043.114.016.158.016C13.221.18 16.21-.32 18.684.513 20.103.988 21.315 2.135 22 3.39" transform="translate(185.578 1.92)"/>
            <path stroke="#FFF" stroke-width="2.294" d="M22 3.391c1.302 2.296.36 5.192-1.043 7.145-2.147 3.611-5.549 7.05-9.365 9.321h-.158C6.94 17.187 2.819 12.792.694 8.391-.37 6.254.233 3.634 1.945 1.976 3.609.273 6.154-.144 8.472.421c1.07.284 2.073.865 2.848 1.73.042.042.114.015.158.015C13.221.18 16.21-.32 18.684.513 20.103.988 21.315 2.135 22 3.391z" transform="translate(185.578 1.92)"/>
            <path fill="#D61918" fill-rule="nonzero" d="M6.81 7.021c-.164-.207-.424-.32-.698-.247-.24.04-.438.258-.478.475l-.015 1.326-.019.033-.579.01-.01-.731c-.034-.37.086-.866-.37-1.04-.175-.084-.415-.084-.58 0-.446.216-.305.73-.328 1.13v2.534c.013.289-.021.607.284.795.175.11.436.123.623.039.196-.081.337-.265.381-.452v-1.09l.58-.012.018.011.015.987c.019.168.063.34.227.452.164.137.402.175.621.104.22-.081.413-.287.426-.503V7.7c-.013-.227.044-.475-.097-.68m2.515-2.079c-.117-.196-.337-.351-.553-.371-.316-.062-.6.08-.796.307-.099-.102-.219-.183-.328-.245-.283-.104-.645-.093-.872.101-.23.186-.339.506-.25.795.218.72.774 1.42 1.473 1.863.348-.236.686-.61.924-.95.24-.452.668-.944.402-1.5m-.749 3.066c-.055-.113-.143-.234-.271-.287-.167-.104-.428-.082-.603-.02-.206.104-.35.289-.36.516v2.378c-.02.236.023.441.185.587.165.163.407.196.624.163.238-.05.467-.265.467-.514V8.937c-.031-.329.057-.596-.042-.93M10.08 9.72l-.71-.01c-.086.01-.206-.022-.271.02-.37.154-.175.576-.217.854.186.39.655.185 1.015.225.164.022.282-.049.37-.163.108-.217.045-.464.065-.69-.033-.114-.13-.207-.252-.236m1.615-2.73c-.162-.227-.525-.329-.786-.176-.206.117-.382.3-.36.536l.013 3.121.032.444c.02.185.242.39.459.43.38.042.816.033 1.218-.009.177-.042.35-.165.428-.32.097-.227.063-.505-.112-.7-.183-.207-.488-.176-.751-.176-.032-.947-.01-1.872-.032-2.812 0-.121-.044-.223-.11-.338m2.596-.71c-.099-.177-.294-.33-.469-.382-.282-.082-.6-.02-.806.205-.209.218-.272.558-.141.836.107.256.401.464.684.464.286.009.526-.154.688-.382.164-.196.164-.525.044-.741m3.173 2.544l1.004-.01c-.044-.124-.188-.206-.318-.257-.196-.052-.4-.022-.556.102-.042.04-.13.113-.13.165m2.225-.267c-.175-.62-.838-1.114-1.516-1.187-.764-.06-1.505.32-1.854.947-.087.168-.142.342-.186.525-.075-.018-.162.013-.216-.018V7.226l.031-.03h.545c.23-.031.436-.124.556-.33.11-.205.09-.465-.065-.64-.24-.348-.72-.205-1.11-.236-.31.031-.656-.05-.917.084-.207.113-.35.298-.35.525v2.225c-.11.062-.261.018-.402.031-.033-.37.116-.752-.143-1.041-.175-.197-.415-.257-.642-.197-.198.073-.394.238-.438.444-.021.885-.021 1.781-.01 2.657.01.214.098.4.273.537.175.123.446.123.621.009.455-.228.295-.722.34-1.155l-.014-.018h.415v.08l.021 2.927c0 .203.021.4.186.534.153.163.393.205.61.163.24-.05.459-.256.493-.503V10.43l.01-.36h.206c.055.071.055.186.1.279.208.609.907 1.09 1.57 1.12.477-.039 1.088.177 1.419-.204.128-.164.185-.411.12-.618-.089-.217-.308-.352-.537-.382h-1.101c-.087-.051-.175-.133-.217-.206h.86c.426-.05.948.135 1.211-.225.196-.37.285-.865.131-1.276m1.914-4.763c1.069 1.894.383 4.35-.775 6.013-2.061 3.602-5.524 7.103-9.252 9.451l-.22-.04C7.024 16.461 3.292 12.413 1.19 8.168.245 6.188.8 3.727 2.46 2.213 4.092.665 6.78.174 8.913 1.082c.97.346 1.79 1.079 2.486 1.904l.061-.026C12.96.947 15.521.232 17.991.814c1.489.391 2.994 1.592 3.61 2.98" transform="translate(185.578 1.92)"/>
            <path stroke="#FFF" stroke-width="2.294" d="M6.81 7.021c-.164-.207-.424-.32-.698-.247-.24.04-.438.258-.478.475l-.015 1.326-.019.033-.579.01-.01-.731c-.034-.37.086-.866-.37-1.04-.175-.084-.415-.084-.58 0-.446.216-.305.73-.328 1.13v2.534c.012.289-.021.607.284.795.175.11.436.123.623.039.196-.081.337-.265.381-.452v-1.09l.58-.012.018.011.015.987c.019.168.063.34.227.452.164.137.402.175.621.104.22-.081.413-.287.426-.503V7.7c-.013-.227.044-.474-.097-.68zm2.516-2.079c-.117-.196-.337-.351-.553-.37-.316-.063-.6.079-.796.306-.099-.102-.22-.183-.328-.245-.283-.104-.645-.093-.872.101-.23.186-.339.506-.25.795.218.72.774 1.42 1.473 1.863.348-.236.686-.61.924-.95.24-.452.668-.944.402-1.5zm-.749 3.066c-.055-.113-.143-.234-.272-.287-.166-.104-.427-.082-.602-.02-.206.104-.35.289-.36.516v2.378c-.02.236.023.441.185.587.165.163.407.196.624.163.238-.05.467-.265.467-.514V8.937c-.031-.329.057-.596-.042-.93zM10.08 9.72l-.71-.011c-.086.01-.206-.022-.271.02-.37.154-.175.576-.217.854.186.39.655.185 1.015.225.164.022.282-.049.37-.163.108-.217.044-.464.065-.69-.033-.114-.13-.207-.252-.235zm1.615-2.73c-.162-.228-.525-.33-.786-.177-.206.117-.383.3-.36.536l.013 3.121.032.444c.02.185.242.39.458.43.382.042.817.033 1.22-.009.176-.042.349-.165.427-.32.097-.227.063-.505-.112-.7-.183-.207-.488-.176-.751-.176-.032-.947-.01-1.872-.032-2.812 0-.121-.044-.223-.11-.338zm2.595-.711c-.099-.177-.295-.33-.47-.382-.281-.082-.6-.02-.805.205-.209.218-.272.558-.141.837.107.255.401.463.684.463.286.009.526-.154.688-.382.164-.196.164-.525.044-.741zm3.173 2.545l1.004-.012c-.044-.123-.188-.205-.318-.256-.196-.052-.4-.022-.556.102-.042.04-.13.113-.13.166zm2.225-.268c-.175-.62-.838-1.114-1.516-1.187-.764-.06-1.505.32-1.854.947-.087.168-.142.342-.186.525-.076-.017-.162.013-.217-.017V7.227l.032-.032h.545c.23-.03.436-.123.556-.328.11-.206.09-.466-.065-.64-.24-.35-.72-.206-1.11-.237-.31.031-.656-.05-.917.084-.207.113-.35.298-.35.526v2.225c-.11.061-.261.017-.402.03-.034-.37.116-.752-.143-1.041-.175-.197-.415-.257-.642-.197-.198.073-.394.238-.438.444-.021.885-.021 1.781-.01 2.657.01.214.098.4.273.537.175.123.446.123.621.009.455-.228.295-.722.339-1.155l-.013-.018h.415v.08l.021 2.927c0 .203.021.4.185.534.154.163.394.205.61.163.24-.05.46-.256.493-.503V10.43l.011-.36h.206c.055.071.055.186.1.279.208.609.907 1.09 1.57 1.12.477-.039 1.088.177 1.419-.204.128-.164.185-.41.12-.618-.089-.217-.308-.352-.537-.382h-1.101c-.087-.051-.175-.133-.217-.206h.86c.426-.05.948.135 1.211-.225.196-.37.285-.865.13-1.276zm1.914-4.763c1.069 1.894.382 4.35-.775 6.013-2.061 3.602-5.524 7.103-9.252 9.451l-.22-.04C7.024 16.461 3.292 12.413 1.19 8.17.245 6.187.8 3.726 2.46 2.212 4.092.665 6.78.174 8.913 1.082c.97.346 1.79 1.079 2.486 1.904l.061-.026C12.96.947 15.521.232 17.991.814c1.488.391 2.994 1.592 3.61 2.98z" transform="translate(185.578 1.92)"/>
            <path fill="#D61918" fill-rule="nonzero" d="M22.059 3.216c1.101 1.73.985 4.35-.158 6.025-2.16 4.148-6.035 8.236-10.342 10.78h-.125C6.871 17.277 2.896 12.957.605 8.567c-.846-1.772-.732-4.2.457-5.783C2.591.624 5.152-.296 7.841.123c1.347.248 2.517.84 3.56 1.826.288-.179.572-.486.88-.705 1.983-1.456 5.302-1.664 7.46-.39.97.523 1.802 1.446 2.318 2.362" transform="translate(185.578 1.92)"/>
            <path fill="#FFF" fill-rule="nonzero" d="M22 3.391c1.302 2.296.36 5.192-1.043 7.145-2.147 3.611-5.549 7.05-9.365 9.321h-.158C6.94 17.187 2.819 12.792.694 8.391-.37 6.254.233 3.634 1.945 1.976 3.609.273 6.154-.144 8.472.42c1.07.285 2.073.866 2.848 1.73.042.043.114.016.158.016C13.221.18 16.21-.32 18.684.513 20.103.988 21.315 2.135 22 3.39" transform="translate(185.578 1.92)"/>
            <path fill="#D61918" fill-rule="nonzero" d="M6.81 7.021c-.164-.207-.424-.32-.698-.247-.24.04-.438.258-.478.475l-.015 1.326-.019.033-.579.01-.01-.731c-.034-.37.086-.866-.37-1.04-.175-.084-.415-.084-.58 0-.446.216-.305.73-.328 1.13v2.534c.013.289-.021.607.284.795.175.11.436.123.623.039.196-.081.337-.265.381-.452v-1.09l.58-.012.018.011.015.987c.019.168.063.34.227.452.164.137.402.175.621.104.22-.081.413-.287.426-.503V7.7c-.013-.227.044-.475-.097-.68m2.515-2.079c-.117-.196-.337-.351-.553-.371-.316-.062-.6.08-.796.307-.099-.102-.219-.183-.328-.245-.283-.104-.645-.093-.872.101-.23.186-.339.506-.25.795.218.72.774 1.42 1.473 1.863.348-.236.686-.61.924-.95.24-.452.668-.944.402-1.5m-.749 3.066c-.055-.113-.143-.234-.271-.287-.167-.104-.428-.082-.603-.02-.206.104-.35.289-.36.516v2.378c-.02.236.023.441.185.587.165.163.407.196.624.163.238-.05.467-.265.467-.514V8.937c-.031-.329.057-.596-.042-.93M10.08 9.72l-.71-.01c-.086.01-.206-.022-.271.02-.37.154-.175.576-.217.854.186.39.655.185 1.015.225.164.022.282-.049.37-.163.108-.217.045-.464.065-.69-.033-.114-.13-.207-.252-.236m1.615-2.73c-.162-.227-.525-.329-.786-.176-.206.117-.382.3-.36.536l.013 3.121.032.444c.02.185.242.39.459.43.38.042.816.033 1.218-.009.177-.042.35-.165.428-.32.097-.227.063-.505-.112-.7-.183-.207-.488-.176-.751-.176-.032-.947-.01-1.872-.032-2.812 0-.121-.044-.223-.11-.338m2.596-.71c-.099-.177-.294-.33-.469-.382-.282-.082-.6-.02-.806.205-.209.218-.272.558-.141.836.107.256.401.464.684.464.286.009.526-.154.688-.382.164-.196.164-.525.044-.741m3.173 2.544l1.004-.01c-.044-.124-.188-.206-.318-.257-.196-.052-.4-.022-.556.102-.042.04-.13.113-.13.165m2.225-.267c-.175-.62-.838-1.114-1.516-1.187-.764-.06-1.505.32-1.854.947-.087.168-.142.342-.186.525-.075-.018-.162.013-.216-.018V7.226l.031-.03h.545c.23-.031.436-.124.556-.33.11-.205.09-.465-.065-.64-.24-.348-.72-.205-1.11-.236-.31.031-.656-.05-.917.084-.207.113-.35.298-.35.525v2.225c-.11.062-.261.018-.402.031-.033-.37.116-.752-.143-1.041-.175-.197-.415-.257-.642-.197-.198.073-.394.238-.438.444-.021.885-.021 1.781-.01 2.657.01.214.098.4.273.537.175.123.446.123.621.009.455-.228.295-.722.34-1.155l-.014-.018h.415v.08l.021 2.927c0 .203.021.4.186.534.153.163.393.205.61.163.24-.05.459-.256.493-.503V10.43l.01-.36h.206c.055.071.055.186.1.279.208.609.907 1.09 1.57 1.12.477-.039 1.088.177 1.419-.204.128-.164.185-.411.12-.618-.089-.217-.308-.352-.537-.382h-1.101c-.087-.051-.175-.133-.217-.206h.86c.426-.05.948.135 1.211-.225.196-.37.285-.865.131-1.276m1.914-4.763c1.069 1.894.383 4.35-.775 6.013-2.061 3.602-5.524 7.103-9.252 9.451l-.22-.04C7.024 16.461 3.292 12.413 1.19 8.168.245 6.188.8 3.727 2.46 2.213 4.092.665 6.78.174 8.913 1.082c.97.346 1.79 1.079 2.486 1.904l.061-.026C12.96.947 15.521.232 17.991.814c1.489.391 2.994 1.592 3.61 2.98" transform="translate(185.578 1.92)"/>
        </g>
        <g>
            <path fill="#FFF" d="M0 0H21.992V22.08H0z" transform="translate(225.737 .96)"/>
            <g>
                <path fill="#E61F1A" d="M5.307 12.972c-1.387.01-2.516-1.11-2.543-2.524-.026-1.36 1.121-2.483 2.554-2.5 1.327-.015 2.447 1.114 2.455 2.476.009 1.4-1.093 2.538-2.466 2.548m.053-7.694C2.476 5.274.133 7.562.127 10.391c-.007 2.906 2.257 5.222 5.104 5.223 2.877.001 5.191-2.25 5.196-5.056.006-2.91-2.265-5.276-5.067-5.28m7.983.686c-.109-.419-.185-.791-.303-1.15-.266-.816-1.057-1.223-1.9-.996-.774.208-1.278.992-1.099 1.79.534 2.374 1.078 4.746 1.64 7.113.212.89 1.024 1.384 1.857 1.19.86-.2 1.358-.987 1.181-1.9-.107-.554-.209-1.115-.382-1.65-.14-.43.03-.675.34-.915.092.077.18.15.267.225.973.848 1.94 1.704 2.922 2.542.753.643 1.702.517 2.288-.28.51-.695.388-1.596-.327-2.228-.941-.833-1.896-1.65-2.845-2.473-.092-.08-.18-.166-.277-.256.476-.576.938-1.122 1.385-1.68.584-.727.48-1.722-.23-2.32-.71-.598-1.577-.502-2.217.255-.67.792-1.333 1.592-1.999 2.388-.087.104-.177.204-.3.345" transform="translate(225.737 .96) translate(.916 .92)"/>
                <g transform="translate(225.737 .96) translate(.916 .92) translate(0 .03)">
                    <mask id="prefix__d" fill="#fff">
                        <use xlink:href="#prefix__c"/>
                    </mask>
                    <path fill="#E61F1A" d="M18.297.039c.407 0 .812.09 1.17.283.213.116.41.261.58.457.365.425.57.903.532 1.473-.021.31-.275.464-.557.338-2.765-1.231-5.657-1.343-8.597-.971-2.79.353-5.485 1.062-7.997 2.362-.744.385-1.435.872-2.156 1.303-.245.147-.497.294-.765.388-.319.111-.497-.028-.5-.36-.005-1.099-.016-2.198.006-3.295C.03 1.14.678.367 1.536.127h.003c.19-.054.384-.088.581-.088h16.177z" mask="url(#prefix__d)"/>
                </g>
                <g transform="translate(225.737 .96) translate(.916 .92) translate(0 12.935)">
                    <mask id="prefix__f" fill="#fff">
                        <use xlink:href="#prefix__e"/>
                    </mask>
                    <path fill="#E61F1A" d="M10.31 7.971c-2.67 0-5.342-.005-8.013.003-.666.002-1.243-.176-1.715-.667-.37-.384-.571-.835-.575-1.368-.006-.844-.005-1.687 0-2.531.002-.44.177-.557.596-.373 1.079.474 2.186.85 3.353 1.03 1.555.24 3.118.28 4.683.133 2.802-.262 5.518-.891 8.07-2.103.983-.468 1.899-1.077 2.852-1.611.21-.118.434-.278.632-.402.176-.11.405-.045.405.21v5.422c.053 1.293-.966 2.284-2.24 2.264-1.853-.028-3.707-.007-5.56-.007H10.31" mask="url(#prefix__f)"/>
                </g>
                <path fill="#E61F1A" d="M13.343 5.964c.124-.141.214-.241.301-.345.666-.796 1.328-1.596 1.999-2.388.64-.757 1.506-.853 2.217-.254.71.597.814 1.592.23 2.32-.447.557-.909 1.103-1.385 1.679.098.09.185.176.277.256.949.824 1.904 1.64 2.845 2.473.715.632.838 1.533.327 2.228-.586.797-1.535.923-2.288.28-.982-.838-1.949-1.694-2.922-2.542-.086-.076-.175-.148-.267-.225-.31.24-.48.485-.34.915.173.535.275 1.096.382 1.65.177.913-.32 1.7-1.181 1.9-.833.194-1.645-.3-1.856-1.19-.563-2.367-1.107-4.739-1.64-7.112-.18-.8.324-1.583 1.098-1.791.843-.227 1.634.18 1.9.996.118.359.194.731.303 1.15" transform="translate(225.737 .96) translate(.916 .92)"/>
            </g>
        </g>
    </g>
</svg>
