<svg xmlns="http://www.w3.org/2000/svg" xmlns:xlink="http://www.w3.org/1999/xlink" width="90" height="90" viewBox="0 0 90 90">
    <defs>
        <path id="a" d="M0 0h48v48H0z"/>
    </defs>
    <g fill="none" fill-rule="evenodd" transform="translate(21 21)">
        <mask id="b" fill="#fff">
            <use xlink:href="#a"/>
        </mask>
        <path fill="#88C74A" d="M42.986 38.752L32.8 37.68v-5.948c2.367-2.458 2.509-4.614 2.366-7.633a6.997 6.997 0 0 0 3.09-4.332c.187-1.113.21-2.247.069-3.366 1.165-3.91 1.167-6.736 0-10.008C36.052.073 24.39 0 23.896 0c-6.868 0-9.207 2.406-9.982 3.826a.19.19 0 0 1-.15.112c-5.302.452-5.846 7.309-4.048 12.258a11.064 11.064 0 0 0 .034 3.6 7.003 7.003 0 0 0 3.084 4.3c-.136 3.049-.008 5.168 2.366 7.633v5.951L5.014 38.752A5.588 5.588 0 0 0 0 44.32v2.08A1.6 1.6 0 0 0 1.6 48h44.8a1.6 1.6 0 0 0 1.6-1.6v-2.08a5.588 5.588 0 0 0-5.014-5.568zm-24.999-3.511c2.301 3.593 2.98 3.159 7.6 3.159 3.115 0 3.72-2.407 5.613-4.886v4.68c-1.794 2.442-12.64 2.4-14.4.014v-4.694c.458.6.84 1.184 1.187 1.727zm12.46 5.372c-.84 1.26-2.625 2.587-6.447 2.587-3.774 0-5.561-1.318-6.415-2.574 3.163 1.309 9.695 1.313 12.862-.013zm6.23-21.104a5.305 5.305 0 0 1-1.532 2.589c.095-1.638.57-2.88.768-5.94a.858.858 0 0 1 .635-.164c.28.308.34 2 .13 3.515zM13.908 5.533a1.795 1.795 0 0 0 1.404-.926c.493-.904 2.318-3.007 8.585-3.007.11 0 11.03.069 12.926 5.332a12.404 12.404 0 0 1 .346 7.6 2.13 2.13 0 0 0-1.183-.094c.006-.273.012-.543.014-.841a3.572 3.572 0 0 0-2.217-3.32c-4.826-1.984-14.732-1.987-19.564 0A3.574 3.574 0 0 0 12 13.604c0 .297.008.565.014.837a2.139 2.139 0 0 0-1.139.08c-.94-3.595-.774-8.665 3.031-8.988zm-2.579 14.012a12.53 12.53 0 0 1-.068-3.063.795.795 0 0 0 .08-.337.502.502 0 0 1 .05-.114.834.834 0 0 1 .696.13c.195 3.02.674 4.31.769 5.938a5.302 5.302 0 0 1-1.527-2.554zm3.1 4.72c.219-4.753-.793-4.374-.828-10.665a1.979 1.979 0 0 1 1.226-1.84c4.44-1.825 13.906-1.825 18.347 0A1.976 1.976 0 0 1 34.4 13.6c-.033 6.087-1.04 6.057-.828 10.67.125 2.78.04 4.474-2.185 6.625-3.179 3.064-3.204 5.905-5.8 5.905-4.399 0-4.427.429-6.252-2.422a17.584 17.584 0 0 0-2.77-3.536c-2.325-2.274-2.245-4.176-2.136-6.576v-.001zM46.4 46.4H1.6v-2.08a3.992 3.992 0 0 1 3.582-3.978l10.135-1.062c.378 1.75 1.972 5.52 8.683 5.52s8.305-3.77 8.683-5.52l10.135 1.067A3.992 3.992 0 0 1 46.4 44.32v2.08z" mask="url(#b)"/>
    </g>
</svg>
