<svg xmlns="http://www.w3.org/2000/svg" xmlns:xlink="http://www.w3.org/1999/xlink" width="90" height="90" viewBox="0 0 90 90">
    <defs>
        <path id="a" d="M0 0h48v47.992H0z"/>
    </defs>
    <g fill="none" fill-rule="evenodd">
        <g transform="translate(21 21)">
            <mask id="b" fill="#fff">
                <use xlink:href="#a"/>
            </mask>
            <path fill="#88C74A" d="M42.986 38.752L32.8 37.68v-5.949c2.388-2.48 2.489-4.64 2.37-7.635a6.994 6.994 0 0 0 3.085-4.329c.24-1.524.378-4.05-.655-4.968V8.56a3.743 3.743 0 0 0-3.312-3.714C31.242.35 25.094.014 24.792 0h-1.62c-.266.013-6.411.35-9.458 4.842A3.74 3.74 0 0 0 10.4 8.56v6.24c-1.033.922-.897 3.447-.65 4.998a7.001 7.001 0 0 0 3.08 4.298c-.123 3.04-.015 5.157 2.37 7.634v5.95L5.014 38.752A5.588 5.588 0 0 0 0 44.32v2.08A1.6 1.6 0 0 0 1.6 48h44.8a1.6 1.6 0 0 0 1.6-1.6v-2.08a5.588 5.588 0 0 0-5.014-5.568zm-27.403.496c.698.894 2.708 2.352 8.417 2.352 5.71 0 7.72-1.457 8.417-2.351l1.84.193C33.497 41.331 29.503 43.2 24 43.2c-5.461 0-9.44-1.84-10.24-3.76l1.823-.192zm2.4-4.009c2.306 3.603 2.987 3.16 7.609 3.16 3.111 0 3.718-2.404 5.608-4.879v4.678c-1.789 2.433-12.627 2.415-14.4.014V33.52c.457.595.838 1.178 1.184 1.72zm18.694-15.725a5.328 5.328 0 0 1-1.529 2.58c.096-1.644.568-2.88.769-5.937a.85.85 0 0 1 .64-.15c.272.33.329 2.002.12 3.507zM36 8.56v5.88c-.13.024-.259.058-.384.101-.635-1.638-1.82-3.34-3.568-3.34-1.695 0-2.206-2.15-.954-3.162l1.44-1.165A2.131 2.131 0 0 1 36 8.56zM23.208 1.6h1.547c.055 0 4.967.282 7.714 3.49-.715.293-.899.508-2.38 1.704-2.446 1.976-1.215 6.006 1.959 6.006 1.155 0 2.04 2.093 2.257 2.82l-2.974 1.9a3.587 3.587 0 0 0-5.92.08h-2.82a3.59 3.59 0 0 0-5.934-.061l-2.96-1.92c.214-.723 1.103-2.82 2.255-2.82 3.222 0 4.374-4.054 1.958-6.006-1.561-1.262-1.694-1.423-2.38-1.703 2.747-3.208 7.658-3.49 7.678-3.49zm5.192 16a2 2 0 1 1 0 4 2 2 0 0 1 0-4zm-8.8 0a2 2 0 1 1 0 4 2 2 0 0 1 0-4zM15.457 6.87l1.448 1.168a1.752 1.752 0 0 1-.953 3.162c-1.747 0-2.933 1.702-3.567 3.341a2.554 2.554 0 0 0-.385-.102V8.56a2.132 2.132 0 0 1 3.457-1.69zm-4.129 12.675c-.213-1.52-.153-3.248.063-3.513a.84.84 0 0 1 .692.128c.184 2.806.683 4.456.769 5.936a5.312 5.312 0 0 1-1.524-2.55zm3.095 4.73c.16-3.752-.225-3.453-.605-6.667l2.24 1.447a3.584 3.584 0 0 0 5.412 3.617 3.587 3.587 0 0 0 1.693-3.472h1.68a3.587 3.587 0 1 0 7.1-.169l2.24-1.43c-.303 2.57-.753 3.485-.63 6.086.144 3.032.284 4.838-2.166 7.2-3.18 3.077-3.2 5.913-5.795 5.913h-3.184c-2.58 0-2.626-2.845-5.796-5.912-2.372-2.291-2.292-4.199-2.189-6.613zM46.4 46.4H1.6v-2.08a3.992 3.992 0 0 1 3.582-3.978l6.936-.73C12.89 42.579 17.825 44.8 24 44.8s11.11-2.221 11.882-5.187l6.936.73A3.99 3.99 0 0 1 46.4 44.32v2.08z" mask="url(#b)"/>
        </g>
        <path fill="#88C74A" d="M41.358 26.316A8.89 8.89 0 0 1 45 25.594a9.046 9.046 0 0 1 3.644.722.802.802 0 0 0 .712-1.436 11.22 11.22 0 0 0-8.713 0 .802.802 0 0 0 .715 1.435v.001z"/>
    </g>
</svg>
