<svg xmlns="http://www.w3.org/2000/svg" xmlns:xlink="http://www.w3.org/1999/xlink" width="90" height="90" viewBox="0 0 90 90">
    <defs>
        <path id="a" d="M.007 0h51.986v50.992H.007z"/>
    </defs>
    <g fill="none" fill-rule="evenodd">
        <g transform="translate(19 20)">
            <mask id="b" fill="#fff">
                <use xlink:href="#a"/>
            </mask>
            <path fill="#88C74A" d="M.206 47.455a2.522 2.522 0 0 0 .25 2.419A2.63 2.63 0 0 0 2.652 51h46.694c.88.01 1.705-.412 2.198-1.127a2.522 2.522 0 0 0 .249-2.419C46.962 36.246 39.032 34.374 36.4 34.062v-1.154a16.279 16.279 0 0 0 4.542-5.763c2.336.35 4.527-1.204 4.92-3.49.392-2.285-1.158-4.457-3.482-4.878-.82-7.829-7.272-13.94-15.279-14.473-.711-.9-1.292-1.178-.325-3.074a.836.836 0 0 0-.053-.849.872.872 0 0 0-.775-.38.868.868 0 0 0-.724.469c-.945 1.856-.78 2.975-.281 3.833-8.025.511-14.5 6.63-15.323 14.474-2.332.414-3.89 2.59-3.496 4.882.395 2.292 2.596 3.846 4.936 3.486a16.282 16.282 0 0 0 4.54 5.763v1.154c-2.632.312-10.562 2.184-15.394 13.393zm49.991.661a.848.848 0 0 1-.096.819.886.886 0 0 1-.754.365H2.653a.884.884 0 0 1-.754-.365.849.849 0 0 1-.096-.819c4.38-10.162 11.356-12.005 13.797-12.34V37.4c0 5.633 4.656 10.2 10.4 10.2 5.744 0 10.4-4.567 10.4-10.2v-1.624c2.44.334 9.416 2.177 13.797 12.34zM44.2 22.95c0 1.403-1.157 2.543-2.588 2.55.544-1.595.83-3.264.847-4.945a2.553 2.553 0 0 1 1.74 2.395zm-36.4 0a2.554 2.554 0 0 1 1.741-2.396c.017 1.682.303 3.35.847 4.946-1.431-.007-2.588-1.147-2.588-2.55zm3.467-2.55C11.276 12.423 17.867 5.96 26 5.95c0 1.552-.73 1.693-.888 1.7a.866.866 0 0 0-.845.85c0 .47.388.85.867.85.886 0 2.542-.7 2.59-3.292 7.86.908 13.584 7.745 12.964 15.483-.62 7.737-7.362 13.613-15.27 13.306-7.908-.306-14.156-6.685-14.151-14.447zM20.8 35.712a16.549 16.549 0 0 0 10.4 0V37.4c0 2.817-2.328 5.1-5.2 5.1-2.872 0-5.2-2.283-5.2-5.1v-1.688zm-1.733-.68V37.4c0 3.756 3.104 6.8 6.933 6.8 3.83 0 6.933-3.044 6.933-6.8v-2.372a16.548 16.548 0 0 0 1.734-.922V37.4c0 4.694-3.88 8.5-8.667 8.5s-8.667-3.806-8.667-8.5v-3.294c.559.341 1.138.65 1.734.922v.004z" mask="url(#b)"/>
        </g>
        <path fill="#88C74A" d="M45 52c3.308 0 6-2.242 6-5 0-2.757-2.692-5-6-5s-6 2.243-6 5c0 2.758 2.692 5 6 5zm0-8.333c2.363 0 4.286 1.495 4.286 3.333S47.363 50.333 45 50.333c-2.363 0-4.286-1.495-4.286-3.333s1.923-3.333 4.286-3.333z"/>
        <path fill="#88C74A" d="M45 49c1.6 0 3-.935 3-2a1 1 0 0 0-1.95-.312 1.924 1.924 0 0 1-2.1 0A1 1 0 0 0 42 47c0 1.065 1.4 2 3 2z"/>
    </g>
</svg>
