<svg xmlns="http://www.w3.org/2000/svg" width="90" height="90" viewBox="0 0 90 90">
    <path fill="#88C74A" fill-rule="evenodd" d="M68 43c-.007.236-.017.472-.03.707l-.004.078c-.012.217-.028.433-.045.649l-.012.144a26.716 26.716 0 0 1-.15 1.327l-.018.121H28.656a.74.74 0 0 0-.736.743c0 .41.33.744.736.744h38.83a25.693 25.693 0 0 1-3.002 7.89c-2.209 3.772-5.324 6.854-9.018 8.924h-4.22a.74.74 0 0 0-.736.744c0 .41.33.743.736.743h3.68V69H34.081v-3.186h14.221a.74.74 0 0 0 .736-.743.74.74 0 0 0-.736-.744H33.534c-3.693-2.07-6.809-5.152-9.018-8.924a25.694 25.694 0 0 1-3.001-7.89h4.197a.74.74 0 0 0 .736-.744.74.74 0 0 0-.736-.743h-4.453l-.018-.12a27.31 27.31 0 0 1-.15-1.326l-.012-.149a27.27 27.27 0 0 1-.045-.645l-.004-.08c-.013-.235-.023-.47-.03-.706h47zm-39.5-4c1.183 0 2.184.846 2.5 2h-5c.316-1.154 1.317-2 2.5-2zm6.5-2a3.261 3.261 0 0 1 1.06.177l.048.017a3.234 3.234 0 0 1 .279.117l.054.026c.66.33 1.168.88 1.407 1.54.014.04.028.08.04.12l.015.047c.018.063.033.126.046.19l.004.023c.027.14.043.285.045.431v.004l.002.042c0 .446-.117.877-.34 1.266h-5.32a2.523 2.523 0 0 1-.34-1.266C32 38.227 33.346 37 35 37zm10-6c1.654 0 3 1.188 3 2.649 0 .425-.113.834-.326 1.202-.045.049-.089.098-.132.149A5.1 5.1 0 0 0 45 34.336c-.916 0-1.792.233-2.542.664-.043-.05-.087-.1-.132-.149A2.387 2.387 0 0 1 42 33.649C42 32.189 43.346 31 45 31zm8 5.348l-.014.007c-.062.03-.124.061-.185.094l-.004.002a4.399 4.399 0 0 0-2.1 2.549l-.045-.035a4.68 4.68 0 0 0-.118-.09l-.07-.05a4.267 4.267 0 0 0-.42-.262l-.015-.009a4.165 4.165 0 0 0-.214-.107l-.022-.01a4.172 4.172 0 0 0-.974-.313l-.018-.004a4.461 4.461 0 0 0-.8-2.798c.086-.124.166-.252.24-.383A2.72 2.72 0 0 1 50.287 34c1.359 0 2.49 1.016 2.713 2.348zm6.773-14.51c.167-.501.6-.838 1.076-.838.383 0 .727.202.944.555.218.353.266.786.133 1.187L57.154 37a3.62 3.62 0 0 0-1.188-.704l-.032-.01a3.38 3.38 0 0 0-.133-.043l-.042-.013a3.392 3.392 0 0 0-.148-.038l-.02-.005a3.344 3.344 0 0 0-.167-.034l-.052-.008a3.889 3.889 0 0 0-.303-.035l-.051-.003-.018-.001 4.773-14.268zM51 39.735l.001-.04v-.002c.019-1.117.801-2.12 1.933-2.514l.01-.004a3.108 3.108 0 0 1 .63-.147l.021-.002a3.34 3.34 0 0 1 .169-.017c.015 0 .03-.002.044-.003a3.248 3.248 0 0 1 .366-.001l.051.003a3.26 3.26 0 0 1 .298.034l.053.009c.045.008.09.017.134.027l.032.007c.054.012.107.026.16.041l.057.018a3.383 3.383 0 0 1 .328.12l.05.023c.114.053.225.11.33.175l.013.008.11.07.01.008c.147.101.284.215.409.338l.018.019c.028.027.054.055.08.084l.024.026c.418.47.669 1.069.669 1.72 0 .445-.117.876-.34 1.265H51.34A2.519 2.519 0 0 1 51 39.735zM48.5 39a2.503 2.503 0 0 1 .387.032l.07.011c.056.011.112.024.167.038l.084.025a2.322 2.322 0 0 1 .266.097l.087.039c.05.023.098.048.146.075l.072.043a2.56 2.56 0 0 1 .264.183l.04.031c.05.04.097.082.143.126l.028.028a2.59 2.59 0 0 1 .25.279l.02.024c.214.283.378.61.476.969h-5c.316-1.154 1.317-2 2.5-2zM42 37.897c0-.75.297-1.462.836-2.005l.023-.027.031-.027A3.036 3.036 0 0 1 45 35c.795 0 1.544.298 2.11.838l.03.027c.009.009.015.019.024.027a2.832 2.832 0 0 1 .825 2.243A4.701 4.701 0 0 0 44.999 40a4.7 4.7 0 0 0-2.987-1.865 2.69 2.69 0 0 1-.012-.238zm-2.523 2.134l.018-.022a2.773 2.773 0 0 1 .252-.282l.026-.027c.047-.043.094-.086.144-.126l.04-.03a2.732 2.732 0 0 1 .265-.184c.023-.014.047-.029.071-.042.048-.027.097-.053.146-.076.029-.014.058-.026.087-.038a2.506 2.506 0 0 1 .266-.098l.084-.025a2.46 2.46 0 0 1 .168-.037c.023-.005.046-.008.07-.012A2.43 2.43 0 0 1 41.5 39c1.183 0 2.185.846 2.5 2h-5c.098-.358.262-.686.477-.97zM61.5 39c1.183 0 2.184.846 2.5 2h-5c.315-1.154 1.317-2 2.5-2zm8.254 6.824l.008-.064a28.35 28.35 0 0 0 .098-.83l.026-.278.02-.219c.014-.165.026-.33.036-.496l.01-.171a27.873 27.873 0 0 0 .038-.915l.005-.161c.003-.175.005-.35.005-.525a.735.735 0 0 0-.736-.733H65.34a4.108 4.108 0 0 0-6.603-2.46 4.048 4.048 0 0 0-.29-.678l5.523-14.622a2.708 2.708 0 0 0-.314-2.502 2.737 2.737 0 0 0-4.803.595l-4.888 12.947a4.112 4.112 0 0 0-4.86-1.605c-.029-2.229-1.86-4.033-4.106-4.033-2.247 0-4.077 1.804-4.107 4.033a4.121 4.121 0 0 0-1.42-.252.735.735 0 0 0-.736.733c0 .405.33.733.737.733a2.64 2.64 0 0 1 1.96.87c.07.123.146.241.23.356a4.05 4.05 0 0 0-.767 2.596l-.018.003a4.08 4.08 0 0 0-.94.294l-.018.008a4.08 4.08 0 0 0-.213.104l-.007.004c-.073.039-.145.08-.215.122l-.018.012a4.279 4.279 0 0 0-.17.11l-.07.05a4.667 4.667 0 0 0-.11.082c-.016.012-.034.024-.05.038a4.064 4.064 0 0 0-2.193-2.464c.071-.43.25-.833.526-1.182a.73.73 0 0 0-.124-1.03.739.739 0 0 0-1.034.124 4.032 4.032 0 0 0-.799 1.724 4.113 4.113 0 0 0-4.199 2.819 4.109 4.109 0 0 0-6.587 2.471h-3.921a.735.735 0 0 0-.737.733c0 .175.002.35.005.525l.005.161a27.244 27.244 0 0 0 .037.913l.01.174c.011.165.023.33.037.494l.02.225.026.273a29.153 29.153 0 0 0 .098.832l.008.059c.041.306.086.612.137.916a26.613 26.613 0 0 0 3.35 9.137c2.303 3.872 5.535 7.05 9.367 9.217v4.176c0 .405.33.733.737.733H56.17a.735.735 0 0 0 .736-.733v-4.18c3.83-2.166 7.06-5.343 9.36-9.213a26.611 26.611 0 0 0 3.488-10.05z"/>
</svg>
