<svg xmlns="http://www.w3.org/2000/svg" width="90" height="90" viewBox="0 0 90 90">
    <g fill="#88C74A" fill-rule="evenodd">
        <path d="M61.961 28.54a.906.906 0 0 0-1.801.22c.959 7.804 1.188 14.887.664 20.483C60.1 56.96 58 62.037 54.582 64.329c-1.417.95-3.088 1.424-5.004 1.424-2.71 0-5.912-.949-9.58-2.842a34.324 34.324 0 0 0 3.473-3.08c.6.105 1.682.256 3.044.286h.02a.907.907 0 0 0 .02-1.81 19.918 19.918 0 0 1-1.574-.098c1.654-1.88 3.134-3.92 4.456-6.048 1.625-.034 6.518-.444 10.07-3.99a.904.904 0 0 0 0-1.28.909.909 0 0 0-1.283 0c-2.444 2.44-5.738 3.164-7.664 3.376a62.3 62.3 0 0 0 2.57-5.082c1.227-.45 4.83-2.08 6.571-6.174a.908.908 0 0 0-1.67-.707c-.927 2.18-2.524 3.537-3.81 4.328 1.51-3.73 2.655-7.42 3.515-10.746a.907.907 0 0 0-1.757-.453 88.542 88.542 0 0 1-2.177 7.177 15.113 15.113 0 0 1-.743-4.662.907.907 0 0 0-1.815 0c0 3.569 1.135 6.213 1.623 7.185a68.194 68.194 0 0 1-2.297 5.237c-.746-1.636-1.757-4.284-1.757-6.626a.907.907 0 0 0-1.814 0c0 3.487 1.854 7.346 2.533 8.64-1.186 2.199-2.526 4.333-4.036 6.33-1.313-1.663-4.05-5.718-4.05-10.623a.906.906 0 0 0-1.815 0c0 5.863 3.367 10.478 4.708 12.083-1.82 2.19-3.868 4.176-6.173 5.843-.83-.32-2.763-1.173-4.486-2.699-2.933-2.598-3.844-5.852-2.706-9.672.529-1.773 1.938-3.69 4.31-5.86a.904.904 0 0 0 .055-1.28.909.909 0 0 0-1.282-.055c-2.657 2.431-4.19 4.554-4.822 6.68-1.69 5.671.83 9.407 3.24 11.542 1.378 1.22 2.86 2.052 3.946 2.565a268.648 268.648 0 0 1-9 5.987.904.904 0 0 0 .487 1.67.905.905 0 0 0 .486-.141c3.06-1.94 6.412-4.179 9.969-6.658 4.263 2.311 8.019 3.468 11.235 3.468 2.27 0 4.273-.576 5.996-1.731 3.892-2.61 6.26-8.135 7.037-16.421.544-5.805.318-12.828-.67-20.873"/>
        <path d="M37.316 41.79a.905.905 0 0 0 .562-.195c1.878-1.484 3.933-2.946 6.109-4.495 6.331-4.506 12.833-9.133 15.272-14.586.154.93.32 1.984.486 3.135a.908.908 0 0 0 1.796-.258c-.647-4.487-1.29-7.538-1.297-7.568a.908.908 0 0 0-1.795.187c0 6.573-7.888 12.186-15.516 17.615-2.195 1.563-4.268 3.038-6.181 4.55a.904.904 0 0 0 .564 1.616M55.507 56.153c-1.835 1.152-4.073 1.862-6.653 2.108-.524.05-.904.48-.849.958.051.448.465.781.947.781.033 0 .067-.002.1-.005 2.9-.277 5.435-1.086 7.534-2.405.434-.272.544-.815.247-1.212-.298-.396-.892-.497-1.326-.225"/>
    </g>
</svg>
