<svg xmlns="http://www.w3.org/2000/svg" xmlns:xlink="http://www.w3.org/1999/xlink" width="90" height="90" viewBox="0 0 90 90">
    <defs>
        <path id="a" d="M0 0h47v46H0z"/>
    </defs>
    <g fill="none" fill-rule="evenodd" transform="translate(22 22)">
        <mask id="b" fill="#fff">
            <use xlink:href="#a"/>
        </mask>
        <path fill="#88C74A" d="M43.084 7.767c-1.535 1.502-3.553 2.396-5.584 2.484l4.388-4.294a.664.664 0 0 0 0-.953.699.699 0 0 0-.974 0L36.524 9.3c.086-1.975.984-3.943 2.54-5.467 1.546-1.512 3.528-2.395 5.581-2.484a.936.936 0 0 1 .72.281c.177.182.269.421.257.675-.091 2.01-.993 3.95-2.538 5.462zM42.61 16.5a.898.898 0 0 1 0 1.351c-1.517 1.358-3.556 2.106-5.741 2.106-2.202 0-4.258-.77-5.746-2.108h6.29c.38 0 .688-.301.688-.674a.681.681 0 0 0-.689-.673h-6.041c.17-.188.334-.383.489-.585 1.396-.975 3.151-1.523 5.009-1.523 2.185 0 4.224.748 5.74 2.106zm-8.009 7.838a.898.898 0 0 1 0 1.352c-1.517 1.358-3.556 2.106-5.741 2.106-2.24 0-4.33-.797-5.824-2.179h6.44c.38 0 .689-.302.689-.674a.681.681 0 0 0-.689-.674h-6.05c.149-.165.29-.337.425-.513 1.397-.975 3.151-1.523 5.009-1.523 2.185 0 4.224.747 5.741 2.105zm-8.008 7.84a.898.898 0 0 1 0 1.351c-1.517 1.358-3.556 2.106-5.742 2.106-2.278 0-4.401-.825-5.9-2.25h6.59c.38 0 .688-.302.688-.674a.681.681 0 0 0-.689-.674h-6.06c.125-.143.246-.29.362-.442 1.397-.975 3.152-1.524 5.01-1.524 2.185 0 4.224.748 5.74 2.106zm-8.01 7.838a.898.898 0 0 1 0 1.352c-1.516 1.358-3.555 2.106-5.74 2.106-2.316 0-4.473-.852-5.974-2.322h6.736c.38 0 .688-.301.688-.674a.681.681 0 0 0-.688-.673H7.534a8.91 8.91 0 0 0 .3-.371c1.397-.975 3.152-1.524 5.01-1.524 2.185 0 4.224.748 5.74 2.106zM2.724 33.567c0-2.14.764-4.135 2.151-5.62a.935.935 0 0 1 .69-.299c.266 0 .511.106.691.3 1.388 1.484 2.152 3.48 2.152 5.619 0 1.655-.465 3.226-1.3 4.526l-.636.623v-5.895a.681.681 0 0 0-.688-.674.681.681 0 0 0-.689.674v6.593c-1.5-1.47-2.371-3.58-2.371-5.847zm8.008-7.84c0-2.138.764-4.134 2.152-5.619a.935.935 0 0 1 .69-.298c.266 0 .511.106.691.298 1.387 1.485 2.151 3.48 2.151 5.62 0 1.655-.464 3.226-1.299 4.526l-.709.694v-5.895a.681.681 0 0 0-.688-.674.681.681 0 0 0-.689.674v6.45c-1.456-1.467-2.299-3.546-2.299-5.775zm8.01-7.838c0-2.14.763-4.135 2.15-5.62a.935.935 0 0 1 .691-.298c.265 0 .51.106.69.298 1.388 1.485 2.152 3.48 2.152 5.62 0 1.655-.464 3.227-1.299 4.527l-.782.765v-5.896a.681.681 0 0 0-.688-.673.681.681 0 0 0-.689.673v6.305c-1.411-1.462-2.226-3.509-2.226-5.7zm8.008-7.839c0-2.14.764-4.135 2.151-5.62a.935.935 0 0 1 .69-.298c.266 0 .511.106.691.299 1.388 1.484 2.152 3.48 2.152 5.62 0 1.654-.465 3.226-1.3 4.526l-.854.836V9.518a.681.681 0 0 0-.688-.674.681.681 0 0 0-.689.674v6.156c-1.366-1.456-2.153-3.47-2.153-5.624zM44.584.002C42.186.107 39.88 1.13 38.091 2.88c-2.154 2.108-3.219 4.97-2.892 7.717l-1.619 1.585c.15-.69.23-1.404.23-2.132 0-2.477-.892-4.795-2.512-6.529a2.342 2.342 0 0 0-3.414 0c-1.62 1.734-2.512 4.052-2.512 6.53 0 2.79 1.151 5.387 3.116 7.115l-2.917 2.855c.15-.69.23-1.404.23-2.132 0-2.477-.892-4.795-2.512-6.53a2.342 2.342 0 0 0-3.414 0c-1.62 1.734-2.512 4.053-2.512 6.53 0 2.79 1.151 5.387 3.116 7.116l-2.917 2.855c.151-.69.23-1.404.23-2.132 0-2.477-.892-4.796-2.512-6.53a2.342 2.342 0 0 0-3.413 0c-1.62 1.734-2.513 4.053-2.513 6.53 0 2.79 1.151 5.387 3.117 7.116l-2.917 2.855c.15-.69.23-1.404.23-2.132 0-2.477-.893-4.796-2.513-6.53a2.342 2.342 0 0 0-3.413 0c-1.62 1.734-2.512 4.053-2.512 6.53 0 2.79 1.15 5.387 3.116 7.116l-4.26 4.17a.664.664 0 0 0 0 .953.707.707 0 0 0 .973 0l4.27-4.18c1.764 2.012 4.477 3.194 7.398 3.194 2.53 0 4.9-.873 6.671-2.459a2.248 2.248 0 0 0 .753-1.67c0-.633-.275-1.242-.753-1.67-1.771-1.586-4.14-2.46-6.67-2.46-.871 0-1.723.106-2.537.307l3.146-3.08c1.765 2.01 4.478 3.194 7.4 3.194 2.53 0 4.899-.874 6.67-2.46a2.248 2.248 0 0 0 .753-1.67c0-.633-.275-1.242-.753-1.67-1.771-1.586-4.14-2.46-6.67-2.46-.871 0-1.723.106-2.537.307l3.146-3.08c1.764 2.01 4.478 3.194 7.399 3.194 2.53 0 4.9-.874 6.67-2.46a2.248 2.248 0 0 0 .753-1.67c0-.633-.274-1.242-.753-1.67-1.77-1.586-4.14-2.46-6.67-2.46-.87 0-1.723.106-2.537.307l3.147-3.08c1.764 2.01 4.477 3.194 7.398 3.194 2.53 0 4.9-.874 6.671-2.46a2.248 2.248 0 0 0 .753-1.67c0-.633-.274-1.242-.753-1.67-1.771-1.586-4.14-2.46-6.67-2.46-.871 0-1.723.106-2.537.307l1.84-1.8c.328.036.661.055.996.056 2.503 0 5.014-1.053 6.888-2.887 1.79-1.752 2.834-4.009 2.94-6.356A2.217 2.217 0 0 0 46.36.698a2.318 2.318 0 0 0-1.775-.696z" mask="url(#b)"/>
    </g>
</svg>
