<svg xmlns="http://www.w3.org/2000/svg" xmlns:xlink="http://www.w3.org/1999/xlink" width="90" height="90" viewBox="0 0 90 90">
    <defs>
        <path id="a" d="M0 0h50v50H0z"/>
    </defs>
    <g fill="none" fill-rule="evenodd" transform="translate(20 20)">
        <mask id="b" fill="#fff">
            <use xlink:href="#a"/>
        </mask>
        <path fill="#88C74A" d="M1.651 17.496a1.26 1.26 0 0 0-1.56 1.667c2.66 5.926 7.347 12.501 13.068 16.743a28.865 28.865 0 0 0-9.932 2.826 1.45 1.45 0 0 0 0 2.5 26.601 26.601 0 0 0 13.242 2.842 17.67 17.67 0 0 0-1.476 4.442 1.275 1.275 0 0 0 1.668 1.417 14.176 14.176 0 0 0 7.505-5.176v4.409a.833.833 0 0 0 1.668 0v-4.41a14.277 14.277 0 0 0 7.505 5.177 1.276 1.276 0 0 0 1.668-1.417 17.66 17.66 0 0 0-1.451-4.409c4.585.209 9.146-.77 13.242-2.842a1.451 1.451 0 0 0 0-2.5 28.86 28.86 0 0 0-9.957-2.859c5.67-4.15 10.357-10.692 13.068-16.743a1.258 1.258 0 0 0-1.56-1.667c-6.196 1.992-13.259 5.951-18.054 11.143 1.501-9.168-.567-19.694-4.17-27.886a1.242 1.242 0 0 0-2.284 0c-3.544 8.034-5.712 18.602-4.17 27.886-4.678-5.125-11.724-9.117-18.02-11.143zm2.793 22.502c6.046-2.791 13.785-3.833 19.23 0-5.437 3.859-13.234 2.767-19.23 0zm12.359 8.134a15.131 15.131 0 0 1 1.667-4.283 15.844 15.844 0 0 0 5.237-1.917c-1.025 3.067-3.86 5.075-6.904 6.2zm16.394 0c-3.035-1.116-5.837-3.125-6.946-6.2a15.767 15.767 0 0 0 5.237 1.917 15.135 15.135 0 0 1 1.709 4.283zm-6.871-8.134c5.437-3.859 13.234-2.766 19.23 0-6.046 2.792-13.785 3.834-19.23 0zM48.007 19.38c-3.102 6.35-7.997 12.743-14.076 16.451a17.297 17.297 0 0 0-6.338 1.5 28.537 28.537 0 0 0 1.96-5.192c4.395-5.942 11.608-10.35 18.42-12.76h.034zM25 2.32c4.561 11.01 6.471 26.144 0 36.237-6.471-10.101-4.553-25.228 0-36.237zm-2.593 35.045a17.297 17.297 0 0 0-6.338-1.5C9.99 32.123 5.087 25.714 2.026 19.38c6.83 2.417 14.034 6.826 18.42 12.793a28.549 28.549 0 0 0 1.96 5.192z" mask="url(#b)"/>
    </g>
</svg>
